<?xml version="1.0" encoding="utf-8"?>
<!-- Generator: Adobe Illustrator 21.1.0, SVG Export Plug-In . SVG Version: 6.00 Build 0)  -->
<svg version="1.1" id="Layer_1" xmlns="http://www.w3.org/2000/svg" xmlns:xlink="http://www.w3.org/1999/xlink" x="0px" y="0px"
	 viewBox="0 0 225.8 721.1" style="enable-background:new 0 0 225.8 721.1;" xml:space="preserve">
<style type="text/css">
	.st0{fill:#4D9D45;}
	.st1{fill:url(#SVGID_1_);}
</style>
<g>
	<g>
		<path class="st0" d="M115.2,419.6c-4.6-1.7-8.6-1.9-12.1-1.3c1.6,1.1,1.7,3,1.7,3s-3.3-2.9-8.4-0.6c-1.1,0.5-2.1,1.1-3.1,1.8
			c-5.9,4-12.9,14.9-19.5,14.4c0,0-2-0.1-2.1-0.1c0.4,0.2,2.5,1.5,2.6,1.5c2.4,0.9,6.6,3.3,15.2-1.1c9.5-4.9,11.2-10.3,19.8-10.9
			c2.1-0.1,4,0.2,5.8,0.9c6.5,2.4,11.3,8.9,12.9,11.9c0,0,0,0,0,0C128.1,438.9,127.1,423.9,115.2,419.6"/>
		<path class="st0" d="M109.3,426.2c-8.7,0.6-10.3,6-19.8,10.9c-8.5,4.4-12.7,2-15.1,1.1c0,0-2.2-1.3-2.6-1.5c0,0,6,8.8,16.8,10.6
			c2.7,0.4,7.7-0.5,9.7-3.9c0.3,2.4-0.4,3.6-1.1,4.5c10.3-2.1,16-9.1,21.3-10.6c6.6-1.8,9.6,1.8,9.6,1.8c-2-3.7-8.5-12.4-17.2-12.8
			C110.3,426.1,109.8,426.1,109.3,426.2"/>
		
			<linearGradient id="SVGID_1_" gradientUnits="userSpaceOnUse" x1="72.0034" y1="267.748" x2="128.3813" y2="267.748" gradientTransform="matrix(0.999 4.560000e-02 4.560000e-02 -0.999 -12.3673 699.7094)">
			<stop  offset="0" style="stop-color:#6B9A4D"/>
			<stop  offset="1" style="stop-color:#5A8343"/>
		</linearGradient>
		<path class="st1" d="M109.3,426.2c-8.7,0.6-10.3,6-19.8,10.9c-8.5,4.4-12.7,2-15.1,1.1c0,0-2.2-1.3-2.6-1.5c0,0,6,8.8,16.8,10.6
			c2.7,0.4,7.7-0.5,9.7-3.9c0.3,2.4-0.4,3.6-1.1,4.5c10.3-2.1,16-9.1,21.3-10.6c6.6-1.8,9.6,1.8,9.6,1.8c-2-3.7-8.5-12.4-17.2-12.8
			C110.3,426.1,109.8,426.1,109.3,426.2"/>
	</g>
</g>
</svg>
