<?xml version="1.0" encoding="utf-8"?>
<!-- Generator: Adobe Illustrator 21.1.0, SVG Export Plug-In . SVG Version: 6.00 Build 0)  -->
<svg version="1.1" id="Layer_1" xmlns="http://www.w3.org/2000/svg" xmlns:xlink="http://www.w3.org/1999/xlink" x="0px" y="0px"
	 viewBox="0 0 225.8300781 721.0617065" style="enable-background:new 0 0 225.8300781 721.0617065;" xml:space="preserve">
<style type="text/css">
	.st0{fill:#F47421;}
	.st1{opacity:0.9;fill:#A3A3A3;enable-background:new    ;}
	.st2{fill:#00713E;}
	.st3{opacity:0.7;fill:#E6E7E8;enable-background:new    ;}
	.st4{fill:#FFFFFF;}
	.st5{opacity:0.4;fill:#FFFFFF;enable-background:new    ;}
	.st6{opacity:0.2;fill:#FFFFFF;enable-background:new    ;}
	.st7{fill:#4D9D45;}
	.st8{fill:#F36C21;}
	.st9{fill:#FFF200;}
	.st10{fill:#63A95B;}
	.st11{fill:#DCDDE6;}
	.st12{fill:url(#SVGID_1_);}
	.st13{opacity:0.78;fill:url(#SVGID_2_);}
	.st14{clip-path:url(#SVGID_6_);fill:#232C64;}
	.st15{fill:#F36C21;stroke:#FFFFFF;stroke-width:2.5134499;stroke-miterlimit:10;}
	.st16{fill:#00498F;stroke:#FFFFFF;stroke-width:1.61729;stroke-linecap:round;stroke-linejoin:round;}
	.st17{fill:#48A842;}
	.st18{fill:url(#SVGID_9_);}
	.st19{fill:#232C64;}
</style>
<g>
	<path class="st0" d="M52.4463539,134.3097839c-22.2351189,36.0768433-37.3039551,70.386673-39.2673187,106.3162689
		s-16.7590141,55.1433868-12.3692055,82.8540497c3.1413856,19.8299866,8.835146,12.9581909,8.835146,35.3405762v236.1929321
		c0,0-7.0681171,8.2461548-6.6754436,22.7750244c0.3926733,14.5289307-0.7853463,89.52948,33.7698936,96.5975952
		s45.1574173-11.3875122,45.1574173-11.3875122s2.7427368,18.0629883,31.0181961,18.0629883
		s31.0181885-18.0629883,31.0181885-18.0629883s10.6021729,18.4556274,45.1574249,11.3875122
		s33.3772125-82.0686646,33.7698822-96.5975952c0.3926849-14.5288696-6.6754303-22.7750244-6.6754303-22.7750244
		l1.9633636-236.1929321c0-22.3823853,3.7303925-15.5105896,6.8717804-35.3405762
		c4.389801-27.7106628-10.405838-46.924469-12.3692169-82.8540497
		c-1.9633636-35.9295959-17.032196-70.2394257-39.2673187-106.3162689H52.4463539z"/>
	<polygon class="st1" points="9.6449757,358.8168945 9.6449757,595.0136108 217.1725464,595.0136108 219.148468,358.8168945 	"/>
	<path class="st2" d="M156.4189148,59.2110329c1.0297089-0.0965309,1.9750214-0.263382,2.8236694-0.46521
		c2.9106293-0.6922073,4.9345245-3.3378029,4.8320312-6.3278503c-0.2856445-8.3331642-1.5153503-25.8713379-2.4105988-38.0213699
		c-0.5422058-7.3587575-6.5168152-13.1353416-13.8893433-13.4370708l-13.0402374-0.533685
		c-13.8737946-0.5677989-27.765007-0.5677989-41.6387939,0l-13.0402374,0.533685
		C72.682869,1.2612625,66.7082596,7.037847,66.1660461,14.3966045c-0.8952332,12.1500301-2.1249466,29.6882038-2.4105911,38.0213699
		c-0.1024933,2.9900475,1.9214096,5.635643,4.8320312,6.3278503c0.8486481,0.201828,1.7939682,0.368679,2.8236618,0.46521
		C71.4111481,59.2110367,156.4189148,59.2110367,156.4189148,59.2110329z"/>
	<path class="st3" d="M71.4111481,59.2110329c0,0-9.7186584,0.5890121-9.7186584,3.8285637
		c0,3.2395554,11.4856949,3.2395554,11.4856949,3.2395554s2.5032883,31.9537811-19.7318306,68.030632h120.9373627
		c-22.2351074-36.0768509-19.7318268-68.030632-19.7318268-68.030632s11.4857025,0,11.4857025-3.2395554
		c0-3.2395515-9.7186737-3.8285637-9.7186737-3.8285637H71.4111481z"/>
	<path class="st4" d="M44.764801,693.4526978"/>
	<path class="st5" d="M26.4315891,340.8648376h30.1339893c-0.7693481-2.3654175-32.4852905-17.7862854-18.108387-42
		c9.5-16,19.8799744-35.5944214,14.3595276-52.3648682c-9.508667-28.8862,5.9591675-60.6319885,32.7815552-102.9862061
		c21.3858032-33.7694702,17.833313-77.0722656,17.833313-77.0722656H86.7556229
		c0.1181641,1.5039062,2.6044922,37.2885742-21.9160156,77.0722656
		c-24.0068359,38.9511719-35.4365234,69.5654297-37.0595703,99.2646484
		c-0.9628906,17.6293945-3.167469,31.887207-7.9589844,43.4985352
		C6.0982552,319.5314941,26.4315891,340.8648376,26.4315891,340.8648376z"/>
	<path class="st5" d="M41.8077698,607.2871094H19.2030334c-6.6771536,74.3994751,22.3661957,88.5952148,33.4911957,88.507019
		C52.6942291,695.7941284,28.1411037,654.0743408,41.8077698,607.2871094z"/>
	<path class="st6" d="M85.7673569,7.235888c4.2892838-0.1855822,9.3691864-0.3782444,14.207077-0.4948721v41.75H73.5571136
		l1.2457123-30.2728481C75.0478516,12.2636766,79.8133926,7.4934945,85.7673569,7.235888z"/>
	<g>
		<g>
			<g>
				<path class="st7" d="M171.3427277,402.5269775c4.3252258-3.1831665,9.0663147-4.0664978,14.7501526-3.9814758
					l23.3380585,0.1092224l-4.1229095,22.4547119c-1.2012177,4.9434204-3.2410736,9.4839172-7.6448517,12.7216797
					c-9.0101166,6.6347656-22.2088928,5.0062561-29.4812622-3.6377563
					C160.9159546,421.5479126,162.3293457,409.1617432,171.3427277,402.5269775"/>
			</g>
			<path class="st8" d="M57.1392593,447.4104614l-10.4428482-12.8469849
				c0.0080299-0.0225525,0.0160866-0.0417786,0.0208588-0.0657959l2.7544174-9.1192932
				c0.2409668-0.8127747,0.2409668-1.543457-0.0031242-1.6173096c-0.252121-0.0771484-0.6568642,0.5331726-0.9042168,1.3457947
				l-2.584198,8.5765686l-10.404232-12.8004456c-0.565258-0.7002869-1.3443146-1.0119629-1.7296524-0.7002869
				c-0.385498,0.3114929-0.2392921,1.1387329,0.3259659,1.8373718l8.7900314,10.8088074l-7.2707253,1.0986023
				c-0.8833313,0.1573792-1.5706177,0.5075378-1.5257225,0.7741394c0.0481911,0.2713623,0.8142815,0.3629456,1.6992302,0.2088623
				l7.4506454-1.1292114c0.1236763-0.0240173,0.2424202-0.0481873,0.3582001-0.0786133l12.0696068,14.8448792
				c0.5670395,0.7002869,1.345932,1.0135803,1.7297897,0.7002869
				C57.8554955,448.9363403,57.7061653,448.1091003,57.1392593,447.4104614z"/>
			<path class="st8" d="M25.4256172,417.5583801c-0.4032631,3.9059753,2.4427624,7.4008179,6.3406887,7.803894
				c3.9028873,0.4047546,7.4024601-2.4429321,7.8024349-6.3408508c0.4030952-3.901062-2.4429283-7.4039307-6.3424988-7.8022766
				C29.3283138,410.8127747,25.8270702,413.6619263,25.4256172,417.5583801"/>
			<path class="st9" d="M32.5050735,426.4222412c-0.2777786,0-0.5588455-0.0128174-0.8463249-0.0448914
				c-4.1566277-0.4304199-7.2949028-3.9059753-7.2949028-8.0802002c0-0.2810669,0.014473-0.5621338,0.0434189-0.8432007
				c0.4304256-4.1581116,3.9059849-7.2963867,8.0802116-7.2980347c0.2777748,0,0.5588417,0.0128174,0.8399086,0.0434265
				c4.161396,0.4287415,7.2996712,3.9074402,7.3013153,8.0881042c0,0.2746277-0.0111847,0.5573425-0.0434189,0.8384094
				C40.1532402,423.285614,36.6809425,426.4191284,32.5050735,426.4222412L32.5050735,426.4222412z M32.4841843,412.2019958
				c-3.075613,0-5.7288609,2.3995056-6.0403805,5.4639282c-0.0241756,0.2103577-0.0353584,0.4239807-0.0353584,0.6312256
				c0,3.1285706,2.348032,5.7288513,5.4639397,6.046936c0.2119923,0.0192566,0.4223385,0.030426,0.6326885,0.030426
				c3.0805473,0,5.7321777-2.3978577,6.0469589-5.4558716c0.0175972-0.2120056,0.0320702-0.4223328,0.0320702-0.6311951
				c0.0016441-3.0851746-2.3995094-5.7433777-5.4654198-6.0501099c-0.21035-0.0239868-0.4223404-0.0353394-0.6312065-0.0353394
				H32.4841843L32.4841843,412.2019958z"/>
			<path class="st4" d="M28.9252148,417.9197083c-0.2024517,1.973877,1.2351151,3.7388916,3.2024174,3.9429626
				c1.9723969,0.2055969,3.7374115-1.2319641,3.9429893-3.2025757c0.2008095-1.9691162-1.2351151-3.7373962-3.2040596-3.944458
				C30.8974514,414.5164795,29.1260242,415.9538879,28.9252148,417.9197083"/>
			<path class="st7" d="M55.2985954,425.5662231c-0.8688545,3.0499268-4.040844,4.8182678-7.087677,3.9494019
				c-3.046669-0.8673706-4.8149719-4.0474243-3.9411812-7.0957336c0.9186859-3.2346497,8.6245804-9.348877,8.6245804-9.348877
				S56.2237244,422.3284302,55.2985954,425.5662231"/>
			<path class="st10" d="M50.7549896,421.2281799c1.6429787,0.5476685,2.5265007,2.3192444,1.9819374,3.9622192
				c-0.5445366,1.6430054-2.319252,2.5327454-3.9605865,1.9836121c-1.6429825-0.5445557-2.5343666-2.3208923-1.9867096-3.9622498
				C47.3340034,421.5687866,49.1136513,420.680542,50.7549896,421.2281799"/>
			<path class="st10" d="M51.8310661,417.335022c0.7178802,0.2409363,1.1034088,1.0150757,0.862442,1.7314758
				c-0.2376213,0.7131042-1.010128,1.0984497-1.7280083,0.8607788c-0.7163963-0.236145-1.1002541-1.0117493-0.8640862-1.7281799
				C50.3390617,417.4828796,51.1115456,417.0973816,51.8310661,417.335022"/>
			<path class="st11" d="M50.7549896,421.2281799c1.6429787,0.5476685,2.5265007,2.3192444,1.9819374,3.9622192
				c-0.5445366,1.6430054-2.319252,2.5327454-3.9605865,1.9836121c-1.6429825-0.5445557-2.5343666-2.3208923-1.9867096-3.9622498
				C47.3340034,421.5687866,49.1136513,420.680542,50.7549896,421.2281799"/>
			<path class="st11" d="M51.8310661,417.335022c0.7178802,0.2409363,1.1034088,1.0150757,0.862442,1.7314758
				c-0.2376213,0.7131042-1.010128,1.0984497-1.7280083,0.8607788c-0.7163963-0.236145-1.1002541-1.0117493-0.8640862-1.7281799
				C50.3390617,417.4828796,51.1115456,417.0973816,51.8310661,417.335022"/>
			<path class="st7" d="M33.4847755,429.8335266c2.5891342-0.4111633,5.0142975,1.3492432,5.425457,3.9332886
				c0.4159241,2.5891418-1.3523788,5.0174255-3.9413452,5.4318542c-2.7448807,0.4320679-10.0090294-3.2120972-10.0090294-3.2120972
				S30.7367706,430.2672119,33.4847755,429.8335266"/>
			<path class="st10" d="M31.8144932,434.7514648c-0.1638031-1.4230957,0.8593159-2.7047729,2.2775059-2.8669128
				c1.4245453-0.1621704,2.7045593,0.8560181,2.8667183,2.2791138c0.1687393,1.4165039-0.8560257,2.7029419-2.274189,2.8700256
				C33.2616005,437.1942139,31.9782982,436.1727295,31.8144932,434.7514648"/>
			<path class="st11" d="M31.8144932,434.7514648c-0.1638031-1.4230957,0.8593159-2.7047729,2.2775059-2.8669128
				c1.4245453-0.1621704,2.7045593,0.8560181,2.8667183,2.2791138c0.1687393,1.4165039-0.8560257,2.7029419-2.274189,2.8700256
				C33.2616005,437.1942139,31.9782982,436.1727295,31.8144932,434.7514648"/>
			<g>
				<path class="st7" d="M114.5372162,413.3231201c-3.825592-1.3877258-7.1212311-1.575531-10.0138245-1.0808411
					c1.3234329,0.9121094,1.3908615,2.4411316,1.3908615,2.4411316s-2.7351761-2.3561096-6.9656525-0.5348511
					c-0.8800354,0.4529419-1.7168198,0.9492798-2.5230179,1.4648743
					c-4.8970337,3.3165588-10.6226349,12.2993469-16.121933,11.9411316
					c-0.0401306-0.0016479-1.6686096-0.0802612-1.6992264-0.0787659c0.3325424,0.162323,2.0975494,1.2046814,2.1376801,1.1982727
					c2.0140076,0.7724609,5.4767685,2.722168,12.5162582-0.8977966c7.8632889-4.0441589,9.2156601-8.513916,16.3722534-8.9989014
					c1.7250443-0.1141357,3.3359833,0.1654358,4.8327255,0.7098083c5.4093399,1.9594116,9.3442764,7.3077393,10.6869431,9.8356934
					c-0.0064087-0.0080566-0.0032883-0.0337219-0.0032883-0.0337219S124.3472137,416.8821106,114.5372162,413.3231201"/>
				<path class="st7" d="M109.6322556,418.7804871c-7.1582336,0.4818726-8.5122528,4.9532776-16.3738937,8.9957886
					c-7.0394897,3.6199646-10.5022507,1.6702576-12.5162582,0.8992615
					c-0.0401306,0.0049438-1.8051376-1.0374146-2.1408081-1.1980896c0,0,5.0013046,7.2963562,13.9214249,8.7146912
					c2.2357101,0.3596802,6.3392105-0.4320374,7.9871292-3.2267456c0.2761307,1.9996948-0.2923889,2.9376221-0.8882675,3.6811523
					c8.5234375-1.7136841,13.2308502-7.5565491,17.58815-8.7707825c5.434967-1.5145264,7.9405518,1.447113,7.9405518,1.447113
					c-1.6237335-3.0532532-7.0297852-10.2355042-14.2459106-10.559967
					C110.4818726,418.7436523,110.0611725,418.750061,109.6322556,418.7804871"/>
				
					<linearGradient id="SVGID_1_" gradientUnits="userSpaceOnUse" x1="58.7681313" y1="76.1408157" x2="104.2859879" y2="76.1408157" gradientTransform="matrix(0.9845 -0.1752 -0.1752 -0.9845 34.9157066 517.4082031)">
					<stop  offset="0" style="stop-color:#5FA757"/>
					<stop  offset="0.384615" style="stop-color:#5FA757"/>
					<stop  offset="1" style="stop-color:#A6CEA2"/>
				</linearGradient>
				<path class="st12" d="M109.6403122,418.7790222c-7.1582031,0.4833374-8.5137329,4.9562378-16.3755341,9.0003662
					c-7.0442581,3.6184998-10.508667,1.6702881-12.5226746,0.9010925c-0.0401306,0.0031128-1.8051376-1.0392456-2.1408081-1.2030334
					c0,0,5.0044327,7.3013,13.9247208,8.7210999c2.2388229,0.3565674,6.3392029-0.4336853,7.9886017-3.2298584
					c0.2746506,2.004303-0.2891235,2.937439-0.8882599,3.6826477c8.5267258-1.713562,13.2341309-7.5582275,17.5930481-8.7755737
					c5.4366379-1.5128784,7.9420929,1.448761,7.9420929,1.448761c-1.625412-3.0516052-7.0331039-10.2340393-14.250679-10.561615
					C110.4915771,418.7453003,110.0692368,418.750061,109.6403122,418.7790222"/>
				
					<linearGradient id="SVGID_2_" gradientUnits="userSpaceOnUse" x1="58.7681313" y1="76.1408157" x2="104.2859879" y2="76.1408157" gradientTransform="matrix(0.9845 -0.1752 -0.1752 -0.9845 34.9157066 517.4082031)">
					<stop  offset="0" style="stop-color:#DEDFE8"/>
					<stop  offset="0.384615" style="stop-color:#DEDFE8"/>
					<stop  offset="1" style="stop-color:#70769B"/>
				</linearGradient>
				<path class="st13" d="M109.6403122,418.7790222c-7.1582031,0.4833374-8.5137329,4.9562378-16.3755341,9.0003662
					c-7.0442581,3.6184998-10.508667,1.6702881-12.5226746,0.9010925c-0.0401306,0.0031128-1.8051376-1.0392456-2.1408081-1.2030334
					c0,0,5.0044327,7.3013,13.9247208,8.7210999c2.2388229,0.3565674,6.3392029-0.4336853,7.9886017-3.2298584
					c0.2746506,2.004303-0.2891235,2.937439-0.8882599,3.6826477c8.5267258-1.713562,13.2341309-7.5582275,17.5930481-8.7755737
					c5.4366379-1.5128784,7.9420929,1.448761,7.9420929,1.448761c-1.625412-3.0516052-7.0331039-10.2340393-14.250679-10.561615
					C110.4915771,418.7453003,110.0692368,418.750061,109.6403122,418.7790222"/>
			</g>
		</g>
		<g>
			<g>
				<g>
					<g>
						<defs>
							
								<ellipse id="SVGID_3_" transform="matrix(0.9112307 -0.4118963 0.4118963 0.9112307 -185.5161438 84.6872482)" cx="103.7196198" cy="472.74823" rx="59.7589531" ry="56.0192375"/>
						</defs>
						<clipPath id="SVGID_4_">
							<use xlink:href="#SVGID_3_"  style="overflow:visible;"/>
						</clipPath>
					</g>
				</g>
				<g>
					<g>
						<defs>
							<ellipse id="SVGID_5_" cx="116.1610107" cy="467.8647156" rx="67.3252258" ry="63.1140594"/>
						</defs>
						<clipPath id="SVGID_6_">
							<use xlink:href="#SVGID_5_"  style="overflow:visible;"/>
						</clipPath>
						<ellipse class="st14" cx="138.632843" cy="501.9590454" rx="84.6363831" ry="35.3425903"/>
					</g>
					<g>
						<defs>
							
								<ellipse id="SVGID_7_" transform="matrix(0.9247242 -0.3806379 0.3806379 0.9247242 -165.8060608 83.8347244)" cx="129.0552673" cy="461.1227722" rx="67.3252258" ry="63.1140633"/>
						</defs>
						<clipPath id="SVGID_8_">
							<use xlink:href="#SVGID_7_"  style="overflow:visible;"/>
						</clipPath>
					</g>
				</g>
				<ellipse class="st15" cx="116.1610107" cy="467.8647156" rx="67.3252258" ry="63.1140594"/>
				<g>
					<g>
						<path class="st16" d="M76.4378204,527.598938c0.2297287,1.1853027-0.0546341,2.4299316-0.7822113,3.4497681
							c-1.4742126,2.0621948-4.3781586,2.5376587-6.4595947,1.0616455c-2.0926208-1.4920044-2.588974-4.3765259-1.1097946-6.4596558
							c1.4936447-2.0927734,4.3750305-2.5825195,6.466011-1.1002197
							C75.519104,525.2348022,76.2001419,526.352478,76.4378204,527.598938z M69.7533722,526.84552
							c-0.8223114,1.1549072-0.5364761,2.7850342,0.6262741,3.6073608c1.1660385,0.835144,2.7624817,0.5621338,3.5912323-0.6039429
							c0.8319931-1.1643677,0.5653992-2.7944946-0.5845261-3.6087646
							C72.2298508,525.4145508,70.5740433,525.6972656,69.7533722,526.84552z"/>
						<path class="st16" d="M76.9229813,535.3305054l-0.1093903,0.2039185
							c-0.3371506,0.6152954-0.9137573,0.8192139-1.4566498,0.5300903c-0.5443726-0.2987061-0.682518-0.9137573-0.3548813-1.5193481
							l0.1108246-0.2024536l2.9904175-5.4926758l0.1172943-0.2088623c0.3854675-0.6856689,0.9523697-0.8496094,1.625351-0.4850464
							l0.2167664,0.1173096l1.2206345,0.6665649c0.9186935,0.5025635,1.4230957,0.9619141,1.739357,1.5562744
							c0.5284195,0.9828491,0.5333557,2.1875,0.0161209,3.1333618c-0.597496,1.0985718-1.708931,1.5869141-3.073967,1.3635254
							l0.8158951,1.7137451c0.1942291,0.4336548,0.2087021,0.7982788,0.0337143,1.116333
							c-0.2762985,0.5059204-0.8913879,0.7050781-1.3893814,0.4318848
							c-0.2006454-0.1027832-0.3644485-0.3147583-0.4833527-0.5958252l-1.405304-3.4497681L76.9229813,535.3305054z
							 M79.0734711,533.0128784c0.5348282,0.2955322,0.8206635,0.3935547,1.10009,0.3726807
							c0.4609833-0.0239868,0.8833237-0.2858276,1.109787-0.6938477c0.2457123-0.4544067,0.2088699-1.0084839-0.0963745-1.4390869
							c-0.1654434-0.234314-0.2891235-0.3131104-0.857666-0.6231079l-0.6504517-0.3565674l-1.294487,2.3721924
							L79.0734711,533.0128784z"/>
						<path class="st16" d="M84.0731277,538.6230469l-0.5139465,0.5058594l-0.1493301,0.1526489
							c-0.3983231,0.3805542-0.7902374,0.4672241-1.2094574,0.2955322
							c-0.5106583-0.2088623-0.7933655-0.8046875-0.5925598-1.3025513c0.0657883-0.1622925,0.192749-0.3261108,0.3532715-0.4818726
							l0.162323-0.149353l5.2678986-5.0510864c0.3309021-0.321228,0.7242966-0.3935547,1.1515656-0.2217407
							c0.3983307,0.1574097,0.6616364,0.5139771,0.6744614,0.9492798l0.3341904,7.3075562
							c0.0223618,0.4738159-0.0016479,0.6072388-0.0915756,0.8287354c-0.2072296,0.5043945-0.8256073,0.7453613-1.3362885,0.5462036
							c-0.4239883-0.1799316-0.6473236-0.5284424-0.6665649-1.050415l-0.0080643-0.2393188l-0.0351944-0.7372437
							L84.0731277,538.6230469z M87.3832703,535.2518921l-1.9594116,2.0026855l1.9978943,0.8046875L87.3832703,535.2518921z"/>
						<path class="st16" d="M97.7730255,536.7567139l0.057724-0.213623
							c0.2008133-0.6728516,0.7066956-0.9973145,1.2930374-0.8432007c0.5941696,0.1703491,0.8785324,0.7195435,0.6969604,1.3861084
							l-0.0610123,0.2264404l-1.708931,6.2283936c-0.1332169,0.4899292-0.2070618,0.6503906-0.3853378,0.7982788
							c-0.2779388,0.2424316-0.6648941,0.3340454-1.0311813,0.2279663
							c-0.3646088-0.0914917-0.5251007-0.2666016-0.7629395-0.8800659l-2.2934341-5.5057373l-1.0375595,3.7872925
							l-0.0577545,0.2183838c-0.1863403,0.6777344-0.7002869,1.007019-1.2977753,0.8510742
							c-0.5958481-0.1685791-0.876915-0.7338257-0.6936798-1.3987427l0.0625-0.2200317l1.7394943-6.3439941
							c0.1027832-0.3790894,0.1894608-0.5333252,0.3693771-0.6779175c0.2746582-0.234375,0.5813751-0.3050537,0.894516-0.2167358
							c0.3677368,0.1027832,0.5654526,0.2955322,0.7788925,0.8255615l2.3819122,5.5924072L97.7730255,536.7567139z"/>
						<path class="st16" d="M104.8398209,542.5354614l-0.1991653-0.0337524
							c-0.639267-0.1060791-0.9829941-0.5267334-0.9027405-1.0857544c0.0835495-0.5476685,0.554245-0.8721313,1.1788712-0.7741089
							l0.2008057,0.0192261l1.8181686,0.2763062l0.2231445,0.0336914c0.7645874,0.1269531,1.1194992,0.6087036,1.0053864,1.3619385
							l-0.0352249,0.2458496l-0.1637726,1.0984497c-0.0852203,0.5765991-0.3615189,1.0857544-0.7677383,1.4423218
							c-0.7389297,0.6376343-2.0799637,0.9716797-3.2635956,0.7950439
							c-2.5360184-0.3726807-4.3219147-2.7672729-3.9510498-5.2695923c0.3807297-2.5328369,2.7335281-4.2674561,5.2776031-3.8914795
							c0.8576736,0.1220093,1.6847534,0.5058594,2.34655,1.0808716c0.447998,0.3966675,0.5894318,0.6986084,0.5298996,1.114563
							c-0.0819016,0.5604858-0.5894012,0.9364014-1.1466293,0.8512573
							c-0.2682419-0.0370483-0.2682419-0.0370483-0.7596588-0.4641113c-0.3277435-0.2939453-0.799942-0.5172729-1.2495804-0.5847168
							c-1.4150391-0.2055664-2.749649,0.7966919-2.9568787,2.1923218c-0.2184067,1.4663086,0.8239594,2.7945557,2.3963852,3.024292
							c0.668045,0.1044312,1.1964645-0.0546265,1.4390488-0.40802c0.1044312-0.149353,0.1621628-0.3613281,0.2119904-0.6906128
							c0.0031281-0.0465088,0.0095444-0.0866699,0.0240173-0.1461792L104.8398209,542.5354614z"/>
						<path class="st16" d="M111.7008667,541.0690918l2.1024857,0.0947266l0.1911392,0.0047607
							c0.5765762,0.0386353,0.944313,0.3823853,0.9201355,0.8930664c-0.0240097,0.5172119-0.4271088,0.8399048-0.9941483,0.8190308
							l-0.1894836-0.0112305l-2.1039734-0.0899658l-0.0802536,1.8342896l2.7382965,0.1170654l0.2136383,0.0080566
							c0.6295624,0.0401611,1.0359497,0.4240112,1.0117722,0.9894409c-0.0192413,0.5621338-0.4688797,0.9267578-1.0903854,0.8961182
							l-0.2152786-0.0095215l-3.3550415-0.1430664l-0.2425766-0.0143433c-0.77742-0.043396-1.1821594-0.4754639-1.1482773-1.2431641
							l0.0095673-0.2440186l0.2649155-6.1032104l0.0097351-0.2440796c0.0450363-0.7805176,0.4835205-1.1821899,1.2495575-1.1484375
							l0.2440643,0.0097046l3.2876053,0.1428833l0.2136383,0.0112305c0.6328506,0.0369873,1.024765,0.4160767,0.997467,0.9846191
							c-0.0194092,0.5701904-0.4578705,0.9331665-1.0793686,0.9009399l-0.211998-0.0112305l-2.6692276-0.1124878
							L111.7008667,541.0690918z"/>
					</g>
					<g>
						<path class="st8" d="M76.5182114,527.404541c0.227951,1.1869507-0.0578918,2.4284668-0.787117,3.4497681
							c-1.4694748,2.06073-4.3765106,2.5393066-6.4531784,1.0649414c-2.0975571-1.4920044-2.5922623-4.3781738-1.1129227-6.4612427
							c1.4936829-2.0942993,4.3748703-2.5842285,6.467659-1.1000977
							C75.6010056,525.0435181,76.2772751,526.1599121,76.5182114,527.404541z M69.8319855,526.6529541
							c-0.8206635,1.1547241-0.5363083,2.7817383,0.626442,3.6040649c1.1643906,0.835144,2.7625046,0.5652466,3.5943298-0.6008301
							c0.830368-1.1643677,0.5606537-2.7944946-0.5877914-3.6087646
							C72.3117523,525.2234497,70.6543045,525.5061646,69.8319855,526.6529541z"/>
						<path class="st8" d="M77.0015717,535.1377563l-0.1108475,0.2041016
							c-0.3373184,0.6151123-0.9122772,0.8206787-1.4566498,0.5299072
							c-0.5412445-0.2987061-0.6826859-0.9137573-0.3549118-1.5177002l0.1123352-0.2024536l2.9905853-5.4943237l0.1172638-0.2087402
							c0.3869781-0.685791,0.9555206-0.8496094,1.6268616-0.4851685l0.2153091,0.1173096l1.2206116,0.663269
							c0.920166,0.5060425,1.4212875,0.9637451,1.739357,1.5595703c0.5284195,0.9844971,0.5332184,2.1875,0.0175934,3.131897
							c-0.5989685,1.1000366-1.7087631,1.585083-3.073967,1.3651733l0.8111267,1.7136841
							c0.1990051,0.4304199,0.2134781,0.7950439,0.0385132,1.112915c-0.2746506,0.5075684-0.8930283,0.710022-1.3892441,0.4353638
							c-0.2008057-0.1027832-0.3662567-0.3147583-0.4851608-0.5991211l-1.4068146-3.4499512L77.0015717,535.1377563z
							 M79.1520844,532.8217773c0.5331879,0.2938843,0.8191833,0.3919067,1.1033783,0.3693848
							c0.457695-0.0223389,0.8785553-0.2841797,1.1066666-0.6936646c0.2424164-0.4529419,0.2087021-1.008667-0.0947266-1.4376221
							c-0.1639709-0.2312012-0.2924194-0.3147583-0.8576736-0.62146l-0.6537399-0.3582153l-1.2911987,2.3738403
							L79.1520844,532.8217773z"/>
						<path class="st8" d="M84.1502609,538.427002l-0.5122681,0.5091553l-0.1478806,0.1574097
							c-0.4014282,0.3726807-0.7885971,0.4626465-1.2125854,0.2907715
							c-0.5091782-0.2088623-0.7917252-0.8046875-0.5877914-1.3025513c0.0626602-0.1606445,0.1894608-0.3244629,0.3517914-0.4818726
							l0.1605148-0.1525879l5.2679291-5.0494995c0.3308716-0.321228,0.7244263-0.3919067,1.1500549-0.2232056
							c0.4014511,0.1621704,0.6632767,0.5170898,0.6761093,0.9507446l0.3340225,7.3060913
							c0.0241776,0.4738159-0.0016479,0.6119995-0.0899658,0.8334961c-0.205574,0.5011597-0.8254318,0.7420654-1.3362579,0.5412598
							c-0.4271088-0.1749878-0.6488037-0.5251465-0.6648941-1.0471191l-0.0095673-0.2409668l-0.0370026-0.7340088
							L84.1502609,538.427002z M87.4651718,535.060791l-1.9610519,2.0026245l1.9964066,0.8047485L87.4651718,535.060791z"/>
						<path class="st8" d="M97.8501587,536.5639648l0.0610123-0.2150879
							c0.197525-0.6698608,0.7066956-0.9991455,1.2928467-0.8384399c0.5942001,0.1685791,0.8769379,0.7147217,0.6955109,1.3828125
							l-0.0611801,0.2247925l-1.7104111,6.2299805c-0.1332169,0.4883423-0.2055817,0.6489868-0.3869781,0.7950439
							c-0.2731781,0.2473755-0.6618042,0.3372803-1.0278931,0.2312622c-0.3629684-0.0931396-0.5220032-0.2697754-0.7645874-0.878418
							l-2.2903061-5.5073853l-1.0374298,3.7872925l-0.0595322,0.2200317
							c-0.1878204,0.6727905-0.6986389,1.0053711-1.2976151,0.8510742
							c-0.5958481-0.1669312-0.8737869-0.7371216-0.6938629-1.4003906l0.0610123-0.2200317l1.739357-6.34729
							c0.1061096-0.3774414,0.1911087-0.5300903,0.3710251-0.6729736c0.2730103-0.2360229,0.5846634-0.3067017,0.8978348-0.2167358
							c0.3645859,0.1027832,0.5604553,0.2938843,0.7773819,0.8239136l2.3786545,5.5938721L97.8501587,536.5639648z"/>
						<path class="st8" d="M104.9167862,542.3427124l-0.1958771-0.0337524
							c-0.637619-0.1060791-0.9829941-0.5250854-0.902565-1.0872192c0.0802536-0.5445557,0.5507812-0.8690186,1.1772232-0.7727051
							l0.2008057,0.024231l1.8164902,0.2681885l0.223175,0.0385132c0.7677078,0.1220093,1.1209793,0.6070557,1.0070038,1.3604126
							l-0.0353622,0.2457275l-0.1621552,1.1000977c-0.083519,0.5749512-0.3629684,1.0808716-0.7676849,1.4423218
							c-0.7387924,0.6343384-2.0814667,0.9700317-3.2683945,0.7950439
							c-2.5295944-0.3759766-4.3171387-2.7674561-3.9461136-5.2728882c0.3774414-2.529541,2.7302399-4.2689209,5.2759552-3.8898315
							c0.8543854,0.1220093,1.6831131,0.5075073,2.3480682,1.0775757c0.4448395,0.3968506,0.5877533,0.7035522,0.528389,1.1146851
							c-0.0819092,0.5637817-0.5894394,0.9395752-1.1451263,0.8544312
							c-0.2666245-0.0385132-0.2666245-0.0385132-0.7596817-0.4625244
							c-0.3292542-0.2955322-0.7997818-0.5188599-1.2543564-0.5846558c-1.4100723-0.2072144-2.7463608,0.793396-2.9535828,2.1906738
							c-0.2184067,1.4679565,0.8270798,2.7962036,2.3962173,3.024292c0.6682129,0.1044312,1.198143-0.0546265,1.442337-0.40802
							c0.1028214-0.1477051,0.1605148-0.3596802,0.2087021-0.6937256c0.0064163-0.043396,0.0113525-0.0819092,0.0225372-0.1414185
							L104.9167862,542.3427124z"/>
						<path class="st8" d="M111.7812881,540.8730469l2.1006775,0.0980225l0.194397,0.0032959
							c0.5766068,0.0401001,0.9410858,0.3853149,0.9170456,0.8913574c-0.0225296,0.5203857-0.4289169,0.8399658-0.9925308,0.8237915
							l-0.1896286-0.0095215l-2.1039658-0.0916138l-0.0802612,1.8326416l2.7384644,0.1172485l0.211998,0.0095215
							c0.6279144,0.0418091,1.0357819,0.4225464,1.0117722,0.987793c-0.0225067,0.5604858-0.4690475,0.9251099-1.0905533,0.8930054
							l-0.2151184-0.0080566l-3.3552017-0.1445312l-0.2440567-0.0112305
							c-0.77742-0.0466919-1.1805115-0.4754639-1.1467743-1.2415161l0.0111542-0.2456665l0.2651443-6.1063843l0.0095139-0.2409058
							c0.0467072-0.7821655,0.4818726-1.1821899,1.2462921-1.1484375l0.2442322,0.0080566l3.2908936,0.1461792l0.2134705,0.0080566
							c0.6344986,0.0401611,1.0215073,0.4192505,0.997467,0.986145c-0.0192413,0.5701904-0.459343,0.9298706-1.0808487,0.9009399
							l-0.2119904-0.0143433l-2.6693954-0.1124878L111.7812881,540.8730469z"/>
					</g>
				</g>
				<g>
					<g>
						<g>
							<g>
								<path class="st4" d="M72.8659973,432.1639709c-3.7181702-3.9268799-11.4674835-4.5113831-18.845768-1.0101624
									c-3.3246117,1.5820007-19.9845047,10.131073-21.2918167,23.5498962c0,0.0047913-0.0610161,0.8192139-0.0610161,0.8192139
									c-0.0514755,1.1017151-0.0818748,2.2001648-0.0818748,3.2892456c0,20.0052185,9.2574043,37.5645447,18.8745193,46.4364929
									c5.2808914,4.8840332,9.5722122,7.7894287,13.3369255,6.1255798c2.156929-0.954071,3.7598038-3.0483093,4.2705994-7.0153198
									c0.5042419-3.9541626,0.2264633-8.8173218,0.2264633-8.8173218
									c4.0954514,5.219696,11.043335,7.2771301,16.5585861,6.0805054
									c4.4649963-0.9764099,9.6654663-4.5773315,10.5262909-10.1889648l0.1927185-1.2462769
									c0,0,1.4053345,0.3645935,1.4905243,0.3886108c2.8427658,0.5011292,6.9350586,0.387146,9.1691208-1.5995483
									c0.7050476-0.6312256,1.1964645-1.3796997,1.4485855-2.2388306l0.3373108-1.1259155l1.1114349,0.3693848
									c2.4572372,0.8078308,5.0174255,0.5989685,7.4167709-0.5958557
									c1.5242386-0.7515869,2.7882996-1.7891846,3.7551727-3.0853271l0.7756348-1.0423584l0.92836,0.8977966
									c0.8849792,0.8544006,1.6928177,1.4454651,2.5633163,1.8470764
									c3.6954803,1.7151794,8.1507721,0.9909058,11.3614044-1.8551331
									c1.109787-0.9925232,2.2950745-2.7752991,3.3149109-5.0124817l0.5910797-1.2961426l1.2206421,0.9379272l0.6488342,0.4930725
									c1.2704315,0.7340088,3.3679962,1.0729675,6.2107239-1.4535217c2.1232147-1.8870544,3.9316711-4.565979,5.3754578-7.9660645
									l0.6955109-1.6382141l1.1900635,1.3120728c0.7323456,0.804718,1.4117432,1.4036865,2.1312714,1.8936157
									c3.4305115,2.3287964,8.0368195,2.9744873,11.4642181,1.6028748
									c1.0423279-0.4207153,1.9674377-0.9797058,2.8203278-1.7023621l0.6680603-0.5606689l0.7131042,0.4947205
									c1.8390198,1.2591248,4.1324463,2.1777954,7.0186005,2.8170776
									c2.9535828,0.6552124,4.4327698-0.7259521,5.0542603-1.6076355c1.055191-1.4936218,1.0053711-3.6153564-0.1156158-5.404541
									c-1.0407104-1.6541748-0.5428925-3.4963379,0.4994812-6.8916626c0.7292175-2.3544312,1.5531769-5.026947,1.7635345-8.200592
									c0.6231384-9.4838867-3.1109772-14.2860413-6.3489227-16.6470642
									c-5.3642731-3.9043274-12.178772-3.3438416-16.3852386-1.6783447
									c-0.0030975,0.0032959-0.921814,0.4320374-0.921814,0.4320374l-1.4774933,0.7387695l-0.4643097-1.1259155
									c-0.5090179-1.2270508-1.3056641-2.2628174-2.3592224-3.086792
									c-2.2694092-1.7651672-5.4639435-2.3175964-9.4952393-1.6382141l-0.6889343,0.1139832l-0.41922-0.5635986
									c-6.7263184-9.1306458-12.1065826-7.3784485-13.5971069-6.6252136v0.0016479
									c-2.2886505,1.1531982-3.7148743,3.5092773-4.0151825,6.6330872
									c-0.032074,0.3100281-0.0481873,0.6392822-0.0481873,0.9877625c0,0.921814,0.1108704,1.9819336,0.3261261,3.2073669
									l0.2119904,1.1997375l-2.7320557,0.2874756c-1.7505341,0.1749878-3.266716,0.3276062-4.2898331,0.5396118
									c-1.9401703,0.4095154-3.340538,1.6880493-3.754982,3.4242859c0,0.0159302-0.0978851,0.6022339-0.0978851,0.6022339
									c0.0031204-0.0626526,0.0031204,0.6986389,0.0031204,0.6986389v1.0229797l-1.0022049,0.2105103l-0.7371445,0.083374
									c-3.4627609,0.5846558-6.8788147,2.6774597-9.2944412,5.7210083l-0.5813751,0.7354736l-0.8334961-0.4304199
									c-1.4582901-0.7484741-2.7624741-0.9555054-3.9814758-0.6231384
									c-1.4278336,0.3999634-2.5585403,1.329834-3.191391,2.6259766c-0.237648,0.4978333-0.4030991,1.0744324-0.4817123,1.7136841
									l-0.3356705,2.6580505l-1.6816254-2.0863647c-1.3184967-1.6382141-2.8315582-2.9599915-4.4954224-3.9364014
									c-5.5233078-3.2460022-11.9797821-2.6998291-16.1796646-1.1050415
									c-2.1184387,0.7997742-5.6871109,2.059082-8.645462,5.6085205
									C75.1224213,443.7582397,77.7113876,437.2938843,72.8659973,432.1639709z"/>
							</g>
						</g>
					</g>
					<g>
						<g>
							<path class="st17" d="M114.4569321,413.366394c-3.8256989-1.3956299-7.1116638-1.5851135-10.0073853-1.093689
								c1.3218155,0.9170532,1.390892,2.4429321,1.390892,2.4429321s-2.7401428-2.3562622-6.9656754-0.5381165
								c-0.880043,0.4562073-1.7232437,0.9492798-2.5263138,1.4632263
								C91.451416,418.9523315,85.7210464,427.9303589,80.21698,427.57547c-0.0370102,0-1.66716-0.0883179-1.699234-0.0852051
								c0.3340302,0.1654358,2.1040039,1.2110901,2.1376877,1.2061768c2.0140076,0.7677002,5.4767685,2.7192078,12.5177383-0.888092
								c7.8634491-4.0441589,9.2205963-8.5153809,16.3804703-8.9989014
								c1.7168274-0.1156311,3.3422394,0.1718445,4.8327332,0.7131042c5.4027634,1.962677,9.3344345,7.3157654,10.6755905,9.8388062
								c-0.0016403-0.0080566-0.0016403-0.0273132-0.0016403-0.0273132S124.2684708,416.9238586,114.4569321,413.366394"/>
							<path class="st17" d="M109.5536423,418.8127136c-7.159874,0.4802551-8.5170212,4.9514771-16.3835907,8.995636
								c-7.0378494,3.6072998-10.5006104,1.6557922-12.5146179,0.888092
								c-0.0336838,0.0049133-1.8036575-1.040741-2.1376877-1.2061768c0,0,4.998024,7.3013,13.9150162,8.7322998
								c2.2373734,0.3534241,6.3392105-0.4367981,7.9935684-3.2249451c0.2697144,1.9995422-0.2955704,2.9358215-0.8946762,3.676239
								c8.523407-1.7087708,13.2308197-7.546875,17.5930252-8.759613c5.4333801-1.5079651,7.9372864,1.447113,7.9372864,1.447113
								c-1.6222534-3.0499573-7.0233383-10.2307129-14.2380142-10.5631104
								C110.4063797,418.7804871,109.980751,418.783783,109.5536423,418.8127136"/>
							
								<linearGradient id="SVGID_9_" gradientUnits="userSpaceOnUse" x1="76.9179688" y1="338.5288696" x2="123.4972229" y2="338.5288696" gradientTransform="matrix(0.999 0.0456 0.0456 -0.999 -13.7159882 761.2040405)">
								<stop  offset="0" style="stop-color:#6B9A4D"/>
								<stop  offset="1" style="stop-color:#5A8343"/>
							</linearGradient>
							<path class="st18" d="M109.5536423,418.8127136c-7.159874,0.4802551-8.5170212,4.9514771-16.3835907,8.995636
								c-7.0378494,3.6072998-10.5006104,1.6557922-12.5146179,0.888092
								c-0.0336838,0.0049133-1.8036575-1.040741-2.1376877-1.2061768c0,0,4.998024,7.3013,13.9150162,8.7322998
								c2.2373734,0.3534241,6.3392105-0.4367981,7.9935684-3.2249451c0.2697144,1.9995422-0.2955704,2.9358215-0.8946762,3.676239
								c8.523407-1.7087708,13.2308197-7.546875,17.5930252-8.759613c5.4333801-1.5079651,7.9372864,1.447113,7.9372864,1.447113
								c-1.6222534-3.0499573-7.0233383-10.2307129-14.2380142-10.5631104
								C110.4063797,418.7804871,109.980751,418.783783,109.5536423,418.8127136"/>
						</g>
					</g>
				</g>
				<g>
					<path class="st19" d="M110.9620972,450.4829407c2.6067352-8.3002625,14.3760071-13.831604,23.7459259-1.2944641
						c8.841507,11.8383179,4.1436462,26.8697205,0.0626678,30.4962769
						c-4.5018311,4.0054932-11.6135254,1.6252136-11.4176483-5.0463562
						c0.1397934-4.8391724,1.9433136-5.7063599,3.2555313-13.6821289
						c1.2045288-7.3108521-0.3646088-13.9985657-7.0539627-12.0745239
						c-4.3138504,1.2430115-5.0575485,7.0602112-2.169754,14.5671082
						c3.3904266,8.7819824,4.5516663,16.0977478-1.2816544,19.0031433
						c-4.8054352,2.3850403-9.927124-0.8496094-10.3223267-8.4127502
						c-0.4738235-9.1031799,1.6382065-17.5287476-0.560463-22.7339783c-0.6794205-1.6011963-0.748497-3.5285339,0.8607712-3.9750671
						C107.5957184,446.9206848,109.7801056,449.167572,110.9620972,450.4829407 M105.6203537,485.2095642
						c-0.0899582-1.4630737-4.500351-2.7736816-4.1870499-11.7516785c0.1251602-3.3037415,0.1027908-7.954895-0.5734787-12.5338745
						c-2.3207321-15.7554932-14.6457214-16.1716003-20.8517151-13.818634
						c-4.4760132,1.6928101-7.5662689,5.4077148-8.5122528,7.3896484c-0.9876022,2.0636597-0.4287567,4.1773376,2.0510101,2.967865
						c2.3273087-1.1482544,5.6856384-1.7552795,7.5662689,0.3629761c1.7538223,1.9771729,1.8117142,4.5886841,2.1906357,7.0781555
						c-1.2880707,0.255249-5.0798874,1.4646912-6.3921661,2.3287964
						c-5.7305298,3.772583-12.6511154,11.5895081-7.4216995,22.4673767
						c2.5407791,5.3049011,8.5106049,10.2757874,15.6640701,8.7114258c3.8948288-0.8432007,8.9217682-4.3830872,8.0063934-9.9143066
						c-0.7371445-4.4488831-7.436203-4.2337646-11.1093063-4.4569397c-7.8359833-0.4882812-5.828392-7.6721802-3.2104492-10.3126221
						c3.3934937-3.4226074,7.5195312-0.8367615,8.6582718,2.3111877
						c2.0814362,5.7818604,4.2048111,10.0716858,11.1204605,11.2987671
						C101.7576218,487.8965454,105.7599869,487.4115295,105.6203537,485.2095642z M69.5380936,463.3171082
						c-1.5900269-2.9840088-7.355751-1.3153687-13.1890755,1.8549805c-1.4551659-2.8040771-2.9792404-6.8643494-2.9792404-6.8643494
						s10.004261-4.8519592,16.5972328-14.7679138c7.1228714-10.7173462-5.0093613-13.9743652-14.547863-9.4421387
						c-6.5030136,3.0789185-18.9469109,10.9471436-19.4883194,21.5503845
						c-1.0134201,19.7998047,7.8715057,38.0834351,17.7409058,47.2010803
						c9.1159935,8.4127502,11.7612114,7.0491943,11.7066078-0.9668884
						c-0.0481873-9.4098816-1.8131981-18.2321472-3.9701271-24.9150696
						C66.6006241,472.4781799,71.1072311,466.2626343,69.5380936,463.3171082 M166.6994476,434.663147
						c-2.9502869,1.1643677-4.8662872,2.9262695-6.1656952,4.5982056c-1.056839,1.3571472,0.0465393,2.7206726,1.361908,2.391449
						c2.9729919-0.729248,7.7445374-0.6874695,8.493042,5.2132874
						c-10.0363617,0.3244629-13.9969482,5.5553894-14.0275269,12.3346863
						c-0.0256653,7.8793945,8.1364746,10.3945312,12.2238312,8.7611084
						c1.9337616-0.7789001,3.1302185-1.7698059,3.3711548-3.7469788c0.5075378-4.1725769-4.6608582-4.1243896-5.8155212-4.5307617
						c-3.9990997-1.4020386-2.6965637-6.0387268-0.1702576-7.3139954c2.2357025-1.1323242,5.3642731,0.1975403,5.7353058,3.6104736
						c0.701767,6.4916382,0.6793976,10.8088074,10.0379791,12.8662109c2.2357025,0.4980164,2.0156403-1.1660156,1.4502258-2.0588989
						c-3.0722961-4.8648071,1.2946472-9.7875061,1.7699432-17.0598755
						C185.9900818,434.0784607,173.8626099,431.8251648,166.6994476,434.663147 M160.0022125,434.8027649
						c0.0818939-2.3449097-2.0348969-6.7663269-11.3533478-4.0762024
						c-8.8785095-14.2475586-16.7161407-8.224762-11.9220581,3.7758789c-2.4427643,0.7243042-8.425415,0.9830017-10.551918,1.426239
						c-1.9273376,0.4111633-1.4663467,2.2003479,0.1606827,3.494812c3.0146027,2.4059448,10.6900635,3.2410583,13.6790009,3.5541992
						c4.2464294,10.5295715,5.3643036,23.2882385,4.146759,29.0957336c-0.695343,3.2989502,0.971817,2.7304077,2.6019592,1.2832947
						c7.2498779-6.4515381,8.6615906-21.6402893,6.6282043-31.9095154
						C158.8425751,439.1954041,159.9426727,436.8120117,160.0022125,434.8027649"/>
				</g>
				<g>
					<path class="st19" d="M167.550705,488.1486511c-1.4888763-4.5242004-5.3127594-7.6914062-9.9736328-8.26474
						c-1.7780304-0.2185669-3.5558777-0.0353394-5.2873383,0.5332031c-2.894043,0.9523926-5.2726746,2.8861389-6.7615509,5.4815369
						c-0.8159027-0.7805481-1.9176331-1.2800293-3.1784058-1.4342957c-0.0032806-0.0016479-0.0097046-0.0016479-0.0128174-0.0016479
						c-0.1286163-0.0336914-0.2618256-0.0432434-0.41922-0.052948c-2.8346863-0.0947266-5.3145752,1.1788635-6.9077606,3.5157166
						c-0.4368134-0.2295837-0.9075012-0.3805542-1.3972778-0.438446c-1.596405-0.1975098-3.1768951,0.5524292-4.0296631,1.9080811
						c-0.4626312,0.7371216-0.6585083,1.5675049-0.5941925,2.399353c0.056076,0.6971741,0.0047607,1.6704407-0.6520996,1.2206421
						c-2.9198685-1.9866943-6.7135239-2.4797668-10.54879-1.2173462c-3.1752777,1.0454712-5.7417145,3.1848145-7.2225113,6.0180054
						c-0.5139694,0.9844666-1.2399139,1.6590881-1.3747711,0.9410706c-0.2570572-1.3201599-1.3523712-2.3174438-2.7256393-2.4862061
						c-0.4817123-0.0610046-0.9780579-0.0080566-1.4421692,0.1429443c-0.0916061,0.0305786-0.1830444,0.0690613-0.2746506,0.1124573
						c-0.0498352,0.0225525-4.9065781,2.3079224-11.8544617,3.8995972
						c-1.2142258,0.2794189-2.2292938,1.0471191-2.8572083,2.1616821c-0.6793976,1.2030334-0.819191,2.6468811-0.3838577,3.9638977
						c0.5813751,1.7666626,2.1393585,3.056366,3.9670029,3.281189c0.5652847,0.0674133,1.1323242,0.0337219,1.6847534-0.0980225
						c-1.7281723,4.2449341-2.3866806,8.0175171-1.9482269,11.237915c0.1927567,1.4020386,1.2752457,2.4605103,2.6934052,2.635498
						c0.4963455,0.0626221,1.0150909,0.0080566,1.4986115-0.1526489c0.0978241-0.0336914,0.1942062-0.0705566,0.2858047-0.1172485
						c0.0610199-0.0288086,6.2734299-2.9873047,12.802124-4.0408325c1.5031891-0.2457275,2.9004364-1.2045288,3.7308044-2.5697632
						c0.5685501-0.9362793,0.804718-1.9835815,0.6874542-2.9711304c1.4471054,0.8816528,3.0884476,1.4613647,4.8551025,1.6750488
						c1.7186356,0.213623,3.4820023,0.043396,5.1009674-0.4898071c3.5719681-1.1773682,5.6695175-2.6869507,7.4860458-5.383667
						c1.6991882-2.5279541,1.3217468-3.9622192,1.5256805-3.1076965c0.4384613,1.8452759,1.8694458,3.1285706,3.7310028,3.3550415
						c1.6173248,0.1991577,3.2458344-0.4785767,4.1516876-1.724884c0.8977966-1.2351074,1.0037537-2.8170776,0.2970276-4.3444214
						c-1.8164978-3.9093018-2.2260132-5.5394287-2.2789612-5.7754517c-0.0192413-0.1414185-0.0514832-0.2810669-0.096344-0.417572
						c-1.2479706-3.7326355,0.6342926-5.0928955,1.7473755-4.771698c1.2061768,0.5573425,1.8421478,0.5284119,2.4026337,0.3645935
						c0.0899658,0.8785706,0.2731781,1.7521973,0.552597,2.5953979c1.4694824,4.4617004,5.4188843,7.7139282,10.0619812,8.2825012
						c1.7891998,0.2200317,3.5719604,0.043396,5.3001404-0.5284119
						C166.216095,501.3989258,169.6546783,494.5184631,167.550705,488.1486511z M156.4960327,486.181366
						c1.9916382,0.245697,3.6170502,1.7120361,4.3444366,3.923584c1.0375977,3.1510925-0.3178711,6.0405273-3.2940216,7.0169678
						c-0.8463287,0.277771-1.6799774,0.3693542-2.4845276,0.2713623c-2.0381927-0.2521362-3.6923523-1.7184753-4.4199371-3.9300232
						c-0.5027618-1.5161743-0.4433899-3.0483093,0.1638031-4.31073c0.6134491-1.2704468,1.7312927-2.2051086,3.228241-2.6950378
						C154.8787079,486.1764221,155.7075958,486.0849915,156.4960327,486.181366z"/>
					<g>
						<path class="st4" d="M163.1677856,489.3388672c-1.4359283-4.3589172-5.4943695-6.6636963-9.901474-5.2101746
							c-4.4039764,1.4518738-6.3890381,5.7481384-4.9516449,10.1039429
							c1.4342804,4.3572693,5.5956879,6.6651611,9.9963684,5.2180481
							C162.7196198,497.9971619,164.6035461,493.6992798,163.1677856,489.3388672 M146.8580322,494.9681091
							c-1.671936-5.0720215,1.0407104-10.5246277,6.1994171-12.2254944
							c5.1508026-1.6975708,10.4973145,1.1018982,12.1677551,6.1689758
							c1.6719666,5.0704041-0.9476318,10.5471497-6.1015625,12.2480469
							C153.9616547,502.8572083,148.5251923,500.0353699,146.8580322,494.9681091"/>
						<path class="st4" d="M141.8374786,486.8591003c-3.6009064-0.1687317-5.6647491,2.807373-5.974762,5.6437073
							c-0.030426,0.3035889-0.1573944,0.5524292-0.3580322,0.0626526c-0.2378082-0.5797119-0.5894318-1.3234253-1.0214539-1.9240417
							c-1.2448425-1.7362366-4.0007324-0.1124878-2.7240143,1.8694458
							c3.9669952,6.1561584,3.8031921,9.8211975,4.6463928,13.3722839c0.6136475,2.5856934,4.8360291,1.5995789,3.5752563-1.1163635
							c-2.2758026-4.8968811-2.4830322-6.4579773-2.4830322-6.4579773
							c-0.8994751-2.7351685,0.1621399-9.2975464,3.6666718-7.7815247
							C145.0671997,492.2136841,145.7226105,487.0421448,141.8374786,486.8591003z"/>
						<path class="st4" d="M108.6798553,512.1998291c-1.769783,0.4752808-3.6553497,1.77948-5.2229996,2.9759521
							c-0.7627792,0.5830078-1.3137283,0.0080566-0.7563705-0.8045654
							c2.5037842-3.6505737,5.2952042-8.7113953,4.0859146-15.1437073
							c-0.0835495-0.4224854-0.5734863-0.6280823-0.9829941-0.4882812c0,0-5.0269623,2.3930969-12.3636398,4.0745544
							c-1.2510681,0.2874756-1.8661575,1.7442932-1.4614105,2.9680481c0.4030914,1.223938,1.6878738,1.9289856,2.9405899,1.5145569
							c1.8261871-0.6006165,3.9123993-2.3304443,5.2438889-3.5686951c0.4802246-0.4496155,0.9989395-0.1332092,0.6938629,0.4080505
							c-1.6960983,2.9920654-5.9232788,10.2515869-5.0736694,16.5008545
							c0.0690765,0.5073853,0.5766068,0.6310425,0.9861221,0.4961548c0,0,6.4789963-3.1254272,13.4767151-4.2561035
							c1.4952927-0.2424316,2.7207336-1.8806152,2.3095779-3.1237793
							C112.149025,512.5129395,110.3197098,511.7580872,108.6798553,512.1998291z"/>
						<path class="st4" d="M130.1596527,501.1451416c0.3131409-0.2907715,0.6248169-0.5765991,0.4914093-0.9813538
							c-1.6735687-5.0831909-6.3375626-7.9372864-12.0970383-6.0403748
							c-5.2887878,1.7441406-8.0961685,7.0362244-6.3729248,12.2815857
							c1.7426758,5.2856445,7.3462143,7.7590027,12.0600357,6.207489c3.016243-0.9925537,4.6945801-2.2227173,6.2219543-4.4214172
							c2.1297913-3.067749-2.0733795-4.9291077-3.63134-1.6574707c-0.7210007,1.5176697-1.769783,2.4315796-3.3951645,2.9053955
							c-2.6613007,0.7660828-6.0597839-0.4417419-7.1406326-4.8986816c-0.7275543-3.0160828,0.8591537-6.056488,3.4578247-6.9125366
							c2.8203659-0.9298706,4.8182602,0.2153015,6.0068283,2.3079224c0.1381531,0.2119751,0.0176315,0.3887939-0.414444,0.409668
							c-2.4652939,0.1172485-4.4424591,0.3371582-6.3648682,2.0348816
							c-1.5225906,1.3522339-0.9571686,3.3871155,1.9691162,3.1639404
							C123.8750458,505.3210144,126.9827271,504.116333,130.1596527,501.1451416z"/>
					</g>
					<g>
						<path class="st4" d="M163.8984833,478.2536011l-0.7548828,0.2489929l0.7116394,2.1248474l-0.6570282,0.2167664
							l-0.7081757-2.1296082l-0.7484741,0.2554016l-0.1718597-0.5172424l2.1521454-0.7131042L163.8984833,478.2536011z
							 M168.0036316,479.2446594l-0.6134338,0.2087097l-0.6248016-1.8710938h-0.0144653l-0.0546112,2.1056213l-0.44487,0.1414185
							l-1.304184-1.6479187l-0.0128326,0.0080566l0.6264496,1.8727417l-0.616745,0.202301l-0.8769073-2.6419373l0.8704987-0.2907715
							l1.2398834,1.5145264l0.083374-1.9529724l0.8576813-0.2907715L168.0036316,479.2446594z"/>
					</g>
				</g>
			</g>
			<path class="st8" d="M180.8586884,394.02771c11.7982483-2.9520874,13.2742615-13.1505737,8.974884-17.9431763
				c-7.2965393-8.1251221-26.7476959-7.1036377-30.0466461,37.5517273
				C159.7869263,413.636261,163.2416229,398.4315491,180.8586884,394.02771z"/>
			<path class="st8" d="M158.9855042,389.479187c4.8054199-12.5996704-6.42276-16.0911865-12.1659241-12.1659546
				c-6.1144257,4.1742249-7.802475,16.0334473,11.7595367,35.756134
				C158.5791168,413.0693665,154.4371185,401.3995972,158.9855042,389.479187z"/>
			<circle class="st8" cx="164.3719025" cy="373.2362061" r="5.4947586"/>
			<path class="st8" d="M35.6514053,513.9567871c-14.8963604-9.7070618-23.3443089,4.0488892-17.2605095,12.4616699
				c5.3675632,7.4233398,20.2463264,11.1814575,46.0639915-10.0123291
				C64.4548874,516.4061279,49.1345406,522.7420654,35.6514053,513.9567871z"/>
			<path class="st8" d="M45.2846336,535.6742554c-13.4813232,3.987854-12.8035736,14.3391113-7.2208633,18.6225586
				c7.5710068,5.8139038,24.1152802,0.8237915,28.1048164-38.0480957
				C66.1685867,516.2487183,59.4101601,531.5032959,45.2846336,535.6742554z"/>
			
				<ellipse transform="matrix(0.7728559 -0.6345816 0.6345816 0.7728559 -313.3664246 147.3756714)" class="st8" cx="49.1814499" cy="511.4200134" rx="4.7272639" ry="4.7265773"/>
			
				<ellipse transform="matrix(0.7730379 -0.6343599 0.6343599 0.7730379 -348.4573669 145.2460938)" class="st8" cx="28.7529697" cy="559.5927734" rx="6.9211068" ry="6.9205937"/>
			
				<ellipse transform="matrix(0.7729971 -0.6344095 0.6344095 0.7729971 -340.5804138 139.1099396)" class="st8" cx="24.0964832" cy="545.4684448" rx="3.7321126" ry="3.7315671"/>
			<path class="st8" d="M74.8173447,555.2571411c5.618042,5.1394043,1.8067856,11.7421265-2.7271194,12.5209961
				c-6.9993668,1.2045288-17.4164238-7.3573608-6.1642227-33.2747192
				C65.9260025,534.503418,64.5142822,545.8375244,74.8173447,555.2571411z"/>
			
				<ellipse transform="matrix(0.7729511 -0.6344656 0.6344656 0.7729511 -347.8754883 155.7531586)" class="st8" cx="43.6806297" cy="563.9283447" rx="5.0204201" ry="5.0211182"/>
		</g>
		<g>
			<path class="st4" d="M170.8856506,408.7889709h-0.1873627c-0.6033478,0-0.980423-0.3511353-0.980423-0.8790588
				c0-0.5149536,0.3900452-0.8790894,0.980423-0.8790894h0.1873627h1.1312561c0.728241,0,1.0793915,0.4395447,1.0793915,1.2938843
				v5.8766174v0.2132874c0,0.665802-0.3770752,1.0805969-0.954483,1.0805969c-0.5774231,0-0.9662933-0.4395447-0.9662933-1.0805969
				v-0.2132874v-5.3993835L170.8856506,408.7889709z"/>
			<path class="st4" d="M182.7767792,411.2129211c0,2.386261-1.9219513,4.3199768-4.308197,4.3199768
				c-2.3850555,0-4.3188019-1.9337158-4.3188019-4.3199768c0-2.3732605,1.9337463-4.3070068,4.2940521-4.3070068
				C180.8418579,406.9059143,182.7767792,408.8396606,182.7767792,411.2129211z M176.0458069,411.1881714
				c0,1.3551636,1.067627,2.4357605,2.4109955,2.4357605c1.3303986,0,2.3980255-1.0805969,2.3980255-2.4110107
				c0-1.3186035-1.0794067-2.3992004-2.4109955-2.3992004C177.1381836,408.8137207,176.0458069,409.8813477,176.0458069,411.1881714
				z"/>
			<path class="st4" d="M191.9022217,411.2129211c0,2.386261-1.9219513,4.3199768-4.3081818,4.3199768
				c-2.3850708,0-4.3188019-1.9337158-4.3188019-4.3199768c0-2.3732605,1.9337311-4.3070068,4.2940521-4.3070068
				C189.9673157,406.9059143,191.9022217,408.8396606,191.9022217,411.2129211z M185.1712646,411.1881714
				c0,1.3551636,1.067627,2.4357605,2.4109802,2.4357605c1.3304138,0,2.3980255-1.0805969,2.3980255-2.4110107
				c0-1.3186035-1.0794067-2.3992004-2.4109802-2.3992004C186.2636261,408.8137207,185.1712646,409.8813477,185.1712646,411.1881714
				z"/>
			<path class="st4" d="M196.4437408,408.8644104c0,1.067627-0.8543396,1.9207764-1.9089966,1.9207764
				c-1.0676117,0-1.9207764-0.8531494-1.9207764-1.9078369c0-1.054657,0.8531647-1.921936,1.9089966-1.921936
				C195.5894012,406.9554138,196.4437408,407.8097534,196.4437408,408.8644104z M193.7570038,408.8644104
				c0,0.4395447,0.3382111,0.7789001,0.7659607,0.7789001c0.4265747,0,0.7659607-0.3393555,0.7659607-0.7659607
				c0-0.4277344-0.339386-0.7789001-0.7659607-0.7789001C194.0952148,408.0984497,193.7570038,408.4496155,193.7570038,408.8644104z
				 M197.7871094,407.7213745c0.2769165-0.5892029,0.4654541-0.7777405,0.7789154-0.7777405
				c0.2886963,0,0.4772491,0.1755676,0.4772491,0.4642639c0,0.1378784-0.0624542,0.3771057-0.1508331,0.5774231
				l-0.0506744,0.0883789l-3.101532,6.6673279l-0.0754089,0.1637878c-0.1885376,0.4018555-0.41362,0.6151428-0.652832,0.6151428
				c-0.2757416,0-0.5267334-0.2262573-0.5267334-0.4772644c0-0.1508179,0.0624542-0.3511658,0.1496582-0.5656128
				l0.0754089-0.1496582L197.7871094,407.7213745z M200.9015808,413.5614624c0,1.0664368-0.8543243,1.9207764-1.9207611,1.9207764
				c-1.0558472,0-1.9219666-0.8543396-1.9219666-1.9207764c0-1.0558472,0.8661194-1.9089966,1.9089966-1.9089966
				C200.0354767,411.6524658,200.9015808,412.5056152,200.9015808,413.5614624z M198.2019043,413.5484924
				c0,0.4395447,0.3393707,0.7907104,0.7789154,0.7907104c0.4265747,0,0.7659454-0.3511658,0.7659454-0.7777405
				c0-0.4277649-0.3393707-0.7659607-0.7789154-0.7659607C198.5530548,412.7955017,198.2019043,413.1336975,198.2019043,413.5484924
				z"/>
			<path class="st4" d="M174.6694489,417.322876v-0.1201782c0.0070801-0.3688354,0.2191925-0.6033325,0.5385284-0.6033325
				c0.326416,0,0.5455933,0.2415466,0.5455933,0.6033325v0.1201782v3.4031982c0,0.2615967-0.0141449,0.3535156-0.0848389,0.4536743
				c-0.1060638,0.1626282-0.2910614,0.2615967-0.4890289,0.2615967c-0.1991577,0-0.3052063-0.0636292-0.5102539-0.3405457
				l-1.9278412-2.4734497v2.063385v0.1201782c0,0.3688354-0.2132874,0.6092224-0.5397034,0.6092224
				c-0.3252258,0-0.5455933-0.247467-0.5455933-0.6092224v-0.1201782v-3.4597778
				c0-0.2062073,0.0212097-0.2981262,0.0919189-0.3970947c0.1072235-0.1555481,0.2557068-0.2344971,0.4253998-0.2344971
				c0.1991425,0,0.326416,0.0718689,0.5102386,0.3122559l1.9855804,2.5028992V417.322876z"/>
			<path class="st4" d="M177.3868256,420.5622864l-0.1496582,0.3476257l-0.0424194,0.1060486
				c-0.1201935,0.2627869-0.2898865,0.3829651-0.5314636,0.3829651c-0.2898712,0-0.5455933-0.2333069-0.5455933-0.5173035
				c0-0.0919189,0.0282898-0.1991577,0.077774-0.3052063l0.0494995-0.1060486l1.5672607-3.5092468
				c0.0989838-0.2191772,0.2757416-0.3323059,0.5173035-0.3323059c0.2262573,0,0.4253998,0.1201782,0.5173187,0.3323059
				l1.6096802,3.4950867c0.1060486,0.2262573,0.1201935,0.2981567,0.1201935,0.425415
				c0,0.2839966-0.2557068,0.5243835-0.5455933,0.5243835c-0.2415771,0-0.418335-0.1272583-0.5326385-0.3759155
				l-0.0494843-0.1131287l-0.1626129-0.3546753H177.3868256z M178.3366089,418.2655945l-0.5597382,1.3610535h1.133606
				L178.3366089,418.2655945z"/>
			<path class="st4" d="M182.4727478,420.6907349v0.1201782c-0.0070648,0.3688354-0.2203522,0.6092224-0.5467682,0.6092224
				c-0.318161,0-0.5385284-0.247467-0.5385284-0.6092224v-0.1201782v-3.0555725h-0.7730255h-0.1060486
				c-0.3405609-0.0070801-0.5526733-0.1991577-0.5526733-0.4960938c0-0.2910767,0.2191925-0.4961243,0.5526733-0.4961243h0.1060486
				h2.6231079h0.1131134c0.3334961,0.0070801,0.5538483,0.1979675,0.5538483,0.4961243
				c0,0.296936-0.2274323,0.4960938-0.5538483,0.4960938h-0.1131134h-0.7647858V420.6907349z"/>
			<path class="st4" d="M184.1413574,417.322876v-0.1201782c0-0.3688354,0.2120972-0.6033325,0.5385132-0.6033325
				s0.5455933,0.2415466,0.5455933,0.6033325v0.1201782v2.2047729c0,0.4819641,0.3617706,0.8578796,0.8295898,0.8578796
				c0.2698517,0,0.5314636-0.1343384,0.6811066-0.3547058c0.1060638-0.148468,0.1484833-0.2910767,0.1484833-0.5314636v-2.1764832
				v-0.1201782c0.0070648-0.3688354,0.2191772-0.6033325,0.5385284-0.6033325c0.326416,0,0.5455933,0.2415466,0.5455933,0.6033325
				v0.1201782v2.1764832c0,1.0982666-0.822525,1.9419861-1.8995667,1.9419861c-1.0770569,0-1.9278412-0.8507996-1.9278412-1.9136963
				V417.322876z"/>
			<path class="st4" d="M189.8011627,420.6907349v0.1201782c0,0.3688354-0.2132874,0.6092224-0.5397034,0.6092224
				c-0.3252411,0-0.5455933-0.247467-0.5455933-0.6092224v-0.1201782v-3.2900696v-0.1272888
				c0.0070648-0.4112549,0.227417-0.6304321,0.6316071-0.6304321h0.1272736h0.7294159
				c0.5538483,0,0.9002991,0.0848389,1.1984253,0.2828369c0.4890289,0.3193359,0.7942352,0.8719788,0.7942352,1.4388123
				c0,0.6598816-0.3900452,1.1630554-1.0782318,1.4034424l0.8083801,0.5892029
				c0.1991425,0.148468,0.2981262,0.3110962,0.2981262,0.5031738c0,0.3052063-0.2344971,0.5526733-0.5314484,0.5526733
				c-0.1213684,0-0.248642-0.0565796-0.3759003-0.1555481l-1.5165863-1.2408447V420.6907349z M190.2112427,419.0810547
				c0.3193359,0,0.474884-0.0282898,0.6033325-0.1060791c0.2050323-0.1284485,0.3323059-0.3546753,0.3323059-0.6033325
				c0-0.2686768-0.1555481-0.5173035-0.4030151-0.6375122c-0.1355133-0.0636292-0.2132874-0.0706787-0.553833-0.0706787h-0.3888702
				v1.4176025H190.2112427z"/>
			<path class="st4" d="M193.5331116,420.5622864l-0.1496429,0.3476257l-0.0424347,0.1060486
				c-0.1201935,0.2627869-0.2898712,0.3829651-0.5314484,0.3829651c-0.2898865,0-0.5455933-0.2333069-0.5455933-0.5173035
				c0-0.0919189,0.0282745-0.1991577,0.077774-0.3052063l0.0494843-0.1060486l1.5672607-3.5092468
				c0.0989838-0.2191772,0.2757416-0.3323059,0.5173187-0.3323059c0.2262573,0,0.4253998,0.1201782,0.5173187,0.3323059
				l1.6096802,3.4950867c0.1060486,0.2262573,0.1201935,0.2981567,0.1201935,0.425415
				c0,0.2839966-0.255722,0.5243835-0.5455933,0.5243835c-0.2415771,0-0.418335-0.1272583-0.5326385-0.3759155l-0.0494843-0.1131287
				l-0.1626282-0.3546753H193.5331116z M194.4828949,418.2655945l-0.5597382,1.3610535h1.1336212L194.4828949,418.2655945z"/>
			<path class="st4" d="M199.4757385,420.3784485h0.1143036c0.3323059,0.0070801,0.5455933,0.1979675,0.5455933,0.4960938
				s-0.2203522,0.4961243-0.5455933,0.4961243h-0.1143036h-1.6226501h-0.1272583
				c-0.4112549-0.0070801-0.6316223-0.2274475-0.6316223-0.6304626v-0.1284485v-3.2888794v-0.1201782
				c0.0070801-0.3688354,0.2203674-0.6033325,0.5455933-0.6033325c0.326416,0,0.5397034,0.2415466,0.5397034,0.6033325v0.1201782
				v3.0555725H199.4757385z"/>
			<path class="st4" d="M174.6022797,424.4815979h1.0546722h0.0942688c0.2886963,0.0070801,0.4772491,0.1838379,0.4772491,0.4536743
				c0,0.2615967-0.1944427,0.4466248-0.4772491,0.4466248h-0.0942688h-1.0546722v1.2337646v0.1202087
				c0,0.3688354-0.2014923,0.6092224-0.5114136,0.6092224c-0.3087463,0-0.5173187-0.247467-0.5173187-0.6092224v-0.1202087
				v-3.2900696v-0.1272583c0.0070801-0.4112549,0.2156525-0.6304321,0.5986328-0.6304321h0.1213684h1.6733093h0.100174
				c0.322876,0.0070496,0.5243835,0.1979675,0.5243835,0.4960938c0,0.2969666-0.2085876,0.4960938-0.5243835,0.4960938h-0.100174
				h-1.3645782V424.4815979z"/>
			<path class="st4" d="M179.298172,426.3034058h0.1072235c0.3158112,0.0070496,0.5173187,0.1979675,0.5173187,0.4960938
				s-0.2085724,0.4960938-0.5173187,0.4960938h-0.1072235h-1.5389862h-0.1213684
				c-0.3900452-0.0070801-0.5986176-0.227417-0.5986176-0.6304321v-0.1284485v-3.2888794v-0.1202087
				c0.0070648-0.3688354,0.2085724-0.6033325,0.5173035-0.6033325c0.3099213,0,0.5114288,0.2415771,0.5114288,0.6033325v0.1202087
				v3.0555725H179.298172z"/>
			<path class="st4" d="M181.0822449,426.4872131l-0.1414032,0.3476257l-0.0400696,0.1060486
				c-0.1143036,0.2627869-0.2757416,0.3829956-0.5043488,0.3829956c-0.2745667,0-0.5173035-0.2333374-0.5173035-0.517334
				c0-0.0918884,0.0270996-0.1991272,0.074234-0.3051758l0.0471344-0.1060791l1.4847717-3.5092468
				c0.0942688-0.2191772,0.2627869-0.3323059,0.491394-0.3323059c0.2144623,0,0.4029999,0.1202087,0.4902039,0.3323059
				l1.5260162,3.4951172c0.1001587,0.2262573,0.1143036,0.2981262,0.1143036,0.4253845
				c0,0.2839966-0.2427521,0.5243835-0.5184937,0.5243835c-0.2274323,0-0.3959351-0.1272583-0.5031738-0.375885
				l-0.0471344-0.1131287l-0.1543732-0.3547058H181.0822449z M181.9825439,424.1905518l-0.5302734,1.3610229h1.0746918
				L181.9825439,424.1905518z"/>
			<path class="st4" d="M186.5700073,423.0215759c0.1402283-0.3829651,0.2745667-0.504364,0.5373535-0.504364
				c0.2686768,0,0.5043488,0.2415771,0.5043488,0.5184937c0,0.0919189-0.0200348,0.1979675-0.0612793,0.2969666
				l-0.0471344,0.1060486l-1.4305573,3.4668274c-0.1213837,0.2839966-0.2757568,0.4112549-0.4972839,0.4112549
				c-0.2286072,0-0.4041901-0.1343384-0.5184937-0.4112549l-1.4176025-3.4585876l-0.0471344-0.1072083
				c-0.0471344-0.1060791-0.0671692-0.2121277-0.0671692-0.3040466c0-0.2769165,0.2415619-0.5184937,0.5173187-0.5184937
				c0.2627716,0,0.39711,0.1284485,0.5385132,0.5114441l0.9874878,2.600708L186.5700073,423.0215759z"/>
			<path class="st4" d="M191.5946655,423.2266235c0.4360046,0.4395447,0.6787567,1.0558167,0.6787567,1.7157288
				c0,1.3327637-1.0417023,2.4239502-2.3120117,2.4239502c-1.2844391,0-2.3190613-1.084137-2.3190613-2.4310303
				s1.0287323-2.43927,2.3049316-2.43927C190.5388336,422.4960022,191.1374512,422.7658691,191.5946655,423.2266235z
				 M188.6640167,424.9423523c0,0.7435608,0.5844727,1.3539734,1.2973938,1.3539734
				c0.7117615,0,1.2832794-0.6033325,1.2832794-1.3539734c0-0.7518005-0.578598-1.368103-1.2832794-1.368103
				C189.2555695,423.5742493,188.6640167,424.1976013,188.6640167,424.9423523z"/>
			<path class="st4" d="M193.8642426,426.6156616v0.1202087c0,0.3688354-0.2015076,0.6092224-0.5114136,0.6092224
				c-0.3087463,0-0.5173187-0.247467-0.5173187-0.6092224v-0.1202087v-3.2900696v-0.1272583
				c0.0070648-0.4112549,0.2156525-0.6304321,0.5986176-0.6304321h0.1213837h0.6917114
				c0.5243835,0,0.8531494,0.0848389,1.1359711,0.2828064c0.4631042,0.3193359,0.7529907,0.8720093,0.7529907,1.4388123
				c0,0.6599121-0.3700256,1.1630859-1.0216675,1.4034729l0.7659454,0.5891724
				c0.1885529,0.1484985,0.2816467,0.3110962,0.2816467,0.5031738c0,0.3052063-0.2215424,0.5526733-0.5031738,0.5526733
				c-0.1143036,0-0.2356873-0.0565491-0.3570557-0.1555481l-1.4376373-1.2408447V426.6156616z M194.2542877,425.0059814
				c0.3016663,0,0.4501495-0.0282898,0.570343-0.1060486c0.1956177-0.1284485,0.3169861-0.3547058,0.3169861-0.6033325
				c0-0.2686768-0.148468-0.517334-0.3841553-0.6375122c-0.1272583-0.0636292-0.2015076-0.0707092-0.5232086-0.0707092h-0.3700104
				v1.4176025H194.2542877z"/>
			<path class="st4" d="M199.4934082,423.4104309c0,0.276947-0.2015076,0.504364-0.4501343,0.504364
				c-0.087204,0-0.1814728-0.0365295-0.255722-0.0930786c-0.0129547-0.0070801-0.1001587-0.0848694-0.2286072-0.190918
				c-0.1743927-0.148468-0.3558655-0.227417-0.5231934-0.227417c-0.2757568,0-0.504364,0.1991272-0.504364,0.4324646
				c0,0.2344971,0.1343384,0.3476257,0.5444183,0.4536743c0.3900452,0.1001587,0.6716919,0.1991577,0.893219,0.3122864
				c0.4713593,0.2344971,0.7258911,0.6669617,0.7258911,1.2125549c0,0.9215088-0.6646118,1.5519409-1.6332397,1.5519409
				c-0.8731995,0-1.646225-0.5385132-1.646225-1.1477661c0-0.2769165,0.2156525-0.5184937,0.4642944-0.5184937
				c0.1873627,0,0.3287659,0.0718994,0.5503082,0.276947c0.2627869,0.2557068,0.4772491,0.3617554,0.7058563,0.3617554
				c0.3028412,0,0.5314484-0.2203674,0.5314484-0.5102539c0-0.2486267-0.161438-0.4041748-0.5243835-0.5173035l-0.4442444-0.1355286
				c-0.3287811-0.0989685-0.5974426-0.2191772-0.7659607-0.3464355c-0.2686768-0.1920776-0.4159698-0.5326233-0.4159698-0.9438782
				c0-0.81427,0.6375122-1.3893433,1.5590057-1.3893433C198.8547211,422.4960022,199.4934082,422.9072571,199.4934082,423.4104309z"
				/>
		</g>
		<g>
			<g>
				<path class="st4" d="M46.5572815,400.7134705c0.6905365,0,1.3044777,0.2309875,1.8583221,0.682312
					c0.3323059,0.2733765,0.4595718,0.4689941,0.4595718,0.7247009c0,0.3499756-0.2804565,0.6304321-0.6386871,0.6304321
					c-0.1791153,0-0.3158073-0.0589294-0.4772491-0.2038574l-0.136692-0.1284485
					c-0.2816353-0.2557068-0.6822891-0.408905-1.0746918-0.408905c-0.8943977,0-1.6191063,0.7412109-1.6191063,1.6367798
					c0,0.8955994,0.7412071,1.62854,1.6367836,1.62854c0.3582306,0,0.7836266-0.144928,1.0063438-0.3499756l0.2297859-0.2132874
					c0.1531906-0.1449585,0.3063812-0.2038574,0.4854965-0.2038574c0.3499794,0,0.6398659,0.2898865,0.6398659,0.6386719
					c0,0.1968079-0.0942726,0.3664856-0.30756,0.5797729c-0.5196686,0.5196838-1.303299,0.8437195-2.0539322,0.8437195
					c-1.6108589,0-2.9412613-1.3292236-2.9412613-2.9318237C43.6242714,402.0262146,44.9452438,400.7134705,46.5572815,400.7134705z
					"/>
				<path class="st4" d="M50.9585686,405.5130615l-0.1791153,0.418335l-0.0518494,0.1272583
					c-0.1449432,0.3157959-0.3488045,0.4607544-0.6386871,0.4607544c-0.3499832,0-0.6563644-0.2816467-0.6563644-0.6221924
					c0-0.1107788,0.0341759-0.2392273,0.0930939-0.3664856l0.0600967-0.1284485l1.8842468-4.2198181
					c0.1190147-0.2639465,0.3323059-0.4006348,0.6221886-0.4006348c0.2722092,0,0.5114212,0.144928,0.6221886,0.4006348
					l1.9349174,4.2033386c0.1284447,0.2721863,0.1449432,0.3582153,0.1449432,0.5114136
					c0,0.3405457-0.3063812,0.6304321-0.6563644,0.6304321c-0.2898827,0-0.5031738-0.1531982-0.6386871-0.4513245
					l-0.0600967-0.1366882l-0.1956139-0.4265747H50.9585686z M52.1004257,402.7509155l-0.6728592,1.6367798h1.3633957
					L52.1004257,402.7509155z"/>
				<path class="st4" d="M56.8941154,403.1008911h1.3386536h0.1190147c0.3664818,0.0082703,0.6056938,0.2215576,0.6056938,0.5455933
					c0,0.3158264-0.2474632,0.5373535-0.6056938,0.5373535H58.232769h-1.3386536v1.4824219v0.144928
					c0,0.4442444-0.2557106,0.7341309-0.6481133,0.7341309s-0.6563644-0.2992859-0.6563644-0.7341309v-0.144928v-3.9546814
					v-0.1531982c0.0082512-0.4949036,0.2733879-0.7588806,0.7588844-0.7588806h0.1531906h2.1234589h0.1272659
					c0.4089012,0.0082397,0.6646118,0.2380371,0.6646118,0.596283c0,0.3582153-0.263958,0.5962524-0.6646118,0.5962524h-0.1272659
					h-1.7310562V403.1008911z"/>
				<path class="st4" d="M61.6277084,403.1008911h1.3386497h0.1190186c0.366478,0.0082703,0.6056938,0.2215576,0.6056938,0.5455933
					c0,0.3158264-0.2474632,0.5373535-0.6056938,0.5373535h-0.1190186h-1.3386497v1.4824219v0.144928
					c0,0.4442444-0.2557106,0.7341309-0.6481133,0.7341309c-0.3924065,0-0.6563644-0.2992859-0.6563644-0.7341309v-0.144928
					v-3.9546814v-0.1531982c0.0082474-0.4949036,0.2733879-0.7588806,0.7588844-0.7588806h0.1531906h2.1234589h0.1272659
					c0.4089012,0.0082397,0.6646118,0.2380371,0.6646118,0.596283c0,0.3582153-0.2639618,0.5962524-0.6646118,0.5962524h-0.1272659
					h-1.7310562V403.1008911z"/>
				<path class="st4" d="M66.3624802,403.0502319h1.3303986h0.1190186c0.366478,0.0082397,0.6045151,0.2120972,0.6045151,0.5361633
					s-0.2462845,0.5455933-0.6045151,0.5455933h-0.1190186h-1.3303986v1.1595459h1.7310562h0.1355133
					c0.40065,0.0082397,0.6657867,0.2391968,0.6657867,0.5974426c0,0.3570557-0.2733841,0.5962524-0.6657867,0.5962524h-0.1355133
					h-2.1234589h-0.1531906c-0.4949265-0.0082397-0.7588882-0.2722168-0.7588882-0.7588806v-0.1531982v-3.8615723v-0.1531982
					c0.0082474-0.4949036,0.2733917-0.7588806,0.7588882-0.7588806h0.1531906h2.0798569h0.1366882
					c0.4006577,0.0082397,0.6563644,0.2380371,0.6563644,0.596283c0,0.3582153-0.2639542,0.5962524-0.6563644,0.5962524h-0.1366882
					h-1.6874542V403.0502319z"/>
				<path class="st4" d="M71.1043167,405.6662598v0.144928c0,0.4442444-0.2557068,0.7341309-0.6481094,0.7341309
					c-0.3924103,0-0.6563644-0.2992859-0.6563644-0.7341309v-0.144928v-4.0489502v-0.1449585
					c0.0082474-0.4430542,0.2639542-0.7247009,0.6563644-0.7247009c0.3924026,0,0.6481094,0.2898865,0.6481094,0.7247009v0.1449585
					V405.6662598z"/>
				<path class="st4" d="M76.1525421,401.6173096v-0.1449585c0.0082474-0.4430542,0.2639542-0.7247009,0.6481094-0.7247009
					c0.3912277,0,0.6563644,0.2898865,0.6563644,0.7247009v0.1449585v4.0925293c0,0.3146362-0.0176773,0.425415-0.1025162,0.5455933
					c-0.1284485,0.1956177-0.3499832,0.3146362-0.5880203,0.3146362c-0.239212,0-0.366478-0.0765991-0.6139374-0.408905
					l-2.3190765-2.9754333v2.4805298v0.144928c0,0.4442444-0.2557068,0.7341309-0.6481094,0.7341309
					s-0.6563644-0.2992859-0.6563644-0.7341309v-0.144928v-4.159729c0-0.247467,0.0259247-0.3582153,0.1107712-0.4772339
					c0.1284409-0.1873779,0.3075562-0.2816467,0.5114212-0.2816467c0.239212,0,0.3924026,0.0860291,0.6139374,0.3759155
					l2.3874207,3.0084229V401.6173096z"/>
				<path class="st4" d="M80.180275,403.0502319h1.3304062h0.1190109c0.3664856,0.0082397,0.6045151,0.2120972,0.6045151,0.5361633
					s-0.2462845,0.5455933-0.6045151,0.5455933h-0.1190109H80.180275v1.1595459h1.7310562h0.1355133
					c0.40065,0.0082397,0.6657944,0.2391968,0.6657944,0.5974426c0,0.3570557-0.2733917,0.5962524-0.6657944,0.5962524h-0.1355133
					h-2.1234589h-0.1531906c-0.4949265-0.0082397-0.7588806-0.2722168-0.7588806-0.7588806v-0.1531982v-3.8615723v-0.1531982
					c0.0082474-0.4949036,0.2733841-0.7588806,0.7588806-0.7588806h0.1531906h2.0798569h0.1366959
					c0.40065,0.0082397,0.6563644,0.2380371,0.6563644,0.596283c0,0.3582153-0.2639618,0.5962524-0.6563644,0.5962524h-0.1366959
					H80.180275V403.0502319z"/>
				<path class="st4" d="M57.4408913,410.0887451h1.3386497h0.1190186c0.366478,0.0082397,0.60569,0.2215271,0.60569,0.5455933
					c0,0.3158264-0.2474632,0.5373535-0.60569,0.5373535H58.779541h-1.3386497v1.4824219v0.144928
					c0,0.4442444-0.2557106,0.7341309-0.6481171,0.7341309c-0.3924026,0-0.6563606-0.2993164-0.6563606-0.7341309v-0.144928
					v-3.9546814v-0.1531982c0.0082474-0.4949341,0.2733841-0.7588806,0.7588806-0.7588806h0.1531906h2.1234589h0.1272659
					c0.4089012,0.0082397,0.6646118,0.2380371,0.6646118,0.5962524c0,0.3582458-0.263958,0.596283-0.6646118,0.596283h-0.1272659
					h-1.7310524V410.0887451z"/>
				<path class="st4" d="M62.1744804,412.6541138v0.144928c0,0.4442444-0.2557106,0.7341309-0.6481133,0.7341309
					s-0.6563644-0.2993164-0.6563644-0.7341309v-0.144928v-3.9546814v-0.1531982
					c0.0082512-0.4949341,0.2733879-0.7588806,0.7588844-0.7588806h0.1531906h0.8778992
					c0.6657906,0,1.0829391,0.1013489,1.4411736,0.3405457c0.5880127,0.3841553,0.9544907,1.0487671,0.9544907,1.7310486
					c0,0.7919006-0.4689941,1.397583-1.2950478,1.6874695l0.9709969,0.7070312
					c0.239212,0.1791077,0.3582306,0.3759155,0.3582306,0.6056824c0,0.3664856-0.2816391,0.6646118-0.6386871,0.6646118
					c-0.1449432,0-0.2993164-0.0671692-0.452507-0.1873474l-1.8241463-1.4918518V412.6541138z M62.6694031,410.7191772
					c0.3829765,0,0.570343-0.0341492,0.7235336-0.1272583c0.2474594-0.1531982,0.40065-0.4265747,0.40065-0.7247009
					c0-0.3240662-0.1873627-0.6221924-0.4854965-0.7671509c-0.161438-0.0765686-0.2557106-0.0859985-0.6646118-0.0859985h-0.468998
					v1.7051086H62.6694031z"/>
				<path class="st4" d="M67.4194946,410.0380859h1.3303986h0.1190186c0.366478,0.0082397,0.6045151,0.2120972,0.6045151,0.5361633
					s-0.2462845,0.5455933-0.6045151,0.5455933h-0.1190186h-1.3303986v1.1595459h1.7310562h0.1355133
					c0.40065,0.0082397,0.6657867,0.2391968,0.6657867,0.5974426c0,0.3570251-0.2733841,0.5962524-0.6657867,0.5962524h-0.1355133
					H67.027092h-0.1531906c-0.4949265-0.0082397-0.7588882-0.2722168-0.7588882-0.7588806v-0.1531982v-3.8615723v-0.1531982
					c0.008255-0.4949341,0.2733917-0.7588806,0.7588882-0.7588806h0.1531906h2.0798569h0.1366959
					c0.40065,0.0082397,0.6563568,0.2380371,0.6563568,0.5962524c0,0.3582458-0.2639542,0.596283-0.6563568,0.596283h-0.1366959
					h-1.6874542V410.0380859z"/>
				<path class="st4" d="M72.1625137,410.0380859h1.3303986h0.1190186c0.366478,0.0082397,0.6045151,0.2120972,0.6045151,0.5361633
					s-0.2462845,0.5455933-0.6045151,0.5455933h-0.1190186h-1.3303986v1.1595459h1.7310562h0.1355133
					c0.40065,0.0082397,0.6657867,0.2391968,0.6657867,0.5974426c0,0.3570251-0.2733841,0.5962524-0.6657867,0.5962524h-0.1355133
					h-2.1234589h-0.1531906c-0.4949265-0.0082397-0.7588882-0.2722168-0.7588882-0.7588806v-0.1531982v-3.8615723v-0.1531982
					c0.008255-0.4949341,0.2733917-0.7588806,0.7588882-0.7588806h0.1531906h2.0798569h0.1366882
					c0.4006577,0.0082397,0.6563644,0.2380371,0.6563644,0.5962524c0,0.3582458-0.2639542,0.596283-0.6563644,0.596283H73.849968
					h-1.6874542V410.0380859z"/>
			</g>
		</g>
	</g>
	<polygon class="st5" points="24.6725559,594.6373901 53.5478592,594.6373901 52.0448074,358.4444885 23.2865696,358.4444885 	"/>
</g>
</svg>
