<?xml version="1.0" encoding="utf-8"?>
<!-- Generator: Adobe Illustrator 21.1.0, SVG Export Plug-In . SVG Version: 6.00 Build 0)  -->
<svg version="1.1" id="Layer_1" xmlns="http://www.w3.org/2000/svg" xmlns:xlink="http://www.w3.org/1999/xlink" x="0px" y="0px"
	 viewBox="0 0 225.8300781 721.0617065" style="enable-background:new 0 0 225.8300781 721.0617065;" xml:space="preserve">
<style type="text/css">
	.st0{fill:#FFC325;}
	.st1{opacity:0.1;enable-background:new    ;}
	.st2{fill:#00713E;}
	.st3{opacity:0.7;fill:#E6E7E8;enable-background:new    ;}
	.st4{fill:#00498F;}
	.st5{fill:#48A842;}
	.st6{fill:#FFFFFF;}
	.st7{fill:#EB008B;}
	.st8{fill:#BEC6DF;}
	.st9{fill:#FFC325;stroke:#FFEE00;stroke-width:3.4809;}
	.st10{fill:#FFFFFF;stroke:#FFFFFF;stroke-width:3.4521599;}
	.st11{fill:#FFF100;}
	.st12{opacity:0.4;fill:#FFFFFF;enable-background:new    ;}
	.st13{opacity:0.2;fill:#FFFFFF;enable-background:new    ;}
	.st14{fill:#4D9D45;}
	.st15{fill:url(#SVGID_1_);}
</style>
<g>
	<path class="st0" d="M52.4463539,134.3097839c-22.235117,36.0768585-37.3039513,70.386673-39.2673187,106.3162689
		s-16.7590141,55.1433868-12.3692055,82.8540497c3.1413853,19.8299866,8.8351469,12.9582214,8.8351469,35.3405762v236.1929321
		c0,0-7.0681176,8.2461548-6.6754446,22.7750244c0.392673,14.5289307-0.7853465,89.52948,33.7698936,96.5975952
		s45.1574097-11.3875122,45.1574097-11.3875122s2.7427368,18.0629883,31.0181961,18.0629883
		s31.0181961-18.0629883,31.0181961-18.0629883s10.6021881,18.4556274,45.1574249,11.3875122
		s33.3772125-82.0686646,33.7698975-96.5975952c0.3926697-14.5288696-6.6754456-22.7750244-6.6754456-22.7750244
		l1.9633636-236.1929321c0-22.3823547,3.7303925-15.5105896,6.8717804-35.3405762
		c4.389801-27.7106628-10.405838-46.9244385-12.3692017-82.8540497
		c-1.9633789-35.9295959-17.0322113-70.2394104-39.2673187-106.3162689H52.4463539z"/>
	<polygon class="st1" points="9.6449785,358.816925 9.6449785,595.0136108 217.1725464,595.0136108 219.148468,358.816925 	"/>
	<path class="st2" d="M156.4189301,59.2110405c1.0296936-0.0965347,1.9750061-0.2633858,2.8236542-0.46521
		c2.9106293-0.6922073,4.9345245-3.3378067,4.8320312-6.3278503c-0.2856293-8.3331642-1.5153503-25.8713379-2.4105835-38.0213699
		c-0.5422058-7.3587575-6.5168304-13.1353416-13.8893585-13.4370699L134.734436,0.425856
		c-13.8737946-0.5677989-27.7649994-0.5677989-41.6387939,0L80.0554047,0.959541
		C72.682869,1.2612695,66.7082596,7.0378537,66.1660538,14.3966112C65.270813,26.5466423,64.0410995,44.084816,63.755455,52.4179802
		c-0.1024933,2.9900436,1.9214096,5.635643,4.8320312,6.3278503c0.8486481,0.2018242,1.7939682,0.3686752,2.8236694,0.46521
		H156.4189301z"/>
	<path class="st3" d="M71.4111557,59.2110405c0,0-9.7186623,0.5890121-9.7186623,3.8285637
		c0,3.2395554,11.4856911,3.2395554,11.4856911,3.2395554s2.5032883,31.9537811-19.7318306,68.0306244H174.383728
		c-22.2351227-36.0768433-19.7318268-68.0306244-19.7318268-68.0306244s11.4856873,0,11.4856873-3.2395554
		c0-3.2395515-9.7186584-3.8285637-9.7186584-3.8285637H71.4111557z"/>
	<g>
		<g>
			<g>
				<path class="st4" d="M37.8774147,406.0112915c0.7605553,0,1.4362793,0.2537231,2.0466156,0.7510681
					c0.3663216,0.3004456,0.5070648,0.5165405,0.5070648,0.7982178c0,0.3846741-0.3098183,0.6945801-0.7043915,0.6945801
					c-0.196907,0-0.3471222-0.0655518-0.525589-0.2251587l-0.150219-0.1408386
					c-0.3098221-0.2815552-0.7509995-0.4506531-1.1828651-0.4506531c-0.9860535,0-1.7837448,0.8166504-1.7837448,1.8026123
					c0,0.9856262,0.8165512,1.7932129,1.8026009,1.7932129c0.3941498,0,0.8636627-0.1596069,1.1075935-0.3851929
					l0.2537422-0.2345581c0.1686592-0.1595764,0.3376541-0.2250671,0.5349808-0.2250671
					c0.3847618,0,0.7039719,0.3188782,0.7039719,0.7039795c0,0.2157593-0.1031036,0.4036255-0.3376503,0.6385193
					c-0.5730362,0.5726929-1.4366989,0.9291077-2.2626381,0.9291077c-1.7747688,0-3.2392998-1.464447-3.2392998-3.2294006
					C34.6475868,407.4573669,36.102726,406.0112915,37.8774147,406.0112915z"/>
				<path class="st4" d="M42.7162819,411.2971191l-0.1972427,0.4600525l-0.0560799,0.1408081
					c-0.1596832,0.3474731-0.3851776,0.5071411-0.7044754,0.5071411c-0.3847618,0-0.7228317-0.309906-0.7228317-0.6856079
					c0-0.1219482,0.0376358-0.2627869,0.1031876-0.4036255l0.0658875-0.1407471l2.0747833-4.6473083
					c0.1313591-0.2909546,0.3663216-0.4411926,0.6856155-0.4411926c0.3004341,0,0.5631447,0.1596069,0.685112,0.4411926
					l2.1312828,4.6284485c0.1408272,0.3004456,0.1596069,0.394165,0.1596069,0.5632324
					c0,0.3757019-0.3380737,0.6950073-0.7228355,0.6950073c-0.3192101,0-0.5541763-0.1690674-0.7043915-0.4977722
					l-0.065464-0.1502075l-0.2161102-0.4694214H42.7162819z M43.9740982,408.2551575l-0.7416954,1.8025818h1.5021667
					L43.9740982,408.2551575z"/>
				<path class="st4" d="M49.2463493,408.6402588h1.4739189h0.1314354c0.4039612,0.0094604,0.6667557,0.2440186,0.6667557,0.6008606
					c0,0.3475342-0.2721863,0.5914612-0.6667557,0.5914612h-0.1314354h-1.4739189v1.6335449v0.159668
					c0,0.4882812-0.2815742,0.8074951-0.7133636,0.8074951c-0.4322853,0-0.7232513-0.3285828-0.7232513-0.8074951v-0.159668
					v-4.3562012v-0.1690979c0.009388-0.5443726,0.3004341-0.8353882,0.8357468-0.8353882h0.1690788h2.3375778h0.1408272
					c0.4506493,0.0093689,0.7322235,0.2627869,0.7322235,0.6569214c0,0.3945923-0.2910461,0.6573792-0.7322235,0.6573792h-0.1408272
					h-1.9057884V408.6402588z"/>
				<path class="st4" d="M54.4536362,408.6402588h1.4739189h0.1313515c0.4039612,0.0094604,0.6667557,0.2440186,0.6667557,0.6008606
					c0,0.3475342-0.2721863,0.5914612-0.6667557,0.5914612h-0.1313515h-1.4739189v1.6335449v0.159668
					c0,0.4882812-0.2816582,0.8074951-0.7134476,0.8074951c-0.4322014,0-0.7232513-0.3285828-0.7232513-0.8074951v-0.159668
					v-4.3562012v-0.1690979c0.0093918-0.5443726,0.3004341-0.8353882,0.8358307-0.8353882h0.1689949h2.3375778h0.1408272
					c0.4506493,0.0093689,0.7322235,0.2627869,0.7322235,0.6569214c0,0.3945923-0.2910461,0.6573792-0.7322235,0.6573792h-0.1408272
					h-1.9057045V408.6402588z"/>
				<path class="st4" d="M59.6608391,408.5838318h1.4644432h0.1314392c0.4039574,0.0093994,0.6667557,0.2348938,0.6667557,0.5913696
					c0,0.3569641-0.2721863,0.6008911-0.6667557,0.6008911h-0.1314392h-1.4644432v1.2770996h1.9057083h0.1502113
					c0.4412613,0.0093689,0.7322235,0.2626953,0.7322235,0.6568604c0,0.3946533-0.3004341,0.6573486-0.7322235,0.6573486h-0.1502113
					h-2.3375816h-0.1689949c-0.5447884-0.0093689-0.8358307-0.300415-0.8358307-0.8353882v-0.1690063v-4.2530823v-0.1690979
					c0.009388-0.5443726,0.3004341-0.8353882,0.8358307-0.8353882h0.1689949h2.2905502h0.1505508
					c0.4412651,0.0093689,0.7229195,0.2627869,0.7229195,0.6569214c0,0.3945923-0.2910461,0.6573792-0.7229195,0.6573792H61.519516
					h-1.8586769V408.5838318z"/>
				<path class="st4" d="M64.8774261,411.4661255v0.159668c0,0.4882812-0.2815704,0.8074951-0.7134399,0.8074951
					c-0.4317932,0-0.7231712-0.3285828-0.7231712-0.8074951v-0.159668v-4.4594116v-0.1596069
					c0.009388-0.4882812,0.291378-0.7981873,0.7231712-0.7981873c0.4318695,0,0.7134399,0.3193054,0.7134399,0.7981873v0.1596069
					V411.4661255z"/>
				<path class="st4" d="M70.4333496,407.0067139v-0.1596069c0.0094681-0.4882812,0.2910461-0.7981873,0.7134476-0.7981873
					c0.4318695,0,0.7228317,0.3193054,0.7228317,0.7981873v0.1596069v4.5065002
					c0,0.3470459-0.0187759,0.4694214-0.1124954,0.6008606c-0.140831,0.2156982-0.3847656,0.3470459-0.6479797,0.3470459
					c-0.2627945,0-0.4035339-0.0842285-0.6758041-0.4506531l-2.5535965-3.2764282v2.7320862v0.159668
					c0,0.4882812-0.281662,0.8074951-0.7134476,0.8074951c-0.4322128,0-0.7232513-0.3285828-0.7232513-0.8074951v-0.159668
					v-4.5813599c0-0.2726135,0.028244-0.3945923,0.1223831-0.5259399c0.140831-0.2067261,0.3376541-0.309906,0.5632324-0.309906
					c0.2627106,0,0.4317856,0.0937195,0.6757202,0.4130249l2.6289597,3.3141479V407.0067139z"/>
				<path class="st4" d="M74.860466,408.5838318h1.4645309h0.1313477c0.4039612,0.0093994,0.6667557,0.2348938,0.6667557,0.5913696
					c0,0.3569641-0.2721786,0.6008911-0.6667557,0.6008911h-0.1313477H74.860466v1.2770996h1.9057007h0.1502228
					c0.4412613,0.0093689,0.7322998,0.2626953,0.7322998,0.6568604c0,0.3946533-0.3004303,0.6573486-0.7322998,0.6573486h-0.1502228
					h-2.3374939h-0.169075c-0.5443649-0.0093689-0.8358231-0.300415-0.8358231-0.8353882v-0.1690063v-4.2530823v-0.1690979
					c0.0094604-0.5443726,0.3004227-0.8353882,0.8358231-0.8353882h0.169075h2.2908936h0.1497955
					c0.441597,0.0093689,0.7232513,0.2627869,0.7232513,0.6569214c0,0.3945923-0.2910385,0.6573792-0.7232513,0.6573792h-0.1497955
					H74.860466V408.5838318z"/>
				<path class="st4" d="M49.8468781,416.3274536h1.4739189h0.1313553c0.4035378,0.0094604,0.6667557,0.2440186,0.6667557,0.6008606
					c0,0.3471375-0.2721863,0.5914917-0.6667557,0.5914917H51.320797h-1.4739189v1.6335144v0.159668
					c0,0.4883118-0.2816544,0.8075867-0.7134399,0.8075867c-0.4318771,0-0.7232552-0.3286743-0.7232552-0.8075867v-0.159668
					v-4.3562012v-0.1690674c0.009388-0.5443726,0.3004303-0.8354187,0.8358307-0.8354187h0.1689911h2.3375816h0.1408272
					c0.4506493,0.0094604,0.7322273,0.2627869,0.7322273,0.6569214c0,0.3945923-0.29105,0.6573792-0.7322273,0.6573792h-0.1408272
					h-1.9057083V416.3274536z"/>
				<path class="st4" d="M55.0540886,419.1533203v0.159668c0,0.4883118-0.2816582,0.8075867-0.7134514,0.8075867
					c-0.4317894,0-0.7232513-0.3286743-0.7232513-0.8075867v-0.159668v-4.3562012v-0.1690674
					c0.009388-0.5443726,0.3004303-0.8354187,0.8358307-0.8354187h0.1689911h0.9668541
					c0.7322235,0,1.1922607,0.1125793,1.5868301,0.3753662c0.6475563,0.4223938,1.0515175,1.1550293,1.0515175,1.9057007
					c0,0.8734741-0.5165367,1.5397949-1.4272232,1.8591003l1.0702896,0.7793274
					c0.2627945,0.1972656,0.3941574,0.4130249,0.3941574,0.6663513c0,0.4039612-0.3094101,0.7326355-0.7039795,0.7326355
					c-0.1596031,0-0.3286819-0.0752869-0.4976768-0.2067261l-2.0088882-1.6429138V419.1533203z M55.5984497,417.0221252
					c0.4224014,0,0.6291161-0.0377197,0.798111-0.1408386c0.2721825-0.1690674,0.4412613-0.4695129,0.4412613-0.7981873
					c0-0.3564453-0.2067184-0.6851196-0.5349808-0.8448181c-0.1784668-0.0843201-0.2819901-0.0937195-0.7326393-0.0937195
					h-0.5161133v1.8775635H55.5984497z"/>
				<path class="st4" d="M60.8240929,416.2710266h1.464447h0.1314392c0.4039612,0.0093994,0.6667519,0.2348938,0.6667519,0.5914001
					c0,0.3569336-0.2721825,0.6008606-0.6667519,0.6008606h-0.1314392h-1.464447v1.2770996h1.9057083h0.1502151
					c0.4412613,0.0093994,0.7322235,0.2627258,0.7322235,0.6569519c0,0.3945618-0.3004303,0.6572876-0.7322235,0.6572876h-0.1502151
					h-2.3375816h-0.1689911c-0.5447884-0.0093994-0.8358307-0.3004456-0.8358307-0.8353577v-0.1690674v-4.2530823v-0.1690674
					c0.009388-0.5443726,0.3004303-0.8354187,0.8358307-0.8354187h0.1689911h2.290554h0.1505508
					c0.4412613,0.0094604,0.7228355,0.2627869,0.7228355,0.6569214c0,0.3945923-0.2909622,0.6573792-0.7228355,0.6573792h-0.1505508
					h-1.8586807V416.2710266z"/>
				<path class="st4" d="M66.0406876,416.2710266h1.4645233h0.1313553c0.4040451,0.0093994,0.6667557,0.2348938,0.6667557,0.5914001
					c0,0.3569336-0.2721786,0.6008606-0.6667557,0.6008606h-0.1313553h-1.4645233v1.2770996h1.9057846h0.1502228
					c0.4411774,0.0093994,0.7322159,0.2627258,0.7322159,0.6569519c0,0.3945618-0.3004303,0.6572876-0.7322159,0.6572876h-0.1502228
					h-2.3375778h-0.169075c-0.5443649-0.0093994-0.8358307-0.3004456-0.8358307-0.8353577v-0.1690674v-4.2530823v-0.1690674
					c0.0094681-0.5443726,0.3004303-0.8354187,0.8358307-0.8354187h0.169075h2.2908859h0.1498032
					c0.4416809,0.0094604,0.7232513,0.2627869,0.7232513,0.6569214c0,0.3945923-0.2910461,0.6573792-0.7232513,0.6573792h-0.1498032
					h-1.8590927V416.2710266z"/>
			</g>
		</g>
		<g>
			<g>
				<path class="st5" d="M173.7631989,409.9263c4.7037354-3.4635315,9.8577271-4.4221497,16.0431671-4.3312988l25.3787384,0.1203918
					l-4.484375,24.420929c-1.3065186,5.3766785-3.5265656,10.3112793-8.3122101,13.8345947
					c-9.7988739,7.215271-24.1541138,5.4454346-32.0619507-3.9555054
					C162.4221039,430.6119385,163.9610596,417.142395,173.7631989,409.9263"/>
			</g>
			<g>
				<g>
					<path class="st6" d="M173.0894012,416.3913269h-0.2135925c-0.6819153,0-1.108429-0.3978577-1.108429-0.9945984
						c0-0.5828552,0.4404144-0.9945984,1.108429-0.9945984h0.2135925h1.2786865
						c0.8243408,0,1.2221832,0.4972534,1.2221832,1.4636841v6.6504517v0.2414246
						c0,0.7531738-0.4264984,1.2222595-1.0796814,1.2222595c-0.6540985,0-1.0945129-0.497345-1.0945129-1.2222595v-0.2414246
						v-6.1105957L173.0894012,416.3913269z"/>
					<path class="st6" d="M186.5458679,419.1341248c0,2.7001953-2.1742859,4.8883362-4.8749237,4.8883362
						c-2.6997833,0-4.8879089-2.1881409-4.8879089-4.8883362c0-2.6858826,2.1881256-4.8744202,4.8600769-4.8744202
						C184.3568268,414.2597046,186.5458679,416.4482422,186.5458679,419.1341248z M178.9286499,419.1058655
						c0,1.5345154,1.2082825,2.7567139,2.7283783,2.7567139c1.5062714,0,2.7145538-1.2221985,2.7145538-2.7284546
						c0-1.4923706-1.2221985-2.7141418-2.7284698-2.7141418
						C180.1647644,416.4199829,178.9286499,417.6278381,178.9286499,419.1058655z"/>
					<path class="st6" d="M196.8743439,419.1341248c0,2.7001953-2.1742859,4.8883362-4.8749084,4.8883362
						c-2.6997986,0-4.8879089-2.1881409-4.8879089-4.8883362c0-2.6858826,2.1881104-4.8744202,4.8600769-4.8744202
						C194.6853027,414.2597046,196.8743439,416.4482422,196.8743439,419.1341248z M189.2570496,419.1058655
						c0,1.5345154,1.2083588,2.7567139,2.7284698,2.7567139c1.5062714,0,2.7145386-1.2221985,2.7145386-2.7284546
						c0-1.4923706-1.2221832-2.7141418-2.7284546-2.7141418
						C190.4932404,416.4199829,189.2570496,417.6278381,189.2570496,419.1058655z"/>
					<path class="st6" d="M202.0168304,416.4768982c0,1.2078552-0.9667511,2.1737976-2.1602783,2.1737976
						c-1.2082825,0-2.1742859-0.9659424-2.1742859-2.1598816c0-1.1936035,0.9660034-2.1742859,2.1603699-2.1742859
						C201.0500793,414.3165283,202.0168304,415.282959,202.0168304,416.4768982z M198.975708,416.4768982
						c0,0.4972839,0.3830872,0.8808594,0.8669281,0.8808594c0.4830017,0,0.8660889-0.3835754,0.8660889-0.8669434
						c0-0.4830017-0.3830872-0.8808289-0.8660889-0.8808289C199.3587952,415.6099854,198.975708,416.0078125,198.975708,416.4768982
						z M203.5370178,415.1834717c0.3127594-0.6679993,0.525589-0.8808594,0.8808594-0.8808594
						c0.3265839,0,0.5402527,0.1989136,0.5402527,0.5256042c0,0.1563416-0.071167,0.4265137-0.1702423,0.6536865
						l-0.0573425,0.0993958l-3.5102234,7.546051l-0.085083,0.1845703c-0.2128448,0.4547729-0.4690857,0.6961975-0.7384338,0.6961975
						c-0.3126678,0-0.5975952-0.2553406-0.5975952-0.539856c0-0.1702576,0.0712585-0.3978271,0.1710968-0.6393433
						l0.0851593-0.1706543L203.5370178,415.1834717z M207.0611572,421.7913208c0,1.2078552-0.9659271,2.1742859-2.1741943,2.1742859
						c-1.1936035,0-2.1742859-0.9664307-2.1742859-2.1742859c0-1.193512,0.9806824-2.1598511,2.1603699-2.1598511
						C206.0804901,419.6314697,207.0611572,420.5978088,207.0611572,421.7913208z M204.0061188,421.7774048
						c0,0.497345,0.3839264,0.8951721,0.8808441,0.8951721c0.4829254,0,0.8668518-0.3978271,0.8668518-0.8812561
						c0-0.4830017-0.3839264-0.8665161-0.8807678-0.8665161
						C204.4039612,420.9248047,204.0061188,421.3083191,204.0061188,421.7774048z"/>
					<path class="st6" d="M177.3691559,426.0513611v-0.1362915c0.0082092-0.4170227,0.2488708-0.6818237,0.6090698-0.6818237
						c0.3691864,0,0.6180573,0.2730103,0.6180573,0.6818237v0.1362915v3.8495789
						c0,0.2967224-0.0164337,0.4010925-0.0966492,0.5132446c-0.120285,0.1846924-0.3282623,0.2967529-0.5533447,0.2967529
						c-0.2243195,0-0.3446045-0.0720215-0.5771332-0.3851013l-2.1815796-2.7988586v2.3338928v0.1362915
						c0,0.4170227-0.2406616,0.6896362-0.6090851,0.6896362c-0.3691711,0-0.6180573-0.2807312-0.6180573-0.6896362v-0.1362915
						v-3.9138489c0-0.2324524,0.0245667-0.3368225,0.1047974-0.4489746c0.1195221-0.1764526,0.2881927-0.264801,0.480484-0.264801
						c0.2251587,0,0.3692627,0.0802002,0.5779877,0.353241l2.2454529,2.830719V426.0513611z"/>
					<path class="st6" d="M180.4463348,429.7163391l-0.1686707,0.3929749l-0.0482788,0.1203003
						c-0.1358795,0.2967529-0.3282623,0.4330444-0.6008606,0.4330444c-0.3291016,0-0.618042-0.2643738-0.618042-0.5852661
						c0-0.1043701,0.0319214-0.224762,0.0884247-0.3450317l0.0565033-0.1199646l1.7722473-3.9698486
						c0.1121674-0.2488708,0.3127594-0.3770447,0.5853577-0.3770447c0.2561798,0,0.4813385,0.1362915,0.5852814,0.3770447
						l1.8206177,3.9534912c0.1203003,0.2565918,0.1358795,0.3368225,0.1358795,0.4813538
						c0,0.3208923-0.2881927,0.5934753-0.6172028,0.5934753c-0.2726135,0-0.4732056-0.1445007-0.6017151-0.4252319
						l-0.0556641-0.1281738l-0.1849976-0.401123H180.4463348z M181.5211487,427.1180725l-0.6335602,1.5397949h1.2827148
						L181.5211487,427.1180725z"/>
					<path class="st6" d="M186.2011719,429.8608704v0.1362915c-0.0081329,0.4170227-0.2487946,0.6896362-0.617218,0.6896362
						c-0.3610382,0-0.6098328-0.2807312-0.6098328-0.6896362v-0.1362915v-3.456665h-0.8743134h-0.120285
						c-0.3847656-0.0077209-0.6254272-0.2246704-0.6254272-0.5611267c0-0.3291016,0.2487946-0.561554,0.6254272-0.561554h0.120285
						h2.967453h0.1285858c0.3765564,0.0082092,0.6254272,0.2247314,0.6254272,0.561554
						c0,0.3364563-0.2570953,0.5611267-0.6254272,0.5611267h-0.1285858h-0.8660889V429.8608704z"/>
					<path class="st6" d="M188.0913696,426.0513611v-0.1362915c0-0.4170227,0.2406616-0.6818237,0.6099243-0.6818237
						c0.3683319,0,0.6172028,0.2730103,0.6172028,0.6818237v0.1362915v2.4943542
						c0,0.5451965,0.4093323,0.9701233,0.9381104,0.9701233c0.3045349,0,0.6016998-0.1523132,0.7703705-0.4007874
						c0.1202698-0.1685791,0.1678009-0.32901,0.1678009-0.6016235v-2.4620667v-0.1362915
						c0.0081329-0.4170227,0.2488098-0.6818237,0.6098328-0.6818237c0.3691711,0,0.6172333,0.2730103,0.6172333,0.6818237v0.1362915
						v2.4620667c0,1.2430725-0.9299011,2.1975098-2.148819,2.1975098s-2.1816559-0.9622498-2.1816559-2.1652222V426.0513611z"/>
					<path class="st6" d="M194.4970398,429.8608704v0.1362915c0,0.4170227-0.2406769,0.6896362-0.6090088,0.6896362
						c-0.3692474,0-0.618042-0.2807312-0.618042-0.6896362v-0.1362915v-3.7214661v-0.1440125
						c0.0081329-0.4654236,0.2570038-0.7138672,0.7137756-0.7138672h0.144104h0.826767
						c0.6254272,0,1.0184174,0.0961304,1.3548126,0.3208923c0.5534058,0.3605957,0.8980255,0.9864502,0.8980255,1.6278076
						c0,0.7457275-0.4404297,1.3154907-1.2189178,1.5880737l0.9143677,0.6655884
						c0.2243195,0.1685791,0.337326,0.3528137,0.337326,0.5693665c0,0.3450317-0.2652283,0.625824-0.6016998,0.625824
						c-0.136734,0-0.2807465-0.06427-0.4248352-0.1764526l-1.7166748-1.4035034V429.8608704z M194.9620209,428.0402527
						c0.3610382,0,0.5378265-0.0319519,0.6819305-0.1203003c0.2324371-0.144104,0.3773804-0.4007874,0.3773804-0.6815186
						c0-0.3049622-0.1768646-0.5857849-0.4576111-0.7220764c-0.1523132-0.071991-0.2406616-0.0802307-0.625412-0.0802307h-0.4412689
						v1.604126H194.9620209z"/>
					<path class="st6" d="M198.7211151,429.7163391l-0.1686554,0.3929749l-0.0482788,0.1203003
						c-0.1358795,0.2967529-0.3282623,0.4330444-0.6008606,0.4330444c-0.3291168,0-0.6180573-0.2643738-0.6180573-0.5852661
						c0-0.1043701,0.0319366-0.224762,0.0884399-0.3450317l0.0564117-0.1199646l1.7723389-3.9698486
						c0.1121521-0.2488708,0.3127594-0.3770447,0.5852661-0.3770447c0.2562714,0,0.4814148,0.1362915,0.5853729,0.3770447
						l1.8206177,3.9534912c0.120285,0.2565918,0.1358795,0.3368225,0.1358795,0.4813538
						c0,0.3208923-0.2881927,0.5934753-0.6172943,0.5934753c-0.272522,0-0.473114-0.1445007-0.6016235-0.4252319
						l-0.0556641-0.1281738l-0.1849976-0.401123H198.7211151z M199.7959442,427.1180725l-0.6335602,1.5397949h1.2827148
						L199.7959442,427.1180725z"/>
					<path class="st6" d="M205.4476776,429.5080261h0.1285095c0.3765411,0.0078125,0.6172943,0.2243347,0.6172943,0.5611572
						c0,0.3368835-0.2488861,0.5615234-0.6172943,0.5615234h-0.1285095h-1.8369751h-0.1440887
						c-0.4649811-0.0081177-0.7137909-0.2565918-0.7137909-0.7137756v-0.1445007v-3.7210693v-0.1362915
						c0.0081482-0.4170227,0.2488098-0.6818237,0.6180573-0.6818237c0.3683472,0,0.6089935,0.2730103,0.6089935,0.6818237v0.1362915
						v3.456665H205.4476776z"/>
					<path class="st6" d="M177.2963104,434.1532593h1.1951904h0.106369
						c0.3275146,0.0082092,0.5403442,0.2087402,0.5403442,0.5132751c0,0.2967529-0.2210388,0.5054626-0.5403442,0.5054626h-0.106369
						h-1.1951904v1.3953857v0.1362915c0,0.4170532-0.2284241,0.6896362-0.5779877,0.6896362
						c-0.3503113,0-0.5861053-0.2807312-0.5861053-0.6896362v-0.1362915v-3.7210388v-0.1445312
						c0.00737-0.465332,0.2431793-0.7137756,0.6769867-0.7137756h0.1367035h1.8951416h0.1145935
						c0.3650665,0.0081177,0.5934906,0.2246399,0.5934906,0.561554c0,0.3364868-0.2357941,0.5611267-0.5934906,0.5611267h-0.1145935
						h-1.5447388V434.1532593z"/>
					<path class="st6" d="M182.6099701,436.2145691h0.1219635c0.3576813,0.0076904,0.5861206,0.2246399,0.5861206,0.5611267
						c0,0.3368835-0.2358093,0.561554-0.5861206,0.561554h-0.1219635h-1.7428284h-0.1367188
						c-0.4412689-0.0081482-0.6769867-0.2565918-0.6769867-0.7138062v-0.1445007v-3.7210388v-0.136322
						c0.0072937-0.4170227,0.2357178-0.6818237,0.5861053-0.6818237c0.3495636,0,0.5779114,0.2729187,0.5779114,0.6818237v0.136322
						v3.456665H182.6099701z"/>
					<path class="st6" d="M184.629425,436.4228516l-0.1596069,0.3929749l-0.0458374,0.1203003
						c-0.1293488,0.2967529-0.3118439,0.4330444-0.5705261,0.4330444c-0.3127594,0-0.5861969-0.2643738-0.5861969-0.5852661
						c0-0.1043701,0.0303345-0.2247314,0.0835724-0.344696l0.0531464-0.1203003l1.6822968-3.9699402
						c0.1063843-0.2487793,0.2963257-0.3769531,0.5550232-0.3769531c0.243927,0,0.4567719,0.136322,0.5558472,0.3769531
						l1.7272339,3.9536133c0.1145935,0.2565918,0.1293488,0.336792,0.1293488,0.4813232
						c0,0.3208923-0.2734375,0.5934753-0.5852661,0.5934753c-0.2595367,0-0.4494781-0.1445007-0.5714569-0.4248962
						l-0.0532227-0.1285095l-0.1751099-0.401123H184.629425z M185.6494293,433.824585l-0.6016235,1.5397949h1.2180786
						L185.6494293,433.824585z"/>
					<path class="st6" d="M190.8411255,432.5013123c0.1604309-0.4330444,0.3126678-0.5693665,0.6090698-0.5693665
						c0.3044586,0,0.5705261,0.2726135,0.5705261,0.5852966c0,0.1043396-0.0228882,0.2247314-0.0679016,0.3368835
						l-0.0532227,0.1203003l-1.6217041,3.9216309c-0.1367188,0.3208923-0.3118286,0.465332-0.5632324,0.465332
						c-0.2585907,0-0.4559326-0.1526489-0.5852661-0.465332l-1.6061249-3.9134216l-0.0532227-0.1203918
						c-0.0532227-0.1202698-0.0761108-0.2406616-0.0761108-0.3450012c0-0.3126831,0.2741852-0.5852966,0.5861053-0.5852966
						c0.2963257,0,0.4486389,0.144104,0.6082458,0.5774841l1.1190796,2.9429626L190.8411255,432.5013123z"/>
					<path class="st6" d="M196.5289001,432.7337341c0.4952393,0.4973755,0.7686005,1.1952209,0.7686005,1.9410095
						c0,1.5074463-1.1795959,2.7427063-2.6178894,2.7427063c-1.4530334,0-2.6252747-1.2270508-2.6252747-2.7509155
						s1.1640167-2.758728,2.6105194-2.758728C195.3344574,431.9078064,196.0115204,432.212677,196.5289001,432.7337341z
						 M193.210968,434.6747437c0,0.8419495,0.6623077,1.5315857,1.4686432,1.5315857
						c0.8071594,0,1.4538727-0.681488,1.4538727-1.5315857c0-0.8501587-0.6540833-1.5480042-1.4538727-1.5480042
						C193.880661,433.1267395,193.210968,433.8327942,193.210968,434.6747437z"/>
					<path class="st6" d="M199.0976715,436.5673828v0.1362915c0,0.4170532-0.2284241,0.6896362-0.5778961,0.6896362
						c-0.3504028,0-0.5861969-0.2807312-0.5861969-0.6896362v-0.1362915v-3.7210388v-0.1445312
						c0.0073853-0.465332,0.2431793-0.7137756,0.677063-0.7137756h0.1366272h0.7842865
						c0.5934906,0,0.9667664,0.0961609,1.2860565,0.3208923c0.5255127,0.3606262,0.8521881,0.9863892,0.8521881,1.6278076
						c0,0.7457275-0.4183807,1.3154907-1.156723,1.5881042l0.867691,0.6655579
						c0.2128296,0.1685791,0.3201294,0.3528442,0.3201294,0.5693665c0,0.3450317-0.2513123,0.6257629-0.5714417,0.6257629
						c-0.1293488,0-0.2659912-0.064209-0.40271-0.1767883l-1.6290741-1.4030762V436.5673828z M199.5389252,434.7467651
						c0.3430176,0,0.5100098-0.0319519,0.6474762-0.1203918c0.2202148-0.1440125,0.3569336-0.4006653,0.3569336-0.681427
						c0-0.3049622-0.1669769-0.5853577-0.4330444-0.7220764c-0.1448517-0.071991-0.2283478-0.0802002-0.5943298-0.0802002
						h-0.4182892v1.6040955H199.5389252z"/>
					<path class="st6" d="M205.4705658,432.9425659c0,0.3126831-0.2283478,0.5692749-0.5099945,0.5692749
						c-0.0990143,0-0.2054749-0.0400696-0.2889557-0.1043701c-0.0155182-0.0081482-0.1145935-0.0961609-0.2586975-0.2165222
						c-0.1980743-0.1681519-0.4035339-0.2565918-0.5943146-0.2565918c-0.3118439,0-0.5705261,0.2247314-0.5705261,0.4891052
						c0,0.2648315,0.1522217,0.3929138,0.6163788,0.5132751c0.4412537,0.1125793,0.7613068,0.2247314,1.012619,0.3528137
						c0.5321198,0.2648315,0.8219147,0.7539368,0.8219147,1.371582c0,1.0425415-0.7539368,1.7563171-1.8492126,1.7563171
						c-0.9897308,0-1.8648834-0.6094055-1.8648834-1.2991333c0-0.3126526,0.2431793-0.5856934,0.5247498-0.5856934
						c0.2136841,0,0.373291,0.0802307,0.624588,0.3131104c0.2964172,0.2886047,0.5403442,0.4088745,0.7990417,0.4088745
						c0.3421783,0,0.6008606-0.2488708,0.6008606-0.5774536c0-0.2808228-0.1825714-0.4572754-0.5934906-0.5853882
						l-0.5018616-0.1526184c-0.3732758-0.1121826-0.6778107-0.2484741-0.867691-0.3929749
						c-0.3045349-0.2165222-0.4723511-0.6012268-0.4723511-1.0666199c0-0.9221802,0.7236633-1.5717468,1.7657166-1.5717468
						C204.7477264,431.9078064,205.4705658,432.3728027,205.4705658,432.9425659z"/>
				</g>
			</g>
			<g>
				<g>
					<g>
						<path class="st7" d="M48.1105881,457.8857422c0.6155357,0.7580261,1.4604225,1.0986328,1.8762016,0.7580261
							c0.4158592-0.3356323,0.2554131-1.2344055-0.3601227-1.9908752l-23.40588-28.7947998
							c-0.6139431-0.7572021-1.458744-1.0985413-1.8778763-0.7596436c-0.4175377,0.3405151-0.2603645,1.236084,0.3552551,1.9949951
							L48.1105881,457.8857422z"/>
						<path class="st7" d="M37.3343048,442.3435059c-0.2652283,0.8841248-0.2652283,1.6765442,0.0065384,1.7550659
							c0.2652245,0.0786438,0.7023811-0.5762939,0.9725494-1.4603271l2.9895821-9.8987122
							c0.2619553-0.8832703,0.2619553-1.6757507-0.0032692-1.7575684c-0.2718506-0.0826721-0.7138672,0.5787354-0.9823608,1.4620056
							L37.3343048,442.3435059z"/>
						<path class="st7" d="M34.6197624,441.8572388c0.9610634-0.1686707,1.7076187-0.5484924,1.6503677-0.8431396
							c-0.0491219-0.2881775-0.8743095-0.3864441-1.8402405-0.2194519l-8.0830288,1.2247009
							c-0.9610672,0.1685791-1.7043552,0.546814-1.6552334,0.8382568c0.0507164,0.2946472,0.8807678,0.3929138,1.8435078,0.2259216
							L34.6197624,441.8572388z"/>
					</g>
					<g>
						<path class="st5" d="M47.6259041,432.9425659c-0.9430466,3.3104553-4.384449,5.229248-7.6916466,4.2861938
							c-3.3072815-0.9430237-5.224472-4.3909912-4.279747-7.7006836c1.0003815-3.5118103,9.363308-10.1459045,9.363308-10.1459045
							S48.6279678,429.4282227,47.6259041,432.9425659"/>
						<path class="st8" d="M42.6945724,428.2338867c1.7845764,0.5959167,2.7423744,2.5180359,2.1513176,4.2993469
							c-0.5893822,1.7845764-2.5180588,2.7472534-4.299366,2.1537476c-1.7828979-0.5917969-2.7505074-2.5180359-2.1545792-4.3002014
							C38.9845963,428.6022034,40.9132652,427.6395569,42.6945724,428.2338867"/>
						<path class="st8" d="M43.8636131,424.0081177c0.7792549,0.2612,1.1951103,1.1010437,0.9364243,1.8795471
							c-0.2586021,0.7744751-1.0968628,1.1936035-1.8762016,0.9356689c-0.776062-0.2561646-1.1951942-1.1002197-0.9381828-1.8762207
							C42.2427483,424.1694031,43.0842819,423.7519531,43.8636131,424.0081177"/>
						<g>
							<path class="st5" d="M23.9482574,437.5742188c2.8127937-0.4469604,5.4454365,1.4653625,5.8908062,4.2682495
								c0.45191,2.8112183-1.4669609,5.4454346-4.2764797,5.8940735
								c-2.9797726,0.4715271-10.8646374-3.4840698-10.8646374-3.4840698S20.9653034,438.0474243,23.9482574,437.5742188"/>
							<path class="st8" d="M22.1407948,442.913269c-0.1800575-1.5471802,0.9299698-2.9371643,2.468935-3.1140442
								c1.5455894-0.1767883,2.9371891,0.9299622,3.1123848,2.473877c0.181736,1.5373535-0.9282913,2.9355774-2.468935,3.1156616
								C23.7092686,445.5622559,22.317585,444.4539185,22.1407948,442.913269"/>
						</g>
					</g>
				</g>
				<path class="st9" d="M15.2055149,424.2521362c-0.4388304,4.2363281,2.6473999,8.0322266,6.8828888,8.4677124
					c4.2322197,0.4395752,8.0306396-2.6490173,8.4677925-6.8804626c0.4354782-4.2330627-2.6523457-8.0354919-6.8862419-8.4702148
					C19.4393272,416.9295654,15.6409922,420.0214844,15.2055149,424.2521362"/>
				<path class="st6" d="M19.0005798,424.6441956c-0.2193718,2.1398926,1.3425617,4.0579224,3.4774494,4.2781372
					c2.1415081,0.2226562,4.057106-1.3384399,4.2797489-3.4775085c0.2177811-2.1365662-1.3392086-4.0529175-3.4774494-4.2772522
					C21.1420898,420.9482117,19.2216301,422.5093079,19.0005798,424.6441956"/>
			</g>
			<g>
				<g>
					<ellipse class="st6" cx="115.7933044" cy="473.4440613" rx="70.0530472" ry="65.6695709"/>
					<ellipse class="st0" cx="115.7937241" cy="473.4446716" rx="64.8965607" ry="60.8352356"/>
				</g>
			</g>
			<g>
				<path class="st10" d="M65.0988998,534.4979858l-0.144516,0.2029419c-0.4530792,0.6148071-1.0654335,0.7924805-1.5611,0.4396362
					c-0.4952431-0.3520508-0.5206451-1.0012207-0.0867577-1.6118774l0.144516-0.2030029l3.9469604-5.5551147l0.1530609-0.2161865
					c0.4932404-0.6941528,1.0907516-0.8275757,1.7047806-0.3912354l0.1935501,0.1383667l1.2173309,0.8652344
					c0.2799835,0.1997681,0.6032944,0.5198364,0.8885574,0.848938c0.5271759,0.6270752,0.7416916,1.3744507,0.6401749,2.2937012
					c-0.0818939,0.663147-0.3306885,1.3327637-0.7134399,1.87146c-0.7739716,1.0895386-2.0870285,1.7050781-3.3104706,1.5560913
					c-0.5324631-0.0719604-0.9065781-0.2299805-1.5528793-0.6900024l-0.796936-0.5673828L65.0988998,534.4979858z
					 M67.658699,532.263916c0.4850159,0.3446045,0.65242,0.4273682,0.9401932,0.4338989
					c0.4784851,0.0343628,0.9826965-0.2193604,1.2807083-0.6384888c0.3147583-0.4428711,0.3793869-1.0822144,0.1600189-1.5267334
					c-0.088768-0.1710815-0.3348083-0.418335-0.6794128-0.6630859l-0.6463013-0.460144l-1.701088,2.3945312L67.658699,532.263916z"
					/>
				<path class="st10" d="M71.4427872,538.6712646l-0.130188,0.2128296
					c-0.3974152,0.6516113-0.9962692,0.8718262-1.5149078,0.5550537c-0.5189667-0.3168335-0.6011963-0.9684448-0.2111588-1.6077881
					l0.130188-0.2128906l3.6333618-5.9545898l0.1297607-0.2128296c0.4093246-0.6450195,0.9999695-0.8521729,1.5189362-0.5354004
					c0.5190506,0.31604,0.5971756,0.9488525,0.2071381,1.5880737l-0.1297684,0.2129517L71.4427872,538.6712646z"/>
				<path class="st10" d="M81.2248077,536.0074463l0.1125717-0.2226562c0.3552628-0.675354,0.9274597-0.9299316,1.4583282-0.6622314
					c0.5423584,0.2733765,0.6830978,0.9037476,0.345871,1.5725098l-0.1125793,0.2227173l-3.1741638,6.2935181
					c-0.2447739,0.4846191-0.3540878,0.6434326-0.564827,0.7670288c-0.3286743,0.2128296-0.7281952,0.2414551-1.0580521,0.0753174
					c-0.3303604-0.1670532-0.4477997-0.3740845-0.5317078-1.0576782l-0.9000473-6.1936035l-1.9241486,3.8154907
					l-0.1125793,0.2227783c-0.3438492,0.6818237-0.9225845,0.9487305-1.4649429,0.675293
					c-0.5426941-0.2733765-0.6765594-0.9168091-0.3393326-1.5856934l0.1121597-0.2225952l3.2273941-6.3983154
					c0.1915436-0.3798218,0.313179-0.532959,0.5234985-0.6565552c0.3221436-0.199707,0.6426086-0.2186279,0.9258575-0.0761108
					c0.3303604,0.1669922,0.4764709,0.4052124,0.5579529,1.005249l0.9679413,6.2935181L81.2248077,536.0074463z"/>
				<path class="st10" d="M85.1594467,540.3936768l1.9217072,0.7440796l0.172348,0.0663452
					c0.5243378,0.2193604,0.7420349,0.6810913,0.5410995,1.2008667c-0.2013474,0.5206299-0.6962509,0.7376099-1.2136383,0.5378418
					l-0.1722565-0.0671387l-1.9217224-0.7441406l-0.7203979,1.8615112l2.5004501,0.9684448l0.1973267,0.0761108
					c0.5734558,0.2382812,0.8124466,0.7556152,0.5902252,1.3302612c-0.2227325,0.574707-0.7649994,0.805481-1.3314972,0.5861206
					l-0.1973267-0.0769653l-3.0668716-1.1878052l-0.2218857-0.0859375c-0.7089157-0.2905884-0.9266968-0.862793-0.6250076-1.6430054
					l0.0953903-0.2454834l2.398941-6.2002563l0.0953979-0.2463989c0.3192062-0.7891846,0.8652496-1.0650635,1.5676346-0.7932129
					l0.2213821,0.0859375l3.0055923,1.1641235l0.1972427,0.0761108c0.5734558,0.2382202,0.8002014,0.7506714,0.5775604,1.3252563
					c-0.2222214,0.574707-0.7523346,0.8104248-1.3191757,0.5910645l-0.196907-0.0769653l-2.4390869-0.9446411
					L85.1594467,540.3936768z"/>
				<path class="st10" d="M89.9459229,546.5758057l-0.4629745,0.616394l-0.1362991,0.1899414
					c-0.3642273,0.4608765-0.7375107,0.6148071-1.1697998,0.4920044c-0.5214005-0.1481934-0.8468094-0.7441406-0.6867905-1.30896
					c0.0519714-0.1834106,0.1628799-0.3806763,0.3119202-0.5673218l0.1489563-0.1867065l4.7917633-6.192749
					c0.3021088-0.3872681,0.6839371-0.5231323,1.1162338-0.4003296c0.4068069,0.1154175,0.6949997,0.4567871,0.7400131,0.9266968
					l0.9123688,7.7808838c0.0626144,0.5059204,0.0478592,0.6541138-0.024231,0.9086914
					c-0.1600189,0.5648193-0.7539291,0.9152222-1.2749939,0.7670288c-0.4326248-0.1228027-0.678154-0.4665527-0.7416153-1.019165
					l-0.0249786-0.2504883l-0.0921249-0.7891235L89.9459229,546.5758057z M92.9469833,542.4835205l-1.7731781,2.4264526
					l2.0342941,0.5770264L92.9469833,542.4835205z"/>
				<path class="st10" d="M98.4439697,548.9604492l-0.045845,0.2456055
					c-0.1534882,0.7473755-0.6343994,1.164856-1.2315826,1.0535278c-0.5971756-0.1121826-0.8923264-0.6901245-0.7547684-1.4260864
					l0.0458527-0.244751l1.252449-6.6945801l0.0482864-0.260376c0.1567535-0.8366089,0.6430283-1.208313,1.3826294-1.0698853
					l0.2337112,0.0441895l1.4673691,0.274231c0.3373184,0.0630493,0.765419,0.2177124,1.1620865,0.3970337
					c0.7407684,0.3471069,1.2491837,0.9356689,1.5422363,1.8115845c0.2034454,0.6351929,0.2582703,1.3474731,0.1371384,1.9966431
					c-0.2456131,1.3130493-1.1788483,2.4230957-2.3514862,2.8004761c-0.5132751,0.15802-0.9189148,0.171936-1.6978226,0.0253906
					l-0.9606476-0.1793213L98.4439697,548.9604492z M99.8302917,545.8595581c0.5840988,0.1096191,0.7711182,0.114563,1.0347519,0
					c0.4481354-0.1703491,0.7997894-0.6123657,0.8943405-1.1166992c0.0998383-0.5345459-0.1093063-1.1411133-0.4944916-1.4521484
					c-0.1526489-0.1178589-0.4793167-0.2390137-0.8947601-0.3168335l-0.7792511-0.1456909l-0.539505,2.8855591
					L99.8302917,545.8595581z"/>
				<path class="st10" d="M105.8990631,550.0958862l-0.0245667,0.2480469
					c-0.0879288,0.7579956-0.5316238,1.2156372-1.1365891,1.1558838c-0.6049805-0.0598145-0.9487534-0.6107178-0.875145-1.3556519
					l0.0245514-0.2480469l0.6708603-6.7781372l0.0258179-0.2627563c0.0839157-0.8473511,0.5361633-1.2590942,1.2860641-1.1854248
					l0.236557,0.0237427l1.4858246,0.1473389c0.3417587,0.0344238,0.7817612,0.1514893,1.1922607,0.2955933
					c0.7686844,0.2824097,1.3257904,0.8251343,1.6932831,1.6724243c0.2579346,0.6155396,0.3741226,1.3204346,0.3090744,1.9777222
					c-0.1313553,1.3294678-0.9659271,2.5147705-2.1017761,2.9920654c-0.4981842,0.201355-0.9013062,0.2504883-1.6900253,0.171936
					l-0.9729691-0.0966187L105.8990631,550.0958862z M107.0131912,546.8876953
					c0.5919037,0.0581665,0.7789154,0.0474854,1.0314865-0.0900879c0.4322052-0.2078857,0.7441254-0.6777954,0.7949219-1.1893921
					c0.0535736-0.5403442-0.2071304-1.1264648-0.6180496-1.4039307c-0.162117-0.1040039-0.4981766-0.1964722-0.9188995-0.2382202
					l-0.7891464-0.0786133l-0.289032,2.9216919L107.0131912,546.8876953z"/>
				<path class="st10" d="M115.8812561,549.9804077l0.2112427,0.0032959
					c0.620903,0.0253906,1.0101929,0.4289551,0.9995422,1.0461426c-0.010643,0.6164551-0.4277649,1.0200195-1.0351639,1.0101929
					l-0.2115784-0.0040894l-3.0256271-0.0524292l-0.2378159-0.0040894c-0.7662582-0.0285645-1.1677856-0.4902954-1.15345-1.3276978
					l0.0045319-0.2644653l0.1186905-6.8133545l0.0045319-0.2496948c0.0265732-0.7628784,0.431366-1.2409668,1.0391922-1.2303467
					c0.6078262,0.0106812,0.9954453,0.5165405,0.9823608,1.265564l-0.0045242,0.2496948l-0.1100693,6.3287354
					L115.8812561,549.9804077z"/>
				<path class="st10" d="M119.8241959,545.989624l2.0571747-0.1194458l0.1845856-0.0106201
					c0.5680923-0.0188599,0.9578094,0.3118286,0.9896622,0.8685303c0.031929,0.5566406-0.32827,0.9602051-0.8824463,0.992981
					l-0.1845856,0.0106201l-2.0571747,0.1194458l0.1150055,1.9934082l2.6769028-0.1555786l0.2111588-0.012207
					c0.6204834-0.0213013,1.0519409,0.3502808,1.0875626,0.9658813c0.0356293,0.6156616-0.3630524,1.0511475-0.969696,1.0863037
					l-0.2107391,0.0123291l-3.2838974,0.1907349l-0.2373886,0.013916c-0.7654266,0.0302734-1.2004852-0.4002686-1.248848-1.236084
					l-0.0150909-0.2636719l-0.3823318-6.640564l-0.0150909-0.2636108c-0.0360413-0.8513184,0.3466263-1.3294067,1.0985489-1.3728027
					l0.2373886-0.013916l3.2175903-0.187439l0.2111588-0.0123291c0.6205673-0.0213013,1.0388565,0.3511963,1.0744858,0.9668579
					c0.035202,0.6155396-0.3499756,1.0502319-0.956543,1.0854492l-0.2108231,0.0122681l-2.6110229,0.1522827L119.8241959,545.989624
					z"/>
			</g>
			<g>
				<path class="st4" d="M65.0988998,534.4979858l-0.144516,0.2029419c-0.4530792,0.6148071-1.0654335,0.7924805-1.5611,0.4396362
					c-0.4952431-0.3520508-0.5206451-1.0012207-0.0867577-1.6118774l0.144516-0.2030029l3.9469604-5.5551147l0.1530609-0.2161865
					c0.4932404-0.6941528,1.0907516-0.8275757,1.7047806-0.3912354l0.1935501,0.1383667l1.2173309,0.8652344
					c0.2799835,0.1997681,0.6032944,0.5198364,0.8885574,0.848938c0.5271759,0.6270752,0.7416916,1.3744507,0.6401749,2.2937012
					c-0.0818939,0.663147-0.3306885,1.3327637-0.7134399,1.87146c-0.7739716,1.0895386-2.0870285,1.7050781-3.3104706,1.5560913
					c-0.5324631-0.0719604-0.9065781-0.2299805-1.5528793-0.6900024l-0.796936-0.5673828L65.0988998,534.4979858z
					 M67.658699,532.263916c0.4850159,0.3446045,0.65242,0.4273682,0.9401932,0.4338989
					c0.4784851,0.0343628,0.9826965-0.2193604,1.2807083-0.6384888c0.3147583-0.4428711,0.3793869-1.0822144,0.1600189-1.5267334
					c-0.088768-0.1710815-0.3348083-0.418335-0.6794128-0.6630859l-0.6463013-0.460144l-1.701088,2.3945312L67.658699,532.263916z"
					/>
				<path class="st4" d="M71.4427872,538.6712646l-0.130188,0.2128296
					c-0.3974152,0.6516113-0.9962692,0.8718262-1.5149078,0.5550537c-0.5189667-0.3168335-0.6011963-0.9684448-0.2111588-1.6077881
					l0.130188-0.2128906l3.6333618-5.9545898l0.1297607-0.2128296c0.4093246-0.6450195,0.9999695-0.8521729,1.5189362-0.5354004
					c0.5190506,0.31604,0.5971756,0.9488525,0.2071381,1.5880737l-0.1297684,0.2129517L71.4427872,538.6712646z"/>
				<path class="st4" d="M81.2248077,536.0074463l0.1125717-0.2226562c0.3552628-0.675354,0.9274597-0.9299316,1.4583282-0.6622314
					c0.5423584,0.2733765,0.6830978,0.9037476,0.345871,1.5725098l-0.1125793,0.2227173l-3.1741638,6.2935181
					c-0.2447739,0.4846191-0.3540878,0.6434326-0.564827,0.7670288c-0.3286743,0.2128296-0.7281952,0.2414551-1.0580521,0.0753174
					c-0.3303604-0.1670532-0.4477997-0.3740845-0.5317078-1.0576782l-0.9000473-6.1936035l-1.9241486,3.8154907
					l-0.1125793,0.2227783c-0.3438492,0.6818237-0.9225845,0.9487305-1.4649429,0.675293
					c-0.5426941-0.2733765-0.6765594-0.9168091-0.3393326-1.5856934l0.1121597-0.2225952l3.2273941-6.3983154
					c0.1915436-0.3798218,0.313179-0.532959,0.5234985-0.6565552c0.3221436-0.199707,0.6426086-0.2186279,0.9258575-0.0761108
					c0.3303604,0.1669922,0.4764709,0.4052124,0.5579529,1.005249l0.9679413,6.2935181L81.2248077,536.0074463z"/>
				<path class="st4" d="M85.1594467,540.3936768l1.9217072,0.7440796l0.172348,0.0663452
					c0.5243378,0.2193604,0.7420349,0.6810913,0.5410995,1.2008667c-0.2013474,0.5206299-0.6962509,0.7376099-1.2136383,0.5378418
					l-0.1722565-0.0671387l-1.9217224-0.7441406l-0.7203979,1.8615112l2.5004501,0.9684448l0.1973267,0.0761108
					c0.5734558,0.2382812,0.8124466,0.7556152,0.5902252,1.3302612c-0.2227325,0.574707-0.7649994,0.805481-1.3314972,0.5861206
					l-0.1973267-0.0769653l-3.0668716-1.1878052l-0.2218857-0.0859375c-0.7089157-0.2905884-0.9266968-0.862793-0.6250076-1.6430054
					l0.0953903-0.2454834l2.398941-6.2002563l0.0953979-0.2463989c0.3192062-0.7891846,0.8652496-1.0650635,1.5676346-0.7932129
					l0.2213821,0.0859375l3.0055923,1.1641235l0.1972427,0.0761108c0.5734558,0.2382202,0.8002014,0.7506714,0.5775604,1.3252563
					c-0.2222214,0.574707-0.7523346,0.8104248-1.3191757,0.5910645l-0.196907-0.0769653l-2.4390869-0.9446411
					L85.1594467,540.3936768z"/>
				<path class="st4" d="M89.9459229,546.5758057l-0.4629745,0.616394l-0.1362991,0.1899414
					c-0.3642273,0.4608765-0.7375107,0.6148071-1.1697998,0.4920044c-0.5214005-0.1481934-0.8468094-0.7441406-0.6867905-1.30896
					c0.0519714-0.1834106,0.1628799-0.3806763,0.3119202-0.5673218l0.1489563-0.1867065l4.7917633-6.192749
					c0.3021088-0.3872681,0.6839371-0.5231323,1.1162338-0.4003296c0.4068069,0.1154175,0.6949997,0.4567871,0.7400131,0.9266968
					l0.9123688,7.7808838c0.0626144,0.5059204,0.0478592,0.6541138-0.024231,0.9086914
					c-0.1600189,0.5648193-0.7539291,0.9152222-1.2749939,0.7670288c-0.4326248-0.1228027-0.678154-0.4665527-0.7416153-1.019165
					l-0.0249786-0.2504883l-0.0921249-0.7891235L89.9459229,546.5758057z M92.9469833,542.4835205l-1.7731781,2.4264526
					l2.0342941,0.5770264L92.9469833,542.4835205z"/>
				<path class="st4" d="M98.4439697,548.9604492l-0.045845,0.2456055c-0.1534882,0.7473755-0.6343994,1.164856-1.2315826,1.0535278
					c-0.5971756-0.1121826-0.8923264-0.6901245-0.7547684-1.4260864l0.0458527-0.244751l1.252449-6.6945801l0.0482864-0.260376
					c0.1567535-0.8366089,0.6430283-1.208313,1.3826294-1.0698853l0.2337112,0.0441895l1.4673691,0.274231
					c0.3373184,0.0630493,0.765419,0.2177124,1.1620865,0.3970337c0.7407684,0.3471069,1.2491837,0.9356689,1.5422363,1.8115845
					c0.2034454,0.6351929,0.2582703,1.3474731,0.1371384,1.9966431c-0.2456131,1.3130493-1.1788483,2.4230957-2.3514862,2.8004761
					c-0.5132751,0.15802-0.9189148,0.171936-1.6978226,0.0253906l-0.9606476-0.1793213L98.4439697,548.9604492z
					 M99.8302917,545.8595581c0.5840988,0.1096191,0.7711182,0.114563,1.0347519,0
					c0.4481354-0.1703491,0.7997894-0.6123657,0.8943405-1.1166992c0.0998383-0.5345459-0.1093063-1.1411133-0.4944916-1.4521484
					c-0.1526489-0.1178589-0.4793167-0.2390137-0.8947601-0.3168335l-0.7792511-0.1456909l-0.539505,2.8855591
					L99.8302917,545.8595581z"/>
				<path class="st4" d="M105.8990631,550.0958862l-0.0245667,0.2480469
					c-0.0879288,0.7579956-0.5316238,1.2156372-1.1365891,1.1558838c-0.6049805-0.0598145-0.9487534-0.6107178-0.875145-1.3556519
					l0.0245514-0.2480469l0.6708603-6.7781372l0.0258179-0.2627563c0.0839157-0.8473511,0.5361633-1.2590942,1.2860641-1.1854248
					l0.236557,0.0237427l1.4858246,0.1473389c0.3417587,0.0344238,0.7817612,0.1514893,1.1922607,0.2955933
					c0.7686844,0.2824097,1.3257904,0.8251343,1.6932831,1.6724243c0.2579346,0.6155396,0.3741226,1.3204346,0.3090744,1.9777222
					c-0.1313553,1.3294678-0.9659271,2.5147705-2.1017761,2.9920654c-0.4981842,0.201355-0.9013062,0.2504883-1.6900253,0.171936
					l-0.9729691-0.0966187L105.8990631,550.0958862z M107.0131912,546.8876953
					c0.5919037,0.0581665,0.7789154,0.0474854,1.0314865-0.0900879c0.4322052-0.2078857,0.7441254-0.6777954,0.7949219-1.1893921
					c0.0535736-0.5403442-0.2071304-1.1264648-0.6180496-1.4039307c-0.162117-0.1040039-0.4981766-0.1964722-0.9188995-0.2382202
					l-0.7891464-0.0786133l-0.289032,2.9216919L107.0131912,546.8876953z"/>
				<path class="st4" d="M115.8812561,549.9804077l0.2112427,0.0032959c0.620903,0.0253906,1.0101929,0.4289551,0.9995422,1.0461426
					c-0.010643,0.6164551-0.4277649,1.0200195-1.0351639,1.0101929l-0.2115784-0.0040894l-3.0256271-0.0524292l-0.2378159-0.0040894
					c-0.7662582-0.0285645-1.1677856-0.4902954-1.15345-1.3276978l0.0045319-0.2644653l0.1186905-6.8133545l0.0045319-0.2496948
					c0.0265732-0.7628784,0.431366-1.2409668,1.0391922-1.2303467c0.6078262,0.0106812,0.9954453,0.5165405,0.9823608,1.265564
					l-0.0045242,0.2496948l-0.1100693,6.3287354L115.8812561,549.9804077z"/>
				<path class="st4" d="M119.8241959,545.989624l2.0571747-0.1194458l0.1845856-0.0106201
					c0.5680923-0.0188599,0.9578094,0.3118286,0.9896622,0.8685303c0.031929,0.5566406-0.32827,0.9602051-0.8824463,0.992981
					l-0.1845856,0.0106201l-2.0571747,0.1194458l0.1150055,1.9934082l2.6769028-0.1555786l0.2111588-0.012207
					c0.6204834-0.0213013,1.0519409,0.3502808,1.0875626,0.9658813c0.0356293,0.6156616-0.3630524,1.0511475-0.969696,1.0863037
					l-0.2107391,0.0123291l-3.2838974,0.1907349l-0.2373886,0.013916c-0.7654266,0.0302734-1.2004852-0.4002686-1.248848-1.236084
					l-0.0150909-0.2636719l-0.3823318-6.640564l-0.0150909-0.2636108c-0.0360413-0.8513184,0.3466263-1.3294067,1.0985489-1.3728027
					l0.2373886-0.013916l3.2175903-0.187439l0.2111588-0.0123291c0.6205673-0.0213013,1.0388565,0.3511963,1.0744858,0.9668579
					c0.035202,0.6155396-0.3499756,1.0502319-0.956543,1.0854492l-0.2108231,0.0122681l-2.6110229,0.1522827L119.8241959,545.989624
					z"/>
			</g>
			<g>
				<path class="st11" d="M208.5428772,496.2702026c-0.2161102,0.1179199-0.4354706,0.2259827-0.6680145,0.3175964l0,0
					c-5.1572418,2.0908203-14.099823-2.3837585-17.7590027-5.5137329l0,0
					c6.6226044,3.6211243,12.3905182-2.501709,18.2239838-0.7874756l0,0c1.7354584,0.515686,2.537674,1.4042664,2.6621552,2.3817444
					l0,0C211.1591797,493.945343,210.1506653,495.3697205,208.5428772,496.2702026"/>
				<path class="st11" d="M203.4805298,484.5447388c-0.0458527,0.1736145-0.1015167,0.3406067-0.1604462,0.5027161l0,0
					c-1.3703156,3.6657104-7.0531311,5.4388123-9.8987122,5.43396l0,0c4.3256073-1.1460876,4.3223419-7.3773804,7.5280151-9.2143555
					l0,0c0.9593964-0.546875,1.6683197-0.4256592,2.1185455,0.0654602l0,0
					C203.6606598,481.9775696,203.8079529,483.2644653,203.4805298,484.5447388"/>
			</g>
			<g>
				<path class="st6" d="M70.566803,441.7967224c-4.0357361-4.2699585-12.4559975-4.9019165-20.4718781-1.0953674
					c-3.6150093,1.7141724-21.7130146,11.0038757-23.1324444,25.5800781c0,0.0049438-0.0638752,0.8873901-0.0638752,0.8873901
					c-0.0589294,1.1984558-0.0884361,2.3919678-0.0884361,3.5740967c0,21.7322083,10.054287,40.8076172,20.4981155,50.4525146
					c5.7401695,5.2947998,10.3997421,8.4546509,14.4895363,6.6504517c2.3428574-1.0380249,4.086525-3.3170166,4.6415482-7.6196899
					c0.5517349-4.3026733,0.2439346-9.5777893,0.2439346-9.5777893c4.4516678,5.6648254,12.0025711,7.9012756,17.9865952,6.5996399
					c4.8544617-1.0559692,10.5045166-4.9689941,11.4377518-11.065979l0.2062988-1.350769
					c0,0,1.5291595,0.3945618,1.6241302,0.4208069c3.0845566,0.5467834,7.5312042,0.4223938,9.9576416-1.7420044
					c0.7694397-0.6860352,1.2999725-1.5030212,1.5782776-2.429718l0.363472-1.2180786l1.2050095,0.3961792
					c2.6686859,0.8759766,5.4552383,0.6516724,8.0584564-0.6483154c1.6568298-0.8186646,3.0288162-1.9450378,4.0799942-3.3530579
					l0.8431244-1.1263733l1.0101929,0.977417c0.9545288,0.9282837,1.8402328,1.5619507,2.7832794,1.9989929
					c4.0112534,1.869751,8.852562,1.0806274,12.3382187-2.0169983c1.2098694-1.0822144,2.4934998-3.0158386,3.6051178-5.4467163
					l0.6451263-1.4030762l1.3228607,1.0134583l0.7072449,0.5354004c1.3753357,0.8002014,3.6543274,1.171814,6.7486725-1.5684814
					c2.3019562-2.0530701,4.2666779-4.9690552,5.8384247-8.6625977l0.7530975-1.7764587l1.2999725,1.4277344
					c0.7891388,0.8693848,1.5226135,1.5226135,2.3052216,2.0563354c3.7263336,2.529541,8.7362823,3.2286682,12.4528198,1.738739
					c1.1361694-0.4584351,2.1381378-1.0641785,3.0681152-1.8517151l0.7220001-0.6122742l0.7793274,0.5369873
					c1.9925537,1.3703918,4.4843597,2.3723755,7.6229858,3.0665283c3.2089691,0.7072449,4.8150787-0.7891235,5.4880219-1.7452698
					c1.1444092-1.624115,1.0952759-3.9293518-0.1244812-5.8727722c-1.1313171-1.7960815-0.589386-3.8032837,0.5452118-7.4854431
					c0.7908173-2.5622253,1.6863251-5.4634399,1.9155884-8.90979c0.674469-10.3031006-3.3792877-15.5226135-6.9009857-18.0881042
					c-5.8235779-4.2388611-13.2272034-3.6297607-17.7983246-1.8189697c-0.006546,0.0032959-1.0035706,0.4715271-1.0035706,0.4715271
					l-1.6029205,0.8022156l-0.500946-1.2246094c-0.5567017-1.3327637-1.4211121-2.4608154-2.5671844-3.3564148
					c-2.4656677-1.9154968-5.9333038-2.513092-10.3145752-1.7796326l-0.7498169,0.1260681l-0.4486389-0.6123352
					c-7.3118286-9.9183044-13.1567841-8.0142212-14.7743835-7.1939697v0.0008545
					c-2.4852753,1.2541199-4.0341339,3.8114014-4.361557,7.2029419c-0.0327759,0.3373108-0.049118,0.6958313-0.049118,1.0740662
					c0,1.0019531,0.1145782,2.1513062,0.3503876,3.4839783l0.2308502,1.3032532l-2.9683685,0.3143311
					c-1.9040222,0.1899414-3.5494537,0.3536682-4.6628265,0.5877991c-2.1054688,0.4403992-3.6280899,1.8304138-4.0783081,3.7165222
					c0,0.0196228-0.1064606,0.6499939-0.1064606,0.6499939c0.0066147-0.0622253,0.0082092,0.7661743,0.0082092,0.7661743
					l0.0016708,1.1101074l-1.0969467,0.2258911l-0.7956772,0.0884399
					c-3.7673187,0.6401062-7.4756241,2.9109497-10.1001434,6.2214355l-0.6302872,0.7957458l-0.9038086-0.4649658
					c-1.5880966-0.8186646-2.9993973-1.0397339-4.3255234-0.6778259c-1.555397,0.4289246-2.7849655,1.4423828-3.4660492,2.8519897
					c-0.2619553,0.5403748-0.4371567,1.1657104-0.5255051,1.8599548l-0.3651505,2.8847961l-1.8254852-2.2626343
					c-1.4309158-1.7747803-3.0747452-3.2155762-4.8822098-4.2731934c-5.9988556-3.5282593-13.012764-2.9339294-17.5773544-1.2050171
					c-2.3019562,0.8742981-6.1854477,2.2430115-9.3911362,6.09375
					C73.0161209,454.3869934,75.8256378,447.3665466,70.566803,441.7967224z"/>
				<path class="st4" d="M111.9363937,461.7185364c2.8340836-9.0146179,15.6126404-15.0265503,25.7863846-1.4080505
					c9.6006927,12.8555298,4.499115,29.1754761,0.0654602,33.1159058
					c-4.8903351,4.3468018-12.6115723,1.7632751-12.3970642-5.4794617c0.1506424-5.2522278,2.1104126-6.1985474,3.536377-14.861145
					c1.3065186-7.9372559-0.3994293-15.2000427-7.6556778-13.1126099
					c-4.6922607,1.3490906-5.4978333,7.6688538-2.3624802,15.8156738c3.6788025,9.543457,4.9460068,17.4819641-1.3900833,20.633667
					c-5.2194366,2.5965881-10.7794724-0.9152222-11.2100906-9.1304626
					c-0.5124283-9.8856201,1.7796326-19.0344238-0.6106644-24.6894226
					c-0.7334824-1.7354431-0.8088455-3.8245544,0.9365005-4.3092346
					C108.2820816,457.8448181,110.6560364,460.2842407,111.9363937,461.7185364 M106.1340256,499.423584
					c-0.0982437-1.5881958-4.8822098-3.0076294-4.5482483-12.7602234c0.144104-3.5855713,0.1179504-8.6397095-0.6188049-13.6119385
					c-2.5181351-17.1090393-15.9008331-17.5609436-22.6462479-15.0101013
					c-4.85923,1.8435059-8.2090149,5.8759766-9.2405014,8.0305481c-1.0707932,2.2414246-0.4649811,4.5351562,2.226593,3.2204285
					c2.5312195-1.2409668,6.1756516-1.9024353,8.2173233,0.3962402c1.9041138,2.1448059,1.9695816,4.9837341,2.3756332,7.6884766
					c-1.3982239,0.2782898-5.5142593,1.5880737-6.9402237,2.5278625
					c-6.2215042,4.0996094-13.7330894,12.5849915-8.0601501,24.397644
					c2.7620773,5.7565002,9.2438583,11.1560974,17.0141296,9.4598694c4.2289505-0.9168091,9.6858749-4.7626953,8.6904373-10.7696838
					c-0.7956772-4.8265381-8.0715408-4.5973511-12.0598297-4.8396912
					c-8.5071106-0.5239258-6.3328247-8.3265381-3.4873352-11.1949158c3.6854172-3.7197876,8.1665192-0.9136047,9.4026184,2.5049133
					c2.2610474,6.2816772,4.5662689,10.9330139,12.0762634,12.2723083
					C101.941124,502.3460083,106.2879333,501.8171387,106.1340256,499.423584z M66.9517899,475.6546326
					c-1.722374-3.2417297-7.9863701-1.4309998-14.3159256,2.0072327c-1.5864983-3.0419922-3.2319221-7.4494019-3.2319221-7.4494019
					s10.8549156-5.2702332,18.0177803-16.0382996c7.73423-11.6390991-5.4405746-15.1706238-15.7976418-10.2539673
					c-7.0597649,3.3464355-20.5734768,11.8911743-21.1645355,23.4042053
					c-1.1002197,21.4968262,8.551281,41.3544312,19.2652817,51.2531128
					c9.9019814,9.1340332,12.7736969,7.6572876,12.7180367-1.0510864
					c-0.0572548-10.2163086-1.9744377-19.7958069-4.3157082-27.0482788
					C63.7690773,485.602478,68.6594162,478.8488464,66.9517899,475.6546326 M172.4648132,444.5374146
					c-3.2089539,1.263916-5.288269,3.1795349-6.6978912,4.9902649c-1.1526031,1.4751587,0.0539856,2.9552002,1.4784546,2.5999451
					c3.2285614-0.7891235,8.4087677-0.7499084,9.2208862,5.663147
					c-10.9006805,0.3486938-15.1984558,6.0299377-15.2262878,13.3908997
					c-0.0310974,8.5595093,8.8312683,11.2903748,13.2680969,9.5123596c2.1038818-0.8415527,3.3989105-1.9204712,3.6625366-4.0652466
					c0.5484772-4.5302429-5.0640106-4.484375-6.3180542-4.9231873c-4.3419495-1.5209656-2.924118-6.5587463-0.1834259-7.9422302
					c2.4296265-1.2262878,5.8252563,0.2112427,6.2247772,3.9179688c0.7661743,7.0531311,0.7416992,11.7405396,10.9006805,13.9786072
					c2.4296265,0.5403442,2.1906281-1.2671814,1.5782776-2.2396545c-3.3301544-5.2850037,1.4014893-10.6289368,1.918869-18.5252686
					C193.4082947,443.9021606,180.2384338,441.4561157,172.4648132,444.5374146 M165.1889496,444.6847839
					c0.0868378-2.5475769-2.2102356-7.344696-12.3299255-4.4221802
					c-9.6384277-15.4759216-18.1487122-8.9310913-12.9472961,4.0979309
					c-2.6522675,0.7892151-9.1472015,1.0675354-11.4540253,1.5488586c-2.0956497,0.4420166-1.5962982,2.3871155,0.171936,3.7967529
					c3.2744141,2.6080627,11.6111908,3.521698,14.8529205,3.8523865
					c4.6137085,11.4393616,5.8269348,25.2919922,4.5023956,31.6018372c-0.7530975,3.5855713,1.0608978,2.9650269,2.8291321,1.39328
					c7.8734589-7.0089722,9.4009399-23.5007935,7.1923676-34.6503296
					C163.9282837,449.4572449,165.1251526,446.8687744,165.1889496,444.6847839"/>
				<g>
					<path class="st6" d="M191.0899963,474.8900452c0.0081329-2.3232422,1.8959045-4.1962585,4.2142029-4.1864319
						c2.3182983,0.0065308,4.1913147,1.8926086,4.1847687,4.2109985c-0.0065308,2.3182983-1.8926239,4.1913147-4.2126007,4.1847839
						C192.9580688,479.0927734,191.0834656,477.2050781,191.0899963,474.8900452z"/>
					<path class="st4" d="M195.2026825,472.3720093c1.4899292-0.086853,2.7080078,1.0002747,2.7931671,2.4443665
						c0.0883636,1.4702148-0.9987793,2.6784973-2.4984283,2.7636719c-1.4915314,0.0883484-2.7407074-0.9823608-2.8291321-2.4526062
						c-0.0851746-1.4407959,1.0314789-2.6686707,2.5180511-2.7538452L195.2026825,472.3720093z M195.1978149,472.897522
						c-1.1346588,0.0654602-1.9384766,1.047821-1.8664551,2.1906128c0.063858,1.1526184,0.9741364,2.025238,2.1463623,1.954834
						c1.1412048-0.0556641,1.9253998-1.034668,1.8599243-2.1889648c-0.0687256-1.1427917-0.9659119-2.0285034-2.1185303-1.9597778
						L195.1978149,472.897522z M195.0078735,476.3340454l-0.6008759,0.0376282l-0.1506348-2.5802307
						c0.2325439-0.0589294,0.5632324-0.1276855,0.9889069-0.1506348c0.4911346-0.0327148,0.7171326,0.0360413,0.9201508,0.1539001
						c0.1440277,0.1047668,0.2700958,0.2995911,0.2832489,0.5370789c0.0179443,0.301178-0.1899414,0.5369873-0.5027008,0.646637
						l0.0032806,0.0344238c0.2554016,0.0622253,0.4077148,0.258606,0.5108337,0.6057434
						c0.0999146,0.3897095,0.158844,0.5501404,0.2259979,0.617218l-0.648407,0.0377197
						c-0.0867462-0.0884399-0.1440887-0.3045349-0.2422485-0.5992737c-0.0622864-0.2832642-0.2292633-0.4028015-0.5632324-0.3830872
						l-0.281662,0.0195923L195.0078735,476.3340454z M194.9374695,474.8785706l0.286499-0.0163574
						c0.3274384-0.0196838,0.5943298-0.144104,0.5812531-0.415863c-0.0164185-0.2357788-0.1997528-0.3831482-0.5812531-0.360199
						c-0.1587677,0.0115051-0.2668152,0.0294495-0.3291016,0.0523987L194.9374695,474.8785706z"/>
				</g>
			</g>
		</g>
	</g>
	<g id="HiLites">
		<path class="st12" d="M26.431591,340.8648376h30.1339874c-0.7693481-2.3654175-32.4852905-17.7862549-18.108387-42
			c9.5-16,19.8799782-35.5944214,14.3595314-52.3648682c-9.508667-28.8862,5.9591675-60.6319885,32.7815514-102.9862061
			c21.3858032-33.7694702,17.833313-77.0722656,17.833313-77.0722656H86.7556229
			c0.1181641,1.5039062,2.6044922,37.2885742-21.9160156,77.0722656
			c-24.0068321,38.9511719-35.4365196,69.5654297-37.0595665,99.2646484
			c-0.9628906,17.6293945-3.167469,31.8872375-7.9589844,43.4985352
			C6.0982575,319.5314941,26.431591,340.8648376,26.431591,340.8648376z"/>
		<polygon class="st12" points="24.6725578,594.6374512 53.547863,594.6374512 52.0448112,358.4444885 23.2865715,358.4444885 		"/>
		<path class="st12" d="M41.8077736,607.2871094H19.2030373c-6.6771555,74.3994751,22.3661957,88.5952148,33.4911957,88.507019
			C52.6942329,695.7941284,28.1411057,654.0743408,41.8077736,607.2871094z"/>
		<path class="st13" d="M85.7673569,7.2358947c4.2892838-0.1855822,9.3691864-0.3782439,14.2070847-0.4948721v41.75H73.5571213
			l1.2457123-30.27285C75.0478516,12.2636833,79.8134003,7.4935012,85.7673569,7.2358947z"/>
	</g>
</g>
<g>
	<g>
		<path class="st14" d="M115.1999969,419.6000061c-4.5999985-1.7000122-8.5999985-1.8999939-12.0999985-1.2999878
			c1.5999985,1.1000061,1.6999969,3,1.6999969,3s-3.3000031-2.8999939-8.4000015-0.6000061
			c-1.0999985,0.5-2.0999985,1.1000061-3.0999985,1.7999878c-5.9000015,4-12.9000015,14.8999939-19.5,14.3999939
			c0,0-2-0.1000061-2.0999985-0.1000061c0.4000015,0.2000122,2.5,1.5,2.5999985,1.5
			c2.4000015,0.8999939,6.5999985,3.2999878,15.1999969-1.1000061c9.5-4.8999939,11.1999969-10.2999878,19.7999954-10.8999939
			c2.0999985-0.1000061,4,0.2000122,5.8000031,0.8999939c6.5,2.3999939,11.3000031,8.8999939,12.9000015,11.8999939l0,0
			C128.1000061,438.8999939,127.0999985,423.8999939,115.1999969,419.6000061"/>
		<path class="st14" d="M109.3000031,426.2000122c-8.6999969,0.6000061-10.3000031,6-19.8000031,10.8999939
			c-8.5,4.3999939-12.6999969,2-15.0999985,1.1000061c0,0-2.1999969-1.2999878-2.5999985-1.5c0,0,6,8.7999878,16.8000031,10.6000061
			c2.6999969,0.3999939,7.6999969-0.5,9.6999969-3.8999939c0.3000031,2.3999939-0.4000015,3.6000061-1.0999985,4.5
			c10.3000031-2.1000061,16-9.1000061,21.2999954-10.6000061c6.5999985-1.7999878,9.6000061,1.7999878,9.6000061,1.7999878
			c-2-3.7000122-8.5-12.3999939-17.1999969-12.7999878C110.3000031,426.1000061,109.8000031,426.1000061,109.3000031,426.2000122"/>
		
			<linearGradient id="SVGID_1_" gradientUnits="userSpaceOnUse" x1="62.3436852" y1="30.8904972" x2="118.6922989" y2="30.8904972" gradientTransform="matrix(0.999 0.0456 -0.0456 0.999 10.8983011 401.8619995)">
			<stop  offset="0" style="stop-color:#6B9A4D"/>
			<stop  offset="1" style="stop-color:#5A8343"/>
		</linearGradient>
		<path class="st15" d="M109.3000031,426.2000122c-8.6999969,0.6000061-10.3000031,6-19.8000031,10.8999939
			c-8.5,4.3999939-12.6999969,2-15.0999985,1.1000061c0,0-2.1999969-1.2999878-2.5999985-1.5c0,0,6,8.7999878,16.8000031,10.6000061
			c2.6999969,0.3999939,7.6999969-0.5,9.6999969-3.8999939c0.3000031,2.3999939-0.4000015,3.6000061-1.0999985,4.5
			c10.3000031-2.1000061,16-9.1000061,21.2999954-10.6000061c6.5999985-1.7999878,9.6000061,1.7999878,9.6000061,1.7999878
			c-2-3.7000122-8.5-12.3999939-17.1999969-12.7999878C110.3000031,426.1000061,109.8000031,426.1000061,109.3000031,426.2000122"/>
	</g>
</g>
</svg>
