<?xml version="1.0" encoding="utf-8"?>
<!-- Generator: Adobe Illustrator 21.1.0, SVG Export Plug-In . SVG Version: 6.00 Build 0)  -->
<svg version="1.1" id="Layer_1" xmlns="http://www.w3.org/2000/svg" xmlns:xlink="http://www.w3.org/1999/xlink" x="0px" y="0px"
	 viewBox="0 0 225.8300781 721.0617065" style="enable-background:new 0 0 225.8300781 721.0617065;" xml:space="preserve">
<style type="text/css">
	.st0{fill:#EF3E42;}
	.st1{opacity:0.1;enable-background:new    ;}
	.st2{fill:#00713E;}
	.st3{opacity:0.7;fill:#E6E7E8;enable-background:new    ;}
	.st4{fill:#FFFFFF;}
	.st5{opacity:0.2;fill:#FFFFFF;enable-background:new    ;}
	.st6{fill:#4D9D45;}
	.st7{fill:#EC008C;}
	.st8{fill:#EF3E42;stroke:#F9B2B3;stroke-width:2.92277;}
	.st9{fill:#D3D5E0;}
	.st10{fill:#232C64;}
	.st11{fill:#A7B6BE;}
	.st12{fill:#FFFFFF;stroke:#FFFFFF;stroke-width:2.9024301;stroke-linecap:round;stroke-linejoin:round;}
	.st13{fill:#F9B2B3;}
	.st14{opacity:0.4;fill:#FFFFFF;enable-background:new    ;}
	.st15{fill:url(#SVGID_1_);}
</style>
<g>
	<path class="st0" d="M52.4463539,134.3097839c-22.2351189,36.0768433-37.3039551,70.386673-39.2673187,106.3162689
		s-16.7590141,55.1433868-12.3692055,82.8540497c3.1413856,19.8299866,8.835146,12.9581909,8.835146,35.3405762v236.1929321
		c0,0-7.0681171,8.2461548-6.6754436,22.7750244c0.3926733,14.5289307-0.7853463,89.52948,33.7698936,96.5975952
		s45.1574173-11.3875122,45.1574173-11.3875122s2.7427368,18.0629883,31.0181961,18.0629883
		s31.0181885-18.0629883,31.0181885-18.0629883s10.6021729,18.4556274,45.1574249,11.3875122
		s33.3772125-82.0686646,33.7698822-96.5975952c0.3926849-14.5288696-6.6754303-22.7750244-6.6754303-22.7750244
		l1.9633636-236.1929321c0-22.3823853,3.7303925-15.5105896,6.8717804-35.3405762
		c4.389801-27.7106628-10.405838-46.924469-12.3692169-82.8540497
		c-1.9633636-35.9295959-17.032196-70.2394257-39.2673187-106.3162689H52.4463539z"/>
	<polygon class="st1" points="9.6449757,358.8168945 9.6449757,595.0136108 217.1725464,595.0136108 219.148468,358.8168945 	"/>
	<path class="st2" d="M156.4189148,59.2110329c1.0297089-0.0965309,1.9750214-0.263382,2.8236694-0.46521
		c2.9106293-0.6922073,4.9345245-3.3378029,4.8320312-6.3278503c-0.2856445-8.3331642-1.5153503-25.8713379-2.4105988-38.0213699
		c-0.5422058-7.3587575-6.5168152-13.1353416-13.8893433-13.4370708l-13.0402374-0.533685
		c-13.8737946-0.5677989-27.765007-0.5677989-41.6387939,0l-13.0402374,0.533685
		C72.682869,1.2612625,66.7082596,7.037847,66.1660461,14.3966045c-0.8952332,12.1500301-2.1249466,29.6882038-2.4105911,38.0213699
		c-0.1024933,2.9900475,1.9214096,5.635643,4.8320312,6.3278503c0.8486481,0.201828,1.7939682,0.368679,2.8236618,0.46521
		C71.4111481,59.2110367,156.4189148,59.2110367,156.4189148,59.2110329z"/>
	<path class="st3" d="M71.4111481,59.2110329c0,0-9.7186584,0.5890121-9.7186584,3.8285637
		c0,3.2395554,11.4856949,3.2395554,11.4856949,3.2395554s2.5032883,31.9537811-19.7318306,68.030632h120.9373627
		c-22.2351074-36.0768509-19.7318268-68.030632-19.7318268-68.030632s11.4857025,0,11.4857025-3.2395554
		c0-3.2395515-9.7186737-3.8285637-9.7186737-3.8285637H71.4111481z"/>
	<path class="st4" d="M44.764801,693.4526978"/>
	<path class="st5" d="M85.7673569,7.235888c4.2892838-0.1855822,9.3691864-0.3782444,14.207077-0.4948721v41.75H73.5571136
		l1.2457123-30.2728481C75.0478516,12.2636766,79.8133926,7.4934945,85.7673569,7.235888z"/>
	<g>
		<g>
			<g>
				<path class="st4" d="M35.6875153,405.9176331c0.7616997,0,1.4384003,0.2533875,2.0492973,0.7520142
					c0.366703,0.3006897,0.5073013,0.5169983,0.5073013,0.7987976c0,0.3851929-0.3099976,0.6958008-0.7046013,0.6958008
					c-0.1976967,0-0.3480988-0.065918-0.5262985-0.2256165l-0.1503983-0.1410828
					c-0.3101006-0.282196-0.7520027-0.4512024-1.1846008-0.4512024c-0.9868011,0-1.7857018,0.8179016-1.7857018,1.8046875
					c0,0.9868164,0.8174019,1.7954102,1.8047028,1.7954102c0.3945999,0,0.8647995-0.1600952,1.1088982-0.3857117
					l0.2538986-0.2348938c0.1695023-0.1596985,0.3384018-0.2255859,0.5357018-0.2255859
					c0.3857002,0,0.705101,0.3197937,0.705101,0.7050781c0,0.2163086-0.1035995,0.4038086-0.3384018,0.6392212
					c-0.5732994,0.5731812-1.4379997,0.9305725-2.2651978,0.9305725c-1.7763023,0-3.243103-1.4667969-3.243103-3.2333984
					C32.454113,407.3649292,33.9111137,405.9176331,35.6875153,405.9176331z"/>
				<path class="st4" d="M40.5351143,411.209137l-0.1972008,0.460907l-0.0561981,0.140686
					c-0.1597023,0.348114-0.3852005,0.5078125-0.705101,0.5078125c-0.3852005,0-0.7235985-0.3101196-0.7235985-0.6860962
					c0-0.1224976,0.0375977-0.2631226,0.1029968-0.4042969l0.0659027-0.1411133l2.0776978-4.6523132
					c0.1313019-0.2914734,0.3661995-0.4418945,0.6860008-0.4418945c0.3008003,0,0.5639992,0.1596985,0.6861,0.4418945
					l2.1337013,4.6338196c0.1406975,0.3007812,0.1596985,0.3945007,0.1596985,0.5639038
					c0,0.3759766-0.338398,0.6954041-0.7235985,0.6954041c-0.3198013,0-0.5547028-0.1690063-0.705101-0.4981079
					l-0.0658989-0.1504211l-0.2158012-0.4701843H40.5351143z M41.7949142,408.1642456l-0.7426987,1.8046875h1.5038986
					L41.7949142,408.1642456z"/>
				<path class="st4" d="M47.0761147,408.5494385h1.4761009h0.1313972c0.4043007,0.0093079,0.6674004,0.2442017,0.6674004,0.601593
					c0,0.3477173-0.2723999,0.5923157-0.6674004,0.5923157h-0.1313972h-1.4761009v1.6351929v0.1596985
					c0,0.4888-0.2817001,0.8085938-0.7137985,0.8085938c-0.4326019,0-0.724102-0.3291016-0.724102-0.8085938V411.37854v-4.3612976
					v-0.1694031c0.009201-0.5448914,0.3007011-0.8363953,0.8363991-0.8363953h0.1694031h2.3402977h0.141201
					c0.4510994,0.0091858,0.7328987,0.263092,0.7328987,0.6582031c0,0.3945007-0.2910004,0.6576843-0.7328987,0.6576843h-0.141201
					h-1.9081993V408.5494385z"/>
				<path class="st4" d="M52.2920151,408.5494385h1.4759979h0.1314011c0.4043007,0.0093079,0.6674995,0.2442017,0.6674995,0.601593
					c0,0.3477173-0.2724991,0.5923157-0.6674995,0.5923157H53.768013h-1.4759979v1.6351929v0.1596985
					c0,0.4888-0.2817993,0.8085938-0.7139015,0.8085938c-0.4325981,0-0.7240982-0.3291016-0.7240982-0.8085938V411.37854v-4.3612976
					v-0.1694031c0.0093002-0.5448914,0.3008003-0.8363953,0.8363991-0.8363953h0.1693993h2.3404007h0.1411018
					c0.4511986,0.0091858,0.7328987,0.263092,0.7328987,0.6582031c0,0.3945007-0.2910004,0.6576843-0.7328987,0.6576843h-0.1411018
					h-1.9081993V408.5494385z"/>
				<path class="st4" d="M57.5088158,408.4928284h1.4657974h0.1318016c0.4043007,0.0093079,0.6674995,0.2348938,0.6674995,0.5923157
					c0,0.3573914-0.2729988,0.6015015-0.6674995,0.6015015h-0.1318016h-1.4657974v1.2783813h1.9076996h0.1503983
					c0.4419022,0.0092163,0.7334023,0.2631226,0.7334023,0.6582031c0,0.3945007-0.3008003,0.6577148-0.7334023,0.6577148h-0.1503983
					h-2.3404007h-0.1688995c-0.5454025-0.0093079-0.8368988-0.3008118-0.8368988-0.8363953v-0.1695251v-4.257782v-0.1694031
					c0.009697-0.5448914,0.3007965-0.8363953,0.8368988-0.8363953h0.1688995h2.293499h0.1504021
					c0.4418983,0.0091858,0.7235985,0.263092,0.7235985,0.6582031c0,0.3945007-0.2915001,0.6576843-0.7235985,0.6576843h-0.1504021
					h-1.8607979V408.4928284z"/>
				<path class="st4" d="M62.7334137,411.37854v0.1596985c0,0.4888-0.2817993,0.8085938-0.7138977,0.8085938
					c-0.4326019,0-0.724102-0.3291016-0.724102-0.8085938V411.37854v-4.4648132v-0.1596985
					c0.0093002-0.488678,0.2915001-0.7987976,0.724102-0.7987976c0.4320984,0,0.7138977,0.3193054,0.7138977,0.7987976v0.1596985
					V411.37854z"/>
				<path class="st4" d="M68.2978134,406.9137268v-0.1596985c0.0093002-0.488678,0.2910004-0.7987976,0.7138977-0.7987976
					c0.4326019,0,0.7241058,0.3193054,0.7241058,0.7987976v0.1596985v4.5117188c0,0.348175-0.0190048,0.4701843-0.1128006,0.601593
					c-0.1411057,0.2163086-0.385704,0.3480835-0.6483994,0.3480835c-0.2637024,0-0.4043045-0.0848999-0.6768036-0.4510803
					l-2.5566025-3.2807922v2.7352905v0.1596985c0,0.4888-0.282196,0.8085938-0.7148972,0.8085938
					c-0.4320984,0-0.7236023-0.3291016-0.7236023-0.8085938V411.37854v-4.5869141
					c0-0.2723999,0.0283051-0.394989,0.1221008-0.5262756c0.1411057-0.206604,0.3387985-0.3101196,0.5643997-0.3101196
					c0.2627029,0,0.4322052,0.093811,0.6768036,0.4136047l2.6317978,3.3178101V406.9137268z"/>
				<path class="st4" d="M72.7334137,408.4928284h1.4657974h0.1318054c0.4042969,0.0093079,0.6674957,0.2348938,0.6674957,0.5923157
					c0,0.3573914-0.2728958,0.6015015-0.6674957,0.6015015h-0.1318054h-1.4657974v1.2783813h1.9076996h0.1503983
					c0.4419022,0.0092163,0.7334061,0.2631226,0.7334061,0.6582031c0,0.3945007-0.3008041,0.6577148-0.7334061,0.6577148h-0.1503983
					h-2.3403015H72.131813c-0.5453949-0.0093079-0.8368988-0.3008118-0.8368988-0.8363953v-0.1695251v-4.257782v-0.1694031
					c0.0098038-0.5448914,0.3007965-0.8363953,0.8368988-0.8363953h0.1689987h2.2934036h0.1503983
					c0.4419022,0.0091858,0.7236023,0.263092,0.7236023,0.6582031c0,0.3945007-0.2915039,0.6576843-0.7236023,0.6576843h-0.1503983
					h-1.8608017V408.4928284z"/>
				<path class="st4" d="M47.6787148,416.2491455h1.4756012h0.1312981c0.4043007,0.0092773,0.6674995,0.2442017,0.6674995,0.601593
					c0,0.3476868-0.2724991,0.5917969-0.6674995,0.5917969h-0.1312981h-1.4756012v1.6357117v0.1596985
					c0,0.4888-0.2821999,0.8085938-0.714901,0.8085938c-0.4320984,0-0.7235985-0.3291016-0.7235985-0.8085938v-0.1596985v-4.3612976
					v-0.1689148c0.0098-0.5454102,0.3008003-0.8369141,0.8368988-0.8369141h0.1689987h2.3403015h0.1411018
					c0.4511986,0.0097046,0.7333984,0.2631226,0.7333984,0.6582031c0,0.3945007-0.2915001,0.6577148-0.7333984,0.6577148h-0.1411018
					h-1.9076996V416.2491455z"/>
				<path class="st4" d="M52.894516,419.0782471v0.1596985c0,0.4888-0.2821999,0.8085938-0.7148018,0.8085938
					c-0.4322014,0-0.7237015-0.3291016-0.7237015-0.8085938v-0.1596985v-4.3612976v-0.1689148
					c0.0098-0.5454102,0.3008003-0.8369141,0.8369026-0.8369141h0.1689987h0.9682007
					c0.7329979,0,1.1939011,0.1128235,1.588398,0.3759155c0.6485023,0.4229126,1.052803,1.156311,1.052803,1.9082031
					c0,0.8740845-0.5171013,1.5415039-1.4288025,1.8613892l1.0713005,0.7798157
					c0.2637024,0.1976929,0.3950996,0.4134827,0.3950996,0.6673889c0,0.4042969-0.3101006,0.7333984-0.7050972,0.7333984
					c-0.1597023,0-0.3286018-0.0751953-0.4981003-0.2070007l-2.0112-1.644989V419.0782471z M53.439415,416.9445496
					c0.4229012,0,0.6298981-0.0376282,0.7989006-0.1407166c0.2723999-0.1694031,0.4417992-0.4701843,0.4417992-0.7992859
					c0-0.3569031-0.206501-0.6860046-0.5355988-0.8457031c-0.1787033-0.0845032-0.2821999-0.0942078-0.7334023-0.0942078H52.894516
					v1.8799133H53.439415z"/>
				<path class="st4" d="M58.6738129,416.1925354h1.4668007h0.1313019c0.4043007,0.0097961,0.6674995,0.2354126,0.6674995,0.5922852
					c0,0.3569031-0.2723999,0.6016235-0.6674995,0.6016235h-0.1313019h-1.4668007v1.2782898h1.9082031h0.1503983
					c0.4418983,0.0093079,0.7333984,0.2632141,0.7333984,0.6577148c0,0.394989-0.3007965,0.6581726-0.7333984,0.6581726H60.582016
					h-2.3403015H58.072216c-0.5449028-0.0092773-0.8364029-0.3007812-0.8364029-0.8363953v-0.1694946v-4.257782v-0.1689148
					c0.0093002-0.5454102,0.3008003-0.8369141,0.8364029-0.8369141h0.1694984h2.2933998h0.1504021
					c0.4418983,0.0097046,0.7236977,0.2631226,0.7236977,0.6582031c0,0.3945007-0.2910995,0.6577148-0.7236977,0.6577148h-0.1504021
					h-1.8613014V416.1925354z"/>
				<path class="st4" d="M63.8994141,416.1925354h1.4657974h0.1318054c0.4042969,0.0097961,0.6674957,0.2354126,0.6674957,0.5922852
					c0,0.3569031-0.2728958,0.6016235-0.6674957,0.6016235h-0.1318054h-1.4657974v1.2782898h1.9076996h0.1503983
					c0.4419022,0.0093079,0.7334061,0.2632141,0.7334061,0.6577148c0,0.394989-0.3008041,0.6581726-0.7334061,0.6581726h-0.1503983
					h-2.3402977h-0.1690025c-0.5453987-0.0092773-0.8368988-0.3007812-0.8368988-0.8363953v-0.1694946v-4.257782v-0.1689148
					c0.0098-0.5454102,0.3008003-0.8369141,0.8368988-0.8369141h0.1690025h2.2933998h0.1503983
					c0.4419022,0.0097046,0.7236023,0.2631226,0.7236023,0.6582031c0,0.3945007-0.2915039,0.6577148-0.7236023,0.6577148h-0.1503983
					h-1.8608017V416.1925354z"/>
			</g>
		</g>
		<g>
			<g>
				<path class="st6" d="M171.8340149,410.2623291c4.7127991-3.4692078,9.8759003-4.4296875,16.0702972-4.3388062
					l25.4208984,0.1206055l-4.4902954,24.460907c-1.308609,5.3866882-3.5341034,10.3295898-8.3281097,13.8569031
					c-9.816391,7.2290039-24.1952972,5.4560852-32.1132965-3.9603882
					C160.4756165,430.9825439,162.0175171,417.4894409,171.8340149,410.2623291"/>
			</g>
			<g>
				<g>
					<path class="st4" d="M171.6924133,417.4303284h-0.2129059c-0.6835938,0-1.1114044-0.3988953-1.1114044-0.996582
						c0-0.5840149,0.4414062-0.9966125,1.1114044-0.9966125h0.2129059h1.2812042
						c0.8261871,0,1.2245941,0.4981079,1.2245941,1.4663086v6.6625977v0.2421875
						c0,0.7543945-0.4266968,1.2241211-1.0820007,1.2241211s-1.0957031-0.4980164-1.0957031-1.2241211V423.56604v-6.1214905
						L171.6924133,417.4303284z"/>
					<path class="st4" d="M185.1728058,420.177948c0,2.7049866-2.1786957,4.8973999-4.8837891,4.8973999
						c-2.7050018,0-4.8973999-2.1924133-4.8973999-4.8973999c0-2.6910095,2.1923981-4.8833008,4.8690948-4.8833008
						C182.9795074,415.2946472,185.1728058,417.4869385,185.1728058,420.177948z M177.5420074,420.1495361
						c0,1.5371094,1.2098999,2.7618103,2.7334137,2.7618103c1.5087891,0,2.718689-1.2247009,2.718689-2.7333984
						c0-1.4952087-1.2245941-2.7192993-2.7333984-2.7192993
						C178.7802124,417.4586487,177.5420074,418.6686401,177.5420074,420.1495361z"/>
					<path class="st4" d="M195.519516,420.177948c0,2.7049866-2.1787109,4.8973999-4.8838043,4.8973999
						c-2.7051086,0-4.8973999-2.1924133-4.8973999-4.8973999c0-2.6910095,2.1922913-4.8833008,4.8691101-4.8833008
						C193.3261108,415.2946472,195.519516,417.4869385,195.519516,420.177948z M187.8886108,420.1495361
						c0,1.5371094,1.2099915,2.7618103,2.7333984,2.7618103c1.5088043,0,2.7187958-1.2247009,2.7187958-2.7333984
						c0-1.4952087-1.2245941-2.7192993-2.7333832-2.7192993
						C189.1269073,417.4586487,187.8886108,418.6686401,187.8886108,420.1495361z"/>
					<path class="st4" d="M200.6689148,417.5157471c0,1.2099915-0.9687042,2.1777954-2.1640015,2.1777954
						c-1.2109985,0-2.1788025-0.967804-2.1788025-2.1636047s0.967804-2.1781921,2.164093-2.1781921
						C199.7002106,415.3517456,200.6689148,416.3195496,200.6689148,417.5157471z M197.6220093,417.5157471
						c0,0.4980774,0.3838043,0.8823853,0.8681946,0.8823853c0.4844055,0,0.8682098-0.3843079,0.8682098-0.8681946
						c0-0.4844055-0.3838043-0.8828125-0.8682098-0.8828125
						C198.0058136,416.6471252,197.6220093,417.0455322,197.6220093,417.5157471z M202.1914215,416.2198486
						c0.3134918-0.6689148,0.5272827-0.8823242,0.882782-0.8823242c0.3271027,0,0.5410004,0.1992188,0.5410004,0.5263977
						c0,0.1567078-0.0712891,0.4272156-0.1708984,0.655304l-0.0565948,0.0996094l-3.5166016,7.5595093l-0.0850067,0.1850891
						c-0.2138977,0.4555969-0.4696808,0.6972961-0.7401886,0.6972961c-0.3134918,0-0.5987091-0.2558899-0.5987091-0.5409851
						c0-0.1705017,0.0713043-0.3984985,0.1708984-0.6407166l0.0860138-0.1703796L202.1914215,416.2198486z M205.7226105,422.8400269
						c0,1.2098999-0.9687042,2.1782227-2.1786957,2.1782227c-1.1953125,0-2.1777039-0.9683228-2.1777039-2.1782227
						c0-1.1958008,0.9823914-2.164093,2.1640015-2.164093C204.7402039,420.6759338,205.7226105,421.6442261,205.7226105,422.8400269
						z M202.6611023,422.8258362c0,0.4981079,0.3848114,0.8970032,0.8828125,0.8970032
						c0.4843903,0,0.8692017-0.3988953,0.8692017-0.8828125c0-0.4838867-0.3848114-0.8681946-0.8829041-0.8681946
						C203.0605164,421.9718323,202.6611023,422.3561401,202.6611023,422.8258362z"/>
					<path class="st4" d="M175.9765167,427.1115417v-0.1362915c0.0077972-0.417511,0.2490997-0.6821289,0.6103973-0.6821289
						c0.3690948,0,0.6172028,0.272522,0.6172028,0.6821289v0.1362915v3.8525085c0,0.296875-0.0157013,0.4013977-0.0957031,0.5136719
						c-0.121109,0.1845093-0.3291016,0.296814-0.5537109,0.296814c-0.2246857,0-0.3456879-0.0722046-0.578186-0.3851929
						l-2.183609-2.8008118v2.3355103v0.1362c0,0.4174805-0.2402039,0.6903992-0.6092987,0.6903992
						c-0.3692017,0-0.6181946-0.2807922-0.6181946-0.6903992v-0.1362v-3.9169922
						c0-0.2325134,0.0243988-0.3370056,0.1044922-0.4493103c0.1201019-0.1766968,0.2891083-0.2646179,0.4813995-0.2646179
						c0.2246094,0,0.3692017,0.0801086,0.5782013,0.3530273l2.2470093,2.8329773V427.1115417z"/>
					<path class="st4" d="M179.0605164,430.7794495l-0.1688995,0.3935852l-0.0479126,0.1200867
						c-0.1366882,0.2969055-0.3291016,0.4336243-0.6015015,0.4336243c-0.3290863,0-0.6181946-0.2651978-0.6181946-0.5859985
						c0-0.1044006,0.032196-0.2246094,0.0879059-0.3452148l0.0565948-0.1206055l1.7734985-3.9725952
						c0.1123047-0.2490845,0.3134003-0.3775024,0.585907-0.3775024c0.2567902,0,0.4813995,0.1367188,0.5858917,0.3775024
						l1.8223114,3.9570007c0.1200867,0.2568054,0.1356964,0.3369141,0.1356964,0.4814148
						c0,0.3208008-0.2880096,0.5937805-0.6171112,0.5937805c-0.2734985,0-0.4736938-0.1445007-0.6026001-0.425293
						l-0.0555878-0.1283875l-0.1846008-0.4013977H179.0605164z M180.1357117,428.178833l-0.6338043,1.5410156h1.2842102
						L180.1357117,428.178833z"/>
					<path class="st4" d="M184.8242035,430.9240417v0.1362c-0.0087891,0.4174805-0.2489929,0.6903992-0.6181946,0.6903992
						c-0.3612976,0-0.6103058-0.2807922-0.6103058-0.6903992v-0.1362v-3.4595032h-0.875h-0.1200867
						c-0.3848114-0.0078125-0.6260071-0.2246094-0.6260071-0.5614929c0-0.3291016,0.2490082-0.5621033,0.6260071-0.5621033
						h0.1200867h2.9697113h0.128891c0.3769989,0.0083008,0.6260071,0.2247009,0.6260071,0.5621033
						c0,0.3368835-0.256897,0.5614929-0.6260071,0.5614929h-0.128891h-0.8662109V430.9240417z"/>
					<path class="st4" d="M186.7207031,427.1115417v-0.1362915c0-0.417511,0.2402039-0.6821289,0.609314-0.6821289
						c0.3701935,0,0.6181946,0.272522,0.6181946,0.6821289v0.1362915v2.4960022
						c0,0.5458984,0.4092102,0.9711914,0.9394989,0.9711914c0.3047028,0,0.6015015-0.1523132,0.7704926-0.4013062
						c0.1201019-0.1684875,0.1679077-0.3291016,0.1679077-0.6020813v-2.4638062v-0.1362915
						c0.0088043-0.417511,0.2490997-0.6821289,0.6103973-0.6821289c0.3690948,0,0.6181946,0.272522,0.6181946,0.6821289v0.1362915
						v2.4638062c0,1.2442017-0.9306946,2.1991882-2.1513977,2.1991882c-1.219696,0-2.1826019-0.9628906-2.1826019-2.1669922
						V427.1115417z"/>
					<path class="st4" d="M193.1347046,430.9240417v0.1362c0,0.4174805-0.2401886,0.6903992-0.6092834,0.6903992
						c-0.3692169,0-0.6182098-0.2807922-0.6182098-0.6903992v-0.1362v-3.7242126v-0.1445007
						c0.0077972-0.4653015,0.2568054-0.714386,0.7138977-0.714386h0.1445007h0.8271027
						c0.6259918,0,1.0195923,0.0961914,1.3564911,0.3212891c0.5537109,0.3609009,0.898407,0.9873047,0.898407,1.6289062
						c0,0.7466125-0.4414062,1.3164062-1.219696,1.589386l0.9149933,0.6660156
						c0.2246094,0.1690063,0.3370056,0.3534851,0.3370056,0.5697937c0,0.3452148-0.2647095,0.6264954-0.6016083,0.6264954
						c-0.1366882,0-0.2812958-0.0644836-0.4257965-0.1767883l-1.717804-1.4046936V430.9240417z M193.6006165,429.1022339
						c0.3612976,0,0.5379944-0.0322876,0.6825867-0.1206055c0.2324066-0.1445923,0.3769073-0.4013977,0.3769073-0.6821899
						c0-0.3051147-0.1766968-0.585907-0.4570007-0.7221069c-0.1533051-0.0722961-0.2411957-0.0805969-0.6269989-0.0805969
						h-0.4414062v1.6054993H193.6006165z"/>
					<path class="st4" d="M197.3662109,430.7794495l-0.1690063,0.3935852l-0.0477905,0.1200867
						c-0.1367035,0.2969055-0.3291016,0.4336243-0.6016083,0.4336243c-0.3291016,0-0.618103-0.2651978-0.618103-0.5859985
						c0-0.1044006,0.0322113-0.2246094,0.0878143-0.3452148l0.0566864-0.1206055l1.773407-3.9725952
						c0.1123047-0.2490845,0.3134918-0.3775024,0.5859985-0.3775024c0.2568054,0,0.4813995,0.1367188,0.585907,0.3775024
						l1.8222961,3.9570007c0.1201019,0.2568054,0.1356964,0.3369141,0.1356964,0.4814148
						c0,0.3208008-0.289093,0.5937805-0.6172028,0.5937805c-0.2733917,0-0.4736023-0.1445007-0.6024933-0.425293
						l-0.0557098-0.1283875l-0.1845856-0.4013977H197.3662109z M198.4414215,428.178833l-0.6338043,1.5410156h1.2841949
						L198.4414215,428.178833z"/>
					<path class="st4" d="M204.1015167,430.5709229h0.128891c0.3770142,0.0078125,0.6181946,0.2246094,0.6181946,0.5615234
						c0,0.3374023-0.2489929,0.5621033-0.6181946,0.5621033h-0.128891h-1.8379059h-0.1445007
						c-0.464798-0.0079041-0.7138977-0.2569275-0.7138977-0.7144165v-0.1445007v-3.7240906v-0.1362915
						c0.0079041-0.417511,0.2490997-0.6821289,0.6181946-0.6821289c0.3691101,0,0.6094055,0.272522,0.6094055,0.6821289v0.1362915
						v3.4593811H204.1015167z"/>
					<path class="st4" d="M175.9092102,435.2257385h1.1972046h0.1073914
						c0.3282013,0.0083008,0.5411072,0.2089844,0.5411072,0.5137024c0,0.2969055-0.2207031,0.5057983-0.5411072,0.5057983
						h-0.1073914h-1.1972046v1.3964844v0.136322c0,0.4173889-0.2295074,0.6903992-0.5800934,0.6903992
						c-0.3516083,0-0.5879059-0.2808228-0.5879059-0.6903992v-0.136322v-3.7240906v-0.1445007
						c0.0077972-0.4653931,0.2440948-0.714386,0.6797028-0.714386h0.1367035h1.9003906h0.1141968
						c0.3662109,0.0083008,0.5948029,0.2245789,0.5948029,0.5619812c0,0.3369141-0.2364044,0.561615-0.5948029,0.561615h-0.1141968
						h-1.5487976V435.2257385z"/>
					<path class="st4" d="M181.2324219,437.2887268h0.1220856c0.3592987,0.0078125,0.5879059,0.2246094,0.5879059,0.5615234
						c0,0.3373718-0.2364044,0.5619812-0.5879059,0.5619812h-0.1220856h-1.7471161h-0.1366882
						c-0.4434052-0.007782-0.6797028-0.2568054-0.6797028-0.7142944v-0.1445923v-3.7241211v-0.1362
						c0.0077972-0.4174805,0.2362976-0.6820984,0.5878906-0.6820984c0.3506165,0,0.5801086,0.2723999,0.5801086,0.6820984v0.1362
						v3.4595032H181.2324219z"/>
					<path class="st4" d="M183.2539062,437.4972229l-0.160202,0.3935242l-0.0458984,0.1201782
						c-0.1298981,0.296814-0.3134918,0.4336243-0.5721893,0.4336243c-0.3135071,0-0.5879059-0.2652283-0.5879059-0.5860291
						c0-0.1044922,0.0301971-0.2245789,0.0839996-0.3451843l0.0537109-0.1206055l1.6854858-3.9726868
						c0.1074066-0.2490234,0.2978973-0.3774109,0.5576019-0.3774109c0.2442017,0,0.4571075,0.1366882,0.5567017,0.3774109
						l1.7313995,3.9570923c0.1152039,0.2568054,0.1298981,0.3369141,0.1298981,0.4813843
						c0,0.3208008-0.2743988,0.593811-0.5868988,0.593811c-0.2597961,0-0.4501953-0.1445923-0.5722961-0.425293l-0.0537109-0.128418
						l-0.1757965-0.4013977H183.2539062z M184.2763062,434.896637l-0.6035004,1.5409851h1.2207031L184.2763062,434.896637z"/>
					<path class="st4" d="M189.4785156,433.5724487c0.1600952-0.4331055,0.3125-0.5698242,0.6102905-0.5698242
						c0.3047028,0,0.5722961,0.2729187,0.5722961,0.585907c0,0.1044922-0.0233917,0.2246094-0.0692902,0.3369141
						l-0.0527954,0.120575l-1.6259003,3.9248047c-0.1368103,0.3208008-0.3125,0.4654236-0.5645142,0.4654236
						c-0.2587891,0-0.4569855-0.1524048-0.5868988-0.4654236l-1.6103973-3.9169922l-0.0527039-0.1200867
						c-0.0536957-0.1206055-0.0761871-0.2407227-0.0761871-0.3452148c0-0.3129883,0.2743988-0.585907,0.5868988-0.585907
						c0.2978973,0,0.4501953,0.1445007,0.6103973,0.578125l1.1221008,2.945282L189.4785156,433.5724487z"/>
					<path class="st4" d="M195.1758118,433.8053284c0.4960022,0.4976196,0.7704926,1.1958008,0.7704926,1.9424133
						c0,1.5087891-1.1826935,2.7445984-2.6240997,2.7445984c-1.4579926,0-2.6327972-1.2279968-2.6327972-2.7528992
						s1.1680145-2.7608032,2.6172028-2.7608032C193.9785156,432.9786377,194.6572113,433.2833252,195.1758118,433.8053284z
						 M191.8496094,435.7477417c0,0.842804,0.6640015,1.5326843,1.4725952,1.5326843
						c0.808609,0,1.4571075-0.6820984,1.4571075-1.5326843c0-0.8511047-0.6562958-1.5493164-1.4571075-1.5493164
						C192.5205078,434.1984253,191.8496094,434.9049377,191.8496094,435.7477417z"/>
					<path class="st4" d="M197.7470093,437.6417236v0.136322c0,0.4173889-0.2294922,0.6903992-0.5800018,0.6903992
						c-0.351593,0-0.5878906-0.2808228-0.5878906-0.6903992v-0.136322v-3.7240906v-0.1445007
						c0.0077972-0.4653931,0.2440948-0.714386,0.6796875-0.714386h0.1367035h0.7861023
						c0.594696,0,0.968811,0.0961914,1.289093,0.3212891c0.5263062,0.3608093,0.8545074,0.9873047,0.8545074,1.6289062
						c0,0.746582-0.4190063,1.3164062-1.1591949,1.589386l0.8690948,0.6660156
						c0.2138977,0.1688843,0.3213043,0.3534851,0.3213043,0.5697937c0,0.3451843-0.2519073,0.6264954-0.5722046,0.6264954
						c-0.1298981,0-0.2675934-0.0644836-0.4042969-0.1767883l-1.6329041-1.4048157V437.6417236z M198.1894073,435.8199463
						c0.342804,0,0.5108032-0.032196,0.6484985-0.1206055c0.2207031-0.1445007,0.3583984-0.4013062,0.3583984-0.6820984
						c0-0.3052063-0.1679993-0.585907-0.4346008-0.7221985c-0.1454926-0.0722046-0.2294922-0.0805054-0.5956879-0.0805054
						h-0.4190063v1.6054077H198.1894073z"/>
					<path class="st4" d="M204.1318054,434.0138245c0,0.3130188-0.2294922,0.5698242-0.5117035,0.5698242
						c-0.0995941,0-0.2060852-0.0400085-0.2900848-0.1040039c-0.0146027-0.0083008-0.114212-0.0967102-0.2587128-0.2167969
						c-0.199295-0.1684265-0.4042969-0.2568054-0.5956879-0.2568054c-0.3125,0-0.5723114,0.2245789-0.5723114,0.4891968
						c0,0.2651978,0.152298,0.3935852,0.6182098,0.5137024c0.4422913,0.112793,0.7626953,0.2250977,1.0145874,0.3534851
						c0.5342102,0.2647095,0.8242035,0.7543945,0.8242035,1.3726196c0,1.0429993-0.7557983,1.7572937-1.8544922,1.7572937
						c-0.9912109,0-1.8691101-0.6098938-1.8691101-1.2998047c0-0.3135071,0.2441101-0.585907,0.526413-0.585907
						c0.2137909,0,0.3739929,0.0800171,0.6259003,0.3130188c0.2978973,0.2884827,0.5419922,0.4090881,0.8007965,0.4090881
						c0.3437958,0,0.6035004-0.2489929,0.6035004-0.5780945c0-0.2807922-0.183609-0.4575195-0.5957031-0.5854187
						l-0.5028992-0.1528931c-0.3740082-0.1123047-0.6797028-0.2485046-0.8701019-0.3930054
						c-0.3056946-0.2167969-0.472702-0.6020813-0.472702-1.0673828c0-0.9234009,0.7246094-1.5733032,1.7696075-1.5733032
						C203.4062042,432.9786377,204.1318054,433.4440308,204.1318054,434.0138245z"/>
				</g>
			</g>
			<g>
				<g>
					<ellipse class="st4" cx="113.9123154" cy="473.93927" rx="70.1708984" ry="65.782959"/>
					<ellipse class="st0" cx="113.9113388" cy="473.9400024" rx="65.0097504" ry="60.9406738"/>
				</g>
			</g>
			<g>
				<g>
					<path class="st7" d="M45.973114,458.2999268c0.6133003,0.761322,1.4599991,1.1021118,1.8778992,0.761322
						c0.4151001-0.3365173,0.2559013-1.236908-0.3622971-1.9961243L24.045414,428.2238464
						c-0.6147995-0.7583008-1.4613991-1.1000977-1.8808994-0.7608032c-0.4199009,0.3403015-0.2593002,1.2373047,0.3540001,1.9975891
						L45.973114,458.2999268z"/>
					<path class="st8" d="M13.0102348,424.6119385c-0.4379807,4.2436829,2.6532793,8.0458984,6.8940792,8.4819946
						c4.2411995,0.4403992,8.0459003-2.6532898,8.4834003-6.8930969c0.4349995-4.2388-2.6581993-8.0487976-6.8955002-8.4833984
						C17.2509136,417.2775269,13.4462748,420.3741455,13.0102348,424.6119385"/>
					<path class="st4" d="M16.8115139,425.0045471c-0.2162991,2.1435852,1.3446999,4.0650024,3.4863014,4.2846985
						c2.1420994,0.2236023,4.0625-1.3399048,4.2870998-3.4824219c0.2162991-2.1401978-1.3446999-4.0605774-3.4848003-4.2846985
						C18.9599152,421.302948,17.0346146,422.865448,16.8115139,425.0045471"/>
				</g>
				<path class="st7" d="M35.1777153,442.7335205c-0.2642021,0.8858032-0.2642021,1.679718,0.0064011,1.7564087
					c0.267498,0.0805054,0.703598-0.5756836,0.9754982-1.4628906l2.9911995-9.914093
					c0.2642021-0.8843079,0.2642021-1.6787109-0.0028992-1.7597961c-0.2723999-0.0830078-0.7118988,0.5795898-0.9808998,1.464386
					L35.1777153,442.7335205z"/>
				<path class="st7" d="M32.4599152,442.2462463c0.9609985-0.1689148,1.7089996-0.5493164,1.6498985-0.8442078
					c-0.0472984-0.2886047-0.8740005-0.387207-1.839798-0.219696l-8.0982018,1.2250061
					c-0.9613991,0.1705017-1.7089005,0.5493774-1.6562004,0.8414001c0.0488014,0.2948914,0.8804016,0.3934937,1.8447018,0.2259827
					L32.4599152,442.2462463z"/>
				<path class="st6" d="M45.4848137,433.3170471c-0.9413986,3.3158875-4.3905983,5.237793-7.7030983,4.2934875
					c-3.3143997-0.9448853-5.2329025-4.3984985-4.285099-7.7138977c1.0003967-3.5176086,9.3773994-10.1636047,9.3773994-10.1636047
					S46.4917145,429.7970276,45.4848137,433.3170471"/>
				<path class="st9" d="M40.5449142,428.6002502c1.7876015,0.5961914,2.7485008,2.5214844,2.1567001,4.3056946
					c-0.5923004,1.7886047-2.5205002,2.7528992-4.3081017,2.1576843c-1.7845993-0.5917969-2.7552986-2.5214844-2.1581993-4.3065796
					C36.830513,428.9694214,38.7641144,428.0050354,40.5449142,428.6002502"/>
				<path class="st9" d="M41.7158127,424.3678284c0.7808037,0.2607117,1.2007027,1.1025085,0.9399033,1.8822937
					c-0.2607002,0.7759094-1.0971031,1.1958008-1.877903,0.9365234c-0.7787971-0.2568054-1.1968002-1.1010132-0.9413986-1.878418
					C40.0957146,424.5284424,40.9355164,424.1110229,41.7158127,424.3678284"/>
				<g>
					<path class="st6" d="M21.7690144,437.9547424c2.8188992-0.4463196,5.4531002,1.469696,5.902401,4.276886
						c0.4491997,2.815918-1.4727001,5.4546204-4.2837009,5.9042969c-2.9848995,0.4721069-10.8828497-3.4902954-10.8828497-3.4902954
						S18.7827148,438.428833,21.7690144,437.9547424"/>
					<path class="st9" d="M19.9570141,443.3043213c-0.1801987-1.5497742,0.9330997-2.9418945,2.4745998-3.1190796
						c1.5479012-0.1773071,2.9404011,0.9315796,3.1177006,2.4779968c0.1821003,1.5400085-0.9316998,2.9403992-2.4731998,3.1206055
						C21.5312138,445.9576416,20.1342144,444.8478394,19.9570141,443.3043213"/>
				</g>
			</g>
			<g>
				<path class="st4" d="M68.4638138,442.18573c-4.0410004-4.276886-12.4735985-4.9096985-20.5028992-1.0971985
					c-3.6211014,1.7173157-21.7523994,11.0224915-23.1723995,25.6230164c0,0.0048828-0.0625,0.8872986-0.0625,0.8872986
					c-0.0625,1.200592-0.0918007,2.3973999-0.0918007,3.5814819c0,21.7690125,10.0728016,40.8744812,20.5323009,50.5376282
					c5.7495003,5.3036499,10.4183998,8.4667969,14.5170975,6.6591797c2.3452034-1.0380859,4.0932007-3.3203125,4.6474037-7.6298828
					c0.5513-4.3106079,0.2461014-9.5947266,0.2461014-9.5947266c4.4574966,5.6748047,12.0209961,7.9150391,18.0151978,6.609314
					c4.8622971-1.055603,10.5218964-4.9755249,11.4580002-11.0830078l0.2054977-1.3544922c0,0,1.5332031,0.3974915,1.625,0.4219055
					c3.092804,0.5487976,7.5435028,0.4247742,9.9776001-1.7441101c0.7675018-0.6864929,1.2987976-1.5049133,1.5775986-2.4335938
					l0.3656998-1.219696l1.2084961,0.3963928c2.6699066,0.8779907,5.4624023,0.6533813,8.0689011-0.6494141
					c1.6631012-0.8192749,3.0351028-1.9491882,4.0898056-3.3583984l0.8427963-1.1278992l1.010704,0.9775085
					c0.9570999,0.9296875,1.8427963,1.5654907,2.7870941,2.0039062c4.0214996,1.8731079,8.8692017,1.0820923,12.3594055-2.0205078
					c1.2138977-1.085907,2.4989929-3.0213928,3.6122894-5.4559937l0.6446075-1.405304l1.3291016,1.0126953l0.7050018,0.5381165
					c1.3808899,0.8007812,3.6631012,1.1747742,6.7597961-1.5723267c2.3096008-2.0546875,4.277298-4.9755859,5.847702-8.6757812
					l0.7577972-1.7792969l1.2987976,1.4302063c0.7938995,0.8691711,1.5254059,1.5248718,2.3096008,2.058075
					c3.7342987,2.5342102,8.7509003,3.2354126,12.4736023,1.7432251c1.1396027-0.4590149,2.1436005-1.0654297,3.0762024-1.8545227
					l0.7216034-0.6132812l0.7802887,0.5380859c1.9942017,1.3721008,4.4922028,2.3760071,7.6358032,3.0712891
					c3.214798,0.7080078,4.8251953-0.789978,5.496994-1.7480774c1.1485138-1.6269226,1.0996094-3.9360046-0.1239929-5.8842163
					c-1.1347961-1.7973938-0.5908051-3.8081055,0.5440063-7.4980774c0.7938995-2.5649109,1.691391-5.4707031,1.9188995-8.9233093
					c0.6757965-10.3203125-3.3848114-15.5484009-6.9111023-18.1195984
					c-5.8330078-4.2442017-13.2471008-3.6343079-17.8262024-1.8204041
					c-0.0068054,0.0035095-1.0068054,0.4721985-1.0068054,0.4721985l-1.6035919,0.8037109l-0.5039062-1.2270203
					c-0.5576019-1.3345032-1.4227905-2.464386-2.5731964-3.3617859c-2.4657898-1.9185181-5.9423981-2.519104-10.3300934-1.7828064
					l-0.7490082,0.1264954l-0.4530945-0.6132812c-7.3202972-9.9350281-13.1787109-8.0278015-14.7989044-7.2065125v0.0014038
					c-2.4862976,1.2558899-4.0390015,3.8179016-4.3690948,7.2149048c-0.0322113,0.3378906-0.0487976,0.6972961-0.0487976,1.0756836
					c0,1.0039062,0.1180878,2.1552124,0.3505859,3.4882202l0.2334137,1.3071899l-2.9756012,0.3149109
					c-1.905304,0.1903992-3.5547028,0.3544922-4.6680069,0.5888977c-2.107399,0.4408875-3.6347961,1.8334961-4.0858994,3.7225952
					c0,0.0195923-0.1064987,0.6508789-0.1064987,0.6508789c0.0048981-0.0619812,0.0087967,0.7676086,0.0087967,0.7676086
					l0.0028992,1.1118164l-1.1014938,0.226593l-0.7939987,0.0868835c-3.7754059,0.6426086-7.488205,2.917511-10.1191025,6.2333984
					l-0.6327972,0.7969055l-0.903801-0.4653931c-1.5889053-0.8203125-3.0044022-1.0415039-4.3311005-0.6791992
					c-1.5596008,0.4296875-2.7910004,1.4448853-3.4736023,2.8565063c-0.2621994,0.5415039-0.4394989,1.1679077-0.5263977,1.8632812
					l-0.3651962,2.8896179l-1.8306046-2.2666016c-1.4316025-1.7792969-3.0781021-3.2207031-4.8887024-4.2817078
					c-6.0086975-3.5322876-13.0360947-2.9369812-17.6063995-1.2055969c-2.3075943,0.8739929-6.1942978,2.2471008-9.408699,6.1040039
					C70.9204178,454.7970276,73.7348175,447.7648315,68.4638138,442.18573z"/>
				<path class="st10" d="M109.9057083,462.1407471c2.8374023-9.0292053,15.6382065-15.0512085,25.8257065-1.4101257
					c9.6192017,12.8769226,4.506897,29.2236023,0.0673981,33.1719055
					c-4.8983917,4.3535156-12.6317978,1.7646179-12.4179993-5.4892883c0.1493988-5.2607117,2.114296-6.2090149,3.5429993-14.8876953
					c1.3105011-7.9507141-0.402298-15.2236023-7.669899-13.1328125c-4.6973038,1.351593-5.5038986,7.6816101-2.365303,15.8423157
					c3.6846008,9.559082,4.9522018,17.5112-1.3925018,20.6665039c-5.2260971,2.601593-10.7973938-0.9150085-11.2285919-9.1445007
					c-0.5151062-9.9019165,1.7827911-19.0660095-0.613205-24.7304993c-0.7333984-1.7383118-0.8071976-3.8311157,0.9393997-4.3164062
					C106.2422104,458.2609253,108.6201096,460.7042236,109.9057083,462.1407471 M104.0937119,499.9093323
					c-0.0985947-1.5907898-4.8920975-3.0126953-4.5575943-12.782196c0.1425934-3.5907898,0.1166992-8.6538086-0.6216049-13.6343079
					c-2.5219955-17.1376953-15.9272003-17.5903015-22.6805954-15.0351868
					c-4.8706055,1.8466797-8.2261047,5.8858032-9.2593002,8.0424805c-1.0708008,2.2451172-0.4624023,4.542511,2.2333984,3.2271118
					c2.5326996-1.2427063,6.1865005-1.9072876,8.2294998,0.3969116c1.9076996,2.1484985,1.9717026,4.9921875,2.3798981,7.7016907
					c-1.3990021,0.2788086-5.5219955,1.5903015-6.9516983,2.530304
					c-6.2319031,4.1079102-13.7564011,12.6079102-8.0723038,24.4398804
					c2.7652054,5.7666016,9.2578049,11.1748047,17.0391006,9.4766235c4.2383041-0.9190063,9.7026062-4.772522,8.7085037-10.7881165
					c-0.7987976-4.8349915-8.0868988-4.6054993-12.081604-4.8476868c-8.5228958-0.5263062-6.3432007-8.3408203-3.4945984-11.2138062
					c3.6929016-3.726593,8.1801987-0.9151001,9.419899,2.5087891c2.2661057,6.2929077,4.5723038,10.9511108,12.096199,12.2929077
					C99.8921127,502.8370361,104.2446136,502.3068237,104.0937119,499.9093323z M64.8462143,476.1002502
					c-1.7285995-3.2471008-8.0014992-1.4331055-14.3432999,2.0107727c-1.5873985-3.0473938-3.2373009-7.4619751-3.2373009-7.4619751
					s10.8764992-5.2788086,18.0492973-16.0649109c7.7476044-11.6600952-5.4476967-15.1976929-15.8236961-10.2709961
					c-7.0732994,3.3500977-20.6065006,11.9107056-21.1996994,23.4433899
					c-1.1021004,21.5327148,8.5653992,41.4233093,19.2972984,51.3392944
					c9.918499,9.1484985,12.796402,7.6699219,12.7373009-1.0546875c-0.0555992-10.2333984-1.974102-19.8270874-4.3227005-27.094696
					C61.6582146,486.0626221,66.5551147,479.2999268,64.8462143,476.1002502 M170.5322113,444.9313354
					c-3.2129059,1.2640991-5.2938995,3.1845093-6.7080078,4.9985046c-1.1542969,1.4755859,0.0527039,2.9599915,1.4813995,2.6025085
					c3.2325134-0.7890015,8.4229126-0.7509155,9.2344055,5.6743774
					c-10.9160004,0.3475952-15.2225952,6.0400085-15.2518921,13.4131165
					c-0.0293121,8.5737,8.8495941,11.3089905,13.2899933,9.5282898c2.1094055-0.842804,3.4062042-1.9234009,3.6708984-4.0718079
					c0.5487976-4.5380859-5.0722961-4.4921875-6.3311005-4.9315796c-4.3457031-1.5234985-2.9266968-6.5699158-0.1795959-7.9555969
					c2.430603-1.230011,5.8329926,0.2118835,6.2333984,3.9247742c0.7675018,7.0649109,0.743103,11.7598267,10.9208069,14.0015259
					c2.4296875,0.5409851,2.1904907-1.269104,1.5771942-2.2432251c-3.335907-5.2939758,1.407196-10.6464844,1.9257965-18.5561829
					C191.5117035,444.2950439,178.3222046,441.8448486,170.5322113,444.9313354 M163.2470093,445.0787354
					c0.0859985-2.5516968-2.2167969-7.3569031-12.3515015-4.4296875
					c-9.6532898-15.5024109-18.1806946-8.9458008-12.969696,4.1049805c-2.6562958,0.7906189-9.160202,1.069397-11.472702,1.5513
					c-2.0996017,0.4429016-1.6006012,2.3911133,0.169899,3.8013c3.2802963,2.6141968,11.6308975,3.5278015,14.8779068,3.8608093
					c4.6221008,11.4584961,5.8388977,25.3339844,4.511795,31.6547852c-0.753006,3.5908203,1.0614929,2.9697266,2.8320007,1.3955078
					c7.8887024-7.0209961,9.4199066-23.5400085,7.2061005-34.7099915
					C161.9814148,449.8590393,163.1816101,447.2667236,163.2470093,445.0787354"/>
				<g>
					
						<ellipse transform="matrix(0.0030785 -0.9999952 0.9999952 0.0030785 -282.5428467 667.2782593)" class="st4" cx="193.3963928" cy="475.3461304" rx="4.2048793" ry="4.206573"/>
					<path class="st11" d="M193.3095093,472.8121338c1.4902954-0.0868835,2.7109985,1.0020142,2.7998047,2.4483032
						c0.0849915,1.4730835-1.0028992,2.6831055-2.5068054,2.7684937c-1.4922028,0.0884094-2.7450867-0.9838867-2.8320007-2.4564819
						c-0.0868988-1.4434204,1.0350952-2.6734009,2.5243988-2.7583008L193.3095093,472.8121338z M193.3047028,473.3385315
						c-1.136795,0.0653992-1.941391,1.0498047-1.8701935,2.1943054c0.0644989,1.1542969,0.9776001,2.0274048,2.1504059,1.9580078
						c1.1425934-0.055603,1.9286957-1.0361023,1.8613892-2.1938171c-0.0654907-1.144989-0.9677887-2.0307922-2.1192017-1.9618835
						L193.3047028,473.3385315z M193.114212,476.7809448l-0.6006012,0.0375977l-0.1502991-2.5845032
						c0.2313995-0.0591125,0.5605011-0.1278992,0.9873047-0.1523132c0.4950867-0.0312805,0.719696,0.0375977,0.9227905,0.1557007
						c0.1464996,0.1045227,0.2705078,0.2998047,0.2842102,0.5381165c0.0165863,0.3013-0.1904144,0.5375977-0.5059052,0.6474915
						l0.0059052,0.0342102c0.253891,0.0625,0.4081879,0.2591858,0.5116882,0.6069031
						c0.0996094,0.3905945,0.1582031,0.5513,0.2275085,0.6185913l-0.6493988,0.0357056
						c-0.0888062-0.0869141-0.1445007-0.3032227-0.246109-0.5986023c-0.0625-0.2837219-0.2265015-0.4034119-0.5643921-0.3833008
						l-0.2783051,0.0195007L193.114212,476.7809448z M193.0449066,475.322937l0.2861023-0.0161133
						c0.3282013-0.0200806,0.5948029-0.1445923,0.5821075-0.4169922c-0.0186005-0.2359009-0.1983032-0.3833008-0.5821075-0.3603821
						c-0.1611023,0.0112-0.2695007,0.0292969-0.3280945,0.0522766L193.0449066,475.322937z"/>
				</g>
			</g>
			<g>
				
					<ellipse transform="matrix(0.0027361 -0.9999962 0.9999962 0.0027361 -282.5195923 667.3551025)" class="st4" cx="193.3319702" cy="475.3243713" rx="4.2041316" ry="4.2031245"/>
				<path class="st10" d="M193.2451172,472.7906494c1.4921875-0.0848999,2.7128906,1.0019836,2.7977905,2.4467773
					c0.0859985,1.4732056-1,2.6817017-2.503891,2.7686157c-1.4912109,0.0883789-2.7441101-0.9804993-2.8320007-2.456604
					c-0.0868988-1.4414062,1.0331879-2.6698914,2.5233917-2.7553101L193.2451172,472.7906494z M193.239212,473.3175354
					c-1.1347046,0.0668945-1.9384003,1.0508118-1.8652039,2.1924133c0.0644073,1.1576843,0.9756012,2.0267944,2.1455078,1.9579773
					c1.1464996-0.0556946,1.9286957-1.0361023,1.8622894-2.1908875c-0.066391-1.144989-0.9657898-2.030304-2.1230011-1.9628906
					L193.239212,473.3175354z M193.0488129,476.7594299l-0.597702,0.0381165l-0.1533051-2.5864258
					c0.2324066-0.059082,0.5635071-0.1279907,0.9903107-0.1508789c0.4920959-0.0292969,0.7176971,0.0375977,0.9198914,0.1557007
					c0.1445007,0.1036072,0.273407,0.300293,0.2841949,0.5361938c0.0156097,0.3037109-0.1875,0.5380859-0.5058899,0.6478882
					l0.0048981,0.0342102c0.2557983,0.0625,0.4120941,0.2626953,0.5117035,0.6069031
					c0.1006012,0.390686,0.1631012,0.5513,0.2285004,0.6202087l-0.6493988,0.0340881
					c-0.088913-0.0869141-0.1445007-0.3031921-0.246109-0.6015015c-0.0604858-0.2788086-0.226593-0.3984985-0.5604858-0.3789062
					l-0.2823181,0.0180054L193.0488129,476.7594299z M192.9795074,475.3033447l0.2850952-0.0180054
					c0.3321075-0.0180969,0.597702-0.1459961,0.5830078-0.4151001c-0.0146027-0.2391968-0.1971893-0.3851929-0.5830078-0.3637085
					c-0.1571808,0.0126953-0.2655945,0.0307007-0.3241882,0.0522156L192.9795074,475.3033447z"/>
			</g>
			<g>
				<g>
					<g>
						<path class="st12" d="M70.2217178,531.8087158c-0.3326035,0.4658203-0.939003,0.609436-1.3501053,0.3164062
							c-0.1440964-0.1035156-0.2574005-0.2744141-0.3110962-0.4569702
							c-0.0137024-0.0274048-0.0643997-0.2626953-0.1473999-0.5928345
							c-0.1099014-0.4569702-0.3160019-0.8026733-0.5932999-1.0009766
							c-0.4556046-0.3251953-1.0723038-0.2606812-1.3535004,0.1337891
							c-0.2817993,0.3945923-0.1958008,0.7442017,0.3539963,1.4072876c0.5243988,0.6279297,0.8716049,1.1279297,1.102005,1.5809937
							c0.4960938,0.9501953,0.397995,1.9805298-0.259201,2.9004517c-1.1083984,1.5526733-2.9673004,1.8310547-4.5669022,0.6884766
							c-1.4444008-1.0322266-2.0737991-2.8526001-1.339901-3.8798828c0.3325005-0.4658203,0.9780006-0.6182251,1.3892021-0.3242188
							c0.3110008,0.2216797,0.4589996,0.5078125,0.5780983,1.1162109c0.1259995,0.7391968,0.3535042,1.1727905,0.7314034,1.4423828
							c0.5,0.3574219,1.1420975,0.2567749,1.4916992-0.2333984c0.2984009-0.4179688,0.2192993-0.8710938-0.2435989-1.4912109
							l-0.5713043-0.75c-0.4247971-0.5567017-0.7240982-1.0772095-0.8486023-1.4902954
							c-0.2138977-0.640564-0.0488968-1.3886108,0.4458008-2.0809937c0.9809036-1.3740845,2.727005-1.5878906,4.2490005-0.5009766
							C70.2666168,529.5128174,70.8271179,530.960144,70.2217178,531.8087158z"/>
						<path class="st12" d="M71.1748123,540.1115112l-0.1259995,0.2148438
							c-0.3974991,0.6532593-1.0028992,0.8768921-1.544899,0.5595703c-0.5298004-0.3106079-0.6358032-0.9677734-0.2573013-1.6143188
							l0.1259003-0.2157593l3.1963043-5.4649048l-1.2842026-0.7518921l-0.1762009-0.1035156
							c-0.5580978-0.343811-0.7115021-0.8925781-0.3999023-1.4257812c0.3042068-0.5195312,0.884201-0.6738281,1.4380035-0.3496094
							l0.1766968,0.1035156l4.3584061,2.5517578l0.1884995,0.1102905c0.5463943,0.3369141,0.7108994,0.8936157,0.3998947,1.4258423
							c-0.3115005,0.5321655-0.8964996,0.6669922-1.4379959,0.3496094l-0.1884995-0.1104126l-1.2723999-0.7451172
							L71.1748123,540.1115112z"/>
						<path class="st12" d="M76.2524109,542.772644l-0.105896,0.2265015
							c-0.3237991,0.6914673-0.9067993,0.9707031-1.4760971,0.7050781
							c-0.5689011-0.2666016-0.7349014-0.9110718-0.4175034-1.5897827l0.1060028-0.2266235l2.8885956-6.1737671l0.1123047-0.2393188
							c0.3731003-0.765625,0.9496994-0.9990234,1.6552963-0.6699219l0.222702,0.1045532l1.2749023,0.5957031
							c0.964798,0.4511719,1.4964981,0.8944702,1.8422928,1.5097656c0.5737,0.9979858,0.6201019,2.2841797,0.1220016,3.3486328
							c-0.5791016,1.2372437-1.7015991,1.8642578-3.1137009,1.7558594l0.8940048,1.7636108
							c0.2157974,0.4404907,0.2455978,0.828186,0.0775986,1.1875c-0.2675018,0.5723267-0.8939972,0.8466797-1.4134979,0.6035767
							c-0.2105026-0.0976562-0.3833008-0.3085938-0.519104-0.5986938l-1.5586014-3.5664062L76.2524109,542.772644z
							 M78.383316,540.0880127c0.5565948,0.2598267,0.8539963,0.3340454,1.1449966,0.2920532
							c0.471199-0.0723267,0.8931046-0.3935547,1.1108017-0.859436c0.2368011-0.5057983,0.1821976-1.0985718-0.1449966-1.5272827
							c-0.1792068-0.2294922-0.3091049-0.3067017-0.9028015-0.5839844l-0.6807022-0.3184204l-1.2451019,2.6611938
							L78.383316,540.0880127z"/>
						<path class="st12" d="M83.3940125,545.5519409l-0.5083008,0.5848999l-0.1503983,0.1807251
							c-0.3983994,0.4364624-0.7904968,0.5644531-1.2289963,0.4101562c-0.528801-0.1845703-0.8325043-0.8056641-0.6387024-1.3604126
							c0.0629959-0.1796875,0.1875-0.3700562,0.3506012-0.546875l0.1631012-0.1757202l5.2514954-5.8681641
							c0.3310013-0.3662109,0.7309036-0.4755859,1.1694031-0.3223267c0.4125977,0.1445923,0.6908951,0.506897,0.7128983,0.9824219
							l0.5346985,7.8632812c0.0381012,0.5117188,0.0156021,0.6591797-0.0718002,0.9082031
							c-0.1942978,0.5557251-0.8231964,0.8643188-1.3520966,0.6787109c-0.4384003-0.1533203-0.6733017-0.515625-0.7098999-1.0731812
							l-0.0121994-0.2539062l-0.0541992-0.796936L83.3940125,545.5519409z M86.6938171,541.663208l-1.9502029,2.3066406
							l2.0630035,0.7227173L86.6938171,541.663208z"/>
						<path class="st12" d="M100.0200119,542.8341064c0.3964996-0.7684937,0.760704-1.0175781,1.3208008-0.8925781
							c0.5605011,0.1260376,0.9208984,0.703186,0.7891006,1.2910156c-0.0356979,0.1572876-0.1010971,0.3233032-0.1894989,0.468811
							l-0.1186981,0.2147827l-3.7236023,6.6602173c-0.3022003,0.5341797-0.6865005,0.7489624-1.1664963,0.640564
							c-0.4404068-0.0985718-0.7358017-0.4657593-0.789505-0.9746094l-0.5240021-5.399353l-2.7567978,4.6640625
							c-0.2528992,0.4393921-0.6908951,0.6425171-1.1445007,0.5410156c-0.5064011-0.1143188-0.7319946-0.4199219-0.7802963-1.078186
							l-0.5663986-7.5770874l-0.0156021-0.2441406c-0.0147018-0.1835938,0.0106964-0.3583984,0.0463028-0.5166016
							c0.1254959-0.5585938,0.6850967-0.9296875,1.2319946-0.8067017c0.5469055,0.1221313,0.7621994,0.4717407,0.805603,1.3389282
							l0.2690964,4.7860718l2.5854034-4.5214844c0.2363968-0.4287109,0.7041016-0.640625,1.1972961-0.5292969
							c0.4536057,0.1016235,0.7822037,0.4462891,0.8257065,0.8770142l0.4594955,5.3104858L100.0200119,542.8341064z"/>
						<path class="st12" d="M108.5918121,549.7189331c-0.1054993,1.0223999-0.6337967,1.8828125-1.4048004,2.3046875
							c-0.4380035,0.25-0.9961014,0.3398438-1.6343002,0.2734375l-2.7162933-0.2803345l-0.2441025-0.0253906
							c-0.7862015-0.0957031-1.1470032-0.5908203-1.0611038-1.4227905l0.0274048-0.2637329l0.684494-6.6141968l0.0269012-0.2636719
							c0.0879059-0.8466797,0.5557022-1.2559204,1.3296051-1.1757812l0.2445984,0.0253906l2.1049957,0.2177734
							c0.8418045,0.0869141,1.5132065,0.3632202,1.9355011,0.7900391c0.5342026,0.5429688,0.778801,1.3642578,0.6894989,2.2265625
							c-0.080101,0.7734375-0.3695984,1.3193359-0.9340973,1.7333984
							C108.3701096,547.8800659,108.694809,548.725708,108.5918121,549.7189331z M105.3418121,550.2238159
							c0.2983017,0.03125,0.4643021,0.0184937,0.6396027-0.0810547c0.2743988-0.1338501,0.5009995-0.4648438,0.5356979-0.8008423
							c0.0634003-0.6132812-0.3150024-1.0653687-0.9536972-1.1317749l-1.6704025-0.1729126l-0.2084961,2.015686
							L105.3418121,550.2238159z M105.5263138,546.3175659c0.2442017,0.0253906,0.4511948,0.0165405,0.5791016-0.0293579
							c0.256897-0.0907593,0.4677963-0.4091797,0.5009995-0.7304688c0.0575943-0.5546265-0.2866058-0.9442749-0.9111023-1.008728
							l-1.4257965-0.1474609l-0.1830978,1.7666016L105.5263138,546.3175659z"/>
						<path class="st12" d="M112.0747147,546.7443237l2.1302948,0.0332031l0.1915054,0.0029297
							c0.5868988,0.0233765,0.9637985,0.3817749,0.9549942,0.9403687c-0.0087967,0.5576172-0.4110947,0.9326172-0.9842987,0.9238892
							l-0.1913986-0.0029907l-2.130394-0.0332031l-0.0308075,1.9960938l2.7724991,0.0430298l0.217804,0.0039062
							c0.6416016,0.0244141,1.0595016,0.4276733,1.0497971,1.0438843c-0.0097961,0.6171875-0.4532013,1.0205078-1.0811005,1.0108032
							l-0.2186966-0.0029907l-3.4009018-0.0537109l-0.2455978-0.0039062
							c-0.7919998-0.0263062-1.2080002-0.4882812-1.1953049-1.3251953l0.0044022-0.2636108l0.1035004-6.6503906l0.0044022-0.2636719
							c0.0268021-0.8516235,0.4570007-1.2998047,1.2358017-1.2871094l0.2455978,0.0039062l3.3320007,0.0517578l0.2187958,0.0029297
							c0.6416016,0.0253906,1.044899,0.4276733,1.0351028,1.0438843c-0.009697,0.6171875-0.4393997,1.0214844-1.0672989,1.0117188
							l-0.2188034-0.0039062l-2.703598-0.0419312L112.0747147,546.7443237z"/>
						<path class="st12" d="M119.444313,551.0968628l0.0186005,0.2489624
							c0.0555954,0.7617188-0.3154984,1.2901001-0.9424057,1.3359985c-0.6269989,0.046814-1.0868988-0.4345703-1.1425934-1.1817017
							l-0.0186005-0.2489624l-0.5028992-6.796936l-0.0195007-0.2636108
							c-0.0488052-0.8505859,0.339798-1.3359985,1.1161957-1.3935547l0.2461014-0.0186157l1.4032974-0.1035156
							c1.0625-0.078064,1.7432022,0.0479126,2.3457031,0.4160156c0.9893036,0.5899048,1.6592026,1.6884766,1.7461014,2.8604126
							c0.1006012,1.3623047-0.5713043,2.4580078-1.8563995,3.0537109l1.6435013,1.1015625
							c0.4042969,0.2792969,0.6200943,0.6015015,0.6484985,0.9970093c0.0467987,0.6298828-0.3643036,1.1757812-0.9365997,1.218811
							c-0.232399,0.0166016-0.4863052-0.0820312-0.7461014-0.2695312l-3.1054001-2.3476562L119.444313,551.0968628z
							 M119.9883118,547.7130127c0.6131973-0.0448608,0.9091034-0.1259766,1.1425018-0.3056641
							c0.375-0.2919312,0.5859985-0.7792358,0.5478973-1.2919312c-0.0410004-0.5567017-0.3788986-1.046875-0.8740005-1.2608032
							c-0.2686005-0.1132812-0.4199982-0.1161499-1.0732956-0.0682983l-0.75,0.055603l0.2167969,2.9296875L119.9883118,547.7130127z
							"/>
						<path class="st12" d="M127.6230087,550.2023315l0.0419998,0.2460938
							c0.1270065,0.7529297-0.1942978,1.3134155-0.8143997,1.4188843c-0.6201935,0.1045532-1.1231003-0.3319702-1.2471008-1.0702515
							l-0.0419998-0.2460938l-1.1327972-6.7197266l-0.0439987-0.2608032
							c-0.1278992-0.8417969,0.2138977-1.3613281,0.9824982-1.4912109l0.2421036-0.039978l1.3876953-0.234436
							c1.0507965-0.1776733,1.7402954-0.1151733,2.375,0.1943359c1.0391083,0.4951782,1.808609,1.5274048,2.0039062,2.6856079
							c0.2276001,1.3466797-0.339798,2.5-1.5644073,3.2128906l1.7393036,0.9423828
							c0.4277039,0.2402344,0.6728058,0.5419922,0.7391968,0.9326172c0.1045074,0.6229858-0.2548981,1.2041016-0.8202972,1.2998047
							c-0.2295074,0.0390625-0.4911957-0.0361328-0.7675934-0.1983032l-3.3105087-2.046814L127.6230087,550.2023315z
							 M127.8506088,546.7833252c0.6064072-0.1015015,0.8925095-0.2098999,1.1084061-0.4100952
							c0.3466034-0.3261719,0.5106964-0.8311157,0.4256897-1.3378906c-0.0926971-0.5498047-0.4745941-1.006897-0.9872894-1.1738281
							c-0.2783051-0.0869751-0.4287033-0.0761719-1.0761032,0.0332031l-0.740303,0.125l0.4883041,2.8955078L127.8506088,546.7833252
							z"/>
						<path class="st12" d="M135.8496094,540.5314331l0.0801086-0.2333984
							c0.1629944-0.453186,0.378891-0.7070923,0.7362976-0.8018188c0.5410004-0.1425781,1.1473999,0.2294922,1.2977905,0.7979126
							c0.0557098,0.2128906,0.0381012,0.5214844-0.0565948,0.8046875l-0.0673981,0.2304077l-1.3320007,4.1182251
							l0.7059937,2.6845703l0.0635071,0.2412109c0.1817017,0.7421875-0.0879059,1.3300171-0.6826019,1.4863281
							c-0.6074066,0.1601562-1.148407-0.2294922-1.3388977-0.953125l-0.0634003-0.2421875l-0.7061005-2.6846313l-3.1875-2.9286499
							c-0.4141083-0.3916016-0.5420074-0.5557251-0.6161957-0.8398438c-0.1493988-0.5683594,0.1815948-1.1875,0.7372894-1.3330078
							c0.342804-0.0908813,0.6865082,0.03125,1.0342102,0.3348999l0.1717987,0.1680298l2.2695923,2.0751953L135.8496094,540.5314331
							z"/>
					</g>
				</g>
			</g>
			<g>
				<g>
					<g>
						<path class="st10" d="M70.2217178,531.8087158c-0.3326035,0.4658203-0.939003,0.609436-1.3501053,0.3164062
							c-0.1440964-0.1035156-0.2574005-0.2744141-0.3110962-0.4569702
							c-0.0137024-0.0274048-0.0643997-0.2626953-0.1473999-0.5928345
							c-0.1099014-0.4569702-0.3160019-0.8026733-0.5932999-1.0009766
							c-0.4556046-0.3251953-1.0723038-0.2606812-1.3535004,0.1337891
							c-0.2817993,0.3945923-0.1958008,0.7442017,0.3539963,1.4072876c0.5243988,0.6279297,0.8716049,1.1279297,1.102005,1.5809937
							c0.4960938,0.9501953,0.397995,1.9805298-0.259201,2.9004517c-1.1083984,1.5526733-2.9673004,1.8310547-4.5669022,0.6884766
							c-1.4444008-1.0322266-2.0737991-2.8526001-1.339901-3.8798828c0.3325005-0.4658203,0.9780006-0.6182251,1.3892021-0.3242188
							c0.3110008,0.2216797,0.4589996,0.5078125,0.5780983,1.1162109c0.1259995,0.7391968,0.3535042,1.1727905,0.7314034,1.4423828
							c0.5,0.3574219,1.1420975,0.2567749,1.4916992-0.2333984c0.2984009-0.4179688,0.2192993-0.8710938-0.2435989-1.4912109
							l-0.5713043-0.75c-0.4247971-0.5567017-0.7240982-1.0772095-0.8486023-1.4902954
							c-0.2138977-0.640564-0.0488968-1.3886108,0.4458008-2.0809937c0.9809036-1.3740845,2.727005-1.5878906,4.2490005-0.5009766
							C70.2666168,529.5128174,70.8271179,530.960144,70.2217178,531.8087158z"/>
						<path class="st10" d="M71.1748123,540.1115112l-0.1259995,0.2148438
							c-0.3974991,0.6532593-1.0028992,0.8768921-1.544899,0.5595703c-0.5298004-0.3106079-0.6358032-0.9677734-0.2573013-1.6143188
							l0.1259003-0.2157593l3.1963043-5.4649048l-1.2842026-0.7518921l-0.1762009-0.1035156
							c-0.5580978-0.343811-0.7115021-0.8925781-0.3999023-1.4257812c0.3042068-0.5195312,0.884201-0.6738281,1.4380035-0.3496094
							l0.1766968,0.1035156l4.3584061,2.5517578l0.1884995,0.1102905c0.5463943,0.3369141,0.7108994,0.8936157,0.3998947,1.4258423
							c-0.3115005,0.5321655-0.8964996,0.6669922-1.4379959,0.3496094l-0.1884995-0.1104126l-1.2723999-0.7451172
							L71.1748123,540.1115112z"/>
						<path class="st10" d="M76.2524109,542.772644l-0.105896,0.2265015
							c-0.3237991,0.6914673-0.9067993,0.9707031-1.4760971,0.7050781
							c-0.5689011-0.2666016-0.7349014-0.9110718-0.4175034-1.5897827l0.1060028-0.2266235l2.8885956-6.1737671l0.1123047-0.2393188
							c0.3731003-0.765625,0.9496994-0.9990234,1.6552963-0.6699219l0.222702,0.1045532l1.2749023,0.5957031
							c0.964798,0.4511719,1.4964981,0.8944702,1.8422928,1.5097656c0.5737,0.9979858,0.6201019,2.2841797,0.1220016,3.3486328
							c-0.5791016,1.2372437-1.7015991,1.8642578-3.1137009,1.7558594l0.8940048,1.7636108
							c0.2157974,0.4404907,0.2455978,0.828186,0.0775986,1.1875c-0.2675018,0.5723267-0.8939972,0.8466797-1.4134979,0.6035767
							c-0.2105026-0.0976562-0.3833008-0.3085938-0.519104-0.5986938l-1.5586014-3.5664062L76.2524109,542.772644z
							 M78.383316,540.0880127c0.5565948,0.2598267,0.8539963,0.3340454,1.1449966,0.2920532
							c0.471199-0.0723267,0.8931046-0.3935547,1.1108017-0.859436c0.2368011-0.5057983,0.1821976-1.0985718-0.1449966-1.5272827
							c-0.1792068-0.2294922-0.3091049-0.3067017-0.9028015-0.5839844l-0.6807022-0.3184204l-1.2451019,2.6611938
							L78.383316,540.0880127z"/>
						<path class="st10" d="M83.3940125,545.5519409l-0.5083008,0.5848999l-0.1503983,0.1807251
							c-0.3983994,0.4364624-0.7904968,0.5644531-1.2289963,0.4101562c-0.528801-0.1845703-0.8325043-0.8056641-0.6387024-1.3604126
							c0.0629959-0.1796875,0.1875-0.3700562,0.3506012-0.546875l0.1631012-0.1757202l5.2514954-5.8681641
							c0.3310013-0.3662109,0.7309036-0.4755859,1.1694031-0.3223267c0.4125977,0.1445923,0.6908951,0.506897,0.7128983,0.9824219
							l0.5346985,7.8632812c0.0381012,0.5117188,0.0156021,0.6591797-0.0718002,0.9082031
							c-0.1942978,0.5557251-0.8231964,0.8643188-1.3520966,0.6787109c-0.4384003-0.1533203-0.6733017-0.515625-0.7098999-1.0731812
							l-0.0121994-0.2539062l-0.0541992-0.796936L83.3940125,545.5519409z M86.6938171,541.663208l-1.9502029,2.3066406
							l2.0630035,0.7227173L86.6938171,541.663208z"/>
						<path class="st10" d="M100.0200119,542.8341064c0.3964996-0.7684937,0.760704-1.0175781,1.3208008-0.8925781
							c0.5605011,0.1260376,0.9208984,0.703186,0.7891006,1.2910156c-0.0356979,0.1572876-0.1010971,0.3233032-0.1894989,0.468811
							l-0.1186981,0.2147827l-3.7236023,6.6602173c-0.3022003,0.5341797-0.6865005,0.7489624-1.1664963,0.640564
							c-0.4404068-0.0985718-0.7358017-0.4657593-0.789505-0.9746094l-0.5240021-5.399353l-2.7567978,4.6640625
							c-0.2528992,0.4393921-0.6908951,0.6425171-1.1445007,0.5410156c-0.5064011-0.1143188-0.7319946-0.4199219-0.7802963-1.078186
							l-0.5663986-7.5770874l-0.0156021-0.2441406c-0.0147018-0.1835938,0.0106964-0.3583984,0.0463028-0.5166016
							c0.1254959-0.5585938,0.6850967-0.9296875,1.2319946-0.8067017c0.5469055,0.1221313,0.7621994,0.4717407,0.805603,1.3389282
							l0.2690964,4.7860718l2.5854034-4.5214844c0.2363968-0.4287109,0.7041016-0.640625,1.1972961-0.5292969
							c0.4536057,0.1016235,0.7822037,0.4462891,0.8257065,0.8770142l0.4594955,5.3104858L100.0200119,542.8341064z"/>
						<path class="st10" d="M108.5918121,549.7189331c-0.1054993,1.0223999-0.6337967,1.8828125-1.4048004,2.3046875
							c-0.4380035,0.25-0.9961014,0.3398438-1.6343002,0.2734375l-2.7162933-0.2803345l-0.2441025-0.0253906
							c-0.7862015-0.0957031-1.1470032-0.5908203-1.0611038-1.4227905l0.0274048-0.2637329l0.684494-6.6141968l0.0269012-0.2636719
							c0.0879059-0.8466797,0.5557022-1.2559204,1.3296051-1.1757812l0.2445984,0.0253906l2.1049957,0.2177734
							c0.8418045,0.0869141,1.5132065,0.3632202,1.9355011,0.7900391c0.5342026,0.5429688,0.778801,1.3642578,0.6894989,2.2265625
							c-0.080101,0.7734375-0.3695984,1.3193359-0.9340973,1.7333984
							C108.3701096,547.8800659,108.694809,548.725708,108.5918121,549.7189331z M105.3418121,550.2238159
							c0.2983017,0.03125,0.4643021,0.0184937,0.6396027-0.0810547c0.2743988-0.1338501,0.5009995-0.4648438,0.5356979-0.8008423
							c0.0634003-0.6132812-0.3150024-1.0653687-0.9536972-1.1317749l-1.6704025-0.1729126l-0.2084961,2.015686
							L105.3418121,550.2238159z M105.5263138,546.3175659c0.2442017,0.0253906,0.4511948,0.0165405,0.5791016-0.0293579
							c0.256897-0.0907593,0.4677963-0.4091797,0.5009995-0.7304688c0.0575943-0.5546265-0.2866058-0.9442749-0.9111023-1.008728
							l-1.4257965-0.1474609l-0.1830978,1.7666016L105.5263138,546.3175659z"/>
						<path class="st10" d="M112.0747147,546.7443237l2.1302948,0.0332031l0.1915054,0.0029297
							c0.5868988,0.0233765,0.9637985,0.3817749,0.9549942,0.9403687c-0.0087967,0.5576172-0.4110947,0.9326172-0.9842987,0.9238892
							l-0.1913986-0.0029907l-2.130394-0.0332031l-0.0308075,1.9960938l2.7724991,0.0430298l0.217804,0.0039062
							c0.6416016,0.0244141,1.0595016,0.4276733,1.0497971,1.0438843c-0.0097961,0.6171875-0.4532013,1.0205078-1.0811005,1.0108032
							l-0.2186966-0.0029907l-3.4009018-0.0537109l-0.2455978-0.0039062
							c-0.7919998-0.0263062-1.2080002-0.4882812-1.1953049-1.3251953l0.0044022-0.2636108l0.1035004-6.6503906l0.0044022-0.2636719
							c0.0268021-0.8516235,0.4570007-1.2998047,1.2358017-1.2871094l0.2455978,0.0039062l3.3320007,0.0517578l0.2187958,0.0029297
							c0.6416016,0.0253906,1.044899,0.4276733,1.0351028,1.0438843c-0.009697,0.6171875-0.4393997,1.0214844-1.0672989,1.0117188
							l-0.2188034-0.0039062l-2.703598-0.0419312L112.0747147,546.7443237z"/>
						<path class="st10" d="M119.444313,551.0968628l0.0186005,0.2489624
							c0.0555954,0.7617188-0.3154984,1.2901001-0.9424057,1.3359985c-0.6269989,0.046814-1.0868988-0.4345703-1.1425934-1.1817017
							l-0.0186005-0.2489624l-0.5028992-6.796936l-0.0195007-0.2636108
							c-0.0488052-0.8505859,0.339798-1.3359985,1.1161957-1.3935547l0.2461014-0.0186157l1.4032974-0.1035156
							c1.0625-0.078064,1.7432022,0.0479126,2.3457031,0.4160156c0.9893036,0.5899048,1.6592026,1.6884766,1.7461014,2.8604126
							c0.1006012,1.3623047-0.5713043,2.4580078-1.8563995,3.0537109l1.6435013,1.1015625
							c0.4042969,0.2792969,0.6200943,0.6015015,0.6484985,0.9970093c0.0467987,0.6298828-0.3643036,1.1757812-0.9365997,1.218811
							c-0.232399,0.0166016-0.4863052-0.0820312-0.7461014-0.2695312l-3.1054001-2.3476562L119.444313,551.0968628z
							 M119.9883118,547.7130127c0.6131973-0.0448608,0.9091034-0.1259766,1.1425018-0.3056641
							c0.375-0.2919312,0.5859985-0.7792358,0.5478973-1.2919312c-0.0410004-0.5567017-0.3788986-1.046875-0.8740005-1.2608032
							c-0.2686005-0.1132812-0.4199982-0.1161499-1.0732956-0.0682983l-0.75,0.055603l0.2167969,2.9296875L119.9883118,547.7130127z
							"/>
						<path class="st10" d="M127.6230087,550.2023315l0.0419998,0.2460938
							c0.1270065,0.7529297-0.1942978,1.3134155-0.8143997,1.4188843c-0.6201935,0.1045532-1.1231003-0.3319702-1.2471008-1.0702515
							l-0.0419998-0.2460938l-1.1327972-6.7197266l-0.0439987-0.2608032
							c-0.1278992-0.8417969,0.2138977-1.3613281,0.9824982-1.4912109l0.2421036-0.039978l1.3876953-0.234436
							c1.0507965-0.1776733,1.7402954-0.1151733,2.375,0.1943359c1.0391083,0.4951782,1.808609,1.5274048,2.0039062,2.6856079
							c0.2276001,1.3466797-0.339798,2.5-1.5644073,3.2128906l1.7393036,0.9423828
							c0.4277039,0.2402344,0.6728058,0.5419922,0.7391968,0.9326172c0.1045074,0.6229858-0.2548981,1.2041016-0.8202972,1.2998047
							c-0.2295074,0.0390625-0.4911957-0.0361328-0.7675934-0.1983032l-3.3105087-2.046814L127.6230087,550.2023315z
							 M127.8506088,546.7833252c0.6064072-0.1015015,0.8925095-0.2098999,1.1084061-0.4100952
							c0.3466034-0.3261719,0.5106964-0.8311157,0.4256897-1.3378906c-0.0926971-0.5498047-0.4745941-1.006897-0.9872894-1.1738281
							c-0.2783051-0.0869751-0.4287033-0.0761719-1.0761032,0.0332031l-0.740303,0.125l0.4883041,2.8955078L127.8506088,546.7833252
							z"/>
						<path class="st10" d="M135.8496094,540.5314331l0.0801086-0.2333984
							c0.1629944-0.453186,0.378891-0.7070923,0.7362976-0.8018188c0.5410004-0.1425781,1.1473999,0.2294922,1.2977905,0.7979126
							c0.0557098,0.2128906,0.0381012,0.5214844-0.0565948,0.8046875l-0.0673981,0.2304077l-1.3320007,4.1182251
							l0.7059937,2.6845703l0.0635071,0.2412109c0.1817017,0.7421875-0.0879059,1.3300171-0.6826019,1.4863281
							c-0.6074066,0.1601562-1.148407-0.2294922-1.3388977-0.953125l-0.0634003-0.2421875l-0.7061005-2.6846313l-3.1875-2.9286499
							c-0.4141083-0.3916016-0.5420074-0.5557251-0.6161957-0.8398438c-0.1493988-0.5683594,0.1815948-1.1875,0.7372894-1.3330078
							c0.342804-0.0908813,0.6865082,0.03125,1.0342102,0.3348999l0.1717987,0.1680298l2.2695923,2.0751953L135.8496094,540.5314331
							z"/>
					</g>
				</g>
			</g>
			<g>
				<path class="st13" d="M208.746109,491.8536377c-0.217804,0.1181946-0.4355927,0.226593-0.6690063,0.3183899l0,0
					c-5.1660004,2.0957031-14.125-2.3876953-17.7870941-5.523407l0,0
					c6.6318054,3.6279297,12.4082031-2.5058899,18.2510071-0.7870789l0,0
					c1.7382965,0.5145874,2.5458984,1.4051819,2.6698914,2.3847046l0,0
					C211.3672028,489.5255432,210.3564148,490.9523315,208.746109,491.8536377"/>
				<path class="st13" d="M203.6738129,480.1100464c-0.0458984,0.1723022-0.0986023,0.3397827-0.1592102,0.5018921l0,0
					c-1.3739929,3.6734009-7.0643921,5.449707-9.9169922,5.4429016l0,0
					c4.3350067-1.1465149,4.3300934-7.3882141,7.5419922-9.2294922l0,0
					c0.9600067-0.5464172,1.6699066-0.4267273,2.1231079,0.0653992l0,0
					C203.8554077,477.5367432,204.0019073,478.8273315,203.6738129,480.1100464"/>
			</g>
		</g>
	</g>
	<path class="st14" d="M26.4315891,340.8648376h30.1339893c-0.7693481-2.3654175-32.4852905-17.7862854-18.108387-42
		c9.5-16,19.8799744-35.5944214,14.3595276-52.3648682c-9.508667-28.8862,5.9591675-60.6319885,32.7815552-102.9862061
		c21.3858032-33.7694702,17.833313-77.0722656,17.833313-77.0722656H86.7556229
		c0.1181641,1.5039062,2.6044922,37.2885742-21.9160156,77.0722656
		c-24.0068359,38.9511719-35.4365234,69.5654297-37.0595703,99.2646484
		c-0.9628906,17.6293945-3.167469,31.887207-7.9589844,43.4985352
		C6.0982552,319.5314941,26.4315891,340.8648376,26.4315891,340.8648376z"/>
	<polygon class="st14" points="24.6725559,594.6373901 53.5478592,594.6373901 52.0448074,358.4444885 23.2865696,358.4444885 	"/>
	<path class="st14" d="M41.8077698,607.2871094H19.2030334c-6.6771536,74.3994751,22.3661957,88.5952148,33.4911957,88.507019
		C52.6942291,695.7941284,28.1411037,654.0743408,41.8077698,607.2871094z"/>
</g>
<g>
	<g>
		<path class="st6" d="M115.1999969,419.6000061c-4.5999985-1.7000122-8.5999985-1.8999939-12.0999985-1.2999878
			c1.5999985,1.1000061,1.6999969,3,1.6999969,3s-3.3000031-2.8999939-8.4000015-0.6000061
			c-1.0999985,0.5-2.0999985,1.1000061-3.0999985,1.7999878c-5.9000015,4-12.9000015,14.8999939-19.5,14.3999939
			c0,0-2-0.1000061-2.0999985-0.1000061c0.4000015,0.2000122,2.5,1.5,2.5999985,1.5
			c2.4000015,0.8999939,6.5999985,3.2999878,15.1999969-1.1000061c9.5-4.8999939,11.1999969-10.2999878,19.7999954-10.8999939
			c2.0999985-0.1000061,4,0.2000122,5.8000031,0.8999939c6.5,2.3999939,11.3000031,8.8999939,12.9000015,11.8999939l0,0
			C128.1000061,438.8999939,127.0999985,423.8999939,115.1999969,419.6000061"/>
		<path class="st6" d="M109.3000031,426.2000122c-8.6999969,0.6000061-10.3000031,6-19.8000031,10.8999939
			c-8.5,4.3999939-12.6999969,2-15.0999985,1.1000061c0,0-2.1999969-1.2999878-2.5999985-1.5c0,0,6,8.7999878,16.8000031,10.6000061
			c2.6999969,0.3999939,7.6999969-0.5,9.6999969-3.8999939c0.3000031,2.3999939-0.4000015,3.6000061-1.0999985,4.5
			c10.3000031-2.1000061,16-9.1000061,21.2999954-10.6000061c6.5999985-1.7999878,9.6000061,1.7999878,9.6000061,1.7999878
			c-2-3.7000122-8.5-12.3999939-17.1999969-12.7999878C110.3000031,426.1000061,109.8000031,426.1000061,109.3000031,426.2000122"/>
		
			<linearGradient id="SVGID_1_" gradientUnits="userSpaceOnUse" x1="62.3436852" y1="30.8904972" x2="118.6922989" y2="30.8904972" gradientTransform="matrix(0.999 0.0456 -0.0456 0.999 10.8983011 401.8619995)">
			<stop  offset="0" style="stop-color:#6B9A4D"/>
			<stop  offset="1" style="stop-color:#5A8343"/>
		</linearGradient>
		<path class="st15" d="M109.3000031,426.2000122c-8.6999969,0.6000061-10.3000031,6-19.8000031,10.8999939
			c-8.5,4.3999939-12.6999969,2-15.0999985,1.1000061c0,0-2.1999969-1.2999878-2.5999985-1.5c0,0,6,8.7999878,16.8000031,10.6000061
			c2.6999969,0.3999939,7.6999969-0.5,9.6999969-3.8999939c0.3000031,2.3999939-0.4000015,3.6000061-1.0999985,4.5
			c10.3000031-2.1000061,16-9.1000061,21.2999954-10.6000061c6.5999985-1.7999878,9.6000061,1.7999878,9.6000061,1.7999878
			c-2-3.7000122-8.5-12.3999939-17.1999969-12.7999878C110.3000031,426.1000061,109.8000031,426.1000061,109.3000031,426.2000122"/>
	</g>
</g>
</svg>
