<?xml version="1.0" encoding="utf-8"?>
<!-- Generator: Adobe Illustrator 21.1.0, SVG Export Plug-In . SVG Version: 6.00 Build 0)  -->
<svg version="1.1" id="Layer_1" xmlns="http://www.w3.org/2000/svg" xmlns:xlink="http://www.w3.org/1999/xlink" x="0px" y="0px"
	 viewBox="0 0 225.8 721.1" style="enable-background:new 0 0 225.8 721.1;" xml:space="preserve">
<style type="text/css">
	.st0{fill:#FFFFFF;}
</style>
<g>
	<path class="st0" d="M68.4,442c-4-4.3-12.5-4.9-20.5-1.1c-3.6,1.7-21.8,11-23.2,25.7c0,0-0.1,0.9-0.1,0.9c-0.1,1.2-0.1,2.4-0.1,3.6
		c0,21.8,10.1,40.9,20.6,50.6c5.8,5.3,10.4,8.5,14.5,6.7c2.3-1,4.1-3.3,4.7-7.6c0.6-4.3,0.2-9.6,0.2-9.6c4.5,5.7,12,7.9,18,6.6
		c4.9-1.1,10.5-5,11.5-11.1l0.2-1.4c0,0,1.5,0.4,1.6,0.4c3.1,0.5,7.6,0.4,10-1.7c0.8-0.7,1.3-1.5,1.6-2.4l0.4-1.2l1.2,0.4
		c2.7,0.9,5.5,0.7,8.1-0.6c1.7-0.8,3-2,4.1-3.4l0.8-1.1l1,1c1,0.9,1.8,1.6,2.8,2c4,1.9,8.9,1.1,12.4-2c1.2-1.1,2.5-3,3.6-5.5
		l0.6-1.4l1.3,1l0.7,0.5c1.4,0.8,3.7,1.2,6.8-1.6c2.3-2.1,4.3-5,5.9-8.7l0.8-1.8l1.3,1.4c0.8,0.9,1.5,1.5,2.3,2.1
		c3.7,2.5,8.8,3.2,12.5,1.7c1.1-0.5,2.1-1.1,3.1-1.9l0.7-0.6l0.8,0.5c2,1.4,4.5,2.4,7.6,3.1c3.2,0.7,4.8-0.8,5.5-1.8
		c1.1-1.6,1.1-3.9-0.1-5.9c-1.1-1.8-0.6-3.8,0.5-7.5c0.8-2.6,1.7-5.5,1.9-8.9c0.7-10.3-3.4-15.6-6.9-18.1
		c-5.8-4.3-13.3-3.6-17.9-1.8c0,0-1,0.5-1,0.5l-1.6,0.8l-0.5-1.2c-0.6-1.3-1.4-2.5-2.6-3.4c-2.5-1.9-6-2.5-10.3-1.8l-0.8,0.1
		l-0.5-0.6c-7.3-9.9-13.2-8-14.8-7.2v0c-2.5,1.3-4,3.8-4.4,7.2c0,0.3,0,0.7,0,1.1c0,1,0.1,2.2,0.4,3.5l0.2,1.3l-3,0.3
		c-1.9,0.2-3.6,0.4-4.7,0.6c-2.1,0.4-3.6,1.8-4.1,3.7c0,0-0.1,0.7-0.1,0.7c0-0.1,0,0.8,0,0.8l0,1.1l-1.1,0.2l-0.8,0.1
		c-3.8,0.6-7.5,2.9-10.1,6.2l-0.6,0.8l-0.9-0.5c-1.6-0.8-3-1-4.3-0.7c-1.6,0.4-2.8,1.4-3.5,2.9c-0.3,0.5-0.4,1.2-0.5,1.9l-0.4,2.9
		l-1.8-2.3c-1.4-1.8-3.1-3.2-4.9-4.3c-6-3.5-13.1-2.9-17.6-1.2c-2.3,0.9-6.2,2.2-9.4,6.1C70.9,454.6,73.7,447.5,68.4,442z"/>
</g>
</svg>
