<?xml version="1.0" encoding="utf-8"?>
<!-- Generator: Adobe Illustrator 21.1.0, SVG Export Plug-In . SVG Version: 6.00 Build 0)  -->
<svg version="1.1" id="Layer_1" xmlns="http://www.w3.org/2000/svg" xmlns:xlink="http://www.w3.org/1999/xlink" x="0px" y="0px"
	 viewBox="0 0 225.8 721.1" style="enable-background:new 0 0 225.8 721.1;" xml:space="preserve">
<style type="text/css">
	.st0{fill:#FFFFFF;}
</style>
<g>
	<g>
		<path class="st0" d="M35.6,405.6c0.8,0,1.4,0.3,2.1,0.8c0.4,0.3,0.5,0.5,0.5,0.8c0,0.4-0.3,0.7-0.7,0.7c-0.2,0-0.3-0.1-0.5-0.2
			l-0.1-0.1c-0.3-0.3-0.8-0.5-1.2-0.5c-1,0-1.8,0.8-1.8,1.8c0,1,0.8,1.8,1.8,1.8c0.4,0,0.9-0.2,1.1-0.4L37,410
			c0.2-0.2,0.3-0.2,0.5-0.2c0.4,0,0.7,0.3,0.7,0.7c0,0.2-0.1,0.4-0.3,0.6c-0.6,0.6-1.4,0.9-2.3,0.9c-1.8,0-3.2-1.5-3.2-3.2
			C32.4,407.1,33.8,405.6,35.6,405.6z"/>
		<path class="st0" d="M40.4,410.9l-0.2,0.5l-0.1,0.1c-0.2,0.3-0.4,0.5-0.7,0.5c-0.4,0-0.7-0.3-0.7-0.7c0-0.1,0-0.3,0.1-0.4l0.1-0.1
			l2.1-4.7c0.1-0.3,0.4-0.4,0.7-0.4c0.3,0,0.6,0.2,0.7,0.4l2.1,4.6c0.1,0.3,0.2,0.4,0.2,0.6c0,0.4-0.3,0.7-0.7,0.7
			c-0.3,0-0.6-0.2-0.7-0.5l-0.1-0.2l-0.2-0.5H40.4z M41.7,407.9l-0.7,1.8h1.5L41.7,407.9z"/>
		<path class="st0" d="M47,408.2h1.5h0.1c0.4,0,0.7,0.2,0.7,0.6c0,0.3-0.3,0.6-0.7,0.6h-0.1H47v1.6v0.2c0,0.5-0.3,0.8-0.7,0.8
			c-0.4,0-0.7-0.3-0.7-0.8v-0.2v-4.4v-0.2c0-0.5,0.3-0.8,0.8-0.8h0.2h2.3H49c0.5,0,0.7,0.3,0.7,0.7c0,0.4-0.3,0.7-0.7,0.7h-0.1H47
			V408.2z"/>
		<path class="st0" d="M52.2,408.2h1.5h0.1c0.4,0,0.7,0.2,0.7,0.6c0,0.3-0.3,0.6-0.7,0.6h-0.1h-1.5v1.6v0.2c0,0.5-0.3,0.8-0.7,0.8
			c-0.4,0-0.7-0.3-0.7-0.8v-0.2v-4.4v-0.2c0-0.5,0.3-0.8,0.8-0.8h0.2h2.3h0.1c0.5,0,0.7,0.3,0.7,0.7c0,0.4-0.3,0.7-0.7,0.7h-0.1
			h-1.9V408.2z"/>
		<path class="st0" d="M57.4,408.2h1.5H59c0.4,0,0.7,0.2,0.7,0.6c0,0.4-0.3,0.6-0.7,0.6h-0.1h-1.5v1.3h1.9h0.2
			c0.4,0,0.7,0.3,0.7,0.7c0,0.4-0.3,0.7-0.7,0.7h-0.2H57h-0.2c-0.5,0-0.8-0.3-0.8-0.8V411v-4.3v-0.2c0-0.5,0.3-0.8,0.8-0.8H57h2.3
			h0.2c0.4,0,0.7,0.3,0.7,0.7c0,0.4-0.3,0.7-0.7,0.7h-0.2h-1.9V408.2z"/>
		<path class="st0" d="M62.7,411.1v0.2c0,0.5-0.3,0.8-0.7,0.8c-0.4,0-0.7-0.3-0.7-0.8v-0.2v-4.5v-0.2c0-0.5,0.3-0.8,0.7-0.8
			c0.4,0,0.7,0.3,0.7,0.8v0.2V411.1z"/>
		<path class="st0" d="M68.2,406.6v-0.2c0-0.5,0.3-0.8,0.7-0.8c0.4,0,0.7,0.3,0.7,0.8v0.2v4.5c0,0.3,0,0.5-0.1,0.6
			c-0.1,0.2-0.4,0.3-0.7,0.3c-0.3,0-0.4-0.1-0.7-0.5l-2.6-3.3v2.7v0.2c0,0.5-0.3,0.8-0.7,0.8c-0.4,0-0.7-0.3-0.7-0.8v-0.2v-4.6
			c0-0.3,0-0.4,0.1-0.5c0.1-0.2,0.3-0.3,0.6-0.3c0.3,0,0.4,0.1,0.7,0.4l2.6,3.3V406.6z"/>
		<path class="st0" d="M72.7,408.2h1.5h0.1c0.4,0,0.7,0.2,0.7,0.6c0,0.4-0.3,0.6-0.7,0.6h-0.1h-1.5v1.3h1.9h0.1
			c0.4,0,0.7,0.3,0.7,0.7c0,0.4-0.3,0.7-0.7,0.7h-0.1h-2.3h-0.2c-0.5,0-0.8-0.3-0.8-0.8V411v-4.3v-0.2c0-0.5,0.3-0.8,0.8-0.8h0.2
			h2.3h0.1c0.4,0,0.7,0.3,0.7,0.7c0,0.4-0.3,0.7-0.7,0.7h-0.1h-1.9V408.2z"/>
		<path class="st0" d="M47.6,415.9h1.5h0.1c0.4,0,0.7,0.2,0.7,0.6c0,0.3-0.3,0.6-0.7,0.6h-0.1h-1.5v1.6v0.2c0,0.5-0.3,0.8-0.7,0.8
			c-0.4,0-0.7-0.3-0.7-0.8v-0.2v-4.4v-0.2c0-0.5,0.3-0.8,0.8-0.8h0.2h2.3h0.1c0.5,0,0.7,0.3,0.7,0.7c0,0.4-0.3,0.7-0.7,0.7h-0.1
			h-1.9V415.9z"/>
		<path class="st0" d="M52.8,418.8v0.2c0,0.5-0.3,0.8-0.7,0.8c-0.4,0-0.7-0.3-0.7-0.8v-0.2v-4.4v-0.2c0-0.5,0.3-0.8,0.8-0.8h0.2h1
			c0.7,0,1.2,0.1,1.6,0.4c0.6,0.4,1.1,1.2,1.1,1.9c0,0.9-0.5,1.5-1.4,1.9l1.1,0.8c0.3,0.2,0.4,0.4,0.4,0.7c0,0.4-0.3,0.7-0.7,0.7
			c-0.2,0-0.3-0.1-0.5-0.2l-2-1.6V418.8z M53.4,416.6c0.4,0,0.6,0,0.8-0.1c0.3-0.2,0.4-0.5,0.4-0.8c0-0.4-0.2-0.7-0.5-0.8
			c-0.2-0.1-0.3-0.1-0.7-0.1h-0.5v1.9H53.4z"/>
		<path class="st0" d="M58.6,415.9h1.5h0.1c0.4,0,0.7,0.2,0.7,0.6c0,0.4-0.3,0.6-0.7,0.6h-0.1h-1.5v1.3h1.9h0.2
			c0.4,0,0.7,0.3,0.7,0.7c0,0.4-0.3,0.7-0.7,0.7h-0.2h-2.3H58c-0.5,0-0.8-0.3-0.8-0.8v-0.2v-4.3v-0.2c0-0.5,0.3-0.8,0.8-0.8h0.2h2.3
			h0.2c0.4,0,0.7,0.3,0.7,0.7c0,0.4-0.3,0.7-0.7,0.7h-0.2h-1.9V415.9z"/>
		<path class="st0" d="M63.8,415.9h1.5h0.1c0.4,0,0.7,0.2,0.7,0.6c0,0.4-0.3,0.6-0.7,0.6h-0.1h-1.5v1.3h1.9h0.1
			c0.4,0,0.7,0.3,0.7,0.7c0,0.4-0.3,0.7-0.7,0.7h-0.1h-2.3h-0.2c-0.5,0-0.8-0.3-0.8-0.8v-0.2v-4.3v-0.2c0-0.5,0.3-0.8,0.8-0.8h0.2
			h2.3h0.1c0.4,0,0.7,0.3,0.7,0.7c0,0.4-0.3,0.7-0.7,0.7h-0.1h-1.9V415.9z"/>
	</g>
</g>
</svg>
