<?xml version="1.0" encoding="utf-8"?>
<!-- Generator: Adobe Illustrator 21.1.0, SVG Export Plug-In . SVG Version: 6.00 Build 0)  -->
<svg version="1.1" id="Layer_1" xmlns="http://www.w3.org/2000/svg" xmlns:xlink="http://www.w3.org/1999/xlink" x="0px" y="0px"
	 viewBox="0 0 225.8 721.1" style="enable-background:new 0 0 225.8 721.1;" xml:space="preserve">
<style type="text/css">
	.st0{fill:#232C64;}
</style>
<path class="st0" d="M104.1,499.8c-0.1-1.6-4.9-3-4.6-12.8c0.1-3.6,0.1-8.7-0.6-13.7c-2.5-17.2-16-17.6-22.7-15.1
	c-4.9,1.8-8.2,5.9-9.3,8.1c-1.1,2.2-0.5,4.5,2.2,3.2c2.5-1.2,6.2-1.9,8.2,0.4c1.9,2.2,2,5,2.4,7.7c-1.4,0.3-5.5,1.6-7,2.5
	c-6.2,4.1-13.8,12.6-8.1,24.5c2.8,5.8,9.3,11.2,17.1,9.5c4.2-0.9,9.7-4.8,8.7-10.8c-0.8-4.8-8.1-4.6-12.1-4.9
	c-8.5-0.5-6.4-8.4-3.5-11.2c3.7-3.7,8.2-0.9,9.4,2.5c2.3,6.3,4.6,11,12.1,12.3C99.9,502.7,104.2,502.2,104.1,499.8z"/>
</svg>
