<?xml version="1.0" encoding="utf-8"?>
<!-- Generator: Adobe Illustrator 21.1.0, SVG Export Plug-In . SVG Version: 6.00 Build 0)  -->
<svg version="1.1" id="Layer_1" xmlns="http://www.w3.org/2000/svg" xmlns:xlink="http://www.w3.org/1999/xlink" x="0px" y="0px"
	 viewBox="0 0 225.8 721.1" style="enable-background:new 0 0 225.8 721.1;" xml:space="preserve">
<style type="text/css">
	.st0{fill:#F47421;}
	.st1{fill:#B4B5B6;}
</style>
<g id="Layer_1_1_">
	<g>
		<path class="st0" d="M52.4,134.3c-22.2,36.1-37.3,70.4-39.3,106.3s-16.8,55.1-12.4,82.9c3.1,19.8,8.8,13,8.8,35.3V595
			c0,0-7.1,8.2-6.7,22.8c0.4,14.5-0.8,89.5,33.8,96.6S81.9,703,81.9,703s2.7,18.1,31,18.1s31-18.1,31-18.1s10.6,18.5,45.2,11.4
			s33.4-82.1,33.8-96.6c0.4-14.5-6.7-22.8-6.7-22.8l2-236.2c0-22.4,3.7-15.5,6.9-35.3c4.4-27.7-10.4-46.9-12.4-82.9
			c-2-35.9-17-70.2-39.3-106.3H52.4z"/>
		<path class="st1" d="M71.4,59.2c0,0-9.7,0.6-9.7,3.8c0,3.2,11.5,3.2,11.5,3.2s2.5,32-19.7,68h120.9c-22.2-36.1-19.7-68-19.7-68
			s11.5,0,11.5-3.2c0-3.2-9.7-3.8-9.7-3.8H71.4z"/>
	</g>
</g>
</svg>
