<?xml version="1.0" encoding="utf-8"?>
<!-- Generator: Adobe Illustrator 21.1.0, SVG Export Plug-In . SVG Version: 6.00 Build 0)  -->
<svg version="1.1" id="Layer_2_1_" xmlns="http://www.w3.org/2000/svg" xmlns:xlink="http://www.w3.org/1999/xlink" x="0px" y="0px"
	 viewBox="0 0 225.8 721.1" style="enable-background:new 0 0 225.8 721.1;" xml:space="preserve">
<style type="text/css">
	.st0{fill:#00713E;}
</style>
<g id="Botle_Cap">
	<path class="st0" d="M156.4,59.2c1-0.1,2-0.3,2.8-0.5c2.9-0.7,4.9-3.3,4.8-6.3c-0.3-8.3-1.5-25.9-2.4-38C161.1,7,155.1,1.3,147.8,1
		l-13-0.5c-13.9-0.6-27.8-0.6-41.6,0L80.1,1C72.7,1.3,66.7,7,66.2,14.4c-0.9,12.2-2.1,29.7-2.4,38c-0.1,3,1.9,5.6,4.8,6.3
		c0.8,0.2,1.8,0.4,2.8,0.5C71.4,59.2,156.4,59.2,156.4,59.2z"/>
</g>
</svg>
