<?xml version="1.0" encoding="utf-8"?>
<!-- Generator: Adobe Illustrator 21.1.0, SVG Export Plug-In . SVG Version: 6.00 Build 0)  -->
<svg version="1.1" id="Layer_2_1_" xmlns="http://www.w3.org/2000/svg" xmlns:xlink="http://www.w3.org/1999/xlink" x="0px" y="0px"
	 viewBox="0 0 225.8 721.1" style="enable-background:new 0 0 225.8 721.1;" xml:space="preserve">
<style type="text/css">
	.st0{fill:#4D9D45;}
	.st1{fill:#FFFFFF;}
</style>
<g>
	<path class="st0" d="M171.9,410c4.7-3.5,9.9-4.4,16.1-4.3l25.5,0.1l-4.5,24.5c-1.3,5.4-3.5,10.3-8.3,13.9c-9.8,7.2-24.2,5.5-32.2-4
		C160.5,430.7,162.1,417.2,171.9,410"/>
	<g>
		<path class="st1" d="M171.8,416.6h-0.2c-0.7,0-1.1-0.4-1.1-1c0-0.6,0.4-1,1.1-1h0.2h1.3c0.8,0,1.2,0.5,1.2,1.5v6.7v0.2
			c0,0.8-0.4,1.2-1.1,1.2c-0.7,0-1.1-0.5-1.1-1.2v-0.2v-6.1L171.8,416.6z"/>
		<path class="st1" d="M185.3,419.3c0,2.7-2.2,4.9-4.9,4.9c-2.7,0-4.9-2.2-4.9-4.9c0-2.7,2.2-4.9,4.9-4.9
			C183.1,414.4,185.3,416.6,185.3,419.3z M177.6,419.3c0,1.5,1.2,2.8,2.7,2.8c1.5,0,2.7-1.2,2.7-2.7c0-1.5-1.2-2.7-2.7-2.7
			C178.9,416.6,177.6,417.8,177.6,419.3z"/>
		<path class="st1" d="M195.6,419.3c0,2.7-2.2,4.9-4.9,4.9c-2.7,0-4.9-2.2-4.9-4.9c0-2.7,2.2-4.9,4.9-4.9
			C193.4,414.4,195.6,416.6,195.6,419.3z M188,419.3c0,1.5,1.2,2.8,2.7,2.8c1.5,0,2.7-1.2,2.7-2.7c0-1.5-1.2-2.7-2.7-2.7
			C189.2,416.6,188,417.8,188,419.3z"/>
		<path class="st1" d="M200.8,416.7c0,1.2-1,2.2-2.2,2.2c-1.2,0-2.2-1-2.2-2.2c0-1.2,1-2.2,2.2-2.2
			C199.8,414.5,200.8,415.5,200.8,416.7z M197.7,416.7c0,0.5,0.4,0.9,0.9,0.9c0.5,0,0.9-0.4,0.9-0.9c0-0.5-0.4-0.9-0.9-0.9
			C198.1,415.8,197.7,416.2,197.7,416.7z M202.3,415.4c0.3-0.7,0.5-0.9,0.9-0.9c0.3,0,0.5,0.2,0.5,0.5c0,0.2-0.1,0.4-0.2,0.7
			l-0.1,0.1l-3.5,7.6l-0.1,0.2c-0.2,0.5-0.5,0.7-0.7,0.7c-0.3,0-0.6-0.3-0.6-0.5c0-0.2,0.1-0.4,0.2-0.6l0.1-0.2L202.3,415.4z
			 M205.9,422c0,1.2-1,2.2-2.2,2.2c-1.2,0-2.2-1-2.2-2.2c0-1.2,1-2.2,2.2-2.2C204.9,419.8,205.9,420.8,205.9,422z M202.8,422
			c0,0.5,0.4,0.9,0.9,0.9c0.5,0,0.9-0.4,0.9-0.9c0-0.5-0.4-0.9-0.9-0.9C203.2,421.1,202.8,421.5,202.8,422z"/>
		<path class="st1" d="M176.1,426.3v-0.1c0-0.4,0.2-0.7,0.6-0.7c0.4,0,0.6,0.3,0.6,0.7v0.1v3.9c0,0.3,0,0.4-0.1,0.5
			c-0.1,0.2-0.3,0.3-0.6,0.3c-0.2,0-0.3-0.1-0.6-0.4l-2.2-2.8v2.3v0.1c0,0.4-0.2,0.7-0.6,0.7s-0.6-0.3-0.6-0.7v-0.1v-3.9
			c0-0.2,0-0.3,0.1-0.5c0.1-0.2,0.3-0.3,0.5-0.3c0.2,0,0.4,0.1,0.6,0.4l2.3,2.8V426.3z"/>
		<path class="st1" d="M179.2,429.9l-0.2,0.4l0,0.1c-0.1,0.3-0.3,0.4-0.6,0.4c-0.3,0-0.6-0.3-0.6-0.6c0-0.1,0-0.2,0.1-0.3l0.1-0.1
			l1.8-4c0.1-0.2,0.3-0.4,0.6-0.4c0.3,0,0.5,0.1,0.6,0.4l1.8,4c0.1,0.3,0.1,0.3,0.1,0.5c0,0.3-0.3,0.6-0.6,0.6
			c-0.3,0-0.5-0.1-0.6-0.4l-0.1-0.1l-0.2-0.4H179.2z M180.2,427.3l-0.6,1.5h1.3L180.2,427.3z"/>
		<path class="st1" d="M184.9,430.1v0.1c0,0.4-0.2,0.7-0.6,0.7c-0.4,0-0.6-0.3-0.6-0.7v-0.1v-3.5h-0.9h-0.1c-0.4,0-0.6-0.2-0.6-0.6
			c0-0.3,0.2-0.6,0.6-0.6h0.1h3h0.1c0.4,0,0.6,0.2,0.6,0.6c0,0.3-0.3,0.6-0.6,0.6h-0.1h-0.9V430.1z"/>
		<path class="st1" d="M186.8,426.3v-0.1c0-0.4,0.2-0.7,0.6-0.7c0.4,0,0.6,0.3,0.6,0.7v0.1v2.5c0,0.5,0.4,1,0.9,1
			c0.3,0,0.6-0.2,0.8-0.4c0.1-0.2,0.2-0.3,0.2-0.6v-2.5v-0.1c0-0.4,0.2-0.7,0.6-0.7c0.4,0,0.6,0.3,0.6,0.7v0.1v2.5
			c0,1.2-0.9,2.2-2.2,2.2c-1.2,0-2.2-1-2.2-2.2V426.3z"/>
		<path class="st1" d="M193.2,430.1v0.1c0,0.4-0.2,0.7-0.6,0.7c-0.4,0-0.6-0.3-0.6-0.7v-0.1v-3.7v-0.1c0-0.5,0.3-0.7,0.7-0.7h0.1
			h0.8c0.6,0,1,0.1,1.4,0.3c0.6,0.4,0.9,1,0.9,1.6c0,0.7-0.4,1.3-1.2,1.6l0.9,0.7c0.2,0.2,0.3,0.4,0.3,0.6c0,0.3-0.3,0.6-0.6,0.6
			c-0.1,0-0.3-0.1-0.4-0.2l-1.7-1.4V430.1z M193.7,428.3c0.4,0,0.5,0,0.7-0.1c0.2-0.1,0.4-0.4,0.4-0.7c0-0.3-0.2-0.6-0.5-0.7
			c-0.2-0.1-0.2-0.1-0.6-0.1h-0.4v1.6H193.7z"/>
		<path class="st1" d="M197.5,429.9l-0.2,0.4l0,0.1c-0.1,0.3-0.3,0.4-0.6,0.4c-0.3,0-0.6-0.3-0.6-0.6c0-0.1,0-0.2,0.1-0.3l0.1-0.1
			l1.8-4c0.1-0.2,0.3-0.4,0.6-0.4c0.3,0,0.5,0.1,0.6,0.4l1.8,4c0.1,0.3,0.1,0.3,0.1,0.5c0,0.3-0.3,0.6-0.6,0.6
			c-0.3,0-0.5-0.1-0.6-0.4l-0.1-0.1l-0.2-0.4H197.5z M198.6,427.3l-0.6,1.5h1.3L198.6,427.3z"/>
		<path class="st1" d="M204.2,429.7h0.1c0.4,0,0.6,0.2,0.6,0.6c0,0.3-0.2,0.6-0.6,0.6h-0.1h-1.8h-0.1c-0.5,0-0.7-0.3-0.7-0.7V430
			v-3.7v-0.1c0-0.4,0.2-0.7,0.6-0.7c0.4,0,0.6,0.3,0.6,0.7v0.1v3.5H204.2z"/>
		<path class="st1" d="M176,434.4h1.2h0.1c0.3,0,0.5,0.2,0.5,0.5c0,0.3-0.2,0.5-0.5,0.5h-0.1H176v1.4v0.1c0,0.4-0.2,0.7-0.6,0.7
			c-0.4,0-0.6-0.3-0.6-0.7v-0.1v-3.7v-0.1c0-0.5,0.2-0.7,0.7-0.7h0.1h1.9h0.1c0.4,0,0.6,0.2,0.6,0.6s-0.2,0.6-0.6,0.6h-0.1H176
			V434.4z"/>
		<path class="st1" d="M181.3,436.5h0.1c0.4,0,0.6,0.2,0.6,0.6c0,0.3-0.2,0.6-0.6,0.6h-0.1h-1.7h-0.1c-0.4,0-0.7-0.3-0.7-0.7v-0.1
			V433v-0.1c0-0.4,0.2-0.7,0.6-0.7c0.4,0,0.6,0.3,0.6,0.7v0.1v3.5H181.3z"/>
		<path class="st1" d="M183.4,436.7l-0.2,0.4l0,0.1c-0.1,0.3-0.3,0.4-0.6,0.4c-0.3,0-0.6-0.3-0.6-0.6c0-0.1,0-0.2,0.1-0.3l0.1-0.1
			l1.7-4c0.1-0.2,0.3-0.4,0.6-0.4c0.2,0,0.5,0.1,0.6,0.4l1.7,4c0.1,0.3,0.1,0.3,0.1,0.5c0,0.3-0.3,0.6-0.6,0.6
			c-0.3,0-0.5-0.1-0.6-0.4l-0.1-0.1l-0.2-0.4H183.4z M184.4,434.1l-0.6,1.5h1.2L184.4,434.1z"/>
		<path class="st1" d="M189.6,432.7c0.2-0.4,0.3-0.6,0.6-0.6c0.3,0,0.6,0.3,0.6,0.6c0,0.1,0,0.2-0.1,0.3l-0.1,0.1l-1.6,3.9
			c-0.1,0.3-0.3,0.5-0.6,0.5c-0.3,0-0.5-0.2-0.6-0.5l-1.6-3.9l-0.1-0.1c-0.1-0.1-0.1-0.2-0.1-0.3c0-0.3,0.3-0.6,0.6-0.6
			c0.3,0,0.4,0.1,0.6,0.6l1.1,3L189.6,432.7z"/>
		<path class="st1" d="M195.3,433c0.5,0.5,0.8,1.2,0.8,1.9c0,1.5-1.2,2.7-2.6,2.7c-1.5,0-2.6-1.2-2.6-2.8c0-1.5,1.2-2.8,2.6-2.8
			C194.1,432.1,194.8,432.4,195.3,433z M192,434.9c0,0.8,0.7,1.5,1.5,1.5s1.5-0.7,1.5-1.5c0-0.9-0.7-1.6-1.5-1.6
			S192,434.1,192,434.9z"/>
		<path class="st1" d="M197.9,436.8v0.1c0,0.4-0.2,0.7-0.6,0.7c-0.4,0-0.6-0.3-0.6-0.7v-0.1v-3.7v-0.1c0-0.5,0.2-0.7,0.7-0.7h0.1
			h0.8c0.6,0,1,0.1,1.3,0.3c0.5,0.4,0.9,1,0.9,1.6c0,0.7-0.4,1.3-1.2,1.6l0.9,0.7c0.2,0.2,0.3,0.4,0.3,0.6c0,0.3-0.3,0.6-0.6,0.6
			c-0.1,0-0.3-0.1-0.4-0.2l-1.6-1.4V436.8z M198.3,435c0.3,0,0.5,0,0.6-0.1c0.2-0.1,0.4-0.4,0.4-0.7c0-0.3-0.2-0.6-0.4-0.7
			c-0.1-0.1-0.2-0.1-0.6-0.1h-0.4v1.6H198.3z"/>
		<path class="st1" d="M204.3,433.2c0,0.3-0.2,0.6-0.5,0.6c-0.1,0-0.2,0-0.3-0.1c0,0-0.1-0.1-0.3-0.2c-0.2-0.2-0.4-0.3-0.6-0.3
			c-0.3,0-0.6,0.2-0.6,0.5c0,0.3,0.2,0.4,0.6,0.5c0.4,0.1,0.8,0.2,1,0.4c0.5,0.3,0.8,0.8,0.8,1.4c0,1-0.8,1.8-1.9,1.8
			c-1,0-1.9-0.6-1.9-1.3c0-0.3,0.2-0.6,0.5-0.6c0.2,0,0.4,0.1,0.6,0.3c0.3,0.3,0.5,0.4,0.8,0.4c0.3,0,0.6-0.2,0.6-0.6
			c0-0.3-0.2-0.5-0.6-0.6l-0.5-0.2c-0.4-0.1-0.7-0.2-0.9-0.4c-0.3-0.2-0.5-0.6-0.5-1.1c0-0.9,0.7-1.6,1.8-1.6
			C203.5,432.1,204.3,432.6,204.3,433.2z"/>
	</g>
</g>
</svg>
