<?xml version="1.0" encoding="utf-8"?>
<!-- Generator: Adobe Illustrator 21.1.0, SVG Export Plug-In . SVG Version: 6.00 Build 0)  -->
<svg version="1.1" id="Layer_2" xmlns="http://www.w3.org/2000/svg" xmlns:xlink="http://www.w3.org/1999/xlink" x="0px" y="0px"
	 viewBox="0 0 225.8 721.1" style="enable-background:new 0 0 225.8 721.1;" xml:space="preserve">
<style type="text/css">
	.st0{fill:#DC681E;}
	.st1{display:none;}
	.st2{display:inline;fill:#4D9D45;}
	.st3{display:inline;}
	.st4{fill:#FFFFFF;}
	.st5{fill:#B2417A;}
	.st6{fill:#F36C21;stroke:#FDDD00;stroke-width:2.9269;}
	.st7{display:inline;fill:#B2417A;}
	.st8{display:inline;fill:#D3D5E0;}
	.st9{fill:#4D9D45;}
	.st10{fill:#D3D5E0;}
	.st11{fill:#F36C21;}
	.st12{display:inline;fill:#FFFFFF;}
	.st13{display:inline;fill:#232C64;}
	.st14{fill:#232C64;}
	.st15{fill:#FFFFFF;stroke:#FFFFFF;stroke-width:2.9024;stroke-linecap:round;stroke-linejoin:round;}
	.st16{fill:url(#SVGID_1_);}
	.st17{display:inline;fill:#FFF200;}
</style>
<g id="Layer_2_1_">
	<g>
		<polygon class="st0" points="9.6,358.8 9.6,595 217.2,595 219.1,358.8 		"/>
		<g>
			<g class="st1">
				<path class="st2" d="M171.9,410c4.7-3.5,9.9-4.4,16.1-4.3l25.5,0.1l-4.5,24.5c-1.3,5.4-3.5,10.3-8.3,13.9
					c-9.8,7.2-24.2,5.5-32.2-4C160.5,430.7,162.1,417.2,171.9,410"/>
				<g class="st3">
					<path class="st4" d="M171.8,416.6h-0.2c-0.7,0-1.1-0.4-1.1-1c0-0.6,0.4-1,1.1-1h0.2h1.3c0.8,0,1.2,0.5,1.2,1.5v6.7v0.2
						c0,0.8-0.4,1.2-1.1,1.2c-0.7,0-1.1-0.5-1.1-1.2v-0.2v-6.1L171.8,416.6z"/>
					<path class="st4" d="M185.3,419.3c0,2.7-2.2,4.9-4.9,4.9c-2.7,0-4.9-2.2-4.9-4.9c0-2.7,2.2-4.9,4.9-4.9
						C183.1,414.4,185.3,416.6,185.3,419.3z M177.6,419.3c0,1.5,1.2,2.8,2.7,2.8c1.5,0,2.7-1.2,2.7-2.7c0-1.5-1.2-2.7-2.7-2.7
						C178.9,416.6,177.6,417.8,177.6,419.3z"/>
					<path class="st4" d="M195.6,419.3c0,2.7-2.2,4.9-4.9,4.9c-2.7,0-4.9-2.2-4.9-4.9c0-2.7,2.2-4.9,4.9-4.9
						C193.4,414.4,195.6,416.6,195.6,419.3z M188,419.3c0,1.5,1.2,2.8,2.7,2.8c1.5,0,2.7-1.2,2.7-2.7c0-1.5-1.2-2.7-2.7-2.7
						C189.2,416.6,188,417.8,188,419.3z"/>
					<path class="st4" d="M200.8,416.7c0,1.2-1,2.2-2.2,2.2c-1.2,0-2.2-1-2.2-2.2c0-1.2,1-2.2,2.2-2.2
						C199.8,414.5,200.8,415.5,200.8,416.7z M197.7,416.7c0,0.5,0.4,0.9,0.9,0.9c0.5,0,0.9-0.4,0.9-0.9c0-0.5-0.4-0.9-0.9-0.9
						C198.1,415.8,197.7,416.2,197.7,416.7z M202.3,415.4c0.3-0.7,0.5-0.9,0.9-0.9c0.3,0,0.5,0.2,0.5,0.5c0,0.2-0.1,0.4-0.2,0.7
						l-0.1,0.1l-3.5,7.6l-0.1,0.2c-0.2,0.5-0.5,0.7-0.7,0.7c-0.3,0-0.6-0.3-0.6-0.5c0-0.2,0.1-0.4,0.2-0.6l0.1-0.2L202.3,415.4z
						 M205.9,422c0,1.2-1,2.2-2.2,2.2c-1.2,0-2.2-1-2.2-2.2c0-1.2,1-2.2,2.2-2.2C204.9,419.8,205.9,420.8,205.9,422z M202.8,422
						c0,0.5,0.4,0.9,0.9,0.9c0.5,0,0.9-0.4,0.9-0.9c0-0.5-0.4-0.9-0.9-0.9C203.2,421.1,202.8,421.5,202.8,422z"/>
					<path class="st4" d="M176.1,426.3v-0.1c0-0.4,0.2-0.7,0.6-0.7c0.4,0,0.6,0.3,0.6,0.7v0.1v3.9c0,0.3,0,0.4-0.1,0.5
						c-0.1,0.2-0.3,0.3-0.6,0.3c-0.2,0-0.3-0.1-0.6-0.4l-2.2-2.8v2.3v0.1c0,0.4-0.2,0.7-0.6,0.7s-0.6-0.3-0.6-0.7v-0.1v-3.9
						c0-0.2,0-0.3,0.1-0.5c0.1-0.2,0.3-0.3,0.5-0.3c0.2,0,0.4,0.1,0.6,0.4l2.3,2.8V426.3z"/>
					<path class="st4" d="M179.2,429.9l-0.2,0.4l0,0.1c-0.1,0.3-0.3,0.4-0.6,0.4c-0.3,0-0.6-0.3-0.6-0.6c0-0.1,0-0.2,0.1-0.3
						l0.1-0.1l1.8-4c0.1-0.2,0.3-0.4,0.6-0.4c0.3,0,0.5,0.1,0.6,0.4l1.8,4c0.1,0.3,0.1,0.3,0.1,0.5c0,0.3-0.3,0.6-0.6,0.6
						c-0.3,0-0.5-0.1-0.6-0.4l-0.1-0.1l-0.2-0.4H179.2z M180.2,427.3l-0.6,1.5h1.3L180.2,427.3z"/>
					<path class="st4" d="M184.9,430.1v0.1c0,0.4-0.2,0.7-0.6,0.7c-0.4,0-0.6-0.3-0.6-0.7v-0.1v-3.5h-0.9h-0.1
						c-0.4,0-0.6-0.2-0.6-0.6c0-0.3,0.2-0.6,0.6-0.6h0.1h3h0.1c0.4,0,0.6,0.2,0.6,0.6c0,0.3-0.3,0.6-0.6,0.6h-0.1h-0.9V430.1z"/>
					<path class="st4" d="M186.8,426.3v-0.1c0-0.4,0.2-0.7,0.6-0.7c0.4,0,0.6,0.3,0.6,0.7v0.1v2.5c0,0.5,0.4,1,0.9,1
						c0.3,0,0.6-0.2,0.8-0.4c0.1-0.2,0.2-0.3,0.2-0.6v-2.5v-0.1c0-0.4,0.2-0.7,0.6-0.7c0.4,0,0.6,0.3,0.6,0.7v0.1v2.5
						c0,1.2-0.9,2.2-2.2,2.2c-1.2,0-2.2-1-2.2-2.2V426.3z"/>
					<path class="st4" d="M193.2,430.1v0.1c0,0.4-0.2,0.7-0.6,0.7c-0.4,0-0.6-0.3-0.6-0.7v-0.1v-3.7v-0.1c0-0.5,0.3-0.7,0.7-0.7h0.1
						h0.8c0.6,0,1,0.1,1.4,0.3c0.6,0.4,0.9,1,0.9,1.6c0,0.7-0.4,1.3-1.2,1.6l0.9,0.7c0.2,0.2,0.3,0.4,0.3,0.6c0,0.3-0.3,0.6-0.6,0.6
						c-0.1,0-0.3-0.1-0.4-0.2l-1.7-1.4V430.1z M193.7,428.3c0.4,0,0.5,0,0.7-0.1c0.2-0.1,0.4-0.4,0.4-0.7c0-0.3-0.2-0.6-0.5-0.7
						c-0.2-0.1-0.2-0.1-0.6-0.1h-0.4v1.6H193.7z"/>
					<path class="st4" d="M197.5,429.9l-0.2,0.4l0,0.1c-0.1,0.3-0.3,0.4-0.6,0.4c-0.3,0-0.6-0.3-0.6-0.6c0-0.1,0-0.2,0.1-0.3
						l0.1-0.1l1.8-4c0.1-0.2,0.3-0.4,0.6-0.4c0.3,0,0.5,0.1,0.6,0.4l1.8,4c0.1,0.3,0.1,0.3,0.1,0.5c0,0.3-0.3,0.6-0.6,0.6
						c-0.3,0-0.5-0.1-0.6-0.4l-0.1-0.1l-0.2-0.4H197.5z M198.6,427.3l-0.6,1.5h1.3L198.6,427.3z"/>
					<path class="st4" d="M204.2,429.7h0.1c0.4,0,0.6,0.2,0.6,0.6c0,0.3-0.2,0.6-0.6,0.6h-0.1h-1.8h-0.1c-0.5,0-0.7-0.3-0.7-0.7V430
						v-3.7v-0.1c0-0.4,0.2-0.7,0.6-0.7c0.4,0,0.6,0.3,0.6,0.7v0.1v3.5H204.2z"/>
					<path class="st4" d="M176,434.4h1.2h0.1c0.3,0,0.5,0.2,0.5,0.5c0,0.3-0.2,0.5-0.5,0.5h-0.1H176v1.4v0.1c0,0.4-0.2,0.7-0.6,0.7
						c-0.4,0-0.6-0.3-0.6-0.7v-0.1v-3.7v-0.1c0-0.5,0.2-0.7,0.7-0.7h0.1h1.9h0.1c0.4,0,0.6,0.2,0.6,0.6s-0.2,0.6-0.6,0.6h-0.1H176
						V434.4z"/>
					<path class="st4" d="M181.3,436.5h0.1c0.4,0,0.6,0.2,0.6,0.6c0,0.3-0.2,0.6-0.6,0.6h-0.1h-1.7h-0.1c-0.4,0-0.7-0.3-0.7-0.7
						v-0.1V433v-0.1c0-0.4,0.2-0.7,0.6-0.7c0.4,0,0.6,0.3,0.6,0.7v0.1v3.5H181.3z"/>
					<path class="st4" d="M183.4,436.7l-0.2,0.4l0,0.1c-0.1,0.3-0.3,0.4-0.6,0.4c-0.3,0-0.6-0.3-0.6-0.6c0-0.1,0-0.2,0.1-0.3
						l0.1-0.1l1.7-4c0.1-0.2,0.3-0.4,0.6-0.4c0.2,0,0.5,0.1,0.6,0.4l1.7,4c0.1,0.3,0.1,0.3,0.1,0.5c0,0.3-0.3,0.6-0.6,0.6
						c-0.3,0-0.5-0.1-0.6-0.4l-0.1-0.1l-0.2-0.4H183.4z M184.4,434.1l-0.6,1.5h1.2L184.4,434.1z"/>
					<path class="st4" d="M189.6,432.7c0.2-0.4,0.3-0.6,0.6-0.6c0.3,0,0.6,0.3,0.6,0.6c0,0.1,0,0.2-0.1,0.3l-0.1,0.1l-1.6,3.9
						c-0.1,0.3-0.3,0.5-0.6,0.5c-0.3,0-0.5-0.2-0.6-0.5l-1.6-3.9l-0.1-0.1c-0.1-0.1-0.1-0.2-0.1-0.3c0-0.3,0.3-0.6,0.6-0.6
						c0.3,0,0.4,0.1,0.6,0.6l1.1,3L189.6,432.7z"/>
					<path class="st4" d="M195.3,433c0.5,0.5,0.8,1.2,0.8,1.9c0,1.5-1.2,2.7-2.6,2.7c-1.5,0-2.6-1.2-2.6-2.8c0-1.5,1.2-2.8,2.6-2.8
						C194.1,432.1,194.8,432.4,195.3,433z M192,434.9c0,0.8,0.7,1.5,1.5,1.5s1.5-0.7,1.5-1.5c0-0.9-0.7-1.6-1.5-1.6
						S192,434.1,192,434.9z"/>
					<path class="st4" d="M197.9,436.8v0.1c0,0.4-0.2,0.7-0.6,0.7c-0.4,0-0.6-0.3-0.6-0.7v-0.1v-3.7v-0.1c0-0.5,0.2-0.7,0.7-0.7h0.1
						h0.8c0.6,0,1,0.1,1.3,0.3c0.5,0.4,0.9,1,0.9,1.6c0,0.7-0.4,1.3-1.2,1.6l0.9,0.7c0.2,0.2,0.3,0.4,0.3,0.6c0,0.3-0.3,0.6-0.6,0.6
						c-0.1,0-0.3-0.1-0.4-0.2l-1.6-1.4V436.8z M198.3,435c0.3,0,0.5,0,0.6-0.1c0.2-0.1,0.4-0.4,0.4-0.7c0-0.3-0.2-0.6-0.4-0.7
						c-0.1-0.1-0.2-0.1-0.6-0.1h-0.4v1.6H198.3z"/>
					<path class="st4" d="M204.3,433.2c0,0.3-0.2,0.6-0.5,0.6c-0.1,0-0.2,0-0.3-0.1c0,0-0.1-0.1-0.3-0.2c-0.2-0.2-0.4-0.3-0.6-0.3
						c-0.3,0-0.6,0.2-0.6,0.5c0,0.3,0.2,0.4,0.6,0.5c0.4,0.1,0.8,0.2,1,0.4c0.5,0.3,0.8,0.8,0.8,1.4c0,1-0.8,1.8-1.9,1.8
						c-1,0-1.9-0.6-1.9-1.3c0-0.3,0.2-0.6,0.5-0.6c0.2,0,0.4,0.1,0.6,0.3c0.3,0.3,0.5,0.4,0.8,0.4c0.3,0,0.6-0.2,0.6-0.6
						c0-0.3-0.2-0.5-0.6-0.6l-0.5-0.2c-0.4-0.1-0.7-0.2-0.9-0.4c-0.3-0.2-0.5-0.6-0.5-1.1c0-0.9,0.7-1.6,1.8-1.6
						C203.5,432.1,204.3,432.6,204.3,433.2z"/>
				</g>
			</g>
			<g class="st1">
				<g class="st3">
					<path class="st5" d="M45.9,458.1c0.6,0.8,1.5,1.1,1.9,0.8c0.4-0.3,0.3-1.2-0.4-2L23.9,428c-0.6-0.8-1.5-1.1-1.9-0.8
						c-0.4,0.3-0.3,1.2,0.4,2L45.9,458.1z"/>
					<path class="st6" d="M12.9,424.4c-0.4,4.2,2.7,8.1,6.9,8.5c4.2,0.4,8.1-2.7,8.5-6.9c0.4-4.2-2.7-8.1-6.9-8.5
						C17.1,417,13.3,420.1,12.9,424.4"/>
					<path class="st4" d="M16.7,424.7c-0.2,2.1,1.3,4.1,3.5,4.3c2.1,0.2,4.1-1.3,4.3-3.5c0.2-2.1-1.3-4.1-3.5-4.3
						C18.8,421,16.9,422.6,16.7,424.7"/>
				</g>
				<path class="st7" d="M35.1,442.5c-0.3,0.9-0.3,1.7,0,1.8c0.3,0.1,0.7-0.6,1-1.5l3-9.9c0.3-0.9,0.3-1.7,0-1.8
					c-0.3-0.1-0.7,0.6-1,1.5L35.1,442.5z"/>
				<path class="st7" d="M32.3,442c1-0.2,1.7-0.5,1.7-0.8c0-0.3-0.9-0.4-1.8-0.2l-8.1,1.2c-1,0.2-1.7,0.6-1.7,0.8
					c0.1,0.3,0.9,0.4,1.8,0.2L32.3,442z"/>
				<path class="st2" d="M45.4,433.1c-0.9,3.3-4.4,5.2-7.7,4.3c-3.3-0.9-5.2-4.4-4.3-7.7c1-3.5,9.4-10.2,9.4-10.2
					S46.4,429.5,45.4,433.1"/>
				<path class="st8" d="M40.4,428.3c1.8,0.6,2.8,2.5,2.2,4.3c-0.6,1.8-2.5,2.8-4.3,2.2c-1.8-0.6-2.8-2.5-2.2-4.3
					C36.7,428.7,38.7,427.7,40.4,428.3"/>
				<path class="st8" d="M41.6,424.1c0.8,0.3,1.2,1.1,0.9,1.9c-0.3,0.8-1.1,1.2-1.9,0.9c-0.8-0.3-1.2-1.1-0.9-1.9
					C40,424.3,40.8,423.9,41.6,424.1"/>
				<g class="st3">
					<path class="st9" d="M21.6,437.7c2.8-0.4,5.5,1.5,5.9,4.3c0.5,2.8-1.5,5.5-4.3,5.9c-3,0.5-10.9-3.5-10.9-3.5
						S18.7,438.2,21.6,437.7"/>
					<path class="st10" d="M19.8,443.1c-0.2-1.6,0.9-2.9,2.5-3.1c1.5-0.2,2.9,0.9,3.1,2.5c0.2,1.5-0.9,2.9-2.5,3.1
						C21.4,445.7,20,444.6,19.8,443.1"/>
				</g>
			</g>
			<g class="st1">
				<g class="st3">
					<ellipse class="st4" cx="113.8" cy="473.7" rx="70.3" ry="65.9"/>
					<ellipse class="st11" cx="113.8" cy="473.7" rx="65.1" ry="61"/>
				</g>
			</g>
			<g class="st1">
				<path class="st12" d="M68.4,442c-4-4.3-12.5-4.9-20.5-1.1c-3.6,1.7-21.8,11-23.2,25.7c0,0-0.1,0.9-0.1,0.9
					c-0.1,1.2-0.1,2.4-0.1,3.6c0,21.8,10.1,40.9,20.6,50.6c5.8,5.3,10.4,8.5,14.5,6.7c2.3-1,4.1-3.3,4.7-7.6
					c0.6-4.3,0.2-9.6,0.2-9.6c4.5,5.7,12,7.9,18,6.6c4.9-1.1,10.5-5,11.5-11.1l0.2-1.4c0,0,1.5,0.4,1.6,0.4c3.1,0.5,7.6,0.4,10-1.7
					c0.8-0.7,1.3-1.5,1.6-2.4l0.4-1.2l1.2,0.4c2.7,0.9,5.5,0.7,8.1-0.6c1.7-0.8,3-2,4.1-3.4l0.8-1.1l1,1c1,0.9,1.8,1.6,2.8,2
					c4,1.9,8.9,1.1,12.4-2c1.2-1.1,2.5-3,3.6-5.5l0.6-1.4l1.3,1l0.7,0.5c1.4,0.8,3.7,1.2,6.8-1.6c2.3-2.1,4.3-5,5.9-8.7l0.8-1.8
					l1.3,1.4c0.8,0.9,1.5,1.5,2.3,2.1c3.7,2.5,8.8,3.2,12.5,1.7c1.1-0.5,2.1-1.1,3.1-1.9l0.7-0.6l0.8,0.5c2,1.4,4.5,2.4,7.6,3.1
					c3.2,0.7,4.8-0.8,5.5-1.8c1.1-1.6,1.1-3.9-0.1-5.9c-1.1-1.8-0.6-3.8,0.5-7.5c0.8-2.6,1.7-5.5,1.9-8.9
					c0.7-10.3-3.4-15.6-6.9-18.1c-5.8-4.3-13.3-3.6-17.9-1.8c0,0-1,0.5-1,0.5l-1.6,0.8l-0.5-1.2c-0.6-1.3-1.4-2.5-2.6-3.4
					c-2.5-1.9-6-2.5-10.3-1.8l-0.8,0.1l-0.5-0.6c-7.3-9.9-13.2-8-14.8-7.2v0c-2.5,1.3-4,3.8-4.4,7.2c0,0.3,0,0.7,0,1.1
					c0,1,0.1,2.2,0.4,3.5l0.2,1.3l-3,0.3c-1.9,0.2-3.6,0.4-4.7,0.6c-2.1,0.4-3.6,1.8-4.1,3.7c0,0-0.1,0.7-0.1,0.7c0-0.1,0,0.8,0,0.8
					l0,1.1l-1.1,0.2l-0.8,0.1c-3.8,0.6-7.5,2.9-10.1,6.2l-0.6,0.8l-0.9-0.5c-1.6-0.8-3-1-4.3-0.7c-1.6,0.4-2.8,1.4-3.5,2.9
					c-0.3,0.5-0.4,1.2-0.5,1.9l-0.4,2.9l-1.8-2.3c-1.4-1.8-3.1-3.2-4.9-4.3c-6-3.5-13.1-2.9-17.6-1.2c-2.3,0.9-6.2,2.2-9.4,6.1
					C70.9,454.6,73.7,447.5,68.4,442z"/>
				<path class="st13" d="M109.9,461.9c2.8-9,15.7-15.1,25.9-1.4c9.6,12.9,4.5,29.3,0.1,33.2c-4.9,4.4-12.7,1.8-12.4-5.5
					c0.2-5.3,2.1-6.2,3.5-14.9c1.3-8-0.4-15.2-7.7-13.2c-4.7,1.4-5.5,7.7-2.4,15.9c3.7,9.6,5,17.5-1.4,20.7
					c-5.2,2.6-10.8-0.9-11.2-9.2c-0.5-9.9,1.8-19.1-0.6-24.8c-0.7-1.7-0.8-3.8,0.9-4.3C106.2,458,108.6,460.5,109.9,461.9
					 M104.1,499.8c-0.1-1.6-4.9-3-4.6-12.8c0.1-3.6,0.1-8.7-0.6-13.7c-2.5-17.2-16-17.6-22.7-15.1c-4.9,1.8-8.2,5.9-9.3,8.1
					c-1.1,2.2-0.5,4.5,2.2,3.2c2.5-1.2,6.2-1.9,8.2,0.4c1.9,2.2,2,5,2.4,7.7c-1.4,0.3-5.5,1.6-7,2.5c-6.2,4.1-13.8,12.6-8.1,24.5
					c2.8,5.8,9.3,11.2,17.1,9.5c4.2-0.9,9.7-4.8,8.7-10.8c-0.8-4.8-8.1-4.6-12.1-4.9c-8.5-0.5-6.4-8.4-3.5-11.2
					c3.7-3.7,8.2-0.9,9.4,2.5c2.3,6.3,4.6,11,12.1,12.3C99.9,502.7,104.2,502.2,104.1,499.8z M64.8,475.9c-1.7-3.3-8-1.4-14.4,2
					c-1.6-3.1-3.2-7.5-3.2-7.5s10.9-5.3,18.1-16.1c7.8-11.7-5.5-15.2-15.8-10.3c-7.1,3.4-20.6,11.9-21.2,23.5
					c-1.1,21.6,8.6,41.5,19.3,51.4c9.9,9.2,12.8,7.7,12.8-1.1c-0.1-10.2-2-19.9-4.3-27.1C61.6,485.9,66.5,479.1,64.8,475.9
					 M170.6,444.7c-3.2,1.3-5.3,3.2-6.7,5c-1.2,1.5,0.1,3,1.5,2.6c3.2-0.8,8.4-0.8,9.2,5.7c-10.9,0.3-15.2,6-15.3,13.4
					c0,8.6,8.9,11.3,13.3,9.5c2.1-0.8,3.4-1.9,3.7-4.1c0.5-4.5-5.1-4.5-6.3-4.9c-4.4-1.5-2.9-6.6-0.2-8c2.4-1.2,5.8,0.2,6.2,3.9
					c0.8,7.1,0.7,11.8,10.9,14c2.4,0.5,2.2-1.3,1.6-2.2c-3.3-5.3,1.4-10.7,1.9-18.6C191.6,444.1,178.4,441.6,170.6,444.7
					 M163.3,444.8c0.1-2.6-2.2-7.4-12.4-4.4c-9.7-15.5-18.2-9-13,4.1c-2.7,0.8-9.2,1.1-11.5,1.6c-2.1,0.4-1.6,2.4,0.2,3.8
					c3.3,2.6,11.6,3.5,14.9,3.9c4.6,11.5,5.8,25.4,4.5,31.7c-0.8,3.6,1.1,3,2.8,1.4c7.9-7,9.4-23.6,7.2-34.8
					C162.1,449.6,163.3,447,163.3,444.8"/>
				<g class="st3">
					
						<ellipse transform="matrix(2.955200e-03 -1 1 2.955200e-03 -282.2177 667.2604)" class="st4" cx="193.5" cy="475.2" rx="4.2" ry="4.2"/>
					<path class="st14" d="M193.4,472.6c1.5-0.1,2.7,1,2.8,2.5c0.1,1.5-1,2.7-2.5,2.8c-1.5,0.1-2.7-1-2.8-2.5
						C190.8,473.9,191.9,472.7,193.4,472.6L193.4,472.6z M193.4,473.1c-1.1,0.1-1.9,1.1-1.9,2.2c0.1,1.2,1,2,2.2,2
						c1.1-0.1,1.9-1,1.9-2.2C195.5,474,194.6,473.1,193.4,473.1L193.4,473.1z M193.2,476.6l-0.6,0l-0.2-2.6c0.2-0.1,0.6-0.1,1-0.2
						c0.5,0,0.7,0,0.9,0.2c0.1,0.1,0.3,0.3,0.3,0.5c0,0.3-0.2,0.5-0.5,0.6l0,0c0.3,0.1,0.4,0.3,0.5,0.6c0.1,0.4,0.2,0.6,0.2,0.6
						l-0.7,0c-0.1-0.1-0.1-0.3-0.2-0.6c-0.1-0.3-0.2-0.4-0.6-0.4l-0.3,0L193.2,476.6z M193.2,475.1l0.3,0c0.3,0,0.6-0.1,0.6-0.4
						c0-0.2-0.2-0.4-0.6-0.4c-0.2,0-0.3,0-0.3,0.1L193.2,475.1z"/>
				</g>
			</g>
			<g class="st1">
				<g class="st3">
					<path class="st4" d="M35.6,405.6c0.8,0,1.4,0.3,2.1,0.8c0.4,0.3,0.5,0.5,0.5,0.8c0,0.4-0.3,0.7-0.7,0.7c-0.2,0-0.3-0.1-0.5-0.2
						l-0.1-0.1c-0.3-0.3-0.8-0.5-1.2-0.5c-1,0-1.8,0.8-1.8,1.8c0,1,0.8,1.8,1.8,1.8c0.4,0,0.9-0.2,1.1-0.4L37,410
						c0.2-0.2,0.3-0.2,0.5-0.2c0.4,0,0.7,0.3,0.7,0.7c0,0.2-0.1,0.4-0.3,0.6c-0.6,0.6-1.4,0.9-2.3,0.9c-1.8,0-3.2-1.5-3.2-3.2
						C32.4,407.1,33.8,405.6,35.6,405.6z"/>
					<path class="st4" d="M40.4,410.9l-0.2,0.5l-0.1,0.1c-0.2,0.3-0.4,0.5-0.7,0.5c-0.4,0-0.7-0.3-0.7-0.7c0-0.1,0-0.3,0.1-0.4
						l0.1-0.1l2.1-4.7c0.1-0.3,0.4-0.4,0.7-0.4c0.3,0,0.6,0.2,0.7,0.4l2.1,4.6c0.1,0.3,0.2,0.4,0.2,0.6c0,0.4-0.3,0.7-0.7,0.7
						c-0.3,0-0.6-0.2-0.7-0.5l-0.1-0.2l-0.2-0.5H40.4z M41.7,407.9l-0.7,1.8h1.5L41.7,407.9z"/>
					<path class="st4" d="M47,408.2h1.5h0.1c0.4,0,0.7,0.2,0.7,0.6c0,0.3-0.3,0.6-0.7,0.6h-0.1H47v1.6v0.2c0,0.5-0.3,0.8-0.7,0.8
						c-0.4,0-0.7-0.3-0.7-0.8v-0.2v-4.4v-0.2c0-0.5,0.3-0.8,0.8-0.8h0.2h2.3H49c0.5,0,0.7,0.3,0.7,0.7c0,0.4-0.3,0.7-0.7,0.7h-0.1
						H47V408.2z"/>
					<path class="st4" d="M52.2,408.2h1.5h0.1c0.4,0,0.7,0.2,0.7,0.6c0,0.3-0.3,0.6-0.7,0.6h-0.1h-1.5v1.6v0.2
						c0,0.5-0.3,0.8-0.7,0.8c-0.4,0-0.7-0.3-0.7-0.8v-0.2v-4.4v-0.2c0-0.5,0.3-0.8,0.8-0.8h0.2h2.3h0.1c0.5,0,0.7,0.3,0.7,0.7
						c0,0.4-0.3,0.7-0.7,0.7h-0.1h-1.9V408.2z"/>
					<path class="st4" d="M57.4,408.2h1.5H59c0.4,0,0.7,0.2,0.7,0.6c0,0.4-0.3,0.6-0.7,0.6h-0.1h-1.5v1.3h1.9h0.2
						c0.4,0,0.7,0.3,0.7,0.7c0,0.4-0.3,0.7-0.7,0.7h-0.2H57h-0.2c-0.5,0-0.8-0.3-0.8-0.8V411v-4.3v-0.2c0-0.5,0.3-0.8,0.8-0.8H57
						h2.3h0.2c0.4,0,0.7,0.3,0.7,0.7c0,0.4-0.3,0.7-0.7,0.7h-0.2h-1.9V408.2z"/>
					<path class="st4" d="M62.7,411.1v0.2c0,0.5-0.3,0.8-0.7,0.8c-0.4,0-0.7-0.3-0.7-0.8v-0.2v-4.5v-0.2c0-0.5,0.3-0.8,0.7-0.8
						c0.4,0,0.7,0.3,0.7,0.8v0.2V411.1z"/>
					<path class="st4" d="M68.2,406.6v-0.2c0-0.5,0.3-0.8,0.7-0.8c0.4,0,0.7,0.3,0.7,0.8v0.2v4.5c0,0.3,0,0.5-0.1,0.6
						c-0.1,0.2-0.4,0.3-0.7,0.3c-0.3,0-0.4-0.1-0.7-0.5l-2.6-3.3v2.7v0.2c0,0.5-0.3,0.8-0.7,0.8c-0.4,0-0.7-0.3-0.7-0.8v-0.2v-4.6
						c0-0.3,0-0.4,0.1-0.5c0.1-0.2,0.3-0.3,0.6-0.3c0.3,0,0.4,0.1,0.7,0.4l2.6,3.3V406.6z"/>
					<path class="st4" d="M72.7,408.2h1.5h0.1c0.4,0,0.7,0.2,0.7,0.6c0,0.4-0.3,0.6-0.7,0.6h-0.1h-1.5v1.3h1.9h0.1
						c0.4,0,0.7,0.3,0.7,0.7c0,0.4-0.3,0.7-0.7,0.7h-0.1h-2.3h-0.2c-0.5,0-0.8-0.3-0.8-0.8V411v-4.3v-0.2c0-0.5,0.3-0.8,0.8-0.8h0.2
						h2.3h0.1c0.4,0,0.7,0.3,0.7,0.7c0,0.4-0.3,0.7-0.7,0.7h-0.1h-1.9V408.2z"/>
					<path class="st4" d="M47.6,415.9h1.5h0.1c0.4,0,0.7,0.2,0.7,0.6c0,0.3-0.3,0.6-0.7,0.6h-0.1h-1.5v1.6v0.2
						c0,0.5-0.3,0.8-0.7,0.8c-0.4,0-0.7-0.3-0.7-0.8v-0.2v-4.4v-0.2c0-0.5,0.3-0.8,0.8-0.8h0.2h2.3h0.1c0.5,0,0.7,0.3,0.7,0.7
						c0,0.4-0.3,0.7-0.7,0.7h-0.1h-1.9V415.9z"/>
					<path class="st4" d="M52.8,418.8v0.2c0,0.5-0.3,0.8-0.7,0.8c-0.4,0-0.7-0.3-0.7-0.8v-0.2v-4.4v-0.2c0-0.5,0.3-0.8,0.8-0.8h0.2
						h1c0.7,0,1.2,0.1,1.6,0.4c0.6,0.4,1.1,1.2,1.1,1.9c0,0.9-0.5,1.5-1.4,1.9l1.1,0.8c0.3,0.2,0.4,0.4,0.4,0.7
						c0,0.4-0.3,0.7-0.7,0.7c-0.2,0-0.3-0.1-0.5-0.2l-2-1.6V418.8z M53.4,416.6c0.4,0,0.6,0,0.8-0.1c0.3-0.2,0.4-0.5,0.4-0.8
						c0-0.4-0.2-0.7-0.5-0.8c-0.2-0.1-0.3-0.1-0.7-0.1h-0.5v1.9H53.4z"/>
					<path class="st4" d="M58.6,415.9h1.5h0.1c0.4,0,0.7,0.2,0.7,0.6c0,0.4-0.3,0.6-0.7,0.6h-0.1h-1.5v1.3h1.9h0.2
						c0.4,0,0.7,0.3,0.7,0.7c0,0.4-0.3,0.7-0.7,0.7h-0.2h-2.3H58c-0.5,0-0.8-0.3-0.8-0.8v-0.2v-4.3v-0.2c0-0.5,0.3-0.8,0.8-0.8h0.2
						h2.3h0.2c0.4,0,0.7,0.3,0.7,0.7c0,0.4-0.3,0.7-0.7,0.7h-0.2h-1.9V415.9z"/>
					<path class="st4" d="M63.8,415.9h1.5h0.1c0.4,0,0.7,0.2,0.7,0.6c0,0.4-0.3,0.6-0.7,0.6h-0.1h-1.5v1.3h1.9h0.1
						c0.4,0,0.7,0.3,0.7,0.7c0,0.4-0.3,0.7-0.7,0.7h-0.1h-2.3h-0.2c-0.5,0-0.8-0.3-0.8-0.8v-0.2v-4.3v-0.2c0-0.5,0.3-0.8,0.8-0.8
						h0.2h2.3h0.1c0.4,0,0.7,0.3,0.7,0.7c0,0.4-0.3,0.7-0.7,0.7h-0.1h-1.9V415.9z"/>
				</g>
			</g>
			<g class="st1">
				<g class="st3">
					<path class="st15" d="M73.5,533.5c0.3,1.3,0.1,2.6-0.7,3.8c-1.5,2.3-4.7,3-7,1.5c-2.4-1.5-3-4.6-1.5-7c1.5-2.4,4.6-3,7-1.5
						C72.4,531,73.2,532.2,73.5,533.5z M66.1,533c-0.8,1.3-0.4,3.1,0.9,3.9c1.3,0.8,3,0.5,3.9-0.8c0.8-1.3,0.5-3.1-0.8-3.9
						C68.8,531.3,67,531.7,66.1,533z"/>
					<path class="st15" d="M74.2,541.8l-0.1,0.2c-0.3,0.7-1,0.9-1.6,0.6c-0.6-0.3-0.8-1-0.5-1.6l0.1-0.2l3-6.1l0.1-0.2
						c0.4-0.8,1-1,1.8-0.6l0.2,0.1l1.4,0.7c1,0.5,1.6,1,2,1.6c0.6,1,0.7,2.4,0.2,3.4c-0.6,1.2-1.8,1.8-3.3,1.6l1,1.8
						c0.2,0.5,0.3,0.9,0.1,1.2c-0.3,0.6-0.9,0.8-1.5,0.5c-0.2-0.1-0.4-0.3-0.6-0.6l-1.7-3.7L74.2,541.8z M76.5,539.2
						c0.6,0.3,0.9,0.4,1.2,0.4c0.5,0,0.9-0.4,1.2-0.8c0.2-0.5,0.2-1.1-0.2-1.6c-0.2-0.2-0.3-0.3-1-0.6l-0.7-0.4l-1.3,2.6L76.5,539.2
						z"/>
					<path class="st15" d="M82.2,545.1l-0.5,0.6l-0.2,0.2c-0.4,0.4-0.8,0.5-1.3,0.4c-0.6-0.2-0.9-0.8-0.7-1.4
						c0.1-0.2,0.2-0.4,0.4-0.5l0.2-0.2l5.5-5.8c0.3-0.4,0.8-0.5,1.2-0.3c0.4,0.2,0.7,0.5,0.8,1l0.7,8c0.1,0.5,0,0.7-0.1,0.9
						c-0.2,0.6-0.9,0.8-1.4,0.6c-0.5-0.2-0.7-0.5-0.8-1.1l0-0.3l-0.1-0.8L82.2,545.1z M85.6,541.3l-2,2.3l2.2,0.8L85.6,541.3z"/>
					<path class="st15" d="M96.9,542.4l0.1-0.2c0.2-0.7,0.7-1.1,1.4-1c0.7,0.2,1,0.7,0.8,1.5l-0.1,0.2l-1.6,6.9
						c-0.1,0.5-0.2,0.7-0.4,0.9c-0.3,0.3-0.7,0.4-1.1,0.3c-0.4-0.1-0.6-0.3-0.9-0.9l-2.7-5.9l-1,4.2l-0.1,0.2
						c-0.2,0.7-0.7,1.1-1.4,1c-0.7-0.2-1-0.8-0.8-1.5l0.1-0.2l1.6-7c0.1-0.4,0.2-0.6,0.4-0.8c0.3-0.3,0.6-0.4,1-0.3
						c0.4,0.1,0.6,0.3,0.9,0.9l2.8,6L96.9,542.4z"/>
					<path class="st15" d="M104.7,548.4l-0.2,0c-0.7-0.1-1.1-0.5-1-1.2c0.1-0.6,0.6-1,1.3-0.9l0.2,0l2,0.2l0.2,0
						c0.8,0.1,1.3,0.6,1.2,1.4l0,0.3l-0.1,1.2c-0.1,0.6-0.4,1.2-0.8,1.6c-0.8,0.7-2.2,1.1-3.5,1c-2.8-0.3-4.8-2.9-4.5-5.6
						c0.3-2.8,2.8-4.8,5.6-4.5c0.9,0.1,1.9,0.5,2.6,1.1c0.5,0.4,0.7,0.7,0.6,1.2c-0.1,0.6-0.6,1-1.2,1c-0.3,0-0.3,0-0.9-0.5
						c-0.4-0.3-0.9-0.5-1.4-0.6c-1.6-0.2-3,1-3.1,2.5c-0.2,1.6,1,3,2.7,3.2c0.7,0.1,1.3-0.1,1.6-0.5c0.1-0.2,0.2-0.4,0.2-0.8
						c0,0,0-0.1,0-0.2L104.7,548.4z"/>
					<path class="st15" d="M111.9,546.6l2.3,0l0.2,0c0.6,0,1,0.4,1,0.9c0,0.6-0.4,0.9-1.1,0.9l-0.2,0l-2.3,0l0,2l3,0l0.2,0
						c0.7,0,1.1,0.4,1.1,1c0,0.6-0.5,1-1.2,1l-0.2,0l-3.7-0.1l-0.3,0c-0.9,0-1.3-0.5-1.3-1.3l0-0.3l0.1-6.7l0-0.3
						c0-0.9,0.5-1.3,1.3-1.3l0.3,0l3.6,0.1l0.2,0c0.7,0,1.1,0.4,1.1,1c0,0.6-0.5,1-1.1,1l-0.2,0l-2.9,0L111.9,546.6z"/>
				</g>
				<g class="st3">
					<path class="st14" d="M73.5,533.5c0.3,1.3,0.1,2.6-0.7,3.8c-1.5,2.3-4.7,3-7,1.5c-2.4-1.5-3-4.6-1.5-7c1.5-2.4,4.6-3,7-1.5
						C72.4,531,73.2,532.2,73.5,533.5z M66.1,533c-0.8,1.3-0.4,3.1,0.9,3.9c1.3,0.8,3,0.5,3.9-0.8c0.8-1.3,0.5-3.1-0.8-3.9
						C68.8,531.3,67,531.7,66.1,533z"/>
					<path class="st14" d="M74.2,541.8l-0.1,0.2c-0.3,0.7-1,0.9-1.6,0.6c-0.6-0.3-0.8-1-0.5-1.6l0.1-0.2l3-6.1l0.1-0.2
						c0.4-0.8,1-1,1.8-0.6l0.2,0.1l1.4,0.7c1,0.5,1.6,1,2,1.6c0.6,1,0.7,2.4,0.2,3.4c-0.6,1.2-1.8,1.8-3.3,1.6l1,1.8
						c0.2,0.5,0.3,0.9,0.1,1.2c-0.3,0.6-0.9,0.8-1.5,0.5c-0.2-0.1-0.4-0.3-0.6-0.6l-1.7-3.7L74.2,541.8z M76.5,539.2
						c0.6,0.3,0.9,0.4,1.2,0.4c0.5,0,0.9-0.4,1.2-0.8c0.2-0.5,0.2-1.1-0.2-1.6c-0.2-0.2-0.3-0.3-1-0.6l-0.7-0.4l-1.3,2.6L76.5,539.2
						z"/>
					<path class="st14" d="M82.2,545.1l-0.5,0.6l-0.2,0.2c-0.4,0.4-0.8,0.5-1.3,0.4c-0.6-0.2-0.9-0.8-0.7-1.4
						c0.1-0.2,0.2-0.4,0.4-0.5l0.2-0.2l5.5-5.8c0.3-0.4,0.8-0.5,1.2-0.3c0.4,0.2,0.7,0.5,0.8,1l0.7,8c0.1,0.5,0,0.7-0.1,0.9
						c-0.2,0.6-0.9,0.8-1.4,0.6c-0.5-0.2-0.7-0.5-0.8-1.1l0-0.3l-0.1-0.8L82.2,545.1z M85.6,541.3l-2,2.3l2.2,0.8L85.6,541.3z"/>
					<path class="st14" d="M96.9,542.4l0.1-0.2c0.2-0.7,0.7-1.1,1.4-1c0.7,0.2,1,0.7,0.8,1.5l-0.1,0.2l-1.6,6.9
						c-0.1,0.5-0.2,0.7-0.4,0.9c-0.3,0.3-0.7,0.4-1.1,0.3c-0.4-0.1-0.6-0.3-0.9-0.9l-2.7-5.9l-1,4.2l-0.1,0.2
						c-0.2,0.7-0.7,1.1-1.4,1c-0.7-0.2-1-0.8-0.8-1.5l0.1-0.2l1.6-7c0.1-0.4,0.2-0.6,0.4-0.8c0.3-0.3,0.6-0.4,1-0.3
						c0.4,0.1,0.6,0.3,0.9,0.9l2.8,6L96.9,542.4z"/>
					<path class="st14" d="M104.7,548.4l-0.2,0c-0.7-0.1-1.1-0.5-1-1.2c0.1-0.6,0.6-1,1.3-0.9l0.2,0l2,0.2l0.2,0
						c0.8,0.1,1.3,0.6,1.2,1.4l0,0.3l-0.1,1.2c-0.1,0.6-0.4,1.2-0.8,1.6c-0.8,0.7-2.2,1.1-3.5,1c-2.8-0.3-4.8-2.9-4.5-5.6
						c0.3-2.8,2.8-4.8,5.6-4.5c0.9,0.1,1.9,0.5,2.6,1.1c0.5,0.4,0.7,0.7,0.6,1.2c-0.1,0.6-0.6,1-1.2,1c-0.3,0-0.3,0-0.9-0.5
						c-0.4-0.3-0.9-0.5-1.4-0.6c-1.6-0.2-3,1-3.1,2.5c-0.2,1.6,1,3,2.7,3.2c0.7,0.1,1.3-0.1,1.6-0.5c0.1-0.2,0.2-0.4,0.2-0.8
						c0,0,0-0.1,0-0.2L104.7,548.4z"/>
					<path class="st14" d="M111.9,546.6l2.3,0l0.2,0c0.6,0,1,0.4,1,0.9c0,0.6-0.4,0.9-1.1,0.9l-0.2,0l-2.3,0l0,2l3,0l0.2,0
						c0.7,0,1.1,0.4,1.1,1c0,0.6-0.5,1-1.2,1l-0.2,0l-3.7-0.1l-0.3,0c-0.9,0-1.3-0.5-1.3-1.3l0-0.3l0.1-6.7l0-0.3
						c0-0.9,0.5-1.3,1.3-1.3l0.3,0l3.6,0.1l0.2,0c0.7,0,1.1,0.4,1.1,1c0,0.6-0.5,1-1.1,1l-0.2,0l-2.9,0L111.9,546.6z"/>
				</g>
			</g>
			<g class="st1">
				<g class="st3">
					<path class="st9" d="M115.2,419.6c-4.6-1.7-8.6-1.9-12.1-1.3c1.6,1.1,1.7,3,1.7,3s-3.3-2.9-8.4-0.6c-1.1,0.5-2.1,1.1-3.1,1.8
						c-5.9,4-12.9,14.9-19.5,14.4c0,0-2-0.1-2.1-0.1c0.4,0.2,2.5,1.5,2.6,1.5c2.4,0.9,6.6,3.3,15.2-1.1c9.5-4.9,11.2-10.3,19.8-10.9
						c2.1-0.1,4,0.2,5.8,0.9c6.5,2.4,11.3,8.9,12.9,11.9c0,0,0,0,0,0C128.1,438.9,127.1,423.9,115.2,419.6"/>
					<path class="st9" d="M109.3,426.2c-8.7,0.6-10.3,6-19.8,10.9c-8.5,4.4-12.7,2-15.1,1.1c0,0-2.2-1.3-2.6-1.5
						c0,0,6,8.8,16.8,10.6c2.7,0.4,7.7-0.5,9.7-3.9c0.3,2.4-0.4,3.6-1.1,4.5c10.3-2.1,16-9.1,21.3-10.6c6.6-1.8,9.6,1.8,9.6,1.8
						c-2-3.7-8.5-12.4-17.2-12.8C110.3,426.1,109.8,426.1,109.3,426.2"/>
					
						<linearGradient id="SVGID_1_" gradientUnits="userSpaceOnUse" x1="72.0034" y1="267.748" x2="128.3813" y2="267.748" gradientTransform="matrix(0.999 4.560000e-02 4.560000e-02 -0.999 -12.3673 699.7094)">
						<stop  offset="0" style="stop-color:#6B9A4D"/>
						<stop  offset="1" style="stop-color:#5A8343"/>
					</linearGradient>
					<path class="st16" d="M109.3,426.2c-8.7,0.6-10.3,6-19.8,10.9c-8.5,4.4-12.7,2-15.1,1.1c0,0-2.2-1.3-2.6-1.5
						c0,0,6,8.8,16.8,10.6c2.7,0.4,7.7-0.5,9.7-3.9c0.3,2.4-0.4,3.6-1.1,4.5c10.3-2.1,16-9.1,21.3-10.6c6.6-1.8,9.6,1.8,9.6,1.8
						c-2-3.7-8.5-12.4-17.2-12.8C110.3,426.1,109.8,426.1,109.3,426.2"/>
				</g>
			</g>
			<g class="st1">
				<path class="st17" d="M206.8,495.5c-0.2,0.1-0.4,0.2-0.7,0.3l0,0c-5.2,2.1-14.1-2.4-17.8-5.5l0,0c6.6,3.6,12.4-2.5,18.3-0.8l0,0
					c1.7,0.5,2.5,1.4,2.7,2.4l0,0C209.4,493.2,208.4,494.6,206.8,495.5"/>
				<path class="st17" d="M201.7,483.7c0,0.2-0.1,0.3-0.2,0.5l0,0c-1.4,3.7-7.1,5.5-9.9,5.5l0,0c4.3-1.1,4.3-7.4,7.6-9.2l0,0
					c1-0.5,1.7-0.4,2.1,0.1l0,0C201.9,481.2,202.1,482.5,201.7,483.7"/>
			</g>
		</g>
	</g>
</g>
</svg>
