<?xml version="1.0" encoding="utf-8"?>
<!-- Generator: Adobe Illustrator 21.1.0, SVG Export Plug-In . SVG Version: 6.00 Build 0)  -->
<svg version="1.1" id="Layer_1" xmlns="http://www.w3.org/2000/svg" xmlns:xlink="http://www.w3.org/1999/xlink" x="0px" y="0px"
	 viewBox="0 0 225.8 721.1" style="enable-background:new 0 0 225.8 721.1;" xml:space="preserve">
<style type="text/css">
	.st0{fill:#232C64;}
	.st1{fill:#FFFFFF;}
</style>
<path class="st0" d="M170.6,444.7c-3.2,1.3-5.3,3.2-6.7,5c-1.2,1.5,0.1,3,1.5,2.6c3.2-0.8,8.4-0.8,9.2,5.7
	c-10.9,0.3-15.2,6-15.3,13.4c0,8.6,8.9,11.3,13.3,9.5c2.1-0.8,3.4-1.9,3.7-4.1c0.5-4.5-5.1-4.5-6.3-4.9c-4.4-1.5-2.9-6.6-0.2-8
	c2.4-1.2,5.8,0.2,6.2,3.9c0.8,7.1,0.7,11.8,10.9,14c2.4,0.5,2.2-1.3,1.6-2.2c-3.3-5.3,1.4-10.7,1.9-18.6
	C191.6,444.1,178.4,441.6,170.6,444.7"/>
<g>
	
		<ellipse transform="matrix(2.955200e-03 -1 1 2.955200e-03 -282.2177 667.2604)" class="st1" cx="193.5" cy="475.2" rx="4.2" ry="4.2"/>
	<path class="st0" d="M193.4,472.6c1.5-0.1,2.7,1,2.8,2.5c0.1,1.5-1,2.7-2.5,2.8c-1.5,0.1-2.7-1-2.8-2.5
		C190.8,473.9,191.9,472.7,193.4,472.6L193.4,472.6z M193.4,473.1c-1.1,0.1-1.9,1.1-1.9,2.2c0.1,1.2,1,2,2.2,2
		c1.1-0.1,1.9-1,1.9-2.2C195.5,474,194.6,473.1,193.4,473.1L193.4,473.1z M193.2,476.6l-0.6,0l-0.2-2.6c0.2-0.1,0.6-0.1,1-0.2
		c0.5,0,0.7,0,0.9,0.2c0.1,0.1,0.3,0.3,0.3,0.5c0,0.3-0.2,0.5-0.5,0.6l0,0c0.3,0.1,0.4,0.3,0.5,0.6c0.1,0.4,0.2,0.6,0.2,0.6l-0.7,0
		c-0.1-0.1-0.1-0.3-0.2-0.6c-0.1-0.3-0.2-0.4-0.6-0.4l-0.3,0L193.2,476.6z M193.2,475.1l0.3,0c0.3,0,0.6-0.1,0.6-0.4
		c0-0.2-0.2-0.4-0.6-0.4c-0.2,0-0.3,0-0.3,0.1L193.2,475.1z"/>
</g>
</svg>
