<?xml version="1.0" encoding="utf-8"?>
<!-- Generator: Adobe Illustrator 21.1.0, SVG Export Plug-In . SVG Version: 6.00 Build 0)  -->
<svg version="1.1" id="Layer_1" xmlns="http://www.w3.org/2000/svg" xmlns:xlink="http://www.w3.org/1999/xlink" x="0px" y="0px"
	 viewBox="0 0 225.8 721.1" style="enable-background:new 0 0 225.8 721.1;" xml:space="preserve">
<style type="text/css">
	.st0{fill:#B2417A;}
	.st1{fill:#F36C21;stroke:#FDDD00;stroke-width:2.9269;}
	.st2{fill:#FFFFFF;}
	.st3{fill:#4D9D45;}
	.st4{fill:#D3D5E0;}
</style>
<g>
	<g>
		<path class="st0" d="M45.9,458.1c0.6,0.8,1.5,1.1,1.9,0.8c0.4-0.3,0.3-1.2-0.4-2L23.9,428c-0.6-0.8-1.5-1.1-1.9-0.8
			c-0.4,0.3-0.3,1.2,0.4,2L45.9,458.1z"/>
		<path class="st1" d="M12.9,424.4c-0.4,4.2,2.7,8.1,6.9,8.5c4.2,0.4,8.1-2.7,8.5-6.9c0.4-4.2-2.7-8.1-6.9-8.5
			C17.1,417,13.3,420.1,12.9,424.4"/>
		<path class="st2" d="M16.7,424.7c-0.2,2.1,1.3,4.1,3.5,4.3c2.1,0.2,4.1-1.3,4.3-3.5c0.2-2.1-1.3-4.1-3.5-4.3
			C18.8,421,16.9,422.6,16.7,424.7"/>
	</g>
	<path class="st0" d="M35.1,442.5c-0.3,0.9-0.3,1.7,0,1.8c0.3,0.1,0.7-0.6,1-1.5l3-9.9c0.3-0.9,0.3-1.7,0-1.8
		c-0.3-0.1-0.7,0.6-1,1.5L35.1,442.5z"/>
	<path class="st0" d="M32.3,442c1-0.2,1.7-0.5,1.7-0.8c0-0.3-0.9-0.4-1.8-0.2l-8.1,1.2c-1,0.2-1.7,0.6-1.7,0.8
		c0.1,0.3,0.9,0.4,1.8,0.2L32.3,442z"/>
	<path class="st3" d="M45.4,433.1c-0.9,3.3-4.4,5.2-7.7,4.3c-3.3-0.9-5.2-4.4-4.3-7.7c1-3.5,9.4-10.2,9.4-10.2
		S46.4,429.5,45.4,433.1"/>
	<path class="st4" d="M40.4,428.3c1.8,0.6,2.8,2.5,2.2,4.3c-0.6,1.8-2.5,2.8-4.3,2.2c-1.8-0.6-2.8-2.5-2.2-4.3
		C36.7,428.7,38.7,427.7,40.4,428.3"/>
	<path class="st4" d="M41.6,424.1c0.8,0.3,1.2,1.1,0.9,1.9c-0.3,0.8-1.1,1.2-1.9,0.9c-0.8-0.3-1.2-1.1-0.9-1.9
		C40,424.3,40.8,423.9,41.6,424.1"/>
	<g>
		<path class="st3" d="M21.6,437.7c2.8-0.4,5.5,1.5,5.9,4.3c0.5,2.8-1.5,5.5-4.3,5.9c-3,0.5-10.9-3.5-10.9-3.5
			S18.7,438.2,21.6,437.7"/>
		<path class="st4" d="M19.8,443.1c-0.2-1.6,0.9-2.9,2.5-3.1c1.5-0.2,2.9,0.9,3.1,2.5c0.2,1.5-0.9,2.9-2.5,3.1
			C21.4,445.7,20,444.6,19.8,443.1"/>
	</g>
</g>
</svg>
