<?xml version="1.0" encoding="utf-8"?>
<!-- Generator: Adobe Illustrator 21.1.0, SVG Export Plug-In . SVG Version: 6.00 Build 0)  -->
<svg version="1.1" id="Layer_1" xmlns="http://www.w3.org/2000/svg" xmlns:xlink="http://www.w3.org/1999/xlink" x="0px" y="0px"
	 viewBox="0 0 225.8 721.1" style="enable-background:new 0 0 225.8 721.1;" xml:space="preserve">
<style type="text/css">
	.st0{fill:#232C64;}
</style>
<path class="st0" d="M109.9,461.9c2.8-9,15.7-15.1,25.9-1.4c9.6,12.9,4.5,29.3,0.1,33.2c-4.9,4.4-12.7,1.8-12.4-5.5
	c0.2-5.3,2.1-6.2,3.5-14.9c1.3-8-0.4-15.2-7.7-13.2c-4.7,1.4-5.5,7.7-2.4,15.9c3.7,9.6,5,17.5-1.4,20.7c-5.2,2.6-10.8-0.9-11.2-9.2
	c-0.5-9.9,1.8-19.1-0.6-24.8c-0.7-1.7-0.8-3.8,0.9-4.3C106.2,458,108.6,460.5,109.9,461.9"/>
</svg>
