<?xml version="1.0" encoding="utf-8"?>
<!-- Generator: Adobe Illustrator 21.1.0, SVG Export Plug-In . SVG Version: 6.00 Build 0)  -->
<svg version="1.1" id="Layer_2_1_" xmlns="http://www.w3.org/2000/svg" xmlns:xlink="http://www.w3.org/1999/xlink" x="0px" y="0px"
	 viewBox="0 0 225.8 721.1" style="enable-background:new 0 0 225.8 721.1;" xml:space="preserve">
<style type="text/css">
	.st0{opacity:0.2;fill:#FFFFFF;enable-background:new    ;}
</style>
<g id="Layer_4">
	<path class="st0" d="M27.4,349.9h30.1c-0.8-2.4-32.5-17.8-18.1-42c9.5-16,19.9-35.6,14.4-52.4c-9.5-28.9,6-60.6,32.8-103
		c21.4-33.8,17.8-77.1,17.8-77.1H87.8c0.1,1.5,2.6,37.3-21.9,77.1c-24,39-35.4,69.6-37.1,99.3c-1,17.6-3.2,31.9-8,43.5
		C7.1,328.5,27.4,349.9,27.4,349.9z"/>
	<path class="st0" d="M42.8,616.3H20.2c-6.7,74.4,22.4,88.6,33.5,88.5C53.7,704.8,29.1,663.1,42.8,616.3z"/>
	<path class="st0" d="M86.8,16.2c4.3-0.2,9.4-0.4,14.2-0.5v41.8H74.6l1.2-30.3C76,21.3,80.8,16.5,86.8,16.2z"/>
	<polygon class="st0" points="25.7,603.6 54.5,603.6 53,367.4 24.3,367.4 	"/>
</g>
</svg>
