<?xml version="1.0" encoding="utf-8"?>
<!-- Generator: Adobe Illustrator 21.1.0, SVG Export Plug-In . SVG Version: 6.00 Build 0)  -->
<svg version="1.1" id="Layer_1" xmlns="http://www.w3.org/2000/svg" xmlns:xlink="http://www.w3.org/1999/xlink" x="0px" y="0px"
	 viewBox="0 0 225.8 721.1" style="enable-background:new 0 0 225.8 721.1;" xml:space="preserve">
<style type="text/css">
	.st0{fill:#FFF200;}
</style>
<g>
	<path class="st0" d="M206.8,495.5c-0.2,0.1-0.4,0.2-0.7,0.3l0,0c-5.2,2.1-14.1-2.4-17.8-5.5l0,0c6.6,3.6,12.4-2.5,18.3-0.8l0,0
		c1.7,0.5,2.5,1.4,2.7,2.4l0,0C209.4,493.2,208.4,494.6,206.8,495.5"/>
	<path class="st0" d="M201.7,483.7c0,0.2-0.1,0.3-0.2,0.5l0,0c-1.4,3.7-7.1,5.5-9.9,5.5l0,0c4.3-1.1,4.3-7.4,7.6-9.2l0,0
		c1-0.5,1.7-0.4,2.1,0.1l0,0C201.9,481.2,202.1,482.5,201.7,483.7"/>
</g>
</svg>
