<?xml version="1.0" encoding="utf-8"?>
<!-- Generator: Adobe Illustrator 21.1.0, SVG Export Plug-In . SVG Version: 6.00 Build 0)  -->
<svg version="1.1" id="Layer_1" xmlns="http://www.w3.org/2000/svg" xmlns:xlink="http://www.w3.org/1999/xlink" x="0px" y="0px"
	 viewBox="0 0 225.8300781 721.0617065" style="enable-background:new 0 0 225.8300781 721.0617065;" xml:space="preserve">
<style type="text/css">
	.st0{fill:#5E0D8B;}
	.st1{opacity:0.1;enable-background:new    ;}
	.st2{fill:#00713E;}
	.st3{opacity:0.7;fill:#E6E7E8;enable-background:new    ;}
	.st4{fill:#FFFFFF;}
	.st5{opacity:0.4;fill:#FFFFFF;enable-background:new    ;}
	.st6{opacity:0.2;fill:#FFFFFF;enable-background:new    ;}
	.st7{fill:#4D9D45;}
	.st8{fill:#BA3893;}
	.st9{fill:#5E0D8B;stroke:#EC008C;stroke-width:1.74045;}
	.st10{fill:#D3D5E0;}
	.st11{fill:#232C64;}
	.st12{fill:#A7B6BE;}
	.st13{fill:url(#SVGID_1_);}
	.st14{fill:#EC008C;}
	.st15{fill:#FFFFFF;stroke:#FFFFFF;stroke-width:2;stroke-miterlimit:10;}
	.st16{fill:url(#SVGID_2_);}
</style>
<g id="Layer_2">
</g>
<g id="Layer_1_1_">
	<g>
		<path class="st0" d="M52.4463539,134.3097839c-22.2351189,36.0768433-37.3039551,70.386673-39.2673187,106.3162689
			s-16.7590141,55.1433868-12.3692055,82.8540497c3.1413856,19.8299866,8.835146,12.9581909,8.835146,35.3405762v236.1929321
			c0,0-7.0681171,8.2461548-6.6754436,22.7750244c0.3926733,14.5289307-0.7853463,89.52948,33.7698936,96.5975952
			s45.1574173-11.3875122,45.1574173-11.3875122s2.7427368,18.0629883,31.0181961,18.0629883
			s31.0181885-18.0629883,31.0181885-18.0629883s10.6021729,18.4556274,45.1574249,11.3875122
			s33.3772125-82.0686646,33.7698822-96.5975952c0.3926849-14.5288696-6.6754303-22.7750244-6.6754303-22.7750244
			l1.9633636-236.1929321c0-22.3823853,3.7303925-15.5105896,6.8717804-35.3405762
			c4.389801-27.7106628-10.405838-46.924469-12.3692169-82.8540497
			c-1.9633636-35.9295959-17.032196-70.2394257-39.2673187-106.3162689H52.4463539z"/>
		<polygon class="st1" points="9.6449757,358.8168945 9.6449757,595.0136108 217.1725464,595.0136108 219.148468,358.8168945 		"/>
		<path class="st2" d="M156.4189148,59.2110329c1.0297089-0.0965309,1.9750214-0.263382,2.8236694-0.46521
			c2.9106293-0.6922073,4.9345245-3.3378029,4.8320312-6.3278503c-0.2856445-8.3331642-1.5153503-25.8713379-2.4105988-38.0213699
			c-0.5422058-7.3587575-6.5168152-13.1353416-13.8893433-13.4370708l-13.0402374-0.533685
			c-13.8737946-0.5677989-27.765007-0.5677989-41.6387939,0l-13.0402374,0.533685
			C72.682869,1.2612625,66.7082596,7.037847,66.1660461,14.3966045
			c-0.8952332,12.1500301-2.1249466,29.6882038-2.4105911,38.0213699c-0.1024933,2.9900475,1.9214096,5.635643,4.8320312,6.3278503
			c0.8486481,0.201828,1.7939682,0.368679,2.8236618,0.46521C71.4111481,59.2110367,156.4189148,59.2110367,156.4189148,59.2110329z
			"/>
		<path class="st3" d="M71.4111481,59.2110329c0,0-9.7186584,0.5890121-9.7186584,3.8285637
			c0,3.2395554,11.4856949,3.2395554,11.4856949,3.2395554s2.5032883,31.9537811-19.7318306,68.030632h120.9373627
			c-22.2351074-36.0768509-19.7318268-68.030632-19.7318268-68.030632s11.4857025,0,11.4857025-3.2395554
			c0-3.2395515-9.7186737-3.8285637-9.7186737-3.8285637H71.4111481z"/>
		<path class="st4" d="M44.764801,693.4526978"/>
		<path class="st5" d="M26.4315891,340.8648376h30.1339893c-0.7693481-2.3654175-32.4852905-17.7862854-18.108387-42
			c9.5-16,19.8799744-35.5944214,14.3595276-52.3648682c-9.508667-28.8862,5.9591675-60.6319885,32.7815552-102.9862061
			c21.3858032-33.7694702,17.833313-77.0722656,17.833313-77.0722656H86.7556229
			c0.1181641,1.5039062,2.6044922,37.2885742-21.9160156,77.0722656
			c-24.0068359,38.9511719-35.4365234,69.5654297-37.0595703,99.2646484
			c-0.9628906,17.6293945-3.167469,31.887207-7.9589844,43.4985352
			C6.0982552,319.5314941,26.4315891,340.8648376,26.4315891,340.8648376z"/>
		<path class="st5" d="M41.8077698,607.2871094H19.2030334c-6.6771536,74.3994751,22.3661957,88.5952148,33.4911957,88.507019
			C52.6942291,695.7941284,28.1411037,654.0743408,41.8077698,607.2871094z"/>
		<path class="st6" d="M85.7673569,7.235888c4.2892838-0.1855822,9.3691864-0.3782444,14.207077-0.4948721v41.75H73.5571136
			l1.2457123-30.2728481C75.0478516,12.2636766,79.8133926,7.4934945,85.7673569,7.235888z"/>
		<g>
			<g>
				<path class="st4" d="M37.7508812,398.7058716c0.7460938,0,1.4101562,0.2490234,2.0087891,0.7373047
					c0.359375,0.2949219,0.4980469,0.5068359,0.4980469,0.7832031c0,0.3779297-0.3046875,0.6816406-0.6914062,0.6816406
					c-0.1933594,0-0.3408203-0.0644531-0.5166016-0.2207031l-0.1474609-0.1386719
					c-0.3037109-0.2763672-0.7373047-0.4423828-1.1611328-0.4423828c-0.9677734,0-1.7509766,0.8017578-1.7509766,1.7695312
					s0.8017578,1.7607422,1.7695312,1.7607422c0.3867188,0,0.8476562-0.1572266,1.0878906-0.3779297l0.2490234-0.2304688
					c0.1650391-0.15625,0.3310547-0.2207031,0.5244141-0.2207031c0.3779297,0,0.6914062,0.3125,0.6914062,0.6904297
					c0,0.2119141-0.1015625,0.3964844-0.3310547,0.6269531c-0.5625,0.5625-1.4101562,0.9121094-2.2216797,0.9121094
					c-1.7421875,0-3.1796875-1.4375-3.1796875-3.1699219C34.5799828,400.1248169,36.0086937,398.7058716,37.7508812,398.7058716z"/>
				<path class="st4" d="M42.4999046,403.8943481l-0.1933594,0.4521484l-0.0556641,0.1376953
					c-0.15625,0.3408203-0.3779297,0.4980469-0.6914062,0.4980469c-0.3779297,0-0.7089844-0.3046875-0.7089844-0.6728516
					c0-0.1201172,0.0361328-0.2578125,0.1005859-0.3964844l0.0644531-0.1386719l2.0371094-4.5615234
					c0.1289062-0.2861328,0.359375-0.4335938,0.6728516-0.4335938c0.2949219,0,0.5527344,0.1572266,0.6728516,0.4335938
					l2.0917969,4.5439453c0.1386719,0.2949219,0.1572266,0.3867188,0.1572266,0.5527344
					c0,0.3681641-0.3320312,0.6816406-0.7099609,0.6816406c-0.3134766,0-0.5439453-0.1660156-0.6914062-0.4882812
					l-0.0644531-0.1474609l-0.2119141-0.4609375H42.4999046z M43.7352562,400.90802l-0.7285156,1.7695312h1.4746094
					L43.7352562,400.90802z"/>
				<path class="st4" d="M48.9110374,401.2859497h1.4472656h0.1289062c0.3964844,0.0097656,0.6542969,0.2402344,0.6542969,0.5898438
					c0,0.3417969-0.2675781,0.5810547-0.6542969,0.5810547h-0.1289062h-1.4472656v1.6035156v0.15625
					c0,0.4794922-0.2763672,0.7929688-0.7001953,0.7929688c-0.4248047,0-0.7099609-0.3222656-0.7099609-0.7929688v-0.15625
					v-4.2763672v-0.1660156c0.0087891-0.5341797,0.2949219-0.8203125,0.8203125-0.8203125h0.1660156h2.2949219h0.1376953
					c0.4423828,0.0097656,0.71875,0.2578125,0.71875,0.6455078c0,0.3867188-0.2851562,0.6445312-0.71875,0.6445312h-0.1376953
					h-1.8710938V401.2859497z"/>
				<path class="st4" d="M54.0223656,401.2859497h1.4472656h0.1289062c0.3964844,0.0097656,0.6542969,0.2402344,0.6542969,0.5898438
					c0,0.3417969-0.2675781,0.5810547-0.6542969,0.5810547h-0.1289062h-1.4472656v1.6035156v0.15625
					c0,0.4794922-0.2763672,0.7929688-0.7001953,0.7929688c-0.4248047,0-0.7099609-0.3222656-0.7099609-0.7929688v-0.15625
					v-4.2763672v-0.1660156c0.0087891-0.5341797,0.2949219-0.8203125,0.8203125-0.8203125h0.1660156h2.2949219h0.1376953
					c0.4423828,0.0097656,0.71875,0.2578125,0.71875,0.6455078c0,0.3867188-0.2851562,0.6445312-0.71875,0.6445312h-0.1376953
					h-1.8710938V401.2859497z"/>
				<path class="st4" d="M59.1336937,401.2312622h1.4375h0.1289062c0.3964844,0.0087891,0.6542969,0.2304688,0.6542969,0.5800781
					c0,0.3505859-0.2666016,0.5898438-0.6542969,0.5898438h-0.1289062h-1.4375v1.2539062h1.8710938h0.1474609
					c0.4326172,0.0087891,0.71875,0.2578125,0.71875,0.6445312c0,0.3876953-0.2949219,0.6455078-0.71875,0.6455078h-0.1474609
					h-2.2949219h-0.1660156c-0.5351562-0.0087891-0.8203125-0.2949219-0.8203125-0.8203125v-0.1660156v-4.1748047v-0.1660156
					c0.0087891-0.5341797,0.2949219-0.8203125,0.8203125-0.8203125h0.1660156h2.2480469h0.1484375
					c0.4326172,0.0097656,0.7089844,0.2578125,0.7089844,0.6455078c0,0.3867188-0.2851562,0.6445312-0.7089844,0.6445312h-0.1484375
					h-1.8242188V401.2312622z"/>
				<path class="st4" d="M64.2538071,404.0603638v0.15625c0,0.4794922-0.2763634,0.7929688-0.7001915,0.7929688
					s-0.7099609-0.3222656-0.7099609-0.7929688v-0.15625v-4.3779297v-0.15625
					c0.0087891-0.4794922,0.2861328-0.7832031,0.7099609-0.7832031s0.7001915,0.3125,0.7001915,0.7832031v0.15625V404.0603638z"/>
				<path class="st4" d="M69.7079086,399.6824341v-0.15625c0.0087891-0.4794922,0.2851562-0.7832031,0.7001953-0.7832031
					c0.4238281,0,0.7099609,0.3125,0.7099609,0.7832031v0.15625v4.4238281c0,0.3408203-0.0185547,0.4609375-0.1103516,0.5898438
					c-0.1386719,0.2119141-0.3779297,0.3408203-0.6367188,0.3408203c-0.2578125,0-0.3955078-0.0830078-0.6630859-0.4423828
					l-2.5068359-3.2158203v2.6816406v0.15625c0,0.4794922-0.2763672,0.7929688-0.7001953,0.7929688
					s-0.7099609-0.3222656-0.7099609-0.7929688v-0.15625v-4.4970703c0-0.2675781,0.0273438-0.3876953,0.1201172-0.5166016
					c0.1376953-0.203125,0.3310547-0.3037109,0.5527344-0.3037109c0.2578125,0,0.4238281,0.0917969,0.6630859,0.4052734
					l2.5810547,3.2529297V399.6824341z"/>
				<path class="st4" d="M74.0536118,401.2312622h1.4375h0.1289062c0.3964844,0.0087891,0.6542969,0.2304688,0.6542969,0.5800781
					c0,0.3505859-0.2666016,0.5898438-0.6542969,0.5898438h-0.1289062h-1.4375v1.2539062h1.8710938h0.1474609
					c0.4326172,0.0087891,0.71875,0.2578125,0.71875,0.6445312c0,0.3876953-0.2949219,0.6455078-0.71875,0.6455078h-0.1474609
					h-2.2949219H73.463768c-0.5351562-0.0087891-0.8203125-0.2949219-0.8203125-0.8203125v-0.1660156v-4.1748047v-0.1660156
					c0.0087891-0.5341797,0.2949219-0.8203125,0.8203125-0.8203125h0.1660156h2.2480469h0.1484375
					c0.4326172,0.0097656,0.7089844,0.2578125,0.7089844,0.6455078c0,0.3867188-0.2851562,0.6445312-0.7089844,0.6445312h-0.1484375
					h-1.8242188V401.2312622z"/>
				<path class="st4" d="M49.4999046,408.8318481h1.4472656h0.1289062c0.3955078,0.0097656,0.6542969,0.2402344,0.6542969,0.5898438
					c0,0.3408203-0.2675781,0.5810547-0.6542969,0.5810547h-0.1289062h-1.4472656v1.6035156v0.15625
					c0,0.4794922-0.2763672,0.7929688-0.7001953,0.7929688s-0.7099609-0.3222656-0.7099609-0.7929688v-0.15625v-4.2763672
					v-0.1660156c0.0087891-0.5341797,0.2949219-0.8203125,0.8203125-0.8203125h0.1660156h2.2949219h0.1376953
					c0.4423828,0.0097656,0.71875,0.2578125,0.71875,0.6455078c0,0.3867188-0.2851562,0.6445312-0.71875,0.6445312h-0.1376953
					h-1.8710938V408.8318481z"/>
				<path class="st4" d="M54.6112328,411.6062622v0.15625c0,0.4794922-0.2763672,0.7929688-0.7001953,0.7929688
					s-0.7099609-0.3222656-0.7099609-0.7929688v-0.15625v-4.2763672v-0.1660156
					c0.0087891-0.5341797,0.2949219-0.8203125,0.8203125-0.8203125h0.1660156h0.9492188
					c0.71875,0,1.1699219,0.1103516,1.5576172,0.3691406c0.6357422,0.4140625,1.0322266,1.1337891,1.0322266,1.8701172
					c0,0.8574219-0.5068359,1.5117188-1.4013672,1.8251953l1.0507812,0.7646484
					c0.2578125,0.1943359,0.3867188,0.40625,0.3867188,0.6542969c0,0.3964844-0.3037109,0.7197266-0.6904297,0.7197266
					c-0.1572266,0-0.3232422-0.0742188-0.4892578-0.203125l-1.9716797-1.6132812V411.6062622z M55.1454124,409.5144653
					c0.4150391,0,0.6181641-0.0371094,0.7832031-0.1386719c0.2675781-0.1660156,0.4335938-0.4609375,0.4335938-0.7832031
					c0-0.3505859-0.203125-0.6728516-0.5253906-0.8291016c-0.1748047-0.0830078-0.2763672-0.0927734-0.71875-0.0927734h-0.5068359
					v1.84375H55.1454124z"/>
				<path class="st4" d="M60.2752953,408.7771606h1.4375h0.1289062c0.3964844,0.0087891,0.6542969,0.2304688,0.6542969,0.5800781
					c0,0.3505859-0.2666016,0.5898438-0.6542969,0.5898438h-0.1289062h-1.4375v1.2539062h1.8710938h0.1474609
					c0.4326172,0.0087891,0.71875,0.2578125,0.71875,0.6445312c0,0.3876953-0.2949219,0.6455078-0.71875,0.6455078H62.146389
					h-2.2949219h-0.1660156c-0.5341797-0.0087891-0.8203125-0.2949219-0.8203125-0.8203125v-0.1660156v-4.1748047v-0.1660156
					c0.0087891-0.5341797,0.2949219-0.8203125,0.8203125-0.8203125h0.1660156h2.2490234h0.1464844
					c0.4335938,0.0097656,0.7099609,0.2578125,0.7099609,0.6455078c0,0.3867188-0.2851562,0.6445312-0.7099609,0.6445312h-0.1464844
					h-1.8251953V408.7771606z"/>
				<path class="st4" d="M65.3954086,408.7771606h1.4375h0.1289062c0.3964844,0.0087891,0.6542969,0.2304688,0.6542969,0.5800781
					c0,0.3505859-0.2666016,0.5898438-0.6542969,0.5898438h-0.1289062h-1.4375v1.2539062h1.8710938h0.1474609
					c0.4326172,0.0087891,0.71875,0.2578125,0.71875,0.6445312c0,0.3876953-0.2949219,0.6455078-0.71875,0.6455078h-0.1474609
					h-2.2949219h-0.1660156c-0.5351562-0.0087891-0.8203087-0.2949219-0.8203087-0.8203125v-0.1660156v-4.1748047v-0.1660156
					c0.0087891-0.5341797,0.2949181-0.8203125,0.8203087-0.8203125h0.1660156h2.2480469h0.1484375
					c0.4326172,0.0097656,0.7089844,0.2578125,0.7089844,0.6455078c0,0.3867188-0.2851562,0.6445312-0.7089844,0.6445312h-0.1484375
					h-1.8242188V408.7771606z"/>
			</g>
		</g>
		<g>
			<path class="st7" d="M171.2030029,402.8624268c4.6172791-3.3999634,9.6764374-4.3407898,15.7465515-4.2516174
				l24.913269,0.1180115l-4.4033508,23.9709778c-1.2824707,5.2785034-3.461853,10.1230774-8.1577911,13.5799866
				c-9.620163,7.0841675-23.7113037,5.3453369-31.4720001-3.8828125
				C160.0706482,423.1681519,161.5812073,409.9457703,171.2030029,402.8624268"/>
		</g>
		<g>
			<path class="st4" d="M171.0223694,409.446106h-0.2089844c-0.6689453,0-1.0878906-0.390625-1.0878906-0.9765625
				c0-0.5712891,0.4326172-0.9765625,1.0878906-0.9765625h0.2089844h1.2558594c0.8085938,0,1.1992188,0.4882812,1.1992188,1.4365234
				v6.5273438v0.2373047c0,0.7392578-0.4179688,1.1992188-1.0595703,1.1992188s-1.0742188-0.4882812-1.0742188-1.1992188v-0.2373047
				v-5.9970703L171.0223694,409.446106z"/>
			<path class="st4" d="M184.2303772,412.1375122c0,2.6503906-2.1337891,4.7978516-4.7841797,4.7978516
				c-2.6494141,0-4.7978516-2.1474609-4.7978516-4.7978516c0-2.6357422,2.1484375-4.7832031,4.7705078-4.7832031
				C182.0819397,407.3543091,184.2303772,409.50177,184.2303772,412.1375122z M176.7547913,412.1101685
				c0,1.5058594,1.1855469,2.7050781,2.6777344,2.7050781c1.4785156,0,2.6640625-1.1992188,2.6640625-2.6777344
				c0-1.4638672-1.2001953-2.6640625-2.6777344-2.6640625C177.9676819,409.4734497,176.7547913,410.6589966,176.7547913,412.1101685
				z"/>
			<path class="st4" d="M194.3690491,412.1375122c0,2.6503906-2.1337891,4.7978516-4.7841797,4.7978516
				c-2.6494141,0-4.7978516-2.1474609-4.7978516-4.7978516c0-2.6357422,2.1484375-4.7832031,4.7705078-4.7832031
				C192.2206116,407.3543091,194.3690491,409.50177,194.3690491,412.1375122z M186.8934631,412.1101685
				c0,1.5058594,1.1855469,2.7050781,2.6777344,2.7050781c1.4785156,0,2.6640625-1.1992188,2.6640625-2.6777344
				c0-1.4638672-1.2001953-2.6640625-2.6777344-2.6640625C188.1063538,409.4734497,186.8934631,410.6589966,186.8934631,412.1101685
				z"/>
			<path class="st4" d="M199.4169006,409.5291138c0,1.1855469-0.9482422,2.1337891-2.1201172,2.1337891
				c-1.1855469,0-2.1337891-0.9482422-2.1337891-2.1191406c0-1.171875,0.9482422-2.1337891,2.1201172-2.1337891
				C198.4686584,407.4099731,199.4169006,408.3582153,199.4169006,409.5291138z M196.4325256,409.5291138
				c0,0.4882812,0.3759766,0.8652344,0.8505859,0.8652344s0.8505859-0.3769531,0.8505859-0.8505859
				c0-0.4746094-0.3759766-0.8652344-0.8505859-0.8652344S196.4325256,409.0691528,196.4325256,409.5291138z
				 M200.9090881,408.2605591c0.3066406-0.6552734,0.515625-0.8652344,0.8652344-0.8652344
				c0.3203125,0,0.5292969,0.1953125,0.5292969,0.5166016c0,0.1533203-0.0693359,0.4179688-0.1669922,0.6416016
				l-0.0556641,0.0976562l-3.4453125,7.4052734l-0.0830078,0.1816406c-0.2099609,0.4462891-0.4609375,0.6835938-0.7255859,0.6835938
				c-0.3066406,0-0.5859375-0.2519531-0.5859375-0.5302734c0-0.1679688,0.0703125-0.390625,0.1679688-0.6279297l0.0830078-0.1669922
				L200.9090881,408.2605591z M204.3680725,414.7459106c0,1.1855469-0.9482422,2.1337891-2.1337891,2.1337891
				c-1.171875,0-2.1337891-0.9482422-2.1337891-2.1337891c0-1.171875,0.9619141-2.1201172,2.1201172-2.1201172
				C203.4051819,412.6257935,204.3680725,413.5740356,204.3680725,414.7459106z M201.3690491,414.7312622
				c0,0.4882812,0.3769531,0.8789062,0.8652344,0.8789062c0.4736328,0,0.8505859-0.390625,0.8505859-0.8642578
				c0-0.4746094-0.3769531-0.8505859-0.8642578-0.8505859C201.7596741,413.8953247,201.3690491,414.2713013,201.3690491,414.7312622
				z"/>
			<path class="st4" d="M175.2245178,418.9255981v-0.1337891c0.0078125-0.4091797,0.2441406-0.6689453,0.5986328-0.6689453
				c0.3623047,0,0.6064453,0.2675781,0.6064453,0.6689453v0.1337891v3.7792969c0,0.2919922-0.015625,0.3935547-0.0947266,0.5039062
				c-0.1181641,0.1816406-0.3232422,0.2919922-0.5429688,0.2919922c-0.2207031,0-0.3388672-0.0712891-0.5673828-0.3779297
				l-2.1416016-2.7480469v2.2910156v0.1337891c0,0.4091797-0.2363281,0.6767578-0.5986328,0.6767578
				s-0.6054688-0.2753906-0.6054688-0.6767578v-0.1337891v-3.8427734c0-0.2275391,0.0234375-0.3300781,0.1015625-0.4404297
				c0.1181641-0.1728516,0.2841797-0.2597656,0.4726562-0.2597656c0.2207031,0,0.3623047,0.0791016,0.5673828,0.3466797
				l2.2041016,2.7792969V418.9255981z"/>
			<path class="st4" d="M178.2440491,422.524231l-0.1650391,0.3857422l-0.0478516,0.1181641
				c-0.1337891,0.2910156-0.3222656,0.4248047-0.5898438,0.4248047c-0.3232422,0-0.6064453-0.2597656-0.6064453-0.5742188
				c0-0.1025391,0.03125-0.2207031,0.0869141-0.3388672l0.0546875-0.1181641l1.7402344-3.8974609
				c0.1103516-0.2441406,0.3066406-0.3701172,0.5742188-0.3701172c0.2519531,0,0.4726562,0.1337891,0.5751953,0.3701172
				l1.7871094,3.8818359c0.1181641,0.2519531,0.1337891,0.3310547,0.1337891,0.4726562
				c0,0.3144531-0.2832031,0.5820312-0.6064453,0.5820312c-0.2675781,0-0.4638672-0.1416016-0.5898438-0.4169922
				l-0.0556641-0.1259766l-0.1806641-0.3935547H178.2440491z M179.2997131,419.9734497l-0.6220703,1.5117188h1.2597656
				L179.2997131,419.9734497z"/>
			<path class="st4" d="M183.8934631,422.6658325v0.1337891c-0.0078125,0.4091797-0.2441406,0.6767578-0.6064453,0.6767578
				c-0.3535156,0-0.5976562-0.2753906-0.5976562-0.6767578v-0.1337891v-3.3935547h-0.8583984h-0.1181641
				c-0.3779297-0.0078125-0.6142578-0.2207031-0.6142578-0.5507812c0-0.3232422,0.2441406-0.5517578,0.6142578-0.5517578h0.1181641
				h2.9130859h0.1259766c0.3701172,0.0078125,0.6142578,0.2207031,0.6142578,0.5517578
				c0,0.3300781-0.2519531,0.5507812-0.6142578,0.5507812h-0.1259766h-0.8505859V422.6658325z"/>
			<path class="st4" d="M185.7489319,418.9255981v-0.1337891c0-0.4091797,0.2363281-0.6689453,0.5986328-0.6689453
				s0.6064453,0.2675781,0.6064453,0.6689453v0.1337891v2.4492188c0,0.5351562,0.4013672,0.9521484,0.9208984,0.9521484
				c0.2998047,0,0.5908203-0.1494141,0.7558594-0.3935547c0.1181641-0.1650391,0.1660156-0.3222656,0.1660156-0.5908203v-2.4169922
				v-0.1337891c0.0078125-0.4091797,0.2431641-0.6689453,0.5976562-0.6689453c0.3623047,0,0.6064453,0.2675781,0.6064453,0.6689453
				v0.1337891v2.4169922c0,1.2207031-0.9130859,2.1582031-2.1103516,2.1582031
				c-1.1962891,0-2.1416016-0.9453125-2.1416016-2.1259766V418.9255981z"/>
			<path class="st4" d="M192.0370178,422.6658325v0.1337891c0,0.4091797-0.2363281,0.6767578-0.5986328,0.6767578
				c-0.3613281,0-0.6054688-0.2753906-0.6054688-0.6767578v-0.1337891v-3.6533203v-0.1416016
				c0.0078125-0.4570312,0.2519531-0.7011719,0.7001953-0.7011719h0.1416016h0.8115234c0.6142578,0,1,0.0947266,1.3300781,0.3154297
				c0.5439453,0.3544922,0.8818359,0.96875,0.8818359,1.5976562c0,0.7324219-0.4326172,1.2919922-1.1962891,1.5595703
				l0.8974609,0.6533203c0.2207031,0.1650391,0.3300781,0.3466797,0.3300781,0.5585938
				c0,0.3388672-0.2597656,0.6142578-0.5898438,0.6142578c-0.1337891,0-0.2753906-0.0625-0.4179688-0.1728516l-1.6845703-1.3779297
				V422.6658325z M192.4940491,420.8787231c0.3544922,0,0.5273438-0.03125,0.6689453-0.1181641
				c0.2285156-0.1416016,0.3701172-0.3935547,0.3701172-0.6689453c0-0.2998047-0.1728516-0.5751953-0.4492188-0.7089844
				c-0.1494141-0.0712891-0.2353516-0.0791016-0.6132812-0.0791016h-0.4335938v1.5751953H192.4940491z"/>
			<path class="st4" d="M196.1835022,422.524231l-0.1650391,0.3857422l-0.0478516,0.1181641
				c-0.1337891,0.2910156-0.3222656,0.4248047-0.5898438,0.4248047c-0.3232422,0-0.6064453-0.2597656-0.6064453-0.5742188
				c0-0.1025391,0.03125-0.2207031,0.0869141-0.3388672l0.0546875-0.1181641l1.7402344-3.8974609
				c0.1103516-0.2441406,0.3066406-0.3701172,0.5742188-0.3701172c0.2519531,0,0.4726562,0.1337891,0.5751953,0.3701172
				l1.7871094,3.8818359c0.1181641,0.2519531,0.1337891,0.3310547,0.1337891,0.4726562
				c0,0.3144531-0.2832031,0.5820312-0.6064453,0.5820312c-0.2675781,0-0.4638672-0.1416016-0.5898438-0.4169922
				l-0.0556641-0.1259766l-0.1806641-0.3935547H196.1835022z M197.2391663,419.9734497l-0.6220703,1.5117188h1.2597656
				L197.2391663,419.9734497z"/>
			<path class="st4" d="M202.7870178,422.3191528h0.1259766c0.3691406,0.0078125,0.6054688,0.2207031,0.6054688,0.5517578
				c0,0.3300781-0.2441406,0.5507812-0.6054688,0.5507812h-0.1259766h-1.8037109h-0.1416016
				c-0.4560547-0.0078125-0.7001953-0.2519531-0.7001953-0.7011719v-0.1416016v-3.6533203v-0.1337891
				c0.0078125-0.4091797,0.2441406-0.6689453,0.6054688-0.6689453c0.3623047,0,0.5986328,0.2675781,0.5986328,0.6689453v0.1337891
				v3.3935547H202.7870178z"/>
			<path class="st4" d="M175.1532288,426.8787231h1.1738281h0.1054688c0.3212891,0.0078125,0.5302734,0.2050781,0.5302734,0.5039062
				c0,0.2919922-0.2167969,0.4960938-0.5302734,0.4960938h-0.1054688h-1.1738281v1.3701172v0.1337891
				c0,0.4091797-0.2236328,0.6767578-0.5683594,0.6767578c-0.34375,0-0.5751953-0.2753906-0.5751953-0.6767578v-0.1337891V425.59552
				v-0.1416016c0.0078125-0.4570312,0.2392578-0.7011719,0.6650391-0.7011719h0.1347656h1.8623047h0.1113281
				c0.359375,0.0078125,0.5839844,0.2207031,0.5839844,0.5517578c0,0.3300781-0.2324219,0.5507812-0.5839844,0.5507812h-0.1113281
				h-1.5185547V426.8787231z"/>
			<path class="st4" d="M180.3710022,428.9021606h0.1201172c0.3515625,0.0078125,0.5751953,0.2207031,0.5751953,0.5517578
				c0,0.3300781-0.2314453,0.5507812-0.5751953,0.5507812h-0.1201172h-1.7119141h-0.1347656
				c-0.4335938-0.0078125-0.6650391-0.2519531-0.6650391-0.7011719v-0.1416016v-3.6533203v-0.1337891
				c0.0078125-0.4091797,0.2314453-0.6689453,0.5751953-0.6689453c0.3447266,0,0.5683594,0.2675781,0.5683594,0.6689453v0.1337891
				v3.3935547H180.3710022z"/>
			<path class="st4" d="M182.3524475,429.1072388l-0.1572266,0.3857422l-0.0449219,0.1181641
				c-0.1269531,0.2910156-0.3066406,0.4248047-0.5605469,0.4248047c-0.3066406,0-0.5761719-0.2597656-0.5761719-0.5742188
				c0-0.1025391,0.0302734-0.2207031,0.0830078-0.3388672l0.0517578-0.1181641l1.6523438-3.8974609
				c0.1044922-0.2441406,0.2919922-0.3701172,0.5458984-0.3701172c0.2392578,0,0.4482422,0.1337891,0.5458984,0.3701172
				l1.6972656,3.8818359c0.1123047,0.2519531,0.1269531,0.3310547,0.1269531,0.4726562
				c0,0.3144531-0.2685547,0.5820312-0.5751953,0.5820312c-0.2548828,0-0.4414062-0.1416016-0.5615234-0.4169922
				l-0.0517578-0.1259766l-0.171875-0.3935547H182.3524475z M183.3544006,426.5564575l-0.5908203,1.5117188h1.1962891
				L183.3544006,426.5564575z"/>
			<path class="st4" d="M188.4520569,425.2566528c0.1572266-0.4248047,0.3066406-0.5585938,0.5976562-0.5585938
				c0.2998047,0,0.5615234,0.2675781,0.5615234,0.5742188c0,0.1025391-0.0224609,0.2207031-0.0673828,0.3310547
				l-0.0527344,0.1181641l-1.5927734,3.8505859c-0.1347656,0.3144531-0.3066406,0.4560547-0.5527344,0.4560547
				c-0.2548828,0-0.4492188-0.1494141-0.5761719-0.4560547l-1.5771484-3.8427734l-0.0527344-0.1181641
				c-0.0527344-0.1181641-0.0742188-0.2363281-0.0742188-0.3388672c0-0.3066406,0.2685547-0.5742188,0.5751953-0.5742188
				c0.2919922,0,0.4414062,0.1416016,0.5986328,0.5664062l1.0986328,2.8896484L188.4520569,425.2566528z"/>
			<path class="st4" d="M194.0360413,425.4851685c0.4853516,0.4882812,0.7548828,1.1728516,0.7548828,1.9052734
				c0,1.4804688-1.1591797,2.6933594-2.5722656,2.6933594c-1.4277344,0-2.5791016-1.2050781-2.5791016-2.7011719
				s1.1435547-2.7080078,2.5644531-2.7080078C192.8622131,424.6746216,193.5272522,424.9734497,194.0360413,425.4851685z
				 M190.7752991,427.3904419c0,0.8271484,0.6513672,1.5039062,1.4433594,1.5039062
				c0.7929688,0,1.4277344-0.6689453,1.4277344-1.5039062c0-0.8339844-0.6425781-1.5195312-1.4277344-1.5195312
				S190.7752991,426.56427,190.7752991,427.3904419z"/>
			<path class="st4" d="M196.5536194,429.2488403v0.1337891c0,0.4091797-0.2236328,0.6767578-0.5683594,0.6767578
				c-0.34375,0-0.5751953-0.2753906-0.5751953-0.6767578v-0.1337891V425.59552v-0.1416016
				c0.0078125-0.4570312,0.2392578-0.7011719,0.6650391-0.7011719h0.1347656h0.7705078
				c0.5830078,0,0.9492188,0.0947266,1.2636719,0.3154297c0.515625,0.3544922,0.8369141,0.9677734,0.8369141,1.5986328
				c0,0.7314453-0.4111328,1.2910156-1.1367188,1.5585938l0.8525391,0.6533203
				c0.2099609,0.1650391,0.3144531,0.3466797,0.3144531,0.5595703c0,0.3378906-0.2470703,0.6132812-0.5605469,0.6132812
				c-0.1279297,0-0.2617188-0.0625-0.3964844-0.1728516l-1.6005859-1.3779297V429.2488403z M196.9872131,427.461731
				c0.3369141,0,0.5009766-0.03125,0.6357422-0.1181641c0.2167969-0.1416016,0.3515625-0.3935547,0.3515625-0.6689453
				c0-0.2998047-0.1640625-0.5751953-0.4257812-0.7089844c-0.1425781-0.0712891-0.2246094-0.0791016-0.5839844-0.0791016h-0.4111328
				v1.5751953H196.9872131z"/>
			<path class="st4" d="M202.8104553,425.6902466c0,0.3066406-0.2236328,0.5585938-0.5009766,0.5585938
				c-0.0966797,0-0.2011719-0.0390625-0.2841797-0.1025391c-0.0146484-0.0078125-0.1123047-0.09375-0.2539062-0.2119141
				c-0.1943359-0.1660156-0.3964844-0.2519531-0.5830078-0.2519531c-0.3066406,0-0.5605469,0.2197266-0.5605469,0.4804688
				c0,0.2597656,0.1494141,0.3857422,0.6054688,0.5039062c0.4335938,0.109375,0.7470703,0.2197266,0.9941406,0.3457031
				c0.5234375,0.2597656,0.8076172,0.7402344,0.8076172,1.3466797c0,1.0234375-0.7402344,1.7246094-1.8173828,1.7246094
				c-0.9716797,0-1.8310547-0.5986328-1.8310547-1.2763672c0-0.3066406,0.2392578-0.5742188,0.515625-0.5742188
				c0.2089844,0,0.3662109,0.0791016,0.6132812,0.3066406c0.2910156,0.2841797,0.5302734,0.4023438,0.7851562,0.4023438
				c0.3359375,0,0.5908203-0.2441406,0.5908203-0.5673828c0-0.2753906-0.1796875-0.4482422-0.5839844-0.5751953
				l-0.4931641-0.1494141c-0.3662109-0.1103516-0.6650391-0.2441406-0.8525391-0.3857422
				c-0.2988281-0.2119141-0.4628906-0.5898438-0.4628906-1.046875c0-0.9052734,0.7099609-1.5429688,1.734375-1.5429688
				C202.1004944,424.6746216,202.8104553,425.1306763,202.8104553,425.6902466z"/>
		</g>
		<g>
			<g>
				<path class="st8" d="M47.8605881,449.9394226c0.6042938,0.7448425,1.4335518,1.0792542,1.8416786,0.7448425
					c0.4082947-0.3294678,0.2508011-1.2125549-0.3534927-1.9557495l-22.9751759-28.2642212
					c-0.6011677-0.7433472-1.4304256-1.0783997-1.8418446-0.7458496c-0.4114208,0.3344421-0.2555752,1.2134094,0.3470726,1.958374
					L47.8605881,449.9394226z"/>
				<path class="st9" d="M15.5608206,416.9246216c-0.4306746,4.1582947,2.6003389,7.8844299,6.756341,8.3119812
					c4.1527081,0.4315186,7.8844528-2.6011658,8.3120003-6.7538757c0.4275494-4.1551514-2.603466-7.8877258-6.7594662-8.3144531
					C19.7168217,409.7367859,15.988369,412.7717285,15.5608206,416.9246216"/>
				<path class="st4" d="M19.2861481,417.3095398c-0.2152557,2.1003723,1.3178596,3.9840088,3.4151154,4.1992798
					c2.1005459,0.2185364,3.9808998-1.3137512,4.1994457-3.4126587c0.2152557-2.098053-1.3147335-3.979248-3.4136333-4.2002563
					C21.3898201,413.6814575,19.504694,415.2137756,19.2861481,417.3095398"/>
			</g>
			<path class="st8" d="M37.2826462,434.68396c-0.2603455,0.8677673-0.2603455,1.644043,0.0064201,1.7212219
				c0.2618256,0.077179,0.691021-0.5649719,0.9561386-1.4335327l2.9329338-9.7166138
				c0.2572174-0.866272,0.2572174-1.6440125-0.0031281-1.7244873c-0.2667656-0.0811462-0.6990852,0.5674133-0.9627228,1.4351807
				L37.2826462,434.68396z"/>
			<path class="st8" d="M34.6196098,434.2059021c0.9433022-0.1647339,1.6761398-0.5384827,1.6183586-0.8269653
				c-0.0482178-0.2828979-0.8582191-0.3807983-1.8064613-0.215271l-7.9326725,1.2003784
				c-0.9433041,0.1671753-1.6746445,0.5393066-1.6264267,0.8228455c0.0515099,0.2909546,0.8646564,0.3873901,1.8097553,0.2234802
				L34.6196098,434.2059021z"/>
			<path class="st7" d="M47.384819,425.4551697c-0.9240494,3.2487183-4.3037834,5.1322021-7.5502167,4.2081299
				c-3.2462654-0.9256592-5.1266212-4.3118286-4.2009277-7.5597229c0.9803314-3.4473877,9.1926079-9.9593506,9.1926079-9.9593506
				S48.3701057,422.0054932,47.384819,425.4551697"/>
			<path class="st10" d="M42.5442162,420.8330994c1.7518272,0.5842285,2.6934853,2.4708252,2.1117363,4.2193604
				c-0.5784569,1.752655-2.4716454,2.6984253-4.2201805,2.1150208c-1.7485352-0.5800781-2.7000542-2.4718018-2.1150284-4.2210083
				C38.9025078,421.1954956,40.795681,420.2505188,42.5442162,420.8330994"/>
			<path class="st10" d="M43.6917496,416.6851501c0.7649269,0.2562561,1.1748505,1.080719,0.9192772,1.8450012
				c-0.2539291,0.7593079-1.0767708,1.1707153-1.8418465,0.9184265c-0.7616196-0.2522583-1.1730385-1.0800476-0.9192619-1.8418274
				C42.1023521,416.8434448,42.92519,416.4335327,43.6917496,416.6851501"/>
			<g>
				<path class="st7" d="M24.1428795,430.0016785c2.762619-0.4387512,5.3451691,1.4375,5.7824421,4.1889038
					c0.4434948,2.7609558-1.43997,5.3460083-4.1963367,5.7872009c-2.9248676,0.4619446-10.6646662-3.4215088-10.6646662-3.4215088
					S21.2163811,430.465271,24.1428795,430.0016785"/>
				<path class="st10" d="M22.3670254,435.2416992c-0.1752644-1.5179749,0.9143391-2.8832397,2.4250736-3.0560303
					c1.5171528-0.1736145,2.8832321,0.9128418,3.0566864,2.4283447c0.1769104,1.5090942-0.912859,2.8807678-2.4234276,3.0575256
					C23.908205,437.8435059,22.5421257,436.7547302,22.3670254,435.2416992"/>
			</g>
		</g>
		<g>
			<g>
				<ellipse class="st4" cx="114.2988739" cy="465.2122498" rx="68.7641754" ry="64.4619446"/>
				<ellipse class="st0" cx="114.2980957" cy="465.2124023" rx="63.7018127" ry="59.7158203"/>
			</g>
		</g>
		<g>
			<path class="st4" d="M69.9036484,434.1455078c-3.9598312-4.1912231-12.2252617-4.8116455-20.0935745-1.0743103
				c-3.5485954,1.6835327-21.3151932,10.8014221-22.7069454,25.1094666c0,0.0055847-0.062685,0.8710632-0.062685,0.8710632
				c-0.0594254,1.1764832-0.0883884,2.347229-0.0883884,3.5090637c0,21.3327942,9.8709545,40.0565186,20.1210728,49.5231323
				c5.6344795,5.1990356,10.2083359,8.2991333,14.2244377,6.5280762c2.299839-1.017334,4.0113487-3.2559814,4.5529518-7.4786072
				c0.5432281-4.2243042,0.2427216-9.4024658,0.2427216-9.4024658c4.3697815,5.5606079,11.7817535,7.7559509,17.6540527,6.4790649
				c4.7667007-1.0374146,10.3113251-4.8768005,11.2289581-10.8616333l0.2007675-1.3265991
				c0,0,1.5026703,0.3864136,1.5926895,0.4120789c3.0293732,0.5376587,7.394371,0.4147034,9.7776489-1.7082214
				c0.7522354-0.6742249,1.2744141-1.4745178,1.5477753-2.3865662l0.3567657-1.1940918l1.1827545,0.388031
				c2.6195908,0.8598938,5.3548737,0.638855,7.9101257-0.6347351c1.6264267-0.8043823,2.9732513-1.9116211,4.0065689-3.2929993
				l0.8276138-1.1065369l0.9900436,0.9602356c0.93853,0.910553,1.8064651,1.5341187,2.7321548,1.9622803
				c3.937294,1.8361206,8.6911697,1.0614624,12.1110611-1.9807129c1.1893311-1.0614624,2.4492798-2.9594116,3.5388641-5.3459778
				l0.633255-1.3781128l1.3000946,0.9954834l0.6926575,0.5256348c1.3516083,0.7857971,3.5887451,1.1514893,6.622879-1.5405273
				c2.2628174-2.0152893,4.191391-4.875824,5.7325592-8.5015869l0.7394104-1.7452393l1.276062,1.4029541
				c0.7746429,0.8526306,1.4945984,1.4937744,2.2628021,2.0169373c3.6576996,2.4838257,8.5754852,3.1700745,12.2236481,1.7067261
				c1.1152496-0.4499512,2.098877-1.0430298,3.011734-1.8168335l0.7102814-0.6001587l0.7649078,0.5262756
				c1.9542694,1.3443604,4.4003906,2.3294373,7.4827423,3.0109253c3.1467133,0.693512,4.7265625-0.7754211,5.3838501-1.7147827
				c1.1249847-1.5943298,1.0784149-3.8554993-0.118988-5.7640076c-1.1119843-1.7636719-0.5784607-3.7332153,0.5336914-7.3476257
				c0.7777557-2.5142822,1.6552277-5.3637695,1.880188-8.7457886c0.6605835-10.1120605-3.3170319-15.23703-6.7722931-17.7554321
				c-5.7180786-4.1607971-12.9837646-3.5614014-17.4708557-1.784729c-0.0064392,0.0024719-0.9851227,0.4629211-0.9851227,0.4629211
				l-1.5750885,0.7866516l-0.4917145-1.2030029c-0.5463715-1.3065186-1.39505-2.4145508-2.5198669-3.2944946
				c-2.4188232-1.8786926-5.824234-2.466217-10.1248932-1.7453918l-0.7344666,0.1222534l-0.441864-0.5995178
				c-7.1774597-9.7366638-12.9164429-7.8676453-14.5025482-7.0632629v0.0016479
				c-2.4380798,1.2309875-3.9600067,3.741272-4.2813873,7.0704956c-0.0337524,0.3317871-0.048233,0.6829529-0.048233,1.0550537
				c0,0.9826355,0.1125641,2.1109314,0.3439484,3.4182434l0.2249603,1.2801819l-2.9120331,0.3085632
				c-1.8706512,0.1862793-3.4842377,0.3470764-4.5771332,0.5776367c-2.0651627,0.432312-3.5612488,1.795929-4.0049057,3.6473083
				c0,0.0194397-0.1028748,0.638855-0.1028748,0.638855c0.0064163-0.0627136,0.0097122,0.7506104,0.0097122,0.7506104v1.0895996
				l-1.0784149,0.2232971l-0.7793961,0.0852661c-3.6963654,0.6291504-7.338089,2.8582153-9.912735,6.1077881l-0.6202774,0.7802124
				l-0.8871689-0.4563599c-1.5573273-0.8019409-2.9441223-1.0196533-4.2443924-0.6653442
				c-1.5283432,0.4211426-2.7336349,1.4165955-3.4054031,2.8004456c-0.2539291,0.5294189-0.4275513,1.1434326-0.5142746,1.8263855
				l-0.3567886,2.8317261l-1.793457-2.2218323c-1.4047546-1.7429504-3.0181808-3.1556091-4.7925491-4.195343
				c-5.8884125-3.4624939-12.7732773-2.8799438-17.2537918-1.1812744c-2.259697,0.8565979-6.0701065,2.2002869-9.2184601,5.980072
				C72.307991,446.5042419,75.0672989,439.6129456,69.9036484,434.1455078z"/>
			<path class="st11" d="M110.5137711,453.7008057c2.7787323-8.8486633,15.3253937-14.7492676,25.3104019-1.3812256
				c9.4239807,12.6182556,4.4147034,28.6394348,0.0641785,32.507782
				c-4.7987976,4.2669067-12.3779831,1.7292786-12.1689835-5.3805847c0.1477814-5.1547546,2.0699387-6.0845642,3.4713974-14.5869446
				c1.282486-7.7913208-0.3921661-14.9195862-7.5148315-12.8705444c-4.604454,1.3242798-5.3966827,7.5276794-2.3174515,15.5238647
				c3.6094742,9.3686829,4.8534393,17.1606445-1.3660736,20.254364c-5.123497,2.5489807-10.5812302-0.8983765-11.0023651-8.9628601
				c-0.5062103-9.7029419,1.7454071-18.6850586-0.6009827-24.2342834c-0.7200012-1.7044373-0.7938919-3.755127,0.9192581-4.2307434
				C106.9250565,449.8984375,109.2553406,452.2947083,110.5137711,453.7008057 M104.8180695,490.7126465
				c-0.0964355-1.558136-4.7938614-2.9515381-4.4660416-12.525116c0.1413651-3.5202942,0.1156921-8.4798889-0.6075897-13.3606262
				c-2.4732895-16.795166-15.6081238-17.2394714-22.2295151-14.7339478
				c-4.7698441,1.8079529-8.058075,5.7677917-9.0704956,7.8819885c-1.0511017,2.1992798-0.4563522,4.4517517,2.1872711,3.1619873
				c2.4830017-1.2197571,6.062027-1.8689575,8.0628433,0.3874207c1.8706436,2.1059875,1.9349899,4.8919373,2.33358,7.546936
				c-1.3708572,0.2731628-5.4128113,1.5595703-6.8109589,2.4813538
				c-6.1069717,4.0241699-13.4804459,12.3546143-7.9117966,23.9507446
				c2.7079697,5.6489563,9.0721436,10.9491882,16.6995468,9.2842407c4.15271-0.8992004,9.5075836-4.6742249,8.5320282-10.5698547
				c-0.7826843-4.7394104-7.9245911-4.5127869-11.8395157-4.7522278c-8.3505173-0.5142822-6.2162323-8.1737671-3.4231644-10.9870605
				c3.6160355-3.6520996,8.0162506-0.8983765,9.2312622,2.4573364c2.2193756,6.1671753,4.480545,10.7337646,11.8539963,12.047699
				C100.7023926,493.5828552,104.9676666,493.0621643,104.8180695,490.7126465z M66.3567123,467.3804932
				c-1.6922531-3.1819153-7.8409882-1.4045715-14.0541077,1.9703979c-1.5556602-2.98526-3.1723747-7.3122559-3.1723747-7.3122559
				s10.656765-5.1725464,17.6846581-15.7425842c7.5951309-11.4248047-5.338932-14.8922424-15.5054512-10.0653076
				c-6.9297943,3.2849426-20.1949635,11.6716309-20.7735691,22.9728699
				c-1.0799103,21.1029053,8.3924618,40.5948181,18.9093456,50.3114014
				c9.7197151,8.9667969,12.5402451,7.5164795,12.483963-1.0318604c-0.0546188-10.0282593-1.93647-19.4323425-4.2362938-26.5518799
				C63.2325554,477.1453247,68.0330048,470.5176697,66.3567123,467.3804932 M169.9269409,436.8374939
				c-3.149826,1.2390442-5.1893158,3.1193848-6.5730133,4.8983765c-1.1314087,1.4472046,0.0513458,2.9008484,1.4495239,2.5504761
				c3.1676025-0.7738037,8.2542267-0.7359314,9.051239,5.5599365c-10.6983948,0.3414612-14.9171143,5.9181824-14.9477234,13.1445312
				c-0.0273132,8.4010315,8.6704407,11.0818481,13.0257416,9.3372803c2.0666351-0.8268127,3.3362732-1.8851318,3.5966187-3.9896545
				c0.5368195-4.4477539-4.9723969-4.4010315-6.2033691-4.833374c-4.2605133-1.4922791-2.8704071-6.4373779-0.1784058-7.796051
				c2.3832703-1.2046509,5.7164307,0.2080078,6.1085968,3.8466187c0.7520752,6.9217224,0.7296906,11.5237122,10.7016907,13.7207031
				c2.3834381,0.5293884,2.1471252-1.244812,1.54776-2.1994934c-3.2689819-5.1868286,1.3772736-10.4316101,1.8851318-18.1835938
				C190.4851074,436.2139587,177.5574646,433.8112793,169.9269409,436.8374939 M162.7850189,436.9805298
				c0.086731-2.4991455-2.1696472-7.2087402-12.1015167-4.3391724c-9.4611664-15.1921082-17.816452-8.7677002-12.7090912,4.020874
				c-2.6034698,0.7746277-8.9789886,1.0479736-11.2432861,1.5219421c-2.0603867,0.433136-1.5686417,2.3424683,0.167038,3.7261353
				c3.2143402,2.5610046,11.3976593,3.4560852,14.5797424,3.7814636c4.5289154,11.2297668,5.7180786,24.8267212,4.419632,31.0212097
				c-0.7393951,3.5187988,1.0413971,2.909729,2.7770844,1.3669128c7.7300873-6.8792725,9.2279968-23.0676575,7.061615-34.0129089
				C161.5474701,441.666748,162.7239685,439.1243286,162.7850189,436.9805298"/>
			<g>
				
					<ellipse transform="matrix(0.0028145 -0.9999961 0.9999961 0.0028145 -274.8487549 657.6602783)" class="st4" cx="192.3325653" cy="466.6418457" rx="4.1206365" ry="4.1222844"/>
				<path class="st12" d="M192.2464752,464.1590881c1.4625244-0.085083,2.6582947,0.9819641,2.7433472,2.3985901
					c0.0852509,1.4432373-0.9819489,2.629303-2.4540253,2.7145386c-1.4625244,0.085907-2.6903687-0.9643555-2.7770691-2.4074707
					c-0.0836182-1.4159241,1.0140381-2.6204224,2.4718018-2.703186L192.2464752,464.1590881z M192.2433472,464.6741943
					c-1.1154175,0.065979-1.9028931,1.0293579-1.8321381,2.1518555c0.0610657,1.1314392,0.9546661,1.9873657,2.1053314,1.9174194
					c1.1185608-0.0531616,1.8898926-1.0157166,1.8257141-2.1479492c-0.0676422-1.1217041-0.9482269-1.990448-2.0796509-1.924469
					L192.2433472,464.6741943z M192.0536041,468.0491333l-0.5865173,0.0370483l-0.1479492-2.5345154
					c0.2266083-0.0562744,0.5513-0.1245728,0.9691467-0.1477966c0.4821777-0.0314331,0.7038574,0.0354004,0.9031372,0.1510925
					c0.1415405,0.1028442,0.2667847,0.2957153,0.2797699,0.5279236c0.0159607,0.2965698-0.1864471,0.5263062-0.4950104,0.6355591
					l0.0031433,0.0321045c0.2507782,0.0618591,0.4018555,0.2555542,0.5014191,0.5947266
					c0.0997314,0.3824768,0.1543579,0.5399475,0.2234802,0.6074219l-0.6365509,0.0354004
					c-0.0883484-0.0860596-0.1430054-0.2981873-0.2394409-0.5881653c-0.0610657-0.2764893-0.2233276-0.3938293-0.5527954-0.3745728
					l-0.276474,0.0177917L192.0536041,468.0491333z M191.9877777,466.6195374l0.28125-0.0151367
					c0.3213959-0.0192566,0.5817413-0.142334,0.5689087-0.4091187c-0.0161285-0.2322083-0.194519-0.3752136-0.5689087-0.3526611
					c-0.1575012,0.010376-0.2636414,0.0289307-0.3246918,0.0505066L191.9877777,466.6195374z"/>
			</g>
		</g>
		<g>
			<g>
				<path class="st7" d="M115.7546082,412.2638855c-4.5322037-1.6496277-8.4276962-1.8729553-11.8572922-1.2911987
					c1.5652084,1.0840149,1.6456757,2.8944092,1.6456757,2.8944092s-3.2431412-2.7932129-8.2542343-0.6363831
					c-1.0445175,0.5366516-2.0376816,1.1225281-2.989212,1.7324219
					c-5.8081055,3.9237976-12.5965347,14.5660706-19.111618,14.1409912
					c-0.0482178-0.0016479-1.9800797-0.1013794-2.0152969-0.0997314c0.3952942,0.194519,2.4908981,1.428772,2.5359955,1.4246826
					c2.3816223,0.9136658,6.4862823,3.2279968,14.8303909-1.0542297
					c9.3146973-4.7859802,10.9235153-10.0862122,19.404213-10.6551208c2.0426025-0.1357727,3.9519196,0.1992798,5.7244797,0.8437195
					c6.4026871,2.324707,11.0601273,8.6696167,12.6511841,11.6603088c-0.0031433-0.0136414-0.0031433-0.0385132,0-0.0385132
					C128.3188934,431.1852417,127.3772202,416.4842224,115.7546082,412.2638855"/>
				<path class="st7" d="M109.9432297,418.7213745c-8.4806976,0.5672607-10.0895157,5.8674927-19.4075012,10.6542969
					c-8.3408203,4.2814026-12.4454803,1.9670715-14.8271027,1.0541992c-0.0450974,0.0032959-2.1407013-1.230957-2.5359955-1.4238281
					c0,0,5.9205017,8.649353,16.4872437,10.3361816c2.6502075,0.4250793,7.5100632-0.507843,9.4643097-3.8161621
					c0.3245468,2.3704529-0.3439484,3.4794617-1.0542221,4.358429c10.1021729-2.0200806,15.6821823-8.942627,20.8441849-10.3786621
					c6.4380646-1.7919617,9.404747,1.717926,9.404747,1.717926c-1.9221497-3.6192017-8.323204-12.1288147-16.8682175-12.5193481
					C110.952507,418.6820374,110.4542007,418.6876221,109.9432297,418.7213745"/>
				
					<linearGradient id="SVGID_1_" gradientUnits="userSpaceOnUse" x1="62.3521461" y1="-22.9939156" x2="117.5399551" y2="-22.9939156" gradientTransform="matrix(0.999 0.0456 -0.0456 0.999 9.8868532 447.982666)">
					<stop  offset="0" style="stop-color:#FFFFFF"/>
					<stop  offset="1" style="stop-color:#D3D5E0"/>
				</linearGradient>
				<path class="st13" d="M109.9432297,418.7213745c-8.4806976,0.5672607-10.0895157,5.8674927-19.4075012,10.6542969
					c-8.3408203,4.2814026-12.4454803,1.9670715-14.8271027,1.0541992c-0.0450974,0.0032959-2.1407013-1.230957-2.5359955-1.4238281
					c0,0,5.9205017,8.649353,16.4872437,10.3361816c2.6502075,0.4250793,7.5100632-0.507843,9.4643097-3.8161621
					c0.3245468,2.3704529-0.3439484,3.4794617-1.0542221,4.358429c10.1021729-2.0200806,15.6821823-8.942627,20.8441849-10.3786621
					c6.4380646-1.7919617,9.404747,1.717926,9.404747,1.717926c-1.9221497-3.6192017-8.323204-12.1288147-16.8682175-12.5193481
					C110.952507,418.6820374,110.4542007,418.6876221,109.9432297,418.7213745"/>
			</g>
		</g>
		<g>
			<g>
				<path class="st7" d="M115.719223,412.2607422c-4.5320358-1.6496277-8.4245682-1.8722839-11.8541641-1.2905273
					c1.5637283,1.0831909,1.6425552,2.8927612,1.6425552,2.8927612s-3.2400208-2.7922058-8.2492828-0.6355591
					c-1.0461807,0.5360107-2.0395126,1.1217041-2.9908829,1.7315979
					c-5.8033218,3.9214783-12.5901108,14.5604858-19.1053543,14.1362305
					c-0.0482178-0.000824-1.9766312-0.1020508-2.0120087-0.0989075c0.3952866,0.1928711,2.4877701,1.428772,2.5326996,1.4239807
					c2.3850861,0.9135437,6.4862976,3.2262268,14.8272476-1.0543518
					c9.3115921-4.7843323,10.9187622-10.0829163,19.3977966-10.6510315c2.0411377-0.1357422,3.9502945,0.1984863,5.7245178,0.842926
					c6.3995438,2.3238525,11.055336,8.6671143,12.6480179,11.6571655c-0.0032806-0.0144653-0.0032806-0.0394897-0.0032806-0.0394897
					S127.3368988,416.4802856,115.719223,412.2607422"/>
				<path class="st7" d="M109.9078293,418.7172546c-8.4790344,0.5657959-10.0862045,5.8652039-19.399437,10.6487122
					c-8.3393097,4.2805786-12.4405212,1.9678955-14.8256073,1.0558472c-0.0449295,0.0032959-2.137413-1.232605-2.5326996-1.4246521
					c0,0,5.9157257,8.6454163,16.4824753,10.3328552c2.6485519,0.4259338,7.5052872-0.5078125,9.4595337-3.815155
					c0.3261719,2.3696289-0.3424683,3.4784851-1.0510941,4.356781c10.0957489-2.0184326,15.6724854-8.9386597,20.8344727-10.3755188
					c6.4365845-1.7909851,9.404892,1.7189026,9.404892,1.7189026c-1.9252777-3.6184998-8.3217087-12.1248779-16.8650894-12.5162048
					C110.9171295,418.6762695,110.4189835,418.6820374,109.9078293,418.7172546"/>
			</g>
		</g>
		<g>
			
				<ellipse transform="matrix(0.0030159 -0.9999955 0.9999955 0.0030159 -274.9286194 657.4825439)" class="st4" cx="192.2699127" cy="466.6207886" rx="4.1194768" ry="4.1198125"/>
			<path class="st11" d="M192.1854248,464.1390076c1.4608765-0.0842896,2.6566162,0.9811707,2.7385712,2.3979187
				c0.085083,1.4422913-0.9803009,2.6275024-2.4525452,2.7110901c-1.4608765,0.0875549-2.6870728-0.9610596-2.7738037-2.4058228
				c-0.086731-1.4134521,1.0124207-2.6179504,2.4716492-2.7015381L192.1854248,464.1390076z M192.1790009,464.6549377
				c-1.1121521,0.0650024-1.9012451,1.0285339-1.8288422,2.1495972c0.0610504,1.1328735,0.9561462,1.9863281,2.1020355,1.9163818
				c1.1218567-0.0538025,1.8900604-1.0148926,1.8257141-2.1471252c-0.0658264-1.1200562-0.9465942-1.9888-2.0796509-1.9221497
				L192.1790009,464.6549377z M191.9925537,468.0266113l-0.58815,0.0386353l-0.1494446-2.5344849
				c0.2266083-0.0577698,0.5527802-0.1252441,0.97229-0.1485901c0.4805298-0.0289917,0.7038269,0.0376587,0.8999939,0.1535339
				c0.1413727,0.0995483,0.2684326,0.2940674,0.2796021,0.5254517c0.0161285,0.2965698-0.1847992,0.5262756-0.4949951,0.6347351
				l0.0032959,0.0345764c0.2506104,0.0610352,0.4033356,0.2547607,0.5014191,0.5939331
				c0.0995636,0.3816223,0.157486,0.5391235,0.2249603,0.6065979l-0.638031,0.0345459
				c-0.0852509-0.086731-0.1415253-0.2980347-0.2394562-0.5898438c-0.0610504-0.2748108-0.2234802-0.3904724-0.5513-0.3712463
				l-0.276474,0.0186157L191.9925537,468.0266113z M191.9234314,466.5994568l0.28125-0.0159607
				c0.3246918-0.0185852,0.5817413-0.142334,0.568924-0.4082947c-0.0144958-0.2322083-0.1928864-0.3768616-0.568924-0.3551331
				c-0.1542053,0.0112-0.2603455,0.0306091-0.3213806,0.0514832L191.9234314,466.5994568z"/>
		</g>
		<g>
			<path class="st14" d="M205.0375214,487.7073059c-0.2170563,0.107605-0.4356079,0.2056885-0.6669922,0.2828674l0,0
				c-5.1458588,1.8336182-13.7279358-2.9337463-17.183197-6.1559753l0,0
				c6.3416443,3.8304749,12.2558746-1.9318848,17.903183-0.0024719l0,0c1.6810608,0.5777893,2.433136,1.4848938,2.5136108,2.4476013
				l0,0C207.7036896,485.5377808,206.6526031,486.894165,205.0375214,487.7073059"/>
			<path class="st14" d="M200.5681915,475.9963074c-0.0515137,0.1663818-0.1092529,0.3286133-0.1769104,0.4844971l0,0
				c-1.4993744,3.5380249-7.1483459,5.0350952-9.9382629,4.9105225l0,0c4.2925873-0.940155,4.5512848-7.0510864,7.7718811-8.7184753
				l0,0c0.9643707-0.4934082,1.6553955-0.348053,2.0765228,0.1533508l0,0
				C200.8542023,473.4859924,200.9442291,474.7539673,200.5681915,475.9963074"/>
		</g>
		<polygon class="st5" points="24.6725559,594.6373901 53.5478592,594.6373901 52.0448074,358.4444885 23.2865696,358.4444885 		"/>
		<g>
			<path class="st15" d="M71.8309555,527.3259888l-0.1845703-0.1132812
				c-0.5830078-0.3720703-0.7490234-0.9296875-0.4335938-1.4462891c0.3076172-0.5039062,0.9072266-0.6279297,1.4853516-0.2753906
				l0.1835938,0.1123047l1.6728516,1.0214844l0.2089844,0.1279297c0.7060547,0.4472656,0.8544922,1.0615234,0.4267578,1.7626953
				l-0.1347656,0.2207031l-0.6240234,1.0214844c-0.3222656,0.5283203-0.8076172,0.9082031-1.359375,1.09375
				c-0.9912109,0.3232422-2.4521484,0.0898438-3.546875-0.578125c-2.3369141-1.4267578-3.0966797-4.5234375-1.6855469-6.8359375
				c1.4267578-2.3369141,4.4697266-3.0615234,6.8183594-1.6279297c0.7871094,0.4804688,1.4443359,1.2021484,1.8574219,2.0449219
				c0.2753906,0.5732422,0.2900391,0.9365234,0.0566406,1.3183594c-0.3154297,0.5166016-0.96875,0.6738281-1.4853516,0.359375
				c-0.2460938-0.1503906-0.2460938-0.1503906-0.5546875-0.7783203c-0.1972656-0.4238281-0.5693359-0.8369141-0.9873047-1.0917969
				c-1.3037109-0.7958984-3.0351562-0.3671875-3.8232422,0.9248047c-0.8251953,1.3525391-0.3515625,3.0927734,1.0996094,3.9794922
				c0.6142578,0.375,1.1972656,0.4433594,1.5869141,0.1923828c0.1640625-0.1025391,0.3085938-0.2841797,0.4960938-0.5917969
				c0.0224609-0.0371094,0.0458984-0.0742188,0.0830078-0.1357422L71.8309555,527.3259888z"/>
			<path class="st15" d="M77.1375961,532.65802l-0.1035156,0.2216797c-0.3164062,0.6796875-0.9150391,0.9414062-1.515625,0.6611328
				c-0.6015625-0.2802734-0.7929688-0.9257812-0.4824219-1.5927734l0.1035156-0.2216797l2.8251953-6.0605469l0.109375-0.2353516
				c0.3662109-0.7509766,0.9599609-0.9677734,1.7041016-0.6201172l0.2353516,0.109375l1.3447266,0.6269531
				c1.0195312,0.4746094,1.5859375,0.9296875,1.9638672,1.5517578c0.6279297,1.0078125,0.7148438,2.2880859,0.2275391,3.3330078
				c-0.5664062,1.2148438-1.7167969,1.8076172-3.1914062,1.6611328l0.984375,1.7783203
				c0.2373047,0.4443359,0.2802734,0.8300781,0.1162109,1.1826172c-0.2617188,0.5615234-0.90625,0.8183594-1.4550781,0.5625
				c-0.2216797-0.1035156-0.4082031-0.3173828-0.5576172-0.6103516l-1.7294922-3.5888672L77.1375961,532.65802z
				 M79.2772446,530.0457153c0.5878906,0.2744141,0.8994141,0.3564453,1.2021484,0.3222656
				c0.4882812-0.0585938,0.9179688-0.3671875,1.1308594-0.8242188c0.2314453-0.4960938,0.1572266-1.0878906-0.1962891-1.5224609
				c-0.1933594-0.2333984-0.3310547-0.3134766-0.9580078-0.6054688l-0.71875-0.3349609l-1.2177734,2.6123047L79.2772446,530.0457153
				z"/>
			<path class="st15" d="M84.6610336,535.5691528l-0.5136719,0.5712891l-0.1513672,0.1767578
				c-0.4033203,0.4257812-0.8095703,0.5458984-1.2734375,0.3886719c-0.5595703-0.1904297-0.8974609-0.8076172-0.7119141-1.3535156
				c0.0605469-0.1767578,0.1845703-0.3632812,0.3496094-0.5351562l0.1650391-0.171875l5.3105469-5.7275391
				c0.3349609-0.3583984,0.75-0.4599609,1.2138672-0.3027344c0.4365234,0.1484375,0.7392578,0.5107422,0.7773438,0.9794922
				l0.8105469,7.7783203c0.0556641,0.5068359,0.0371094,0.6523438-0.046875,0.8974609
				c-0.1855469,0.5458984-0.8339844,0.8427734-1.3935547,0.6523438c-0.4638672-0.1572266-0.7216797-0.5195312-0.7773438-1.0703125
				l-0.0214844-0.2509766l-0.0810547-0.7890625L84.6610336,535.5691528z M87.9920883,531.7713013l-1.96875,2.2519531
				l2.1826172,0.7421875L87.9920883,531.7713013z"/>
			<path class="st15" d="M93.7870102,538.5789185l-0.0546875,0.2382812
				c-0.1826172,0.7265625-0.7138672,1.1074219-1.359375,0.9589844c-0.6455078-0.1494141-0.9541016-0.7373047-0.7890625-1.453125
				l0.0556641-0.2392578l1.5009766-6.5136719l0.0576172-0.2529297c0.1875-0.8134766,0.7236328-1.1484375,1.5234375-0.9648438
				l0.2529297,0.0585938l1.5859375,0.3652344c0.3652344,0.0849609,0.8261719,0.2646484,1.2529297,0.4667969
				c0.796875,0.390625,1.3359375,1.0019531,1.6357422,1.8847656c0.2070312,0.6386719,0.2519531,1.34375,0.1064453,1.9755859
				c-0.2949219,1.2773438-1.3310547,2.3105469-2.6113281,2.6064453c-0.5605469,0.1220703-1.0009766,0.109375-1.84375-0.0849609
				l-1.0380859-0.2392578L93.7870102,538.5789185z M95.3573227,535.6140747
				c0.6318359,0.1455078,0.8349609,0.1630859,1.1230469,0.0664062c0.4902344-0.1376953,0.8808594-0.5507812,0.9941406-1.0419922
				c0.1191406-0.5195312-0.0947266-1.1298828-0.5058594-1.4619141c-0.1630859-0.1259766-0.515625-0.2666016-0.9648438-0.3701172
				l-0.8417969-0.1933594l-0.6474609,2.8076172L95.3573227,535.6140747z"/>
			<path class="st15" d="M102.4608383,535.7293091l2.2285156,0.296875l0.2001953,0.0273438
				c0.6123047,0.0957031,0.9658203,0.4921875,0.8935547,1.0351562c-0.0722656,0.5419922-0.5361328,0.8583984-1.1357422,0.7783203
				l-0.2001953-0.0263672l-2.2285156-0.2978516l-0.2587891,1.9423828l2.8994141,0.3867188l0.2285156,0.03125
				c0.6689453,0.1035156,1.0605469,0.5478516,0.9804688,1.1484375c-0.0800781,0.5996094-0.5908203,0.9384766-1.2480469,0.8505859
				l-0.2285156-0.0302734l-3.5556641-0.4746094l-0.2578125-0.0351562c-0.8261719-0.125-1.2099609-0.6259766-1.1015625-1.4404297
				l0.0351562-0.2568359l0.8632812-6.4697266l0.0351562-0.2578125c0.1240234-0.8261719,0.6259766-1.2099609,1.4404297-1.1005859
				l0.2568359,0.0341797l3.4853516,0.4648438l0.2285156,0.0302734c0.6689453,0.1044922,1.0458984,0.546875,0.9658203,1.1474609
				c-0.0800781,0.5996094-0.5761719,0.9404297-1.2333984,0.8525391l-0.2285156-0.0302734l-2.8271484-0.3779297
				L102.4608383,535.7293091z"/>
		</g>
		<g>
			<path class="st11" d="M71.8309555,527.3259888l-0.1845703-0.1132812
				c-0.5830078-0.3720703-0.7490234-0.9296875-0.4335938-1.4462891c0.3076172-0.5039062,0.9072266-0.6279297,1.4853516-0.2753906
				l0.1835938,0.1123047l1.6728516,1.0214844l0.2089844,0.1279297c0.7060547,0.4472656,0.8544922,1.0615234,0.4267578,1.7626953
				l-0.1347656,0.2207031l-0.6240234,1.0214844c-0.3222656,0.5283203-0.8076172,0.9082031-1.359375,1.09375
				c-0.9912109,0.3232422-2.4521484,0.0898438-3.546875-0.578125c-2.3369141-1.4267578-3.0966797-4.5234375-1.6855469-6.8359375
				c1.4267578-2.3369141,4.4697266-3.0615234,6.8183594-1.6279297c0.7871094,0.4804688,1.4443359,1.2021484,1.8574219,2.0449219
				c0.2753906,0.5732422,0.2900391,0.9365234,0.0566406,1.3183594c-0.3154297,0.5166016-0.96875,0.6738281-1.4853516,0.359375
				c-0.2460938-0.1503906-0.2460938-0.1503906-0.5546875-0.7783203c-0.1972656-0.4238281-0.5693359-0.8369141-0.9873047-1.0917969
				c-1.3037109-0.7958984-3.0351562-0.3671875-3.8232422,0.9248047c-0.8251953,1.3525391-0.3515625,3.0927734,1.0996094,3.9794922
				c0.6142578,0.375,1.1972656,0.4433594,1.5869141,0.1923828c0.1640625-0.1025391,0.3085938-0.2841797,0.4960938-0.5917969
				c0.0224609-0.0371094,0.0458984-0.0742188,0.0830078-0.1357422L71.8309555,527.3259888z"/>
			<path class="st11" d="M77.1375961,532.65802l-0.1035156,0.2216797c-0.3164062,0.6796875-0.9150391,0.9414062-1.515625,0.6611328
				c-0.6015625-0.2802734-0.7929688-0.9257812-0.4824219-1.5927734l0.1035156-0.2216797l2.8251953-6.0605469l0.109375-0.2353516
				c0.3662109-0.7509766,0.9599609-0.9677734,1.7041016-0.6201172l0.2353516,0.109375l1.3447266,0.6269531
				c1.0195312,0.4746094,1.5859375,0.9296875,1.9638672,1.5517578c0.6279297,1.0078125,0.7148438,2.2880859,0.2275391,3.3330078
				c-0.5664062,1.2148438-1.7167969,1.8076172-3.1914062,1.6611328l0.984375,1.7783203
				c0.2373047,0.4443359,0.2802734,0.8300781,0.1162109,1.1826172c-0.2617188,0.5615234-0.90625,0.8183594-1.4550781,0.5625
				c-0.2216797-0.1035156-0.4082031-0.3173828-0.5576172-0.6103516l-1.7294922-3.5888672L77.1375961,532.65802z
				 M79.2772446,530.0457153c0.5878906,0.2744141,0.8994141,0.3564453,1.2021484,0.3222656
				c0.4882812-0.0585938,0.9179688-0.3671875,1.1308594-0.8242188c0.2314453-0.4960938,0.1572266-1.0878906-0.1962891-1.5224609
				c-0.1933594-0.2333984-0.3310547-0.3134766-0.9580078-0.6054688l-0.71875-0.3349609l-1.2177734,2.6123047L79.2772446,530.0457153
				z"/>
			<path class="st11" d="M84.6610336,535.5691528l-0.5136719,0.5712891l-0.1513672,0.1767578
				c-0.4033203,0.4257812-0.8095703,0.5458984-1.2734375,0.3886719c-0.5595703-0.1904297-0.8974609-0.8076172-0.7119141-1.3535156
				c0.0605469-0.1767578,0.1845703-0.3632812,0.3496094-0.5351562l0.1650391-0.171875l5.3105469-5.7275391
				c0.3349609-0.3583984,0.75-0.4599609,1.2138672-0.3027344c0.4365234,0.1484375,0.7392578,0.5107422,0.7773438,0.9794922
				l0.8105469,7.7783203c0.0556641,0.5068359,0.0371094,0.6523438-0.046875,0.8974609
				c-0.1855469,0.5458984-0.8339844,0.8427734-1.3935547,0.6523438c-0.4638672-0.1572266-0.7216797-0.5195312-0.7773438-1.0703125
				l-0.0214844-0.2509766l-0.0810547-0.7890625L84.6610336,535.5691528z M87.9920883,531.7713013l-1.96875,2.2519531
				l2.1826172,0.7421875L87.9920883,531.7713013z"/>
			<path class="st11" d="M93.7870102,538.5789185l-0.0546875,0.2382812
				c-0.1826172,0.7265625-0.7138672,1.1074219-1.359375,0.9589844c-0.6455078-0.1494141-0.9541016-0.7373047-0.7890625-1.453125
				l0.0556641-0.2392578l1.5009766-6.5136719l0.0576172-0.2529297c0.1875-0.8134766,0.7236328-1.1484375,1.5234375-0.9648438
				l0.2529297,0.0585938l1.5859375,0.3652344c0.3652344,0.0849609,0.8261719,0.2646484,1.2529297,0.4667969
				c0.796875,0.390625,1.3359375,1.0019531,1.6357422,1.8847656c0.2070312,0.6386719,0.2519531,1.34375,0.1064453,1.9755859
				c-0.2949219,1.2773438-1.3310547,2.3105469-2.6113281,2.6064453c-0.5605469,0.1220703-1.0009766,0.109375-1.84375-0.0849609
				l-1.0380859-0.2392578L93.7870102,538.5789185z M95.3573227,535.6140747
				c0.6318359,0.1455078,0.8349609,0.1630859,1.1230469,0.0664062c0.4902344-0.1376953,0.8808594-0.5507812,0.9941406-1.0419922
				c0.1191406-0.5195312-0.0947266-1.1298828-0.5058594-1.4619141c-0.1630859-0.1259766-0.515625-0.2666016-0.9648438-0.3701172
				l-0.8417969-0.1933594l-0.6474609,2.8076172L95.3573227,535.6140747z"/>
			<path class="st11" d="M102.4608383,535.7293091l2.2285156,0.296875l0.2001953,0.0273438
				c0.6123047,0.0957031,0.9658203,0.4921875,0.8935547,1.0351562c-0.0722656,0.5419922-0.5361328,0.8583984-1.1357422,0.7783203
				l-0.2001953-0.0263672l-2.2285156-0.2978516l-0.2587891,1.9423828l2.8994141,0.3867188l0.2285156,0.03125
				c0.6689453,0.1035156,1.0605469,0.5478516,0.9804688,1.1484375c-0.0800781,0.5996094-0.5908203,0.9384766-1.2480469,0.8505859
				l-0.2285156-0.0302734l-3.5556641-0.4746094l-0.2578125-0.0351562c-0.8261719-0.125-1.2099609-0.6259766-1.1015625-1.4404297
				l0.0351562-0.2568359l0.8632812-6.4697266l0.0351562-0.2578125c0.1240234-0.8261719,0.6259766-1.2099609,1.4404297-1.1005859
				l0.2568359,0.0341797l3.4853516,0.4648438l0.2285156,0.0302734c0.6689453,0.1044922,1.0458984,0.546875,0.9658203,1.1474609
				c-0.0800781,0.5996094-0.5761719,0.9404297-1.2333984,0.8525391l-0.2285156-0.0302734l-2.8271484-0.3779297
				L102.4608383,535.7293091z"/>
		</g>
	</g>
</g>
<linearGradient id="SVGID_2_" gradientUnits="userSpaceOnUse" x1="62.3588867" y1="-37.7865601" x2="116.5485687" y2="-37.7865601" gradientTransform="matrix(0.999 0.0456 -0.0456 0.999 9.549613 463.3566284)">
	<stop  offset="0" style="stop-color:#6B9A4D"/>
	<stop  offset="1" style="stop-color:#5A8343"/>
</linearGradient>
<path class="st16" d="M109.6244888,419.4835205c-8.3296967,0.5587158-9.9085846,5.760498-19.0604477,10.4654236
	c-8.1877365,4.1966553-12.2162704,1.9263-14.5593414,1.0331726c-0.0391846,0.0057373-2.0983505-1.2107849-2.4869537-1.4032288
	c0,0,5.8146362,8.4942322,16.1885452,10.1590271c2.6029282,0.4111633,7.3749466-0.5081787,9.2996063-3.7518616
	c0.3137817,2.3262329-0.3438644,3.4154968-1.0408554,4.276886c9.9160233-1.9879456,15.3925629-8.7799377,20.4674911-10.1908264
	c6.3211212-1.7543335,9.2341309,1.6835632,9.2341309,1.6835632c-1.8873062-3.5482788-8.1708527-11.9022827-16.5643158-12.2889709
	C110.6165543,419.4460449,110.1213837,419.4498596,109.6244888,419.4835205"/>
</svg>
