<?xml version="1.0" encoding="utf-8"?>
<!-- Generator: Adobe Illustrator 21.1.0, SVG Export Plug-In . SVG Version: 6.00 Build 0)  -->
<svg version="1.1" id="Layer_1" xmlns="http://www.w3.org/2000/svg" xmlns:xlink="http://www.w3.org/1999/xlink" x="0px" y="0px"
	 viewBox="0 0 193.3876953 24.9438477" style="enable-background:new 0 0 193.3876953 24.9438477;" xml:space="preserve">
<style type="text/css">
	.st0{fill:#FFFFFF;}
</style>
<g>
	<path class="st0" d="M0,0h4.3085938v20.6000977h12.8925781v3.9238281H0V0z"/>
	<path class="st0" d="M29.3896484,21.4760742c2.0673828,0,3.5380859-0.7705078,5.0097656-2.2070312l2.4873047,2.2070312
		c-1.7509766,2.1025391-4.1689453,3.4677734-7.5673828,3.4677734c-5.3603516,0-9.4941406-3.8886719-9.4941406-9.6337891
		c0-5.3251953,3.7490234-9.6694336,9.0390625-9.6694336c5.8857422,0,8.8632812,4.6245117,8.8632812,9.9848633
		c0,0.3847656-0.0351562,0.7353516-0.0703125,1.15625H24.0644531
		C24.5546875,19.7944336,26.6572266,21.4760742,29.3896484,21.4760742z M33.5234375,13.9790039
		c-0.2802734-2.7329102-1.8916016-4.8701172-4.6943359-4.8701172c-2.5927734,0-4.4140625,1.9970703-4.7998047,4.8701172H33.5234375z
		"/>
	<path class="st0" d="M53.3134766,24.5239258V22.246582c-1.2607422,1.5068359-3.1875,2.6630859-5.9902344,2.6630859
		c-3.5039062,0-6.5869141-1.9970703-6.5869141-5.7109375V19.128418c0-3.9931641,3.1884766-5.9555664,7.4970703-5.9555664
		c2.2421875,0,3.6787109,0.3154297,5.1152344,0.7709961v-0.4555664c0-2.5576172-1.6113281-3.9589844-4.5546875-3.9589844
		c-2.0664062,0-3.6083984,0.4555664-5.2900391,1.15625l-1.15625-3.3984375
		c2.0322266-0.9106445,4.0292969-1.5415039,7.0419922-1.5415039c5.4658203,0,8.1279297,2.8730469,8.1279297,7.8125v10.9658203
		H53.3134766z M53.4189453,16.6762695c-1.0859375-0.4199219-2.5927734-0.7363281-4.2392578-0.7363281
		c-2.6630859,0-4.2392578,1.0869141-4.2392578,2.9785156v0.0703125c0,1.7519531,1.5761719,2.7324219,3.5732422,2.7324219
		c2.8027344,0,4.9052734-1.5761719,4.9052734-3.8886719V16.6762695z"/>
	<path class="st0" d="M66.796875,24.5239258h-4.2392578V6.0258789h4.2392578v4.1689453
		c1.15625-2.7675781,3.2939453-4.6591797,6.5517578-4.5195312v4.484375h-0.2451172
		c-3.7138672,0-6.3066406,2.4174805-6.3066406,7.3222656V24.5239258z"/>
	<path class="st0" d="M81.2626953,24.5239258h-4.2382812V6.0258789h4.2382812v2.8730469
		c1.1914062-1.7519531,2.9082031-3.2583008,5.78125-3.2583008c4.1689453,0,6.5859375,2.8027344,6.5859375,7.1118164v11.7714844
		H89.390625V14.0141602c0-2.8730469-1.4365234-4.5200195-3.9580078-4.5200195c-2.453125,0-4.1699219,1.7167969-4.1699219,4.5893555
		V24.5239258z"/>
	<path class="st0" d="M121.7910156,18.4985352h-0.140625l-7.671875-11.4916992v17.5170898h-4.2392578V0h4.5888672
		l7.4628906,11.5961914L129.2529297,0h4.5898438v24.5239258h-4.3095703V6.9370117L121.7910156,18.4985352z"/>
	<path class="st0" d="M148.4462891,24.9438477c-5.640625,0-9.8095703-4.3085938-9.8095703-9.5986328
		c0-5.3251953,4.2041016-9.7045898,9.8798828-9.7045898s9.8447266,4.309082,9.8447266,9.6342773
		C158.3613281,20.5649414,154.1572266,24.9438477,148.4462891,24.9438477z M148.4462891,9.3540039
		c-3.3984375,0-5.5703125,2.6625977-5.5703125,5.9208984c0,3.2929688,2.3476562,5.9912109,5.640625,5.9912109
		c3.4335938,0,5.6054688-2.6630859,5.6054688-5.9208984C154.1220703,12.0517578,151.7744141,9.3540039,148.4462891,9.3540039z"/>
	<path class="st0" d="M166.9042969,24.5239258h-4.2392578V6.0258789h4.2392578v4.1689453
		c1.15625-2.7675781,3.2939453-4.6591797,6.5517578-4.5195312v4.484375h-0.2451172
		c-3.7138672,0-6.3066406,2.4174805-6.3066406,7.3222656V24.5239258z"/>
	<path class="st0" d="M185.0498047,21.4760742c2.0673828,0,3.5380859-0.7705078,5.0097656-2.2070312l2.4873047,2.2070312
		c-1.7509766,2.1025391-4.1689453,3.4677734-7.5673828,3.4677734c-5.3603516,0-9.4941406-3.8886719-9.4941406-9.6337891
		c0-5.3251953,3.7490234-9.6694336,9.0390625-9.6694336c5.8857422,0,8.8632812,4.6245117,8.8632812,9.9848633
		c0,0.3847656-0.0351562,0.7353516-0.0703125,1.15625h-13.5927734
		C180.2148438,19.7944336,182.3173828,21.4760742,185.0498047,21.4760742z M189.1835938,13.9790039
		c-0.2802734-2.7329102-1.8916016-4.8701172-4.6943359-4.8701172c-2.5927734,0-4.4140625,1.9970703-4.7998047,4.8701172H189.1835938
		z"/>
</g>
</svg>
