<?xml version="1.0" encoding="utf-8"?>
<!-- Generator: Adobe Illustrator 21.1.0, SVG Export Plug-In . SVG Version: 6.00 Build 0)  -->
<svg version="1.1" id="Layer_1" xmlns="http://www.w3.org/2000/svg" xmlns:xlink="http://www.w3.org/1999/xlink" x="0px" y="0px"
	 viewBox="0 0 280.7487488 84.6797409" style="enable-background:new 0 0 280.7487488 84.6797409;" xml:space="preserve">
<style type="text/css">
	.st0{fill:#FFFFFF;}
</style>
<g>
	<g>
		<path class="st0" d="M0.0065373,69.7065964c-0.2001953-7.8505821,4.2001953-15.7509727,12.8505859-15.7011681
			c6.6503897,0.0498047,10.5507803,5.4003906,10.5507803,12.3007774
			c0.0507812,7.4003906-3.9003906,14.4511719-10.9501944,15.4013672C4.3073187,82.856987,0.1569279,76.606987,0.0065373,69.7065964z
			 M12.1579046,66.3560104c0.1494141,3.9501953,1.25,6.2509766,2.9501953,6.0507812s2.7998037-1.7998047,2.7998037-5.8505859
			c-0.2001953-4.4999962-1.4501953-6.1005821-3.1503897-5.9501915
			C13.1579046,60.7564049,12.3073187,61.6060143,12.1579046,66.3560104z"/>
		<path class="st0" d="M43.8366165,54.7056236c4.1503906,0,8.5009766,2.7001953,8.4013672,13.0009727
			c-0.0507812,4.75-1.2001953,8.0507812-2.1503906,11.4501953c-1.1005859,3.9003906-4.25,5.2001953-7.2509766,4.6005859
			c-1.5498047-0.2998047-2.8994141-2.25-2.6494141-4.4003906c0.2998047-2.6503906,0.5498047-5.8505859,0.3994141-9.1005859
			c-0.0996094-2.1503906-0.5498047-4.0498047-2.2998047-4.2001953c-2.1005859-0.2001953-2.9003906,2.2001953-2.6503906,5.3007812
			c0.2001953,2.3994141,0.1503906,4.3496094,0.8505859,8.0498047c0.6992188,3.6005859,0.25,4.7509766-2.0009766,5.2001953
			c-2.649416,0.5507812-4.5000019-2.0996094-5.7998066-5.4501953c-1.6503906-4.2998047-2.6503906-9.1503906-2.8007812-12.9501953
			c-0.1992188-4.1005821,0.9501953-8.8505821,5.2509766-9.2011681c1.9501972-0.1494141,3.5996113,0.1503906,4.0996113,5.7001953
			C36.8864212,57.8062096,40.0368118,54.7056236,43.8366165,54.7056236z"/>
		<path class="st0" d="M69.2516556,77.7573776c2,0,2.4501953-0.25,3.8505859-0.75
			c0.7001953-0.25,1.75-1.1503906,1.8496094-0.0507812c0.0507812,0.3505859-0.3496094,1.1503906-0.8994141,1.8007812
			c-1.1503906,1.3496094-3.8505859,3.25-8.0507812,3.2001953C59.101265,81.856987,55.000679,75.3071823,54.8004837,69.4067917
			c-0.3496094-9.9013634,5.2509766-14.4511681,11.1015625-14.5009727c6.5996094-0.0498047,9.9501953,5.1005859,9.9501953,10.9501915
			c0,3.7509766-2.6005859,7.5507812-7,7.7011719c-2.0507812,0.0498047-3.5009766-1.0507812-4.5507812-2.7509766
			C64.3014603,74.7065964,65.8014603,77.7573776,69.2516556,77.7573776z M69.4518509,70.106987
			c1.25,0,2.5498047-1.0507812,2.5498047-2.2509766c0-1-0.5-2.7001953-2.5-2.7001953
			c-2.25,0-2.6503906,1.6005859-2.6503906,2.8007812C66.851265,69.7065964,68.5016556,70.106987,69.4518509,70.106987z"/>
		<path class="st0" d="M90.0993118,59.1060143h-0.8994141c-1.1503906,0-1.9003906-0.8505859-1.9003906-2.1503906
			c0-1.1503906,0.6503906-1.9003906,1.7998047-1.9003906h1.3007812l0.0498047-0.6992188
			c0-2.6005859,0.25-5.0507812,1.0996094-6.7011719c0.5498047-1.0498047,2.6503906-4.0498047,7.2509766-4.0498047
			c2.6494141,0,5,1.0498047,5,3.0498047c0,1.7001953-1.75,2.3007812-2.4003906,3.4003906
			c-0.4501953,0.75-0.9501953,1.4501953-1.0498047,4.4501953c0,0.3505859,0.1503906,0.5,0.4003906,0.5l1.7998047,0.0498047
			c1.2001953,0,1.7998047,0.7001953,1.7998047,1.9003906c0,1.3505859-0.5996094,2.1503906-1.7998047,2.1503906h-2.3505859
			c-0.4492188,4.7001953-0.6992188,10.2509727,1.5507812,19.2011681c0.7001953,2.7001953,1.3496094,4.4501953-1.1503906,5.6005859
			c-2.9501953,1-4.9003906-0.25-6.8007812-5.2509766c-2.1494141-5.7001953-3.3496094-11.4501953-3.7001953-19.3007774V59.1060143z"
			/>
		<path class="st0" d="M115.2956009,48.055233c-0.9003906,5.8007812-0.9003906,10.4501953-0.9003906,15.3007812
			c-0.0498047,2.9999962,0.25,7.7001915,1.4003906,13.2509727c0.5498047,2.75,0.7998047,4.75-2.6005859,5.5507812
			c-3.7998047,0.7998047-6.5498047-1.9003906-7.0996094-4.8505859c-0.75-3.8505859-0.6005859-7.9501953-0.5507812-11.7509766
			c0.0507812-5.4003868,0.8007812-11.7509727,1.4501953-14.8505821c0.7998047-3.9003906,3.4003906-7.9003906,6.8505859-7.9003906
			C116.1452103,42.805233,115.7956009,44.9546471,115.2956009,48.055233z"/>
		<path class="st0" d="M125.445015,83.856987c-3.8007812,0.1503906-6.8505859-2.25-7.4013672-6.2001953
			c-0.6992188-5.0498047,3.7509766-8.2001953,9.9013672-9.5507812c1.5497971-0.3496094,2.2499924-1.0498047,2.2499924-1.6992188
			c0.0498047-1.6503906-1-2.8007774-4.0507736-2.6005821c-3.2001953,0.2001915-4.0996094,1.2499962-5.2001953,1.2499962
			c-0.7998047,0-1.2998047-0.5996094-1.3496094-2.6503868c-0.1503906-5.0996094,6.4003906-7.3505859,9.2001877-7.3505859
			c5.9501953-0.0498047,10.5507812,3.7509766,10.0009766,11.1015587c-0.3505859,5-1.25,7.2998047,1.0996094,13.1005859
			c0.5498047,1.2998047,0.7998047,1.25,0.6503906,2.2998047c-0.2001953,1.2998047-1.5498047,1.7001953-3.25,1.7001953
			c-1.6005859,0-3.3505859-0.9501953-4.5507812-3.9501953C131.744812,81.1567917,129.3952026,83.7075729,125.445015,83.856987z
			 M130.994812,72.3062057c0-0.75-0.4501953-0.8994141-0.4501953-0.8994141
			c-0.2001953-0.1503906-0.7001953-0.1503906-1.0498047-0.0498047c-2.2499924,0.5498047-3.2997971,2.25-3.0497971,3.9501953
			c0.4492188,3.1494141,5.3496017,3.25,5.150383,0.7998047C131.3453979,74.5064011,130.994812,73.4565964,130.994812,72.3062057z"/>
		<path class="st0" d="M153.9889526,67.4067917c0-3.0507812-0.5498047-6.3505821-1.5-8.7509727
			c-1.5-3.8505859,1.6503906-6,4.8007812-6.2001953c4.4501953-0.2998047,7.5,2.7998047,7.5,11.0507812
			c0,7.7499962-6.8505859,17.8505821-14.4501953,17.8505821c-2.6005859,0-5.4003906-0.75-7.3007812-4.4003906
			c-0.4003906-0.75-1.7001953-3.5996094-0.75-7.9003906c0.4003906-1.75,1.0996094-3.4501953,1.25-5.5996056
			c0.4501953-5.7509766-3.2998047-6.3007812-3.2998047-8.4013672c0-1.5,0.9492188-2.0498047,2.7998047-2.0498047
			c2.25,0,7.0507812,1.2998047,6.6005859,8.7001953c-0.1503906,2.7509727-1.0507812,5.1503868-1.1005859,7.5009727
			c-0.0498047,3.25,0.75,4.4501953,2.4501953,4.4501953C153.5397339,73.6567917,153.9889526,69.7065964,153.9889526,67.4067917z"/>
		<path class="st0" d="M166.6129761,69.7065964c-0.2001953-7.8505821,4.2001953-15.7509727,12.8505859-15.7011681
			c6.6513672,0.0498047,10.5507812,5.4003906,10.5507812,12.3007774
			c0.0507812,7.4003906-3.8994141,14.4511719-10.9501953,15.4013672
			C170.9137573,82.856987,166.7633667,76.606987,166.6129761,69.7065964z M178.7643433,66.3560104
			c0.1494141,3.9501953,1.25,6.2509766,2.9501953,6.0507812s2.7998047-1.7998047,2.7998047-5.8505859
			c-0.2001953-4.4999962-1.4501953-6.1005821-3.1503906-5.9501915
			C179.7643433,60.7564049,178.9137573,61.6060143,178.7643433,66.3560104z"/>
		<path class="st0" d="M208.3034058,54.6060143c3.4501953,0,5.9003906,2.5,5.8007812,6.25
			c-0.1005859,2.9003906-1.1503906,5.3505821-2.3007812,6.9501915c-1,1.4003906-2.0996094,2.1503906-2.75,2.1005859
			c-1.5498047-0.1005859-3.0996094-5.8007812-5.2001953-5.8007812c-1,0-2.25,1.1005859-2.3496094,3.3007812
			c-0.1005859,2.0996094,0.4492188,4.6494141,2.75,11c1.0996094,3.1005859-1.25,5.6503906-4.75,5.6503906
			c-2.9003906,0-5.3007812-2.3496094-5.9003906-5.2998047c-0.8007812-3.8505859-0.5507812-4.8007812-0.8007812-8.2509766
			c-0.1494141-2.25,0.4501953-7.1005821,1.0507812-10.2001915c0.5498047-2.75,3.0498047-3.8505859,4.7001953-3.8505859
			c2.3994141,0,2.0996094,0.25,2.5996094,4.8007812C202.9537964,56.8062096,206.5036011,54.6060143,208.3034058,54.6060143z"/>
	</g>
	<g>
		<g>
			<path class="st0" d="M27.3515625,32.5571861c-0.2998047,4.8496094-6.5009766,9.6005859-14.2509766,9.1503906
				C6.0996094,41.3071861,2.5,37.5073814,2,30.8569889c-0.2001953-2.1503906-0.2998047-3.1503906-0.2998047-5.2509766
				c-0.0507812-6.2001953,0.4492188-9.6005859,0.4492188-9.6005859C0.9492188,14.6060123,0,13.5054264,0,10.5552311
				c0-5.9999995,9.2998047-10.1503906,15.3007812-10.5c12.5507812-0.75,18.1513672,6.25,17.5009766,14.2001953
				c-0.4003906,5.1005859-2.7998047,7.5507812-5.75,9.7509766c-0.6005859,0.4501953-2.4501953,1.5-3.9003906,1.9501953
				C25.7509766,27.006403,27.5517578,29.5562077,27.3515625,32.5571861z M11.75,32.3071861
				c0.25,1.8496094,1.5507812,2.9501953,3.0009766,2.9501953c1.3496094,0,2.4501953-1.0507812,2.4501953-2.8007812
				c0-2.0000019-1.5009766-3.3496113-3.5507812-3.5000019C13.1005859,28.8569889,12.3505859,28.8569889,11.75,29.006403
				C11.6005859,30.5571842,11.6005859,31.1567936,11.75,32.3071861z M11.9501953,24.2065983
				c0.3505859,0.0498047,0.75,0.1494141,1.1005859,0.1494141c2.7001953,0,5.2001953-2.0498047,5.4003906-4.5
				c0.1992188-2.6503906-1.9003906-3.1005859-3.1503906-2.9501953c-0.7001953,0.0498047-2.1503906,0.4003906-2.7001953,0.7998047
				C12.6005859,17.7056217,11.9501953,20.006403,11.9501953,24.2065983z"/>
			<path class="st0" d="M47.8300781,35.7573814c2,0,2.4501953-0.25,3.8505859-0.75
				c0.7001953-0.25,1.75-1.1503906,1.8496094-0.0507812c0.0507812,0.3505859-0.3496094,1.1503906-0.8994141,1.8007812
				c-1.1503906,1.3496094-3.8505859,3.25-8.0507812,3.2001953c-6.9003906-0.1005859-11.0009766-6.6503906-11.2011719-12.5507832
				c-0.3496094-9.9013672,5.2509766-14.4511719,11.1015625-14.5009766
				c6.5996094-0.0498047,9.9501953,5.1005859,9.9501953,10.9501953c0,3.7509766-2.6005859,7.5507812-7,7.7011719
				c-2.0507812,0.0498047-3.5009766-1.0507812-4.5507812-2.7509766
				C42.8798828,32.7066002,44.3798828,35.7573814,47.8300781,35.7573814z M48.0302734,28.1069889
				c1.25,0,2.5498047-1.0507812,2.5498047-2.2509766c0-1-0.5-2.7001953-2.5-2.7001953
				c-2.25,0-2.6503906,1.6005859-2.6503906,2.8007812C45.4296875,27.7065983,47.0800781,28.1069889,48.0302734,28.1069889z"/>
			<path class="st0" d="M82.1787109,11.9556217c3.6503906,0.0498047,5.7509766,1.7001953,7.0009766,5.2001953
				c1.1494141-2.5996094,3.5996094-4.9003906,6.5-4.8505859c3.6005859,0.0507812,7.4501953,2.2001953,7.4501953,9.1005859
				c0,3.2001953-1.7001953,7.2011719-1.4501953,10.0009766c0.1503906,4.4003925,2.9501953,4.2001972,2.5507812,6.7500019
				c-0.4003906,1.9501953-2.0507812,2.7509766-4,3.0507812c-3.7509766,0.5996094-7.4013672-1.5507812-7.2509766-8.0009766
				c0-3.5000019,1.1503906-4.9501972,1.1503906-8.7001972c0-3.1503906-1.9501953-5.7001953-4.5507812-3.6503906
				c-0.2001953,2.5498047-0.3994141,3.8505859-0.3994141,6.25c0,2.3505859,0.8994141,6.2011738,1.3496094,8.7011738
				c0.4501953,2.6503906-1.4501953,4.7998047-5.4501953,4.6503906c-1.6503906,0-4.2001953-0.9501953-4.75-5.0507812
				c-0.6503906-4.0996113,0.25-5.8505878,0.25-9.8505878c0-2.3496094-0.0498047-3.5996094-1.6503906-4.1503906
				c-1.25-0.3994141-2.6503906,0.2001953-2.7998047,2.4003906c-0.3007812,3.9003906,0.2998047,7.4003906,1.1992188,10.8007832
				c0.6503906,2.3505859,0.4501953,3.75-1.7998047,4.4003906c-2.7998047,0.7998047-5.5498047-1.9003906-6.25-5.5009766
				c-0.9003906-4.7001972-1.1503906-6.9003925-1.2001953-10.0498066c0-1.5,0.0498047-3.4501953,0.2001953-5.6503906
				c0.1494141-2.2001953,1.4501953-4.5009766,3.6503906-4.7509766c2.3994141-0.25,3.1494141,1.7001953,3.8496094,3.7001953
				C76.9785156,13.6060123,79.7285156,11.905817,82.1787109,11.9556217z"/>
			<path class="st0" d="M105.9228516,27.7065983c-0.2001953-7.8505859,4.2001953-15.7509766,12.8505859-15.7011719
				c6.6503906,0.0498047,10.5507812,5.4003906,10.5507812,12.3007812
				c0.0507812,7.4003906-3.9003906,14.4511738-10.9501953,15.4013691
				C110.2236328,40.8569908,106.0732422,34.6069908,105.9228516,27.7065983z M118.0742188,24.3560123
				c0.1494141,3.9501953,1.25,6.2509766,2.9501953,6.0507812s2.7998047-1.7998047,2.7998047-5.8505859
				c-0.2001953-4.5-1.4501953-6.1005859-3.1503906-5.9501953C119.0742188,18.756403,118.2236328,19.6060123,118.0742188,24.3560123z
				"/>
			<path class="st0" d="M147.6132812,12.6060123c3.4501953,0,5.9003906,2.5,5.8007812,6.25
				c-0.1005859,2.9003906-1.1503906,5.3505859-2.3007812,6.9501953c-1,1.4003906-2.0996094,2.1503906-2.75,2.1005859
				c-1.5498047-0.1005859-3.0996094-5.8007812-5.2001953-5.8007812c-1,0-2.25,1.1005859-2.3496094,3.3007812
				c-0.1005859,2.0996094,0.4492188,4.6494141,2.75,11.0000019c1.0996094,3.1005859-1.25,5.6503906-4.75,5.6503906
				c-2.9003906,0-5.3007812-2.3496094-5.9003906-5.2998047c-0.8007812-3.8505859-0.5507812-4.8007832-0.8007812-8.2509785
				c-0.1494141-2.25,0.4501953-7.1005859,1.0507812-10.2001953c0.5498047-2.75,3.0498047-3.8505859,4.7001953-3.8505859
				c2.3994141,0,2.0996094,0.25,2.5996094,4.8007812C142.2636719,14.8062077,145.8134766,12.6060123,147.6132812,12.6060123z"/>
			<path class="st0" d="M168.5576172,35.7573814c2,0,2.4501953-0.25,3.8505859-0.75
				c0.7001953-0.25,1.75-1.1503906,1.8496094-0.0507812c0.0507812,0.3505859-0.3496094,1.1503906-0.8994141,1.8007812
				c-1.1503906,1.3496094-3.8505859,3.25-8.0507812,3.2001953c-6.9003906-0.1005859-11.0009766-6.6503906-11.2011719-12.5507832
				c-0.3496094-9.9013672,5.2509766-14.4511719,11.1015625-14.5009766
				c6.5996094-0.0498047,9.9501953,5.1005859,9.9501953,10.9501953c0,3.7509766-2.6005859,7.5507812-7,7.7011719
				c-2.0507812,0.0498047-3.5009766-1.0507812-4.5507812-2.7509766
				C163.6074219,32.7066002,165.1074219,35.7573814,168.5576172,35.7573814z M168.7578125,28.1069889
				c1.25,0,2.5498047-1.0507812,2.5498047-2.2509766c0-1-0.5-2.7001953-2.5-2.7001953
				c-2.25,0-2.6503906,1.6005859-2.6503906,2.8007812C166.1572266,27.7065983,167.8076172,28.1069889,168.7578125,28.1069889z"/>
			<path class="st0" d="M188.4550781,17.155817c-1.25,0-1.8496094-0.8496094-1.8496094-2.0996094
				c0-1.1503906,0.5996094-1.9501953,1.8496094-1.9501953h0.3505859V12.655817c0-0.3505859,0.0498047-0.6503906,0.1503906-1.4003906
				c0.4492188-3.3505855,4.8994141-5.4999995,8-4.9999995c2.2001953,0.3496094,3.2998047,2.2499995,2.8505859,4.4003901
				c-0.1503906,0.4492188-0.2001953,1.2998047-0.25,1.8994141c-0.0507812,0.3505859,0.0996094,0.5,0.3994141,0.5h1.7001953
				c1.2001953,0,1.9501953,0.9501953,1.9501953,1.9501953c0,1.6005859-0.75,2.1005859-1.9501953,2.1005859l-2.75,0.0498047
				c-0.4501953,5.2001953-1.0498047,10.8505859,2.2998047,17.8007832c0.4003906,0.8505859,1.25,1.75,1.2001953,2.6005859
				c-0.0996094,1.4003906-2,2.3496094-3.9003906,1.9501953c-4.5996094-0.9501953-6.6503906-5.4501953-7.8505859-9.7509785
				c-1.0996094-3.9501953-1.75-7.4003906-1.75-11.2001953V17.155817H188.4550781z"/>
			<path class="st0" d="M221.7314453,12.905817c3.2509766-0.1503906,8.1005859,1.2001953,7.5009766,7.75
				c-0.4003906,4.5507812-4.3505859,7.6503906-4.3007812,11.3007812c0.2001953,4.1503925,3.3505859,4.0507832,3.1005859,6.6503925
				c-0.1503906,1.6005859-2.6503906,2.7001953-4.4501953,2.6005859c-2.6005859-0.1503906-6.3007812-2-6.3007812-8.1005859
				c0-3.1005878,0.7001953-4.2500019,0.9003906-7.9003925c0.0996094-2.25-1.1503906-3.8505859-3-3.7001953
				c-1,0.0996094-2.2001953,0.2001953-2.3505859,2.0498047c0,0-0.2001953,5.75,1.5507812,13.0507832
				c0.6494141,2.7001953,0.6992188,4.8007812-2.7509766,5.5507812c-3.8496094,0.8496094-5.25-2-5.8496094-4.8505859
				c-2.9501953-13.9511738,1.1992188-28.3515644,1.1992188-28.3515644c0.4501953-3.3007808,2.1005859-5.4003901,4.8007812-5.1503901
				c3.2998047,0.2998047,3.7001953,2.1503906,2.9003906,5.2499995c0,0-1.9501953,6.7509766-1.8007812,9.6005859
				C214.78125,15.7056217,218.2314453,13.0552311,221.7314453,12.905817z"/>
			<path class="st0" d="M237.9658203,41.8569908c-3.8007812,0.1503906-6.8505859-2.25-7.4013672-6.2001953
				c-0.6992188-5.0498066,3.7509766-8.2001972,9.9013672-9.5507832c1.5498047-0.3496094,2.25-1.0498047,2.25-1.6992188
				c0.0498047-1.6503906-1-2.8007812-4.0507812-2.6005859c-3.2001953,0.2001953-4.0996094,1.25-5.2001953,1.25
				c-0.7998047,0-1.2998047-0.5996094-1.3496094-2.6503906c-0.1503906-5.0996094,6.4003906-7.3505859,9.2001953-7.3505859
				c5.9501953-0.0498047,10.5507812,3.7509766,10.0009766,11.1015625c-0.3505859,5-1.25,7.2998047,1.0996094,13.1005878
				c0.5498047,1.2998047,0.8007812,1.25,0.6503906,2.2998047c-0.2001953,1.2998047-1.5498047,1.7001953-3.25,1.7001953
				c-1.6005859,0-3.3505859-0.9501953-4.5507812-3.9501953C244.265625,39.1567955,241.9160156,41.7075768,237.9658203,41.8569908z
				 M243.515625,30.3062077c0-0.75-0.4501953-0.8994141-0.4501953-0.8994141
				c-0.2001953-0.1503906-0.7001953-0.1503906-1.0498047-0.0498047c-2.25,0.5498047-3.2998047,2.25-3.0498047,3.9501972
				c0.4492188,3.1494141,5.3496094,3.25,5.1503906,0.7998047C243.8662109,32.5064049,243.515625,31.4565983,243.515625,30.3062077z"
				/>
			<path class="st0" d="M272.3457031,12.7056217c4.1503906,0,8.5009766,2.7001953,8.4013672,13.0009766
				c-0.0507812,4.75-1.2001953,8.0507832-2.1503906,11.4501972c-1.1005859,3.9003906-4.25,5.2001953-7.2509766,4.6005859
				c-1.5498047-0.2998047-2.8994141-2.25-2.6494141-4.4003906c0.2998047-2.6503906,0.5498047-5.8505878,0.3994141-9.1005878
				c-0.0996094-2.1503906-0.5498047-4.0498047-2.2998047-4.2001953c-2.1005859-0.2001953-2.9003906,2.2001953-2.6503906,5.3007812
				c0.2001953,2.3994141,0.1503906,4.3496113,0.8505859,8.0498066c0.6992188,3.6005859,0.25,4.7509766-2.0009766,5.2001953
				c-2.6494141,0.5507812-4.5-2.0996094-5.7998047-5.4501953c-1.6503906-4.2998047-2.6503906-9.1503925-2.8007812-12.9501972
				c-0.1992188-4.1005859,0.9501953-8.8505859,5.2509766-9.2011719c1.9501953-0.1494141,3.5996094,0.1503906,4.0996094,5.7001953
				C265.3955078,15.8062077,268.5458984,12.7056217,272.3457031,12.7056217z"/>
		</g>
	</g>
	<g>
		<path class="st0" d="M216.0613708,55.14505c-0.5069275,0-0.5794373-0.3471909-0.5794373-0.52108
			c0-0.173893,0.0725098-0.52108,0.5794373-0.52108h3.952301c0.5069427,0,0.5794373,0.347187,0.5794373,0.52108
			c0,0.1738892-0.0724945,0.52108-0.5794373,0.52108h-1.3751984v4.3873253c0,0.5499611-0.3914032,0.6513481-0.5935822,0.6513481
			c-0.1886292,0-0.5794373-0.101387-0.5794373-0.6513481V55.14505H216.0613708z M221.678894,54.783123
			c0-0.6660881,0.4774628-0.78162,0.7091217-0.78162c0.2605286,0,0.5505524,0.101387,0.7674713,0.5935822l1.867981,4.1261978
			l1.8532562-4.1261978c0.2169189-0.4780502,0.5063324-0.5935822,0.7527313-0.5935822
			c0.2316589,0,0.7238617,0.1155319,0.7238617,0.78162v4.7492523c0,0.5499611-0.3908234,0.6513481-0.5935974,0.6513481
			c-0.2027588,0-0.5935822-0.101387-0.5935822-0.6513481v-3.0551567h-0.0147247l-1.491333,3.1995735
			c-0.202179,0.4344292-0.4485779,0.5216675-0.6513519,0.5216675s-0.4485779-0.0872383-0.6513519-0.5216675l-1.4771729-3.1995735
			h-0.0288849v3.0551567c0,0.5499611-0.3908081,0.6513481-0.5935822,0.6513481c-0.1880341,0-0.5788422-0.101387-0.5788422-0.6513481
			V54.783123z"/>
	</g>
</g>
</svg>
