<?xml version="1.0" encoding="utf-8"?>
<!-- Generator: Adobe Illustrator 21.1.0, SVG Export Plug-In . SVG Version: 6.00 Build 0)  -->
<svg version="1.1" id="Layer_1" xmlns="http://www.w3.org/2000/svg" xmlns:xlink="http://www.w3.org/1999/xlink" x="0px" y="0px"
	 viewBox="0 0 119.4097824 41.3468781" style="enable-background:new 0 0 119.4097824 41.3468781;" xml:space="preserve">
<style type="text/css">
	.st0{fill:#FFFFFF;}
</style>
<g>
	<g>
		<g>
			<g>
				<path class="st0" d="M16.6082668,40.2954865c-7.359376,3.5751953-11.6376953-2.6630859-14.368165-8.2832031
					c-1.4804688-3.0478516-3.7988281-9.2109375-0.7294922-10.7011719c3.1962893-1.5527344,4.3095703,0.2050781,5.1074219,3.8789062
					c0.6376953,2.3808594,0.8759766,3.1943359,1.4111323,4.4013672c1.2617188,2.8115234,2.84375,4.7822266,4.9882812,3.7402344
					c2.0185547-0.9794922,1.3623047-3.4013672,0.6123047-4.9433594c-1.3076172-2.6923828-3.0527344-4.1435547-4.8632812-6.0517578
					c-2.2099605-2.3027344-2.483398-4.4697266,0.8076172-6.3623047c4.1923828-2.8183594,7.812501,2.1738281,9.7412119,6.5693359
					c0.8769531,2.0195312,1.3427734,4.5820312,3.6552734,3.4589844c1.5566406-0.7558594,1.6025391-2.0498047-0.421875-5.4697266
					c-1.4990234-2.5488281-2.7636719-3.5488281-3.9960938-4.9072266c-2.4023438-2.6982422,0.015625-4.9980469,2.9169922-6.4072266
					c4.7939453-2.328125,8.9013672,2.9160156,10.959959,7.1513672c1.3027344,2.7910156,1.6640625,4.8173828,1.8457031,7.2236328
					c0.3203125,4.296875-2.7607403,7.7988281-5.9150372,9.3300781c-2.2705078,1.1035156-4.4023438,1.2089844-7.3369141,0.0908203
					C20.7401028,36.2827911,19.0897121,39.0904083,16.6082668,40.2954865z"/>
				<path class="st0" d="M45.132679,27.9585724c-4.4042969,0.8740234-7.921875-1.1669922-8.8007812-5.8378906
					c-0.9511719-5.1044922,2.1640625-9.4208984,8.7890625-10.890625c1.4228516-0.2841797,2.0048828-1.0507812,1.7910156-2.0410156
					c-0.3808594-1.9882812-2.2832031-2.0253906-4.1054688-1.5859375c-3.2753906,0.8183594-4.9199219,3.7255859-5.4228516,0.7324219
					c-0.4521484-2.6904297,3.8115234-4.9677734,6.3935547-5.4013672c6.5380859-1.1435548,9.8378906,2.9873044,10.4404297,7.7050781
					c0.3720703,3.0595703,0.2333984,6.4736328,2.7841797,11.2207031c0.6123047,1.1015625,0.9667969,0.9541016,0.9804688,1.8876953
					c0.0058594,1.1591797-1.1542969,2.1572266-2.7216797,2.4199219c-1.4755859,0.2480469-3.3291016-0.9121094-4.3828125-3.2333984
					C50.2401009,24.7818146,48.2996712,27.3384552,45.132679,27.9585724z M48.038929,14.4878693
					c-0.109375-0.6513672-0.546875-0.7119141-0.546875-0.7119141c-0.2060547-0.0996094-0.6669922-0.0214844-0.9746094,0.1201172
					c-1.9951172,0.8251953-2.8994141,2.4941406-2.3945312,4.3720703c0.7617188,3.1289062,5.4785156,2.4257812,4.9375,0.3310547
					C48.5975227,17.2486115,48.2205696,15.5718536,48.038929,14.4878693z"/>
				<path class="st0" d="M74.4412766,1.2066194c3.8710938,0.2519531,8.2402344,2.9169922,7.5566406,11.9550781
					c-0.3193359,4.1679688-1.6308594,7.0361328-2.7382812,9.6533203c-1.1601562,2.7021484-3.7207031,4.6074219-6.484375,3.8994141
					c-1.4296875-0.3574219-3.5820312-1.8203125-3.1240234-4.5234375c0.3847656-2.3115234,0.5791016-6.0029297,0.6259766-8.8662109
					c0.0292969-1.8945312,0.0449219-3.5683594-1.578125-3.8056641c-1.9482422-0.3037109-2.8789062,1.7519531-3.1025391,4.4716797
					c-0.1992188,2.3232422,0.2978516,4.0322266,0.8076172,6.2695312c0.7236328,3.2646484-0.3710938,4.2519531-2.4902382,4.4228516
					c-2.4941406,0.1904297-4.4765625-2.4521484-5.5175781-5.1650391c-1.3623047-3.5273438-1.4375-5.9570312-1.359375-9.3027344
					c0.1152344-3.9169922,1.5585938-8.0996094,6.2177734-7.7080078c1.8164101,0.1621094,2.5302773,0.6933594,2.7050819,5.2021484
					C67.7801437,3.5064242,70.8963547,0.9761507,74.4412766,1.2066194z"/>
				<path class="st0" d="M85.7908859,7.7466583c-1.1289062-0.3017578-1.4765625-1.1699219-1.1923828-2.2324219
					c0.2626953-0.9775391,0.9863281-1.5126953,2.1142578-1.2109375l0.3164062,0.0849609l0.1035156-0.3828125
					c0.0791016-0.2978513,0.1923828-0.5400388,0.4541016-1.1533201c1.1689453-2.7402344,5.6777344-3.4912109,8.3632812-2.3164062
					c1.9072266,0.8291015,2.4677734,2.7099609,1.5712891,4.4287109C97.28405,5.3111115,97.0447922,6.022049,96.8631516,6.5200958
					c-0.125,0.2851562-0.0234375,0.4482422,0.2480469,0.5214844l1.5351562,0.4111328
					c1.0839844,0.2900391,1.5449219,1.2792969,1.3164062,2.1289062c-0.3632812,1.3613281-1.1552734,1.6044922-2.2382812,1.3144531
					l-2.4951172-0.6220703c-1.5908203,4.3115234-3.4189453,8.9697266-1.9765625,15.6884766
					c0.1669922,0.8203125,0.7304688,1.7890625,0.4912109,2.5009766c-0.4091797,1.1660156-2.3417969,1.5136719-3.9658203,0.7148438
					c-3.9384766-1.9199219-4.7646484-6.2421875-4.8691406-10.1875c-0.0947266-3.625,0.1044922-6.7148438,0.9697266-9.9453125
					l0.3183594-1.1894531L85.7908859,7.7466583z"/>
				<path class="st0" d="M100.6033859,34.593338c-4.0839844-1.8662109-5.7470703-5.5791016-3.7314453-9.8828125
					c2.2099609-4.6992188,7.2587891-6.3808594,13.4951172-3.7001953c1.3183594,0.6005859,2.2402344,0.3193359,2.6445312-0.6103516
					c0.8525391-1.8349609-0.6689453-2.9775391-2.4042969-3.6855469c-3.1367188-1.2509766-6.1699219,0.1474609-4.8291016-2.5751953
					c1.2050781-2.4472656,5.9951172-1.8046875,8.34375-0.6464844c5.9736328,2.8945312,6.2392578,8.1757812,3.9716797,12.3554688
					c-1.4863281,2.7001953-3.5927734,5.390625-4.2958984,10.7333984c-0.1474609,1.2529297,0.2265625,1.3388672-0.3076172,2.1054688
					c-0.6728516,0.9433594-2.1972656,1.0751953-3.6230469,0.3730469c-1.3417969-0.6611328-2.1679688-2.6865234-1.6660156-5.1865234
					C106.6043625,34.999588,103.5350266,35.9390411,100.6033859,34.593338z M110.830925,25.358963
					c0.2919922-0.5917969-0.0283203-0.8955078-0.0283203-0.8955078c-0.109375-0.2021484-0.5283203-0.4082031-0.8613281-0.4746094
					c-2.0996094-0.4951172-3.8095703,0.3310547-4.4970703,2.1494141c-1.2099609,2.9853516,3.0292969,5.171875,3.8134766,3.1552734
					C109.6697922,27.9263458,110.3445969,26.3462677,110.830925,25.358963z"/>
			</g>
		</g>
	</g>
</g>
</svg>
