<?xml version="1.0" encoding="utf-8"?>
<!-- Generator: Adobe Illustrator 21.1.0, SVG Export Plug-In . SVG Version: 6.00 Build 0)  -->
<svg version="1.1" id="Layer_1" xmlns="http://www.w3.org/2000/svg" xmlns:xlink="http://www.w3.org/1999/xlink" x="0px" y="0px"
	 viewBox="0 0 184.0912933 171.1063995" style="enable-background:new 0 0 184.0912933 171.1063995;" xml:space="preserve">
<style type="text/css">
	.st0{fill:#F47622;}
	.st1{fill:#FDF300;}
	.st2{fill:#EE0095;}
</style>
<g>
	<path class="st0" d="M157.116333,92.6290817c-7.5102386-16.1923294-12.7670593-34.7487335-13.3629303-52.6031876
		c-0.4173126-12.5045719,1.8803101-26.5249901,11.9667511-35.0552635
		c6.8164978-5.7648139,15.6552277-6.9047508,22.8750153-1.3487501c3.0154114,2.320744,5.0080109,5.6286855,5.3929138,9.4362545
		c1.3734131,13.5870399-11.3106995,25.141098-17.1478882,36.2327766
		C160.8187866,60.7326584,155.2440186,76.2190704,157.116333,92.6290817z"/>
	<g>
		<path class="st1" d="M1.0159541,124.2654495c-1.4931467,4.8520279-1.4118698,10.4278946,0.7212861,14.5021744
			c3.0992107,5.9194031,12.3618202,8.4740906,17.8366394,8.9615936c13.2613564,1.1808777,24.4681244-4.2494965,37.2343674-9.6875305
			c27.2845879-11.6223831,58.6743126-0.0659637,67.8119965,3.8264771
			c-4.7442398-4.7071991-10.4851456-9.6795502-17.3630371-14.5293579
			c-11.8914032-8.3849411-26.1461716-14.1327057-39.7504807-17.1301498
			c-14.5625038-3.2085648-28.3234749-4.8826752-43.3803062-2.2435989
			c-5.7806873,1.0132065-12.9026985,3.8210754-17.7374153,8.4601364
			C4.3890781,118.3441925,1.9347752,121.2797089,1.0159541,124.2654495z"/>
	</g>
	<path class="st2" d="M165.9908447,171.1063995c0,0-22.6643066-101.4943848-91.2562332-148.6208801
		c0,0-40.7544823-25.7624054-57.4886131-5.0924492s23.3612442,53.9592285,64.0644684,71.2457504
		S150.7264709,141.8117981,165.9908447,171.1063995z"/>
</g>
</svg>
