<?xml version="1.0" encoding="utf-8"?>
<!-- Generator: Adobe Illustrator 21.1.0, SVG Export Plug-In . SVG Version: 6.00 Build 0)  -->
<svg version="1.1" id="Layer_1" xmlns="http://www.w3.org/2000/svg" xmlns:xlink="http://www.w3.org/1999/xlink" x="0px" y="0px"
	 viewBox="0 0 184.0912933 206.5445099" style="enable-background:new 0 0 184.0912933 206.5445099;" xml:space="preserve">
<style type="text/css">
	.st0{fill:#F47622;}
	.st1{fill:#FDF300;}
	.st2{fill:#FE0000;}
</style>
<g>
	<path class="st0" d="M157.116333,128.0671997c-7.5102386-16.1923294-12.7670593-34.7487335-13.3629303-52.6031876
		c-0.4173126-12.50457,1.8803101-26.5249901,11.9667511-35.0552597c6.8164978-5.7648125,15.6552277-6.9047508,22.8750153-1.3487511
		c3.0154114,2.3207436,5.0080109,5.628685,5.3929138,9.4362564c1.3734131,13.5870399-11.3106995,25.1410942-17.1478882,36.2327766
		C160.8187866,96.1707764,155.2440186,111.6571884,157.116333,128.0671997z"/>
	<path class="st1" d="M121.4167938,79.1543579c-9.1012497-12.1069412-16.7512894-26.5749893-20.408989-41.2862701
		c-2.5617142-10.303215-3.1389389-22.3453808,3.7202148-31.2113647c4.6354599-5.9916911,11.7684784-8.5036144,18.7443008-5.1719704
		c2.9135513,1.3916837,5.1531982,3.7838182,6.1471863,6.8754091c3.5469208,11.0321341-4.9322281,22.8676796-7.8112488,33.1064682
		C118.8383713,52.0285645,116.955719,65.8679123,121.4167938,79.1543579z"/>
	<g>
		<path class="st1" d="M1.0159541,159.7035675c-1.4931467,4.8520355-1.4118698,10.4279022,0.7212861,14.5021667
			c3.0992107,5.9194031,12.3618202,8.4740906,17.8366394,8.9616089c13.2613564,1.1808777,24.4681244-4.2495117,37.2343674-9.6875305
			c27.2845879-11.6223907,58.6743126-0.065979,67.8119965,3.8264618
			c-4.7442398-4.7071838-10.4851456-9.6795349-17.3630371-14.5293427
			c-11.8914032-8.3849487-26.1461716-14.1327209-39.7504807-17.1301575
			c-14.5625038-3.2085571-28.3234749-4.8826752-43.3803062-2.2435913
			c-5.7806873,1.0131989-12.9026985,3.8210754-17.7374153,8.4601288
			C4.3890781,153.7823181,1.9347752,156.7178192,1.0159541,159.7035675z"/>
	</g>
	<path class="st2" d="M165.9908447,206.5445099c0,0-22.6643066-101.4943771-91.2562332-148.6208801
		c0,0-40.7544823-25.7624054-57.4886131-5.0924492s17.6386261,44.6059189,58.3418541,61.8924408
		S150.7264709,177.2499237,165.9908447,206.5445099z"/>
</g>
</svg>
