<?xml version="1.0" encoding="utf-8"?>
<!-- Generator: Adobe Illustrator 21.1.0, SVG Export Plug-In . SVG Version: 6.00 Build 0)  -->
<svg version="1.1" id="Layer_1" xmlns="http://www.w3.org/2000/svg" xmlns:xlink="http://www.w3.org/1999/xlink" x="0px" y="0px"
	 viewBox="0 0 580.0686035 695.9398804" style="enable-background:new 0 0 580.0686035 695.9398804;" xml:space="preserve">
<style type="text/css">
	.st0{fill:#FFFFFF;}
</style>
<g id="TAG">
	<g>
		<g id="BE">
			<path class="st0" d="M300.6835022,120.4485474c-1.020752,16.5119171-22.134491,32.6880341-48.521637,31.1551971
				c-23.8368835-1.3632507-36.0928192-14.3007965-37.7952271-36.9440079
				c-0.6816101-7.3216324-1.0207672-10.7264328-1.0207672-17.8784943
				c-0.1728973-21.1103973,1.5295105-32.6880188,1.5295105-32.6880188
				c-4.0864258-4.7647209-7.3183289-8.5119896-7.3183289-18.5567932c0-20.4287682,31.6639252-34.5599937,52.0960236-35.7503433
				c42.7328186-2.5535951,61.8016663,21.2799644,59.5872192,48.3487434
				c-1.3632507,17.3664513-9.5327759,25.7088585-19.5775452,33.2000694
				c-2.0448914,1.5328217-8.3424072,5.107193-13.2800598,6.6400146
				C295.2338257,101.5492859,301.3651123,110.2308426,300.6835022,120.4485474z M247.563385,119.5973511
				c0.8512115,6.2975388,5.2801056,10.0448151,10.2177429,10.0448151c4.5950928,0,8.3423767-3.5776978,8.3423767-9.536087
				c0-6.8095932-5.1105042-11.4047318-12.0896759-11.9167786c-1.8719635-0.3391495-4.4255676-0.3391495-6.4704437,0.1695786
				C247.0546722,113.6389618,247.0546722,115.6805038,247.563385,119.5973511z M248.2450104,92.0165253
				c1.1936798,0.1695709,2.5536041,0.5087204,3.7472687,0.5087204c9.193634,0,17.7055969-6.9791641,18.3872375-15.3215714
				c0.6782837-9.0240326-6.470459-10.5568619-10.7264404-10.0448074c-2.3840332,0.1695709-7.32164,1.3632507-9.1936035,2.7231674
				C250.4594727,69.8820343,248.2450104,77.7157288,248.2450104,92.0165253z"/>
		</g>
	</g>
</g>
<g id="TAG_1_">
	<g>
		<g id="ONE">
			<path class="st0" d="M411.262146,517.4435425c7.3747559,0,9.03479-0.921814,14.1985474-2.765564
				c2.5819092-0.9217529,6.4529114-4.2418823,6.8201904-0.1871948c0.1872559,1.2927856-1.2891235,4.2419434-3.3164368,6.6401978
				c-4.2419434,4.9765015-14.1985779,11.9839478-29.6862793,11.8002319
				c-25.4443359-0.3708496-40.5647583-24.5224609-41.3029175-46.2793884
				c-1.2891541-36.5100708,19.3623047-53.2869263,40.9356384-53.4705811
				c24.3352356-0.1836243,36.690094,18.8078003,36.690094,40.3775024c0,13.8312378-9.5893555,27.8425598-25.811615,28.3971252
				c-7.5620422,0.1836548-12.9094238-3.8746338-16.7804565-10.1438904
				C393.0089111,506.1941833,398.539978,517.4435425,411.262146,517.4435425z M412.0003357,489.2337036
				c4.6092224,0,9.4020996-3.8746338,9.4020996-8.3002014c0-3.6873779-1.843689-9.9566345-9.2184448-9.9566345
				c-8.2966003,0-9.7729797,5.901947-9.7729797,10.3275452
				C402.4110107,487.7572937,408.4966125,489.2337036,412.0003357,489.2337036z"/>
		</g>
	</g>
</g>
<g id="TAG_2_">
	<g>
		<g id="FLAVOR">
			<path class="st0" d="M547.1860352,559.3494263c14.7921753,0,25.2970581,10.7183838,24.8699951,26.7959595
				c-0.4312744,12.4349976-4.9321289,22.9398804-9.8642578,29.7979736c-4.2873535,6.0039673-9.00177,9.2194824-11.7902222,9.0059204
				c-6.6445923-0.4312134-13.2891846-24.8699951-22.295105-24.8699951c-4.2873535,0-9.6465454,4.7185669-10.0736084,14.1516113
				c-0.4312134,9.00177,1.9259644,19.9337158,11.7902222,47.1609497
				c4.7144165,13.2932739-5.3591309,24.2252808-20.3648987,24.2252808c-12.4350281,0-22.7263794-10.0736694-25.2970886-22.722229
				c-3.4332581-16.5087891-2.3613892-20.5826416-3.4332581-35.3748779
				c-0.6405945-9.6464844,1.9301758-30.442749,4.5050964-43.7318726
				c2.3572083-11.7901611,13.075592-16.5087891,20.1513977-16.5087891c10.2871399,0,9.0017395,1.0718384,11.1454773,20.5826416
				C524.2503662,568.7824097,539.4696045,559.3494263,547.1860352,559.3494263z"/>
		</g>
	</g>
</g>
<g>
	<path class="st0" d="M572.352417,560.992981v0.9917603h-1.9170532v4.9998779h-1.1890259v-4.9998779h-1.9171143v-0.9917603
		H572.352417z M578.8264771,566.9846191l-0.2205811-3.5239258c-0.0215454-0.4627075-0.0215454-1.03479-0.0430298-1.6732178
		h-0.0663452c-0.1542358,0.5272217-0.3300171,1.2320557-0.5057373,1.7825928l-1.0795898,3.3266602h-1.2338867l-1.0795898-3.4145508
		c-0.109375-0.4626465-0.2851562-1.1674805-0.4178467-1.6947021h-0.0663452c0,0.5505371-0.0215454,1.1226196-0.0448608,1.6732178
		l-0.21875,3.5239258h-1.1459961l0.4411621-5.9916382h1.7826538l1.0365601,2.9303589
		c0.1309204,0.4627075,0.2420654,0.9020996,0.3963013,1.5189819h0.0215454
		c0.1542358-0.5505371,0.2869263-1.0562744,0.4178467-1.4974365l1.0365601-2.9519043h1.7180176l0.4609375,5.9916382H578.8264771z"/>
</g>
<g id="TAG_3_">
	<g>
		<g id="FLAVOR_1_">
			<path class="st0" d="M368.4443359,624.0910034c-0.8583069-33.6582642,18.0077209-67.5300293,55.0950012-67.3164673
				c28.5168152,0.2134399,45.2349854,23.1533203,45.2349854,52.7377319
				c0.2177124,31.7281494-16.7181702,61.9573364-46.9473877,66.031189
				C386.8833008,680.4714355,369.0890808,653.675415,368.4443359,624.0910034z M420.5415649,609.7258301
				c0.640564,16.9359131,5.3591614,26.8001709,12.6485291,25.9418945
				c7.2893372-0.8583374,12.0037537-7.7164307,12.0037537-25.0835571
				c-0.8583069-19.2931519-6.2174988-26.1553955-13.5068359-25.5106201
				C424.8289185,585.7183228,421.1821289,589.3609009,420.5415649,609.7258301z"/>
		</g>
	</g>
</g>
<g id="TAG_4_">
	<g>
		<g id="FLAVOR_2_">
			<path class="st0" d="M314.3206177,614.230896c0-13.0797729-2.3572083-27.2271729-6.4309998-37.5184937
				c-6.4310608-16.5088501,7.0758057-25.7241211,20.5826416-26.5824585
				c19.0795898-1.2854004,32.1551514,12.0037231,32.1551514,47.3786011c0,33.2269897-29.3708801,76.5318604-61.953125,76.5318604
				c-11.1495972,0-23.1533813-3.2155762-31.3010254-18.8660889c-1.7166443-3.2155151-7.2893677-15.4328003-3.2155151-33.8717651
				c1.7166138-7.5028687,4.7144165-14.7922363,5.3591614-24.0075073
				c1.9301758-24.6564941-14.1474152-27.0137329-14.1474152-36.0196533c0-6.4310303,4.0696259-8.788269,12.0037689-8.788269
				c9.6465454,0,30.2292175,5.5726929,28.2990723,37.3008423c-0.6448059,11.7944336-4.5050964,22.081543-4.7186279,32.1593628
				c-0.2135315,13.9338989,3.2155457,19.0795288,10.5048523,19.0795288
				C312.3946838,641.0268555,314.3206177,624.0910034,314.3206177,614.230896z"/>
		</g>
	</g>
</g>
<g id="TAG_5_">
	<g>
		<g id="FLAVOR_3_">
			<path class="st0" d="M191.9425964,684.758728c-16.2953033,0.6448364-29.3709106-9.6464844-31.7323151-26.5824585
				c-2.9977875-21.6502686,16.0817719-35.1571045,42.4506989-40.9475708
				c6.6445618-1.4988403,9.6465454-4.5008545,9.6465454-7.2851562c0.2135315-7.0758057-4.2873535-12.0079346-17.3671417-11.1495972
				c-13.7203827,0.8583374-17.5764771,5.3591919-22.2950897,5.3591919c-3.4290466,0-5.5727234-2.5707397-5.7862549-11.3631592
				c-0.6447754-21.8638306,27.4407654-31.5145874,39.4445038-31.5145874
				c25.5106049-0.213562,45.2349701,16.0817261,42.8777618,47.5963135
				c-1.5030823,21.4368286-5.3592072,31.296875,4.7144165,56.1668701c2.3572083,5.5727539,3.4290466,5.3592529,2.7884521,9.8601074
				c-0.8583069,5.5727539-6.6445618,7.2893066-13.9338989,7.2893066c-6.8622894,0-14.3651581-4.0737915-19.5108337-16.9358521
				C218.9520874,673.1820679,208.878479,684.1181641,191.9425964,684.758728z M215.7365723,635.2364502
				c0-3.2155151-1.9301453-3.8561401-1.9301453-3.8561401c-0.8583221-0.6447754-3.0019989-0.6447754-4.500885-0.213501
				c-9.6465607,2.3571777-14.1474457,9.6466064-13.075592,16.9359131
				c1.9259491,13.5026855,22.9356689,13.9338989,22.081543,3.4290161
				C217.2396698,644.6694946,215.7365723,640.1685791,215.7365723,635.2364502z"/>
		</g>
	</g>
</g>
<g id="TAG_6_">
	<g>
		<g id="FLAVOR_4_">
			<path class="st0" d="M148.4284363,531.263855c-3.8603058,24.8699951-3.8603058,44.8037109-3.8603058,65.5999756
				c-0.2135315,12.8619995,1.0718536,33.0134277,6.0039825,56.8115845
				c2.3572083,11.7902832,3.4290466,20.3649902-11.1496429,23.7981567
				c-16.2911072,3.4291382-28.081337-8.147583-30.4385452-20.7961426
				c-3.2155151-16.5088501-2.5749283-34.0853271-2.3613968-50.3806152
				c0.21772-23.1533813,3.4332352-50.3806152,6.2175064-63.6697998
				c3.4290466-16.7223511,14.5786819-33.8717651,29.3708878-33.8717651
				C152.0710144,508.755249,150.572113,517.9705811,148.4284363,531.263855z"/>
		</g>
	</g>
</g>
<g id="TAG_7_">
	<g>
		<g id="FLAVOR_5_">
			<path class="st0" d="M40.402977,578.6425171h-3.8561058c-4.9321365,0-8.1476536-3.6467285-8.1476536-9.2194824
				c0-4.9321289,2.788456-8.147644,7.7164021-8.147644h5.5769157l0.2135277-2.9978027
				c0-11.1496582,1.0718384-21.65448,4.7144203-28.7303467c2.3572044-4.5008545,11.363163-17.3629761,31.0875092-17.3629761
				c11.3589859,0,21.4367905,4.5009766,21.4367905,13.0756836c0,7.2893066-7.5028763,9.8641968-10.2913361,14.5786133
				c-1.9301453,3.2155762-4.073822,6.2175293-4.500885,19.0795898c0,1.5031128,0.6447754,2.1436768,1.7166138,2.1436768
				l7.7164078,0.213562c5.1456604,0,7.7164078,3.0020142,7.7164078,8.147644c0,5.7904053-2.5707474,9.2194824-7.7164078,9.2194824
				H83.7077866c-1.9259644,20.1514282-2.9978027,43.949585,6.6487427,82.3222046
				c3.0019913,11.5767212,5.7862625,19.0795898-4.9321289,24.0117188
				c-12.6485367,4.2874146-21.0097198-1.0718384-29.1573677-22.5127563
				c-9.2153053-24.4387817-14.3609695-49.0910645-15.8640556-82.7493286V578.6425171z"/>
		</g>
	</g>
</g>
<g id="TAG_8_">
	<g>
		<g id="ONE_1_">
			<path class="st0" d="M317.5473328,432.4430542c15.3040466,0,31.3463135,9.9566345,30.9790039,47.9395142
				c-0.1872559,17.5150146-4.4255676,29.6862488-7.9293213,42.2211914
				c-4.0582581,14.3822021-15.6713562,19.1750488-26.7370605,16.9640503
				c-5.7147217-1.1054688-10.6912231-8.2965698-9.7693787-16.2258911c1.1054993-9.7729492,2.0273438-21.5733032,1.4727783-33.557251
				c-0.3672791-7.9293213-2.0273438-14.9331665-8.4802551-15.4877319c-7.745636-0.7381897-10.6948242,8.1129456-9.7729797,19.54599
				c0.7381897,8.8475342,0.5545654,16.0386353,3.1364441,29.6826477
				c2.5782471,13.2766724,0.9218445,17.5186157-7.3783569,19.1750488
				c-9.7694092,2.0309448-16.5932007-7.7420654-21.3860474-20.0968628
				c-6.0856323-15.855011-9.7730103-33.7409363-10.3275452-47.7522583
				c-0.7346039-15.1203918,3.5037079-32.635437,19.3623047-33.9281921
				c7.1911011-0.5509644,13.2731323,0.5545654,15.1167908,21.0187683
				C291.919342,443.8760986,303.5360107,432.4430542,317.5473328,432.4430542z"/>
		</g>
	</g>
</g>
<g id="TAG_9_">
	<g>
		<g id="ONE_2_">
			<path class="st0" d="M155.9293518,487.7572937c-0.738205-28.9480286,15.4876862-58.0797424,47.3849335-57.8961182
				c24.5224915,0.1836548,38.9046936,19.913269,38.9046936,45.357605
				c0.1872559,27.2880554-14.3822021,53.2868958-40.3774872,56.7906799
				C171.7879333,536.2477417,156.4838867,513.2016602,155.9293518,487.7572937z M200.7359924,475.4024353
				c0.5509491,14.5658569,4.6092377,23.0496826,10.8784943,22.3115234
				c6.2692566-0.7381897,10.3239288-6.6365662,10.3239288-21.5733337
				c-0.738205-16.5932007-5.3474121-22.4951477-11.6166687-21.9405823
				C204.4233856,454.7545471,201.2869415,457.8873901,200.7359924,475.4024353z"/>
		</g>
	</g>
</g>
<g id="TAG_10_">
	<g>
		<g id="THAN">
			<path class="st0" d="M405.9293823,340.4284973c11.4462891,0,23.4447021,7.4468079,23.1699829,35.8551636
				c-0.1400146,13.0999451-3.309967,22.203125-5.930481,31.5783081
				c-3.0353088,10.7568054-11.7210388,14.3415222-19.997345,12.6878662
				c-4.274231-0.8268433-7.9962769-6.2052612-7.3067932-12.1357422c0.8268433-7.3094788,1.5162964-16.1352539,1.101532-25.0983887
				c-0.2746887-5.9305115-1.5162964-11.1688843-6.3425903-11.5836182c-5.7931824-0.552124-7.9989624,6.0678711-7.3094482,14.618927
				c0.5520935,6.6172791,0.4147339,11.995697,2.3457947,22.2004089c1.9283752,9.9299927,0.6894531,13.1026306-5.5184631,14.3415527
				c-7.3067627,1.5189819-12.4104614-5.7904968-15.9951782-15.0310059
				c-4.5516052-11.8583679-7.3094482-25.2357178-7.7242432-35.7151489
				c-0.549408-11.3089294,2.6205139-24.4088745,14.4815979-25.3757629
				c5.378418-0.4120789,9.9273071,0.4147644,11.3062439,15.7204895
				C386.7615662,348.9795532,395.4499817,340.4284973,405.9293823,340.4284973z"/>
		</g>
	</g>
</g>
<g id="TAG_11_">
	<g>
		<g id="THAN_1_">
			<path class="st0" d="M311.113678,420.8245239c-10.4820862,0.4147949-18.8930969-6.2052307-20.4120789-17.0993958
				c-1.9283752-13.9267578,10.3447571-22.6151733,27.3068237-26.3399353
				c4.2741699-0.9642029,6.2052002-2.8952637,6.2052002-4.6862488c0.1373596-4.5515747-2.757843-7.7242432-11.1715698-7.1721191
				c-8.8257751,0.552124-11.3062439,3.4473572-14.3415222,3.4473572c-2.20578,0-3.5847168-1.653656-3.7220459-7.3094788
				c-0.4147949-14.0641174,17.6515198-20.2720642,25.3730469-20.2720642
				c16.4099426-0.1373291,29.0978088,10.3447571,27.581543,30.6168213
				c-0.9669189,13.7894287-3.4473572,20.132019,3.0325623,36.1299133c1.5162964,3.5846863,2.2084656,3.4473572,1.7937317,6.3425903
				c-0.552124,3.5847168-4.2742004,4.6889038-8.9631348,4.6889038c-4.4142151,0-9.2405396-2.6205139-12.5505371-10.894165
				C328.487793,413.3777161,322.0078735,420.4124756,311.113678,420.8245239z M326.4194031,388.9688416
				c0-2.0684204-1.2415771-2.4804993-1.2415771-2.4804993c-0.552124-0.4147339-1.9310608-0.4147339-2.8952332-0.1373291
				c-6.2052307,1.5162659-9.1004639,6.2052307-8.4110107,10.894165c1.2388916,8.68573,14.7536011,8.9631348,14.2041626,2.20578
				C327.386261,395.0367432,326.4194031,392.1414795,326.4194031,388.9688416z"/>
		</g>
	</g>
</g>
<g id="TAG_12_">
	<g>
		<g id="THAN_2_">
			<path class="st0" d="M266.3411865,340.9805908c8.9658203-0.4147644,22.3404541,3.3099976,20.6867981,21.3735962
				c-1.1042175,12.5505371-11.9983826,21.098877-11.8610229,31.1662292
				c0.5520935,11.4462891,9.240509,11.1715698,8.5510559,18.3410034c-0.4147949,4.4142456-7.3094788,7.4468384-12.2731628,7.1721191
				c-7.1720886-0.4147644-17.3768005-5.5157776-17.3768005-22.3404846c0-8.5510559,1.9310608-11.7210083,2.4831848-21.7883301
				c0.2746887-6.2052612-3.1726532-10.6195068-8.2736511-10.2047119c-2.7579041,0.2746887-6.0678864,0.552124-6.4826355,5.6531067
				c0,0-0.552124,15.8578491,4.2768555,35.9925232c1.7910156,7.4468384,1.92836,13.2400208-7.5868683,15.3084106
				c-10.6167755,2.3431396-14.4788971-5.5157471-16.1325378-13.3773499
				c-8.1363068-38.4756775,3.3072968-78.1903076,3.3072968-78.1903076
				c1.2415924-9.1031799,5.7931824-14.8936157,13.2400055-14.2041626
				c9.1004639,0.8268127,10.2047119,5.9305115,7.9989319,14.4788818c0,0-5.378418,18.6184387-4.9663391,26.4772949
				C247.1733398,348.7021179,256.6885986,341.3926392,266.3411865,340.9805908z"/>
		</g>
	</g>
</g>
<g id="TAG_13_">
	<g>
		<g id="THAN_3_">
			<path class="st0" d="M174.5688477,352.7015991c-3.4473572,0-5.1010132-2.3431396-5.1010132-5.7904968
				c0-3.1726379,1.653656-5.378418,5.1010132-5.378418h0.9668579v-1.2415771c0-0.9668579,0.1373596-1.7937012,0.4147644-3.8620911
				c1.2388916-9.2405396,13.5120087-15.1683655,22.0630646-13.7894287
				c6.0678864,0.9642029,9.1004791,6.2052307,7.8615875,12.1357727c-0.4147491,1.2388916-0.5521088,3.5846863-0.6894684,5.2383423
				c-0.1400452,0.9668884,0.2747192,1.3789368,1.1015472,1.3789368h4.6889191c3.3100128,0,5.378418,2.6205444,5.378418,5.378418
				c0,4.4142151-2.0684052,5.7931824-5.378418,5.7931824l-7.5841675,0.1373596
				c-1.2415924,14.3415222-2.8952332,29.9246521,6.3425903,49.0924683c1.1042328,2.3457947,3.4473572,4.8262939,3.3099976,7.1720886
				c-0.274704,3.8621521-5.5157623,6.4799805-10.7568054,5.378418
				c-12.6851959-2.6205139-18.3410034-15.0310059-21.6510162-26.8920288
				c-3.0325928-10.894165-4.8262939-20.4094238-4.8262939-30.888855v-3.8620911H174.5688477z"/>
		</g>
	</g>
</g>
<g id="TAG_14_">
	<g>
		<g id="MORE">
			<path class="st0" d="M529.4327393,289.1945801c10.3788452,0,12.7150879-1.2973633,19.9823608-3.8920898
				c3.633606-1.2973328,9.081543-5.9698792,9.5984497-0.2635193c0.2635498,1.8193665-1.81427,5.9698792-4.6674805,9.3450623
				c-5.9698486,7.0037231-19.9823608,16.8656921-41.7790527,16.6072388
				c-35.8092041-0.5220032-57.0889587-34.5118408-58.1278381-65.1315918
				c-1.8143005-51.3825836,27.2496338-74.9935608,57.6109314-75.2519989
				c34.248291-0.2584686,51.6359863,26.4691925,51.6359863,56.8254089c0,19.4654999-13.4956055,39.1843719-36.3261108,39.9648285
				c-10.642395,0.2584534-18.1681519-5.4530029-23.6160278-14.276062
				C503.7439575,273.3627319,511.5281067,289.1945801,529.4327393,289.1945801z M530.4716187,249.4933014
				c6.4868164,0,13.2320557-5.4529724,13.2320557-11.6813202c0-5.1894379-2.5947266-14.0124969-12.9735718-14.0124969
				c-11.6762695,0-13.7540894,8.3061371-13.7540894,14.5344849
				C516.9760132,247.4154968,525.5405884,249.4933014,530.4716187,249.4933014z"/>
		</g>
	</g>
</g>
<g id="TAG_15_">
	<g>
		<g id="MORE_1_">
			<path class="st0" d="M420.7432556,169.0518494c17.9045715,0,30.619751,12.9736176,30.1028137,32.4340363
				c-0.5219727,15.0514069-5.9698792,27.7665558-11.9397583,36.0676422
				c-5.1894226,7.2672424-10.895813,11.1593323-14.2709656,10.9008789
				c-8.0426331-0.5219879-16.0852661-30.1028442-26.9861145-30.1028442c-5.1894531,0-11.6762695,5.711441-12.1931763,17.1292267
				c-0.5220032,10.895813,2.3311768,24.1278839,14.2709656,57.0838776
				c5.7063293,16.090332-6.4867859,29.3223877-24.6498718,29.3223877c-15.0513916,0-27.5080872-12.1931458-30.619751-27.5030212
				c-4.1555786-19.9824219-2.8582153-24.9133911-4.1555786-42.8179932
				c-0.7753906-11.676239,2.3362427-36.8480988,5.4529419-52.9333344
				c2.8531799-14.2709808,15.8268127-19.9824066,24.3914185-19.9824066c12.4515991,0,10.895813,1.297348,13.490509,24.9133759
				C392.9817505,180.4696503,411.4032593,169.0518494,420.7432556,169.0518494z"/>
		</g>
	</g>
</g>
<g id="TAG_16_">
	<g>
		<g id="MORE_2_">
			<path class="st0" d="M204.3930969,247.4154968c-1.0389099-40.7401733,21.7966766-81.7388153,66.6873779-81.4803467
				c34.5118408,0.2584534,54.7527161,28.0250244,54.7527161,63.8342133
				c0.2635193,38.4039154-20.2408752,74.9935455-56.8254395,79.9245453
				C226.7117615,315.6586914,205.1735382,283.2247009,204.3930969,247.4154968z M267.4519348,230.027832
				c0.7753601,20.4992981,6.4867859,32.4390869,15.3098755,31.400177
				c8.8230591-1.0389099,14.5294189-9.3399811,14.5294189-30.3612976
				c-1.0389099-23.352478-7.5256958-31.6586456-16.3487549-30.8782043
				C272.6413574,200.9689636,268.2272949,205.3779755,267.4519348,230.027832z"/>
		</g>
	</g>
</g>
<g id="TAG_17_">
	<g>
		<g id="MORE_3_">
			<path class="st0" d="M81.174202,165.6766815c18.9434967,0.2584686,29.8443756,8.8230743,36.3311768,26.9861298
				c5.9648209-13.4905243,18.679985-25.4303131,33.7313919-25.1718445
				c18.6850281,0.2635345,38.6623688,11.4177856,38.6623688,47.2269745c0,16.6072388-8.8230743,37.3700867-7.5257111,51.8995209
				c0.7804413,22.8355713,15.3098755,21.7966919,13.2371368,35.0287476
				c-2.0777893,10.1204224-10.6424103,14.276062-20.7577667,15.8318481
				c-19.4654999,3.1116333-38.4089966-8.0476685-37.6285553-41.5205994c0-18.1630859,5.9699097-25.6887817,5.9699097-45.1491852
				c0-16.3487854-10.1204376-29.5808563-23.6160431-18.943512c-1.0388947,13.2320709-2.072731,19.9824066-2.072731,32.4340363
				c0,12.1982117,4.6674652,32.1806335,7.0037308,45.1542358c2.3362579,13.7540588-7.5257187,24.9083252-28.283493,24.1329346
				c-8.5646057,0-21.7966766-4.9309692-24.6498566-26.2107544c-3.3751678-21.2746582,1.2973557-30.3612671,1.2973557-51.1190491
				c0-12.193161-0.2584534-18.6799622-8.5646057-21.5382233c-6.486805-2.0727386-13.754055,1.0389099-14.5294304,12.4567108
				c-1.5608902,20.2408447,1.5558205,38.4039001,6.223278,56.0500488
				c3.3751678,12.1982117,2.3362656,19.4603882-9.3399849,22.8355713
				c-14.5294304,4.1505432-28.8004017-9.8619995-32.4340248-28.5469971C9.5558195,253.1218567,8.2584591,241.704071,8,225.3603516
				c0-7.7841492,0.2584591-17.9045868,1.0389023-29.3223724c0.7753763-11.4178009,7.5257072-23.3575592,18.9434986-24.6549377
				c12.4516239-1.2973633,16.3437061,8.8230743,19.9773312,19.2019653
				C54.1880798,174.2413025,68.459053,165.4182281,81.174202,165.6766815z"/>
		</g>
	</g>
</g>
<g id="TAG_18_">
	<g>
		<g id="BE_1_">
			<path class="st0" d="M370.4086304,131.3445587c6.8096008,0,8.3424072-0.8511963,13.1104431-2.5535889
				c2.3840332-0.8512039,5.9584045-3.9168549,6.2975769-0.1729126c0.1728821,1.1936798-1.1903687,3.9168549-3.0623474,6.1313019
				c-3.9168396,4.5951385-13.1104431,11.065567-27.4112549,10.8960114
				c-23.4943848-0.3424835-37.4560547-22.6432266-38.1376953-42.7328339
				c-1.1903076-33.7121277,17.8785095-49.2032738,37.7985535-49.3728485
				c22.4703064-0.1695747,33.8783569,17.3664474,33.8783569,37.283165c0,12.7713013-8.8544617,25.7088547-23.8335571,26.2209015
				c-6.9824829,0.1695786-11.920105-3.5776901-15.4944458-9.3665009
				C353.5542603,120.9572754,358.661438,131.3445587,370.4086304,131.3445587z M371.0902405,105.2965546
				c4.256012,0,8.6815796-3.5776978,8.6815796-7.6641159c0-3.4047928-1.7023926-9.1936111-8.5119934-9.1936111
				c-7.6607971,0-9.0240479,5.4496689-9.0240479,9.536087C362.2357788,103.9333038,367.8550415,105.2965546,371.0902405,105.2965546
				z"/>
		</g>
	</g>
</g>
</svg>
